<?xml version="1.0" encoding="utf-8"?>
<!-- Generator: Adobe Illustrator 16.0.0, SVG Export Plug-In . SVG Version: 6.00 Build 0)  -->
<!DOCTYPE svg PUBLIC "-//W3C//DTD SVG 1.1//EN" "http://www.w3.org/Graphics/SVG/1.1/DTD/svg11.dtd">
<svg version="1.1" xmlns="http://www.w3.org/2000/svg" xmlns:xlink="http://www.w3.org/1999/xlink" x="0px" y="0px"
	 width="549.244px" height="281px" viewBox="0 0 549.244 281" enable-background="new 0 0 549.244 281" xml:space="preserve">
<g id="Layer_1" display="none">
	<path display="inline" d="M131.71,56.073h2.231l1.675,1.674c-6.326,18.513-11.35,36.093-15.07,52.742
		c-4.094,19.443-8.372,42.885-12.835,70.322c-3.07,14.887-7.165,22.328-12.279,22.328H93.2c-9.209,0-15.536-28.466-18.977-85.395
		c-1.489-7.72-2.605-17.021-3.351-27.905h1.118c4.835,8.466,7.256,17.209,7.256,26.232c4.744,54.324,9.767,81.486,15.068,81.486
		c4.092,0,9.673-23.627,16.743-70.883c3.35-16.834,7.627-34.23,12.837-52.185C127.99,62.679,130.594,56.541,131.71,56.073
		L131.71,56.073z"/>
	<path display="inline" d="M131.71,56.073v0.488h2.029l1.532,1.532l0.345-0.346l-0.462-0.158
		c-6.333,18.527-11.361,36.125-15.083,52.793l-0.002,0.004v0.002c-4.097,19.452-8.375,42.9-12.84,70.344l0.482,0.078l-0.479-0.098
		c-1.528,7.415-3.316,12.959-5.323,16.605c-1,1.822-2.057,3.168-3.14,4.039c-1.086,0.877-2.181,1.285-3.338,1.289H93.2
		c-1.021-0.004-2.007-0.387-3.004-1.222c-1.744-1.452-3.45-4.308-5.013-8.548c-4.707-12.732-8.22-37.827-10.472-75.163l-0.002-0.032
		l-0.005-0.031c-1.482-7.694-2.6-16.979-3.342-27.848l-0.488,0.034v0.488h1.118V89.84l-0.425,0.243
		c4.797,8.401,7.189,17.055,7.189,25.989v0.021l0.002,0.021c2.373,27.172,4.816,47.55,7.332,61.164
		c1.26,6.807,2.534,11.916,3.844,15.361c0.656,1.723,1.317,3.029,2.018,3.943c0.354,0.456,0.715,0.816,1.108,1.068
		c0.39,0.252,0.816,0.397,1.255,0.395c0.377,0,0.737-0.139,1.062-0.363c0.611-0.424,1.153-1.152,1.719-2.181
		c0.979-1.797,1.993-4.556,3.073-8.304c3.236-11.231,7.022-31.365,11.374-60.449l-0.484-0.073l0.48,0.097
		c3.347-16.821,7.62-34.203,12.826-52.144l-0.47-0.138l0.462,0.162c2.044-5.9,3.717-10.382,5.011-13.433
		c0.648-1.526,1.201-2.694,1.65-3.492c0.225-0.399,0.423-0.706,0.585-0.91c0.082-0.102,0.151-0.178,0.206-0.226l0.087-0.067
		L131.71,56.073v0.488V56.073l-0.188-0.451c-0.28,0.124-0.468,0.325-0.685,0.588c-0.365,0.466-0.769,1.168-1.246,2.141
		c-1.424,2.908-3.468,8.219-6.158,15.98l-0.003,0.013l-0.005,0.011c-5.213,17.967-9.494,35.375-12.846,52.226l-0.001,0.011
		l-0.002,0.011c-3.533,23.62-6.697,41.334-9.481,53.122c-1.392,5.893-2.69,10.307-3.883,13.219
		c-0.594,1.451-1.166,2.533-1.682,3.211c-0.256,0.343-0.5,0.58-0.708,0.726c-0.209,0.142-0.371,0.188-0.507,0.188
		c-0.226,0-0.458-0.066-0.727-0.24c-0.501-0.316-1.088-1.025-1.673-2.133c-1.034-1.93-2.085-5.053-3.123-9.315
		c-3.117-12.804-6.144-35.94-9.061-69.349l-0.486,0.042h0.488c0-9.11-2.447-17.946-7.319-26.476l-0.141-0.245h-1.923l0.035,0.521
		c0.744,10.898,1.861,20.219,3.356,27.965l0.479-0.093l-0.488,0.03c1.723,28.477,4.165,49.843,7.335,64.122
		c1.589,7.141,3.354,12.51,5.334,16.142c0.992,1.813,2.035,3.192,3.162,4.142c1.125,0.946,2.353,1.451,3.633,1.447h2.232
		c1.399,0.004,2.734-0.518,3.952-1.504c1.827-1.48,3.436-3.988,4.893-7.52c1.458-3.527,2.757-8.088,3.912-13.69l0.004-0.013
		l0.001-0.006c4.463-27.436,8.739-50.872,12.832-70.302l-0.479-0.102l0.479,0.108c3.713-16.63,8.73-34.194,15.054-52.691
		l0.099-0.288l-2.033-2.033h-2.532l-0.091,0.037L131.71,56.073L131.71,56.073z"/>
	<path display="inline" d="M125.851,147.466h0.557l2.231,2.231v0.558l-2.231,23.442l1.116,12.279l-1.673,0.557
		c-3.35-1.113-5.024-4.277-5.024-9.487v-5.022C121.942,155.654,123.617,147.466,125.851,147.466L125.851,147.466z"/>
	<path display="inline" d="M125.851,147.466v0.49h0.354l1.946,1.946v0.33l-2.235,23.465l1.086,11.938l-1.307,0.436l0.156,0.464
		l0.153-0.464c-1.564-0.523-2.701-1.492-3.49-2.975c-0.785-1.479-1.199-3.494-1.199-6.05v-5.022h-0.488l0.488,0.033
		c0.557-8.174,1.255-14.301,2.083-18.353c0.414-2.022,0.863-3.534,1.324-4.493c0.229-0.479,0.459-0.816,0.658-1.01
		c0.204-0.196,0.346-0.245,0.471-0.245V147.466v-0.489c-0.437,0-0.835,0.207-1.153,0.523c-0.561,0.557-0.997,1.447-1.417,2.714
		c-1.24,3.791-2.206,11.015-2.943,21.774v0.019v5.039c0,2.655,0.424,4.827,1.313,6.511c0.886,1.682,2.26,2.852,4.044,3.441
		l0.156,0.052l2.195-0.731L126.9,173.7l2.229-23.419v-0.584v-0.204l-2.52-2.519h-0.759L125.851,147.466L125.851,147.466z"/>
	<path display="inline" d="M126.267,129.605h0.754c1.507,0,2.887,1.13,4.146,3.392v1.882c0,1.383-0.88,2.638-2.638,3.769h-1.13
		c-2.512-0.377-3.769-1.507-3.769-3.392v-1.506C123.63,132.244,124.508,130.862,126.267,129.605L126.267,129.605z"/>
	<path display="inline" d="M126.267,129.605v0.49h0.754c0.629,0,1.23,0.226,1.855,0.737c0.624,0.509,1.253,1.307,1.862,2.401
		l0.427-0.236h-0.49v1.882c-0.002,0.587-0.18,1.138-0.569,1.699c-0.393,0.559-1,1.118-1.842,1.66l0.264,0.41v-0.49h-1.13v0.49
		l0.072-0.482c-1.199-0.18-2.049-0.537-2.571-1.01c-0.521-0.477-0.774-1.062-0.78-1.899v-1.506c0.001-0.657,0.188-1.281,0.583-1.905
		c0.396-0.622,1.008-1.24,1.851-1.844L126.267,129.605v0.49V129.605l-0.284-0.397c-0.915,0.655-1.623,1.355-2.105,2.113
		c-0.483,0.759-0.736,1.58-0.734,2.43v1.506c-0.007,1.049,0.368,1.97,1.103,2.625c0.731,0.655,1.769,1.053,3.08,1.251l0.036,0.003
		h1.167h0.143l0.121-0.076c0.917-0.59,1.626-1.223,2.115-1.921c0.488-0.694,0.75-1.463,0.748-2.26v-2.011l-0.061-0.109
		c-0.65-1.166-1.34-2.063-2.097-2.686c-0.756-0.62-1.597-0.96-2.477-0.958h-0.754h-0.156l-0.128,0.091L126.267,129.605
		L126.267,129.605z"/>
	<path display="inline" d="M142.215,146.363h1.263c0.841,0.277,1.261,1.121,1.261,2.521v2.102l-1.682,20.186v0.42h0.421
		c2.73-11.492,5.112-17.24,7.146-17.24h0.423c3.362,0,5.044,5.465,5.044,16.396c2.313,12.059,4.975,18.084,7.989,18.084
		c0.841,0,2.38-0.984,4.625-2.943v0.418c-2.033,3.364-4.137,5.047-6.307,5.047h-0.841c-5.327,0-8.83-9.811-10.511-29.436h-0.423
		c-3.782,14.648-6.305,23.061-7.567,25.229l-1.262,0.844h-1.261c-1.682-0.77-2.523-2.592-2.523-5.467
		C139.482,158.417,140.884,146.363,142.215,146.363L142.215,146.363z"/>
	<g display="inline">
		<path fill="none" d="M142.215,146.363v0.486h1.263v-0.486l-0.156,0.464c0.303,0.104,0.498,0.274,0.665,0.595
			c0.162,0.323,0.264,0.811,0.264,1.463v2.084l-1.682,20.182v0.441v0.486h0.91h0.386l0.089-0.375
			c1.363-5.729,2.638-10.025,3.813-12.855c0.583-1.41,1.146-2.457,1.655-3.123c0.254-0.33,0.492-0.561,0.698-0.697
			c0.208-0.141,0.368-0.187,0.503-0.187h0.423c0.704,0.005,1.285,0.269,1.848,0.865c0.839,0.901,1.546,2.621,2.007,5.14
			c0.464,2.518,0.702,5.822,0.7,9.902v0.049l0.009,0.044c1.162,6.05,2.408,10.595,3.765,13.665c0.681,1.541,1.388,2.715,2.154,3.531
			c0.763,0.813,1.625,1.281,2.551,1.281c0.607-0.012,1.24-0.305,2.048-0.813c0.805-0.512,1.765-1.259,2.898-2.25l-0.321-0.366
			h-0.488v0.418h0.488l-0.417-0.252c-0.997,1.648-2.001,2.866-2.991,3.653c-0.989,0.791-1.941,1.155-2.897,1.155h-0.841
			c-1.176-0.004-2.245-0.523-3.29-1.676c-1.563-1.729-2.958-4.891-4.086-9.449c-1.135-4.561-2.019-10.516-2.647-17.861l-0.039-0.445
			h-0.871h-0.377l-0.095,0.364c-1.892,7.322-3.466,13.082-4.725,17.274c-0.63,2.098-1.18,3.806-1.649,5.111
			c-0.466,1.313-0.859,2.232-1.145,2.719l0.422,0.246l-0.271-0.406l-1.138,0.759h-1.112v0.489l0.203-0.444
			c-0.733-0.338-1.271-0.881-1.651-1.705c-0.38-0.819-0.588-1.927-0.586-3.315h-0.487l0.485,0.029
			c0.737-12.05,1.454-21.084,2.154-27.092c0.349-3.004,0.694-5.254,1.028-6.729c0.166-0.735,0.333-1.281,0.479-1.604
			c0.071-0.163,0.14-0.265,0.171-0.301l0.014-0.011l-0.076-0.094l0.046,0.107l0.03-0.016l-0.076-0.092l0.046,0.106l-0.099-0.228
			v0.246l0.099-0.02l-0.099-0.227v0.244V146.363v-0.49c-0.28,0.004-0.484,0.156-0.614,0.305c-0.249,0.291-0.403,0.668-0.578,1.207
			c-0.579,1.86-1.141,5.662-1.724,11.512c-0.581,5.84-1.173,13.705-1.776,23.598l-0.002,0.016v0.016
			c0,1.484,0.215,2.726,0.676,3.728c0.458,0.999,1.185,1.753,2.133,2.185l0.097,0.045h1.518l1.478-0.988l0.059-0.096
			c0.345-0.6,0.741-1.545,1.22-2.883c1.432-3.998,3.559-11.478,6.398-22.473l-0.474-0.123v0.49h0.423v-0.49l-0.488,0.045
			c0.845,9.833,2.139,17.219,3.916,22.198c0.889,2.487,1.896,4.378,3.066,5.681c1.163,1.297,2.527,2.006,4.017,1.998h0.841
			c1.216,0.004,2.398-0.477,3.511-1.365c1.114-0.896,2.178-2.199,3.214-3.914l0.072-0.115v-0.557v-1.078l-0.813,0.709
			c-1.111,0.971-2.042,1.693-2.78,2.162c-0.729,0.476-1.289,0.672-1.522,0.66c-0.583,0-1.183-0.281-1.84-0.977
			c-0.979-1.036-1.986-2.963-2.937-5.756c-0.955-2.793-1.868-6.446-2.731-10.95l-0.48,0.089h0.488
			c-0.002-5.491-0.418-9.621-1.281-12.441c-0.437-1.408-0.981-2.496-1.686-3.262c-0.7-0.766-1.589-1.188-2.565-1.182h-0.423
			c-0.372-0.004-0.729,0.131-1.053,0.354c-0.566,0.387-1.071,1.028-1.591,1.928c-1.541,2.688-3.177,7.771-4.979,15.332l0.478,0.115
			v-0.49h-0.421v0.49h0.489v-0.4l1.683-20.182v-2.125c-0.002-0.746-0.11-1.382-0.368-1.9c-0.254-0.516-0.689-0.91-1.229-1.084
			l-0.075-0.026h-1.341v0.487H142.215z"/>
	</g>
	<path display="inline" d="M224.498,173.977c0.464,2.978,1.767,4.467,3.906,4.467c2.882,0,5.86-1.305,8.931-3.906v-3.91l-0.559-2.23
		l0.559-0.559l-0.559-2.788v-0.562l0.559-0.557l-0.559-2.236h-1.674C229.427,161.695,225.892,165.791,224.498,173.977
		L224.498,173.977z M246.822,97.513h0.557l1.678,1.675l-5.583,49.115l-0.558,18.418v3.905c6.788-5.206,10.187-9.487,10.187-12.833
		h0.557v0.557c0,4.278-3.396,10.791-10.186,19.532l4.047,13.817l-0.56,0.557h-0.559c-5.581-4.092-8.232-7.583-7.952-10.464h-0.559
		c-4,1.487-7.163,2.231-9.488,2.231h-0.559c-5.211,0-8.187-3.16-8.93-9.487v-1.118c0-8.369,4.09-13.766,12.278-16.186h3.35
		l2.791,0.561C240.311,117.606,243.473,97.513,246.822,97.513L246.822,97.513z"/>
	<path display="inline" d="M224.498,173.977l-0.483,0.078c0.24,1.541,0.701,2.746,1.439,3.594c0.735,0.851,1.771,1.289,2.95,1.281
		c3.036,0,6.122-1.371,9.246-4.021l0.173-0.145v-4.197l-0.505-2.02l0.362-0.363l0.186-0.187l-0.602-3.001v-0.305l0.414-0.416
		l0.196-0.196l-0.716-2.87h-2.057c-2.954-0.008-5.43,1.088-7.276,3.238c-1.851,2.148-3.103,5.303-3.81,9.445l-0.014,0.078
		l0.012,0.082L224.498,173.977l0.481,0.08c0.688-4.039,1.902-7.025,3.585-8.967c1.688-1.945,3.816-2.896,6.538-2.904h1.292
		l0.398,1.594l-0.361,0.363l-0.144,0.146v0.762v0.044l0.517,2.586l-0.373,0.37l-0.197,0.197l0.611,2.442v3.848h0.489l-0.316-0.375
		c-3.016,2.559-5.885,3.791-8.613,3.791c-0.959-0.008-1.648-0.313-2.215-0.95c-0.563-0.64-0.986-1.668-1.208-3.101L224.498,173.977
		l0.481,0.08L224.498,173.977L224.498,173.977z M246.822,97.513v0.49h0.354l1.365,1.365l-5.557,48.899l-0.557,18.447v4.901
		l0.784-0.603c3.415-2.621,5.988-5.013,7.725-7.199c1.731-2.188,2.648-4.182,2.652-6.022h-0.487v0.485h0.068v0.07
		c0.003,2.01-0.812,4.653-2.491,7.865c-1.678,3.219-4.207,7.014-7.593,11.37l-0.151,0.196l4.035,13.775l-0.211,0.209h-0.355v0.489
		l0.29-0.397c-2.635-1.926-4.597-3.717-5.886-5.34c-1.29-1.625-1.891-3.07-1.889-4.311c0-0.123,0.006-0.249,0.02-0.372l0.052-0.534
		h-1.097h-0.087l-0.083,0.029c-3.971,1.48-7.097,2.206-9.317,2.201h-0.559c-2.511-0.004-4.394-0.745-5.784-2.217
		c-1.39-1.475-2.296-3.738-2.66-6.84l-0.485,0.061h0.488v-1.118c0.002-4.11,0.999-7.431,2.971-10.028
		c1.973-2.597,4.936-4.498,8.957-5.689l-0.138-0.467v0.49h3.301l3.285,0.656l0.041-0.555c1.487-20.083,3.023-35.145,4.599-45.167
		c0.789-5.009,1.592-8.761,2.392-11.227c0.396-1.233,0.8-2.143,1.172-2.709c0.186-0.282,0.364-0.475,0.508-0.584
		c0.147-0.11,0.247-0.136,0.331-0.136v-0.487v-0.488c-0.334,0-0.651,0.13-0.919,0.334c-0.505,0.388-0.908,1.017-1.313,1.899
		c-0.699,1.543-1.368,3.89-2.028,7.08c-1.983,9.562-3.882,26.684-5.715,51.418l0.487,0.037l0.096-0.482l-2.838-0.563h-3.47
		l-0.066,0.019c-4.165,1.229-7.34,3.237-9.459,6.033c-2.122,2.797-3.172,6.357-3.169,10.62v1.118v0.025l0.004,0.029
		c0.379,3.227,1.331,5.703,2.918,7.393c1.587,1.693,3.797,2.533,6.497,2.525h0.559c2.427,0,5.627-0.761,9.659-2.262l-0.171-0.456
		v0.485h0.559v-0.485l-0.486-0.049c-0.015,0.155-0.021,0.31-0.021,0.465c0.002,1.563,0.733,3.192,2.1,4.916
		c1.37,1.728,3.395,3.562,6.073,5.524l0.128,0.094h0.718h0.203l0.906-0.906l-4.127-14.088l-0.47,0.134l0.386,0.302
		c3.407-4.387,5.969-8.219,7.687-11.516c1.716-3.294,2.6-6.05,2.604-8.318v-0.557v-0.49h-1.047h-0.488v0.49
		c0.003,1.5-0.78,3.323-2.443,5.414c-1.657,2.094-4.177,4.443-7.553,7.031l0.299,0.388h0.488v-3.899l0.557-18.388l5.607-49.329
		l-1.985-1.985h-0.761v0.488H246.822z"/>
	<path display="inline" d="M257.984,106.863c3.535,0,5.767,2.791,6.697,8.372v5.022c-1.582,10.046-4.932,15.07-10.044,15.07
		l-0.56-0.559h-0.559c3.719-8.279,5.581-13.301,5.581-15.068v-3.35c0-1.487-1.304-3.535-3.906-6.14v-1.675
		C255.193,107.888,256.122,107.329,257.984,106.863L257.984,106.863z"/>
	<path display="inline" d="M257.984,106.863v0.488c1.638,0.007,2.897,0.618,3.944,1.909c1.037,1.296,1.814,3.312,2.271,6.055
		l0.48-0.08h-0.488v5.022h0.488l-0.482-0.076c-0.784,4.983-2.009,8.693-3.623,11.106c-0.806,1.208-1.702,2.092-2.685,2.677
		c-0.984,0.581-2.058,0.873-3.254,0.873v0.49l0.343-0.347l-0.558-0.557l-0.143-0.143h-0.761v0.488l0.445,0.201
		c1.862-4.146,3.263-7.479,4.198-10.007c0.47-1.265,0.823-2.328,1.061-3.197c0.237-0.873,0.365-1.541,0.367-2.064v-3.35
		c-0.003-0.889-0.377-1.843-1.054-2.913c-0.68-1.067-1.679-2.252-2.997-3.572l-0.345,0.345h0.49v-1.675l0.07-0.171
		c0.095-0.126,0.337-0.315,0.733-0.496c0.396-0.182,0.937-0.362,1.616-0.533L257.984,106.863v0.488V106.863l-0.119-0.475
		c-0.958,0.241-1.688,0.503-2.226,0.824c-0.269,0.162-0.49,0.338-0.659,0.555c-0.167,0.217-0.277,0.488-0.275,0.769v1.877
		l0.144,0.143c1.284,1.287,2.238,2.429,2.862,3.407c0.624,0.979,0.904,1.79,0.9,2.388v3.35c0.002,0.358-0.104,0.98-0.332,1.807
		c-0.682,2.49-2.421,6.866-5.206,13.061l-0.31,0.689h1.111l0.416,0.416l0.144,0.143h0.203c1.356,0.001,2.62-0.338,3.752-1.01
		c1.703-1.012,3.093-2.748,4.211-5.16c1.118-2.414,1.966-5.516,2.563-9.313l0.007-0.037v-5.102l-0.007-0.041
		c-0.475-2.837-1.278-5.007-2.473-6.502c-1.188-1.5-2.81-2.286-4.707-2.278h-0.059l-0.061,0.015L257.984,106.863L257.984,106.863z"
		/>
	<path display="inline" d="M381.038,77.421h2.235c13.396,1.396,26.045,7.909,37.95,19.535
		c10.791,12.466,16.185,26.231,16.185,41.301c0,21.582-9.857,40.185-29.579,55.81c-10.697,7.445-21.859,11.162-33.485,11.162
		c-21.305,0-37.305-8.74-47.998-26.229c-2.607-6.881-3.91-14.511-3.91-22.881c0-10.698,5.022-22.976,15.072-36.837
		c12.09-12.278,23.252-18.418,33.485-18.418c12.744,0,21.488,6.513,26.23,19.534v1.118c-5.674-10.791-12.744-16.186-21.207-16.186
		c-15.068,0-28.651,9.118-40.745,27.348c-4.464,9.395-6.695,17.022-6.695,22.881v3.905c0,17.582,8.373,29.491,25.116,35.722
		c5.671,2.604,11.998,3.906,18.977,3.906h2.23c17.489,0,32.558-8.556,45.209-25.674c7.441-11.348,11.163-22.139,11.163-32.37v-4.465
		c0-18.23-8.746-33.301-26.235-45.208c-11.157-6.699-21.953-10.417-32.368-11.162h-11.161c-3.906,0-9.862,1.304-17.861,3.907h-0.557
		C348.017,79.654,360.667,77.421,381.038,77.421L381.038,77.421z"/>
	<path display="inline" d="M381.038,77.421v0.49h2.235v-0.49l-0.052,0.488c13.268,1.381,25.808,7.826,37.66,19.396l0.342-0.349
		l-0.368,0.319c10.725,12.397,16.064,26.03,16.067,40.982c-0.008,21.425-9.766,39.858-29.397,55.429l0.305,0.381l-0.278-0.399
		c-10.631,7.396-21.687,11.073-33.207,11.076c-10.587,0-19.825-2.173-27.742-6.498c-7.917-4.329-14.53-10.815-19.84-19.502
		l-0.416,0.256l0.456-0.174c-2.58-6.821-3.876-14.39-3.876-22.707c-0.004-10.54,4.961-22.736,14.976-36.55l-0.394-0.288l0.349,0.343
		c12.046-12.237,23.108-18.279,33.138-18.273c6.29,0.002,11.544,1.602,15.822,4.788c4.281,3.186,7.602,7.978,9.947,14.426
		l0.461-0.169h-0.486v1.118h0.486l0.435-0.229c-2.862-5.438-6.086-9.545-9.694-12.3c-3.609-2.755-7.612-4.149-11.946-4.147
		c-7.634,0-14.901,2.315-21.76,6.921c-6.861,4.604-13.319,11.493-19.392,20.646l-0.021,0.03l-0.012,0.031
		c-4.48,9.434-6.742,17.109-6.746,23.092v3.905c0,8.867,2.115,16.351,6.367,22.397c4.252,6.049,10.628,10.644,19.068,13.781
		l0.17-0.457l-0.204,0.44c5.741,2.642,12.144,3.955,19.181,3.955h2.23c17.656,0.004,32.896-8.671,45.604-25.874l0.008-0.012
		l0.007-0.012c7.479-11.398,11.241-22.283,11.241-32.638v-4.465c0.004-9.194-2.205-17.612-6.625-25.221
		c-4.415-7.608-11.028-14.406-19.818-20.391l-0.011-0.008l-0.016-0.007c-11.211-6.729-22.079-10.479-32.588-11.231l-0.015-0.001
		h-11.181c-4.012,0.003-9.985,1.322-18.015,3.932l0.152,0.464v-0.488h-0.558v0.488l0.326,0.362c2.336-2.126,6.658-3.8,12.941-4.903
		c6.282-1.11,14.515-1.667,24.682-1.667L381.038,77.421l-0.001-0.488c-10.204,0-18.479,0.559-24.849,1.682
		c-6.368,1.128-10.836,2.801-13.432,5.143l-0.939,0.851h1.905l0.073-0.024c7.974-2.597,13.902-3.886,17.709-3.882h11.162v-0.488
		l-0.033,0.487c10.322,0.739,21.04,4.426,32.152,11.093l0.249-0.418l-0.273,0.403c8.695,5.922,15.197,12.616,19.527,20.074
		c4.325,7.462,6.491,15.692,6.491,24.73v4.465c0,10.113-3.676,20.809-11.081,32.104l0.408,0.268l-0.395-0.289
		c-12.599,17.029-27.496,25.467-44.814,25.473h-2.231c-6.918,0-13.171-1.287-18.771-3.86l-0.02-0.009l-0.016-0.008
		c-8.307-3.088-14.489-7.566-18.606-13.422c-4.121-5.859-6.189-13.123-6.189-21.839v-3.905c-0.004-5.738,2.198-13.313,6.65-22.673
		l-0.445-0.208l0.408,0.269c6.02-9.077,12.397-15.863,19.119-20.375c6.726-4.51,13.779-6.753,21.218-6.754
		c4.126,0.001,7.892,1.307,11.352,3.947c3.461,2.639,6.61,6.626,9.425,11.978l0.921-0.227v-1.118v-0.085l-0.029-0.082
		c-2.396-6.575-5.818-11.55-10.285-14.875c-4.464-3.325-9.952-4.981-16.405-4.979c-10.441,0.005-21.7,6.242-33.836,18.563
		l-0.025,0.026l-0.021,0.03c-10.078,13.908-15.157,26.272-15.161,37.125c0,8.422,1.312,16.108,3.937,23.056l0.019,0.041l0.022,0.041
		c5.388,8.805,12.124,15.432,20.208,19.848c8.079,4.416,17.492,6.617,28.21,6.617c11.729,0,23-3.759,33.765-11.252l0.015-0.007
		l0.012-0.012c19.807-15.685,29.772-34.455,29.765-56.193c0.004-15.189-5.451-29.084-16.304-41.622l-0.016-0.015l-0.015-0.013
		c-11.961-11.684-24.72-18.264-38.243-19.671l-0.026-0.003h-2.258L381.038,77.421L381.038,77.421z"/>
	<path display="inline" d="M447.736,127.652h0.558c1.396,0,4.745,2.421,10.045,7.255c4.744,1.953,9.395,3.257,13.954,3.907
		l0.558-0.557l0.561,0.557v0.559c-2.606,2.232-5.214,3.35-7.815,3.35h-1.114c-3.721,0-8.745-2.418-15.068-7.255l-3.35-5.024
		C446.525,128.584,447.083,127.652,447.736,127.652L447.736,127.652z M446.618,150.396h1.118l1.114,1.113v1.118
		c-3.721,11.724-5.581,19.351-5.581,22.886v5.58l1.117,1.114c6.603-5.86,12.744-13.673,18.418-23.438l2.23-0.561h0.559l2.234,2.792
		l-1.675,11.72c0,2.231,1.3,4.281,3.906,6.143h7.256l13.395-1.118v1.118l-16.743,5.576h-3.351c-5.581,0-8.93-3.717-10.044-11.162
		c-7.349,9.678-12.748,14.513-16.187,14.513h-2.792c-2.979-1.953-4.464-5.113-4.464-9.488c0-6.694,2.046-15.067,6.139-25.112
		L446.618,150.396L446.618,150.396z"/>
	<path display="inline" d="M447.736,127.652v0.488h0.558c0.208-0.004,0.636,0.113,1.191,0.401c1.687,0.856,4.563,3.114,8.525,6.729
		l0.063,0.058l0.081,0.033c4.775,1.966,9.466,3.283,14.066,3.938l0.245,0.035l0.383-0.386l0.07,0.069v0.356h0.489l-0.318-0.371
		c-2.549,2.182-5.035,3.23-7.497,3.23h-1.114c-3.509,0.013-8.488-2.337-14.771-7.154l-0.297,0.388l0.404-0.273l-3.349-5.022
		l-0.405,0.271l0.472,0.119c0.228-0.902,0.477-1.565,0.713-1.959c0.119-0.198,0.234-0.325,0.315-0.388l0.175-0.074L447.736,127.652
		l-0.001-0.488c-0.282-0.002-0.554,0.107-0.771,0.274c-0.327,0.256-0.564,0.624-0.783,1.099c-0.224,0.477-0.416,1.069-0.596,1.786
		l-0.052,0.21l3.514,5.271l0.066,0.05c6.364,4.858,11.429,7.343,15.365,7.356h1.114c2.751,0,5.473-1.183,8.132-3.466l0.171-0.147
		v-0.783v-0.203l-1.047-1.047l-0.902,0.904l0.345,0.346l0.07-0.483c-4.515-0.644-9.127-1.937-13.835-3.875l-0.189,0.451l0.33-0.362
		c-2.657-2.423-4.831-4.248-6.53-5.475c-0.852-0.615-1.582-1.081-2.21-1.4c-0.632-0.318-1.145-0.501-1.635-0.507h-0.557
		L447.736,127.652L447.736,127.652z M446.618,150.396v0.49h0.914l0.832,0.827v0.914h0.486l-0.465-0.147
		c-1.863,5.865-3.26,10.713-4.195,14.545c-0.933,3.832-1.407,6.639-1.407,8.488v5.78l1.581,1.586l0.347-0.305
		c6.653-5.904,12.821-13.763,18.519-23.562l-0.424-0.244l0.119,0.472l2.172-0.542h0.264l1.953,2.439l-1.648,11.547v0.033
		c0,1.215,0.356,2.381,1.056,3.473c0.693,1.093,1.719,2.109,3.056,3.068l0.13,0.088h7.432l12.885-1.072v0.232l-16.335,5.444h-3.269
		c-2.685-0.009-4.749-0.877-6.335-2.629c-1.581-1.757-2.677-4.452-3.227-8.117l-0.171-1.147l-0.701,0.924
		c-3.665,4.824-6.837,8.431-9.495,10.813c-2.659,2.396-4.816,3.521-6.302,3.505h-2.792v0.487l0.271-0.409
		c-1.422-0.932-2.469-2.135-3.175-3.635c-0.709-1.5-1.068-3.313-1.073-5.443c0-6.599,2.024-14.921,6.105-24.932l-0.453-0.182
		l0.315,0.375l3.346-2.793L446.618,150.396v0.49V150.396l-0.312-0.375l-3.442,2.871l-0.048,0.11
		c-4.106,10.081-6.172,18.503-6.176,25.298c0,2.243,0.383,4.2,1.163,5.86c0.778,1.659,1.964,3.015,3.522,4.036l0.123,0.082h2.938
		c1.953-0.016,4.215-1.309,6.951-3.752c2.736-2.453,5.938-6.1,9.625-10.953l-0.391-0.297l-0.481,0.074
		c0.563,3.775,1.699,6.66,3.468,8.625c1.764,1.969,4.162,2.959,7.059,2.953h3.429l17.154-5.72v-1.998l-13.905,1.159h-7.233v0.49
		l0.282-0.401c-1.264-0.901-2.194-1.838-2.8-2.792c-0.609-0.958-0.898-1.928-0.902-2.949h-0.486l0.482,0.071l1.704-11.931
		l-2.511-3.139h-0.795h-0.059l-2.492,0.62l-0.104,0.179c-5.655,9.735-11.765,17.504-18.318,23.322l0.323,0.364l0.346-0.347
		l-0.973-0.973v-5.377c-0.004-1.686,0.452-4.464,1.381-8.259c0.925-3.795,2.316-8.626,4.178-14.478l0.022-0.07v-1.196v-0.2
		l-1.404-1.402h-1.492l-0.138,0.113L446.618,150.396L446.618,150.396z"/>
	<path display="inline" fill="#231F20" d="M41.11,229.284c-0.27-0.282-0.529-0.46-0.54-0.929c0.068-0.387,0.082-0.746,0.061-1.103
		L41.11,229.284"/>
	<polyline display="inline" fill="#231F20" points="40.209,225.371 39.972,224.721 40.129,225.007 40.209,225.371 	"/>
	<path display="inline" fill="#231F20" d="M39.591,223.686c-0.196-0.564-0.367-1.154-0.46-1.793
		C39.4,222.566,39.537,223.156,39.591,223.686"/>
	<path display="inline" fill="#231F20" d="M39.576,224.766c0.045-0.322,0.054-0.688,0.015-1.08l0.381,1.035l-0.006-0.015
		c-0.079-0.138-0.146-0.196-0.203-0.196C39.684,224.51,39.625,224.621,39.576,224.766"/>
	<path display="inline" fill="#231F20" d="M39.409,225.505c0.002-0.008,0.006-0.017,0.007-0.026
		C39.415,225.488,39.411,225.497,39.409,225.505 M39.417,225.479c0.045-0.145,0.085-0.485,0.16-0.713
		C39.541,225.025,39.487,225.264,39.417,225.479"/>
	<polyline display="inline" fill="#231F20" points="45.033,246.08 44.534,245.059 44.597,244.992 45.042,246.031 45.033,246.08 	"/>
	<path display="inline" fill="#231F20" d="M33.682,195.932c-0.002-0.004-0.004-0.011-0.007-0.019c-0.066-0.33-0.128-0.64-0.19-0.888
		c-0.008-0.029-0.015-0.06-0.024-0.09c-0.059-0.236-0.119-0.475-0.169-0.709c-0.165-0.765-0.238-1.48,0.039-2.013l0.35,3.714
		L33.682,195.932"/>
</g>
<g id="about_us">
	<g>
		<rect x="-0.999" y="94.25" fill="none" width="549.247" height="144.146"/>
		<path fill="#2E2E2E" stroke="#2D2E2E" stroke-miterlimit="10" d="M170.478,64.867h1.114c0.742,0,1.484,1.114,2.229,3.342
			c-1.023,4.735-5.292,15.69-12.812,32.864c-5.942,24.975-8.913,41.87-8.913,50.689l0.557,0.557l5.57-1.114
			c3.249,0,6.406,1.486,9.469,4.457c-10.398,0.744-15.597,1.857-15.597,3.342v12.254c0,24.046,6.685,41.498,20.053,52.36
			l8.913,2.228l0.557-0.557h3.342c0,1.299-2.785,2.229-8.355,2.785c-11.791,0-20.888-10.953-27.294-32.864
			c-2.228-8.168-3.342-19.495-3.342-33.978v-0.558c-8.077,3.343-13.647,5.013-16.711,5.013h-1.671
			c-3.621,9.657-6.593,15.227-8.912,16.711h-0.557l-1.114-1.113c1.114-0.279,4.641-8.262,10.583-23.953
			c7.054-16.616,17.453-38.34,31.193-65.17C164.721,74.43,168.62,65.333,170.478,64.867z M150.426,118.898l-19.496,41.219h0.557
			c10.026-3.711,15.039-6.127,15.039-7.24c0-6.219,1.484-17.359,4.457-33.421v-0.557H150.426z"/>
		<path fill="#2E2E2E" stroke="#2D2E2E" stroke-miterlimit="10" d="M174.444,99.124c4.178,0,6.963,17.455,8.355,52.36v0.557h0.557
			c2.32-4.826,5.662-7.241,10.026-7.241h3.342c9.282,3.157,13.925,9.284,13.925,18.382c-1.58,13.368-6.777,20.053-15.596,20.053
			h-3.899c-8.821,0-14.948-5.014-18.381-15.039v-3.343c0-3.343,1.484-5.94,4.456-7.798c0-9.376-1.301-28.5-3.899-57.374l0.557-0.557
			H174.444z M175.558,162.625l1.671,5.013h0.557v-1.671l-0.557-7.242C176.394,158.725,175.837,160.026,175.558,162.625z
			 M185.028,173.765v2.229c2.876,1.114,5.477,1.671,7.798,1.671h0.557c6.685,0,10.583-4.826,11.698-14.482
			c-1.95-8.541-5.292-12.812-10.026-12.812h-0.557C188.182,150.37,185.028,158.168,185.028,173.765z"/>
		<path fill="#2E2E2E" stroke="#2D2E2E" stroke-miterlimit="10" d="M237.454,146.75c4.084,0.277,6.127,1.949,6.127,5.013
			l-2.228,1.671l-0.557-0.557h-0.557v0.557c3.342,3.992,5.013,6.963,5.013,8.912v3.899c-3.899,10.026-10.398,15.04-19.496,15.04
			h-3.342c-5.2-1.206-7.798-3.807-7.798-7.799v-1.671c0-6.963,5.755-14.761,17.268-23.396L237.454,146.75z M231.327,155.662
			l-5.013,5.57v4.455H225.2v-2.785c-1.393,0-3.063,3.158-5.013,9.47c0,2.229,1.299,3.343,3.899,3.343h2.228
			c8.912-2.971,13.368-6.685,13.368-11.141v-0.557C238.103,158.447,235.318,155.662,231.327,155.662z"/>
		<path fill="#2E2E2E" stroke="#2D2E2E" stroke-miterlimit="10" d="M258.966,147.027h1.114l1.114,1.115v1.113
			c-3.714,11.697-5.57,19.311-5.57,22.838v5.57l1.114,1.113c6.59-5.848,12.718-13.646,18.381-23.395l2.228-0.557h0.558l2.228,2.785
			l-1.671,11.697c0,2.229,1.299,4.271,3.898,6.127h7.242l13.368-1.113v1.113l-16.71,5.57h-3.343c-5.57,0-8.912-3.712-10.026-11.141
			c-7.335,9.656-12.72,14.482-16.153,14.482h-2.785c-2.972-1.949-4.456-5.104-4.456-9.469c0-6.684,2.041-15.039,6.127-25.066
			L258.966,147.027z"/>
		<path fill="#2E2E2E" stroke="#2D2E2E" stroke-miterlimit="10" d="M299.555,104.694h1.672c1.855,0,2.785,4.828,2.785,14.482v3.899
			h0.557l15.597-3.342h6.128c4.455,0,8.539,2.785,12.254,8.355v1.114h-0.557c-3.529-2.97-7.057-4.456-10.584-4.456
			c-16.341,1.671-24.509,4.086-24.509,7.241c-3.343,26.367-5.013,43.635-5.013,51.803v2.229h0.557v-1.672h1.113v3.9
			c0,2.6-1.113,3.898-3.342,3.898c-2.6-1.114-3.898-2.971-3.898-5.57v-5.014c0-9.281,1.671-25.807,5.013-49.574h-0.558
			l-15.039,2.785h-3.342l-2.229-2.228c0-1.578,7.242-3.991,21.725-7.241v-11.698l-0.558-5.013
			C297.976,105.996,298.72,104.694,299.555,104.694z"/>
		<path fill="#2E2E2E" stroke="#2D2E2E" stroke-miterlimit="10" d="M375.026,147.027h1.114l1.114,1.115v1.113
			c-3.715,11.697-5.57,19.311-5.57,22.838v5.57l1.114,1.113c6.591-5.848,12.718-13.646,18.382-23.395l2.228-0.557h0.558l2.228,2.785
			l-1.671,11.697c0,2.229,1.299,4.271,3.898,6.127h7.242l13.368-1.113v1.113l-16.71,5.57h-3.343c-5.57,0-8.912-3.712-10.026-11.141
			c-7.335,9.656-12.72,14.482-16.153,14.482h-2.785c-2.972-1.949-4.456-5.104-4.456-9.469c0-6.684,2.041-15.039,6.127-25.066
			L375.026,147.027z"/>
		<path fill="#2E2E2E" stroke="#2D2E2E" stroke-miterlimit="10" d="M419.376,142.572c1.856,0,3.527,1.113,5.014,3.342v1.113
			l-1.671,1.672l-0.558-0.557c-5.479,0.465-8.449,1.579-8.912,3.342c2.413,3.714,7.611,8.542,15.597,14.482
			c1.483,2.506,2.228,4.549,2.228,6.127v1.671c0,4.829-3.714,7.985-11.141,9.47h-1.67c-4.457-0.928-6.685-3.155-6.685-6.685v-1.114
			l1.671-1.671h0.557c0.37,2.601,2.414,3.899,6.127,3.899c3.713-1.021,5.571-2.877,5.571-5.57c0-1.299-4.456-5.383-13.369-12.254
			c-3.342-3.991-5.013-6.963-5.013-8.912C407.122,147.027,411.206,144.242,419.376,142.572z"/>
	</g>
</g>
<g id="_x29_">
	<g>
		<path fill="#231F20" d="M480.545,202.482c0-0.004,0.004-0.008,0.004-0.008c0.016-0.375,0.033-0.729,0.033-1.016
			c0-0.031,0-0.064,0-0.1c-0.004-0.268-0.004-0.535,0.004-0.795c0.02-0.861,0.107-1.652,0.494-2.164l-0.531,4.076L480.545,202.482"
			/>
		<g>
			<polyline fill="#231F20" points="459.256,253.805 460.07,252.854 460.158,252.879 459.304,253.789 459.256,253.805 			"/>
			<path fill="#231F20" d="M474.689,226.055l0.289-1.203c0.275-0.045,0.549,0.063,0.844-0.473l0.021-1.24
				c1.125-1.533,1.324-3.438,1.475-5.324l-0.639,0.701c-0.107,0.602-0.082,0.918,0.037,0.918c0.068,0,0.17-0.107,0.297-0.326
				c-0.98,1.92-1.553,3.787-2.035,5.744l-0.094,0.021c0.639-3.543,1.031-7.391,1.109-10.742c0.357-0.301,0.727-0.367,1.092-0.424
				l0,0c-0.365,0.057-0.734,0.123-1.092,0.424l0.023-1.383c0.096-0.713,0.248-1.365,0.412-2.025c0.314-1.033,0.635-2.1,0.941-3.291
				c0.482-1.566-0.459-3.648-0.402-6.164c-0.064-0.404,0.859-0.215,0.73-1.023c-0.078-1.873-0.365-3.479-0.238-5.195
				c-0.152-0.803,0.971-1.977,0.807-2.783c-0.107-1.469-0.779-4.725-1.1-4.725c-0.09,0-0.148,0.248-0.162,0.854
				c-0.057,4.186,0.006,6.938-0.168,10.68c-0.094-3.371-0.18-6.877-0.008-10.945c0.119-2.59,0.684-5.99,0.568-9.201
				c-0.402-4.396-1.285-8.982-1.293-14.268c0.289-19.895-1.191-37.285-1.252-55.928c-0.178-3.591-0.615-6.753-0.68-9.761
				c-0.125-6.02-1.422-12.381-2.592-18.414c-1.154-6.047-2.18-11.767-1.594-16.904c0.357-3.541-0.604-8.278-1.619-11.166
				c-0.561-1.605-1.1-2.648-1.373-2.648c-0.168,0-0.24,0.374-0.172,1.225c-0.615-4.717-1.732-7.892-2.523-10.542
				c-0.861-2.847-1.367-5.101-0.811-8.17c0.025-0.227,0.527-1.752,1.619-2.332c0.252-0.131,0.539-0.215,0.861-0.215
				c1.063,0,2.506,0.887,4.33,3.771c1.27,3.004,3.094,7.427,4.607,11.987c1.529,4.556,2.758,9.235,3.201,12.604
				c1.064,8.79,2.371,16.947,3.479,25.121c1.096,8.162,1.982,16.324,2.033,24.886c0.051,8.583-0.031,17.289-0.137,26.331
				l-0.242,23.997c-0.133,7.779-0.17,15.484-0.656,23.531c-0.137,2.498-0.305,4.941-0.506,7.359l0,0l-0.324,3.693
				c-0.035,0.09-0.072,0.197-0.109,0.324l0.094-0.164l-0.086,0.877c-0.504,0.693-0.463,1.875-0.434,3.066
				c0.004,0.293-0.004,0.648-0.012,1.029c-0.189,1.621-0.396,3.236-0.625,4.863l-0.045-0.355l0.006-0.246l0.529-4.076
				c-0.387,0.512-0.475,1.303-0.494,2.164c-0.021,0.32-0.031,0.631-0.035,0.939c-0.102,0.432-0.234,0.795-0.391,1.117
				c0.084-0.115,0.166-0.199,0.232-0.199s0.119,0.076,0.152,0.277v0.021l-0.012,0.762l-0.313,2.123
				c-0.117,0.373-0.271,0.744-0.482,1.1c-0.174,0.49-0.006,0.779,0.123,1.178c-0.791,4.857-1.771,9.797-3.127,14.973
				C476.738,222.859,475.41,225.373,474.689,226.055 M480.158,202.623c-0.16,0.227-0.326,0.578-0.424,0.705
				C479.883,203.127,480.029,202.887,480.158,202.623 M480.783,186.932c0,0.504,0.381,1.076,0.381,1.637
				C481.164,188.008,480.783,187.436,480.783,186.932 M482.164,186.1l-0.502,0.813l0,0L482.164,186.1L482.164,186.1
				 M481.744,184.707L481.744,184.707c0.506-1.1,0.924-2.367,0.559-3.889C481.822,182.025,481.613,183.533,481.744,184.707
				L481.744,184.707 M477.013,219.105c0.041-0.078,0.078-0.152,0.119-0.23C477.092,218.961,477.051,219.039,477.013,219.105
				 M480.549,202.475v-0.969c0.012-0.049,0.021-0.098,0.031-0.146c0,0.035,0,0.068,0,0.102
				C480.582,201.746,480.562,202.1,480.549,202.475 M466.951,52.087c-0.057-0.398-0.098-0.74-0.123-1.027
				C466.873,51.396,466.914,51.735,466.951,52.087"/>
		</g>
		<path fill="#231F20" d="M467.422,240.723c0.469-0.672,0.922-1.348,1.287-2.139c1.152-2.9,1.891-5.746,2.598-8.684
			c1.109-3.531,1.654-6.18,2.527-10.211c0.127-0.564,0.23-0.799,0.316-0.799c0.322,0,0.367,3.338,0.137,4.813
			c-0.016,0.816-1.371,1.693-1.402,2.496c-0.521,1.625-0.641,3.236-1.057,5.045c-0.088,0.811-0.932,0.371-0.979,0.773
			c-0.725,2.363-0.473,4.623-1.436,5.949C468.728,238.984,468.088,239.879,467.422,240.723"/>
		<path fill="#231F20" d="M460.652,253.043c-0.197,0-0.326-0.104-0.494-0.164c1.395-1.475,2.768-2.873,4.48-4.191
			c-0.16,0.107-0.275,0.158-0.348,0.158c-0.166,0-0.064-0.307,0.328-0.854l0.885-0.379c-0.938,1.664-2.004,3.324-3.744,4.164
			c0.004,0.002-0.408,0.734-0.623,1.09C460.931,252.998,460.779,253.043,460.652,253.043"/>
		<path fill="#231F20" d="M473.871,234.416l0.004-0.016c0.037-0.236-0.004-0.322-0.084-0.322c-0.066,0-0.16,0.057-0.26,0.133
			c0.244-0.264,0.479-0.59,0.693-0.979L473.871,234.416"/>
		<polyline fill="#231F20" points="473.638,235.16 473.871,234.416 473.812,234.781 473.638,235.16 		"/>
		<path fill="#231F20" d="M474.224,233.23c0.195-0.639,0.408-1.291,0.717-1.945C474.76,232.076,474.513,232.715,474.224,233.23"/>
		<path fill="#231F20" d="M472.926,234.773c0.006-0.008,0.014-0.012,0.021-0.021C472.939,234.762,472.931,234.766,472.926,234.773
			 M472.947,234.752c0.131-0.102,0.379-0.381,0.584-0.541C473.338,234.424,473.14,234.605,472.947,234.752"/>
		<path fill="#231F20" d="M471.621,239.207c0.014-0.428-0.063-0.762,0.266-1.17c0.326-0.281,0.582-0.594,0.813-0.92
			C472.353,237.822,471.982,238.516,471.621,239.207"/>
	</g>
	<g>
		<path fill="#2E2E2E" stroke="#2D2E2E" stroke-miterlimit="10" d="M480.545,202.482c0-0.004,0.004-0.008,0.004-0.008
			c0.016-0.375,0.033-0.729,0.033-1.016c0-0.031,0-0.064,0-0.1c-0.004-0.268-0.004-0.535,0.004-0.795
			c0.02-0.861,0.107-1.652,0.494-2.164l-0.531,4.076L480.545,202.482"/>
		<g>
			<polyline fill="#2E2E2E" stroke="#2D2E2E" stroke-miterlimit="10" points="459.256,253.805 460.07,252.854 460.158,252.879 
				459.304,253.789 459.256,253.805 			"/>
			<path fill="#2E2E2E" stroke="#2D2E2E" stroke-miterlimit="10" d="M474.689,226.055l0.289-1.203
				c0.275-0.045,0.549,0.063,0.844-0.473l0.021-1.24c1.125-1.533,1.324-3.438,1.475-5.324l-0.639,0.701
				c-0.107,0.602-0.082,0.918,0.037,0.918c0.068,0,0.17-0.107,0.297-0.326c-0.98,1.92-1.553,3.787-2.035,5.744l-0.094,0.021
				c0.639-3.543,1.031-7.391,1.109-10.742c0.357-0.301,0.727-0.367,1.092-0.424l0,0c-0.365,0.057-0.734,0.123-1.092,0.424
				l0.023-1.383c0.096-0.713,0.248-1.365,0.412-2.025c0.314-1.033,0.635-2.1,0.941-3.291c0.482-1.566-0.459-3.648-0.402-6.164
				c-0.064-0.404,0.859-0.215,0.73-1.023c-0.078-1.873-0.365-3.479-0.238-5.195c-0.152-0.803,0.971-1.977,0.807-2.783
				c-0.107-1.469-0.779-4.725-1.1-4.725c-0.09,0-0.148,0.248-0.162,0.854c-0.057,4.186,0.006,6.938-0.168,10.68
				c-0.094-3.371-0.18-6.877-0.008-10.945c0.119-2.59,0.684-5.99,0.568-9.201c-0.402-4.396-1.285-8.982-1.293-14.268
				c0.289-19.895-1.191-37.285-1.252-55.928c-0.178-3.591-0.615-6.753-0.68-9.761c-0.125-6.02-1.422-12.381-2.592-18.414
				c-1.154-6.047-2.18-11.767-1.594-16.904c0.357-3.541-0.604-8.278-1.619-11.166c-0.561-1.605-1.1-2.648-1.373-2.648
				c-0.168,0-0.24,0.374-0.172,1.225c-0.615-4.717-1.732-7.892-2.523-10.542c-0.861-2.847-1.367-5.101-0.811-8.17
				c0.025-0.227,0.527-1.752,1.619-2.332c0.252-0.131,0.539-0.215,0.861-0.215c1.063,0,2.506,0.887,4.33,3.771
				c1.27,3.004,3.094,7.427,4.607,11.987c1.529,4.556,2.758,9.235,3.201,12.604c1.064,8.79,2.371,16.947,3.479,25.121
				c1.096,8.162,1.982,16.324,2.033,24.886c0.051,8.583-0.031,17.289-0.137,26.331l-0.242,23.997
				c-0.133,7.779-0.17,15.484-0.656,23.531c-0.137,2.498-0.305,4.941-0.506,7.359l0,0l-0.324,3.693
				c-0.035,0.09-0.072,0.197-0.109,0.324l0.094-0.164l-0.086,0.877c-0.504,0.693-0.463,1.875-0.434,3.066
				c0.004,0.293-0.004,0.648-0.012,1.029c-0.189,1.621-0.396,3.236-0.625,4.863l-0.045-0.355l0.006-0.246l0.529-4.076
				c-0.387,0.512-0.475,1.303-0.494,2.164c-0.021,0.32-0.031,0.631-0.035,0.939c-0.102,0.432-0.234,0.795-0.391,1.117
				c0.084-0.115,0.166-0.199,0.232-0.199s0.119,0.076,0.152,0.277v0.021l-0.012,0.762l-0.313,2.123
				c-0.117,0.373-0.271,0.744-0.482,1.1c-0.174,0.49-0.006,0.779,0.123,1.178c-0.791,4.857-1.771,9.797-3.127,14.973
				C476.738,222.859,475.41,225.373,474.689,226.055 M480.158,202.623c-0.16,0.227-0.326,0.578-0.424,0.705
				C479.883,203.127,480.029,202.887,480.158,202.623 M480.783,186.932c0,0.504,0.381,1.076,0.381,1.637
				C481.164,188.008,480.783,187.436,480.783,186.932 M482.164,186.1l-0.502,0.813l0,0L482.164,186.1L482.164,186.1
				 M481.744,184.707L481.744,184.707c0.506-1.1,0.924-2.367,0.559-3.889C481.822,182.025,481.613,183.533,481.744,184.707
				L481.744,184.707 M477.013,219.105c0.041-0.078,0.078-0.152,0.119-0.23C477.092,218.961,477.051,219.039,477.013,219.105
				 M480.549,202.475v-0.969c0.012-0.049,0.021-0.098,0.031-0.146c0,0.035,0,0.068,0,0.102
				C480.582,201.746,480.562,202.1,480.549,202.475 M466.951,52.087c-0.057-0.398-0.098-0.74-0.123-1.027
				C466.873,51.396,466.914,51.735,466.951,52.087"/>
		</g>
		<path fill="#2E2E2E" stroke="#2D2E2E" stroke-miterlimit="10" d="M467.422,240.723c0.469-0.672,0.922-1.348,1.287-2.139
			c1.152-2.9,1.891-5.746,2.598-8.684c1.109-3.531,1.654-6.18,2.527-10.211c0.127-0.564,0.23-0.799,0.316-0.799
			c0.322,0,0.367,3.338,0.137,4.813c-0.016,0.816-1.371,1.693-1.402,2.496c-0.521,1.625-0.641,3.236-1.057,5.045
			c-0.088,0.811-0.932,0.371-0.979,0.773c-0.725,2.363-0.473,4.623-1.436,5.949C468.728,238.984,468.088,239.879,467.422,240.723"/>
		<path fill="#2E2E2E" stroke="#2D2E2E" stroke-miterlimit="10" d="M460.652,253.043c-0.197,0-0.326-0.104-0.494-0.164
			c1.395-1.475,2.768-2.873,4.48-4.191c-0.16,0.107-0.275,0.158-0.348,0.158c-0.166,0-0.064-0.307,0.328-0.854l0.885-0.379
			c-0.938,1.664-2.004,3.324-3.744,4.164c0.004,0.002-0.408,0.734-0.623,1.09C460.931,252.998,460.779,253.043,460.652,253.043"/>
		<path fill="#2E2E2E" stroke="#2D2E2E" stroke-miterlimit="10" d="M473.871,234.416l0.004-0.016
			c0.037-0.236-0.004-0.322-0.084-0.322c-0.066,0-0.16,0.057-0.26,0.133c0.244-0.264,0.479-0.59,0.693-0.979L473.871,234.416"/>
		<polyline fill="#2E2E2E" stroke="#2D2E2E" stroke-miterlimit="10" points="473.638,235.16 473.871,234.416 473.812,234.781 
			473.638,235.16 		"/>
		<path fill="#2E2E2E" stroke="#2D2E2E" stroke-miterlimit="10" d="M474.224,233.23c0.195-0.639,0.408-1.291,0.717-1.945
			C474.76,232.076,474.513,232.715,474.224,233.23"/>
		<path fill="#2E2E2E" stroke="#2D2E2E" stroke-miterlimit="10" d="M472.926,234.773c0.006-0.008,0.014-0.012,0.021-0.021
			C472.939,234.762,472.931,234.766,472.926,234.773 M472.947,234.752c0.131-0.102,0.379-0.381,0.584-0.541
			C473.338,234.424,473.14,234.605,472.947,234.752"/>
		<path fill="#2E2E2E" stroke="#2D2E2E" stroke-miterlimit="10" d="M471.621,239.207c0.014-0.428-0.063-0.762,0.266-1.17
			c0.326-0.281,0.582-0.594,0.813-0.92C472.353,237.822,471.982,238.516,471.621,239.207"/>
	</g>
</g>
<g id="_x28_">
	<path fill="#2E2E2E" stroke="#2D2E2E" stroke-miterlimit="10" d="M83.059,233.014c-0.145-0.76-0.279-1.514-0.531-2.287
		c-1.084-2.73-2.18-5.285-3.193-7.984c-0.953-3.391-1.736-5.838-2.617-9.666c-0.123-0.578-0.111-0.816-0.014-0.816
		c0.33,0,1.668,2.748,2.145,4.008c0.352,0.676-0.428,2.021-0.068,2.699c0.344,1.58,1.078,2.93,1.729,4.545
		c0.373,0.664-0.559,0.799-0.371,1.137c0.758,2.238,2.375,3.689,2.506,5.199L83.059,233.014"/>
	<path fill="#2E2E2E" stroke="#2D2E2E" stroke-miterlimit="10" d="M88.598,244.992c-0.693-1.715-1.191-3.457-1.279-5.418
		c-0.002,0.264-0.051,0.395-0.131,0.395c-0.105,0-0.266-0.238-0.441-0.707l0.219-0.865c0.76,1.553,1.535,3.086,1.412,4.84
		l0.652,0.932C89.081,244.721,88.798,244.795,88.598,244.992"/>
	<path fill="#2E2E2E" stroke="#2D2E2E" stroke-miterlimit="10" d="M80.292,217.992c-0.107-0.363-0.215-0.73-0.307-1.096
		c0.223-0.164,0.516-0.201,0.533-0.758l-0.529-1.014c0.342-1.727-0.238-3.354-0.809-4.994l-0.324,0.828
		c0.125,0.504,0.26,0.762,0.365,0.762c0.074,0,0.135-0.131,0.17-0.387c-0.15,1.973,0.125,3.766,0.594,5.563l-0.074,0.059
		c-1.07-3.146-2.217-6.549-3.279-9.508c0.227-0.383,0.551-0.564,0.881-0.736c0.023,0.283,0.025,0.617,0.025,0.961
		c0-0.344-0.002-0.678-0.025-0.961c-0.33,0.172-0.654,0.354-0.881,0.736l-0.448-1.219c-0.145-0.658-0.207-1.285-0.254-1.92
		l-0.064-3.193c0.033-1.52-1.418-3.139-1.939-5.447c-0.15-0.354,0.789-0.391,0.488-1.096c-0.484-1.674-1.08-3.09-1.266-4.686
		c-0.295-0.709,0.609-1.98,0.324-2.689c-0.355-1.303-1.447-4.18-1.771-4.18c-0.092,0-0.123,0.232-0.053,0.813
		c0.529,3.881,1.068,6.404,1.676,9.865c-0.805-3.063-1.502-6.293-1.885-10.088c-0.238-2.418-0.061-5.629-0.451-8.586
		c-0.787-4.025-1.926-8.225-2.176-13.07c-0.588-18.262-2.055-34.39-0.543-51.657c0.129-3.331,0.029-6.294,0.324-9.072
		c1.174-11.113-1.305-24.023,2.498-32.914c1.988-4.861,1.873-13.022,1.111-13.022c-0.154,0-0.336,0.336-0.533,1.106
		c1.896-8.992,0.219-12.625,3.564-17.212c0.117-0.183,1.263-1.359,2.554-1.359c1.193,0,2.512,1.008,3.25,4.749
		c0.08,5.809,0.33,16.971-0.654,22.943c-2.744,15.551-1.961,29.622-3.33,44.985c-0.687,7.705-1.171,15.567-1.399,23.755
		c-0.35,15.118,0.193,28.538,0.791,43.093l0.37,6.666l0,0l0.23,3.354c-0.02,0.086-0.041,0.186-0.057,0.309l0.068-0.164l0.061,0.791
		c-0.381,0.711-0.133,1.762,0.119,2.809c0.063,0.26,0.123,0.578,0.189,0.916c0.133,1.475,0.277,2.945,0.438,4.424l-0.127-0.305
		l0.166,0.672l0.223,1.934c-0.02,0.357-0.07,0.719-0.18,1.086c-0.041,0.475,0.203,0.68,0.434,0.99
		c0.574,4.426,1.303,8.941,2.287,13.691l0,0C80.663,214.518,80.575,217.111,80.292,217.992 M77.538,207.832
		c0,0.361,0.002,0.717,0.027,1.012C77.54,208.549,77.538,208.193,77.538,207.832 M77.337,196.146
		c-0.102,0.238-0.182,0.59-0.244,0.725C77.19,196.656,77.274,196.41,77.337,196.146 M77.292,194.229
		c0.049,0.289,0.107,0.57,0.172,0.846c0,0.402-0.049,0.754-0.127,1.074c0.063-0.135,0.129-0.234,0.203-0.234
		c0.061,0,0.121,0.061,0.189,0.211l0.008,0.02l-0.057-0.215l-0.35-3.715C77.052,192.746,77.126,193.463,77.292,194.229
		 M76.815,184.014L76.815,184.014L76.815,184.014 M75.189,181.881c0,0.531,0.609,1.068,0.607,1.666
		C75.799,182.949,75.189,182.412,75.189,181.881 M76.464,181.057l-0.397,0.795l0,0L76.464,181.057L76.464,181.057 M75.883,179.85
		L75.883,179.85c0.379-1.051,0.663-2.23,0.154-3.564C75.672,177.42,75.623,178.807,75.883,179.85L75.883,179.85 M79.391,211.334
		c0.006-0.082,0.012-0.164,0.021-0.244C79.407,211.184,79.399,211.264,79.391,211.334 M77.677,195.912l-0.213-0.838
		c0-0.049,0-0.094-0.002-0.139c0.01,0.029,0.018,0.061,0.023,0.09C77.548,195.273,77.61,195.582,77.677,195.912 M71.482,57.249
		c0.064-0.329,0.127-0.613,0.188-0.855C71.611,56.673,71.549,56.958,71.482,57.249"/>
</g>
<g id="purity_of_nature">
</g>
</svg>
