<?xml version="1.0" encoding="utf-8"?>
<!-- Generator: Adobe Illustrator 16.0.0, SVG Export Plug-In . SVG Version: 6.00 Build 0)  -->
<!DOCTYPE svg PUBLIC "-//W3C//DTD SVG 1.1//EN" "http://www.w3.org/Graphics/SVG/1.1/DTD/svg11.dtd">
<svg version="1.1" xmlns="http://www.w3.org/2000/svg" xmlns:xlink="http://www.w3.org/1999/xlink" x="0px" y="0px"
	 width="549.244px" height="281px" viewBox="0 601 549.244 281" enable-background="new 0 601 549.244 281" xml:space="preserve">
<g id="Layer_1" display="none">
</g>
<g id="about_us">
	<g>
		<rect x="-9.001" y="695.25" fill="none" width="549.247" height="144.146"/>
		<path fill="#2E2E2E" stroke="#2D2E2E" stroke-miterlimit="10" d="M193.076,706.252h3.342c9.003,0,14.574,3.529,16.71,10.583v0.557
			h-1.114c0-3.712-5.2-5.569-15.596-5.569h-1.671c-21.445,0-40.199,15.596-56.259,46.789c-1.486,5.385-2.228,9.469-2.228,12.254
			c0,10.027,7.241,16.154,21.724,18.383l5.57,0.557h2.785c8.912,0,21.724-2.598,38.434-7.799c-1.114,2.601-9.099,6.5-23.952,11.697
			l-15.597,2.229c-16.525-0.278-27.481-5.662-32.864-16.154c-1.114-2.784-1.671-5.754-1.671-8.912v-1.67
			c0-13.555,9.654-29.893,28.965-49.019C170.702,710.895,181.843,706.252,193.076,706.252z"/>
		<path fill="#2E2E2E" stroke="#2D2E2E" stroke-miterlimit="10" d="M233.11,747.75c4.084,0.277,6.127,1.949,6.127,5.013
			l-2.228,1.671l-0.557-0.557h-0.557v0.557c3.342,3.992,5.013,6.963,5.013,8.912v3.899c-3.899,10.026-10.398,15.04-19.496,15.04
			h-3.342c-5.2-1.206-7.798-3.807-7.798-7.799v-1.671c0-6.963,5.755-14.761,17.268-23.396L233.11,747.75z M226.983,756.662
			l-5.013,5.57v4.455h-1.114v-2.785c-1.393,0-3.063,3.158-5.013,9.47c0,2.229,1.299,3.343,3.899,3.343h2.228
			c8.912-2.971,13.368-6.685,13.368-11.141v-0.557C233.758,759.447,230.973,756.662,226.983,756.662z"/>
		<path fill="#2E2E2E" stroke="#2D2E2E" stroke-miterlimit="10" d="M251.14,735.773h1.671c1.114,0.372,1.671,1.486,1.671,3.342
			v2.785l-2.229,26.737v0.558h0.557c3.621-15.225,6.776-22.838,9.469-22.838h0.557c4.456,0,6.685,7.24,6.685,21.723
			c3.063,15.969,6.59,23.952,10.583,23.952c1.114,0,3.155-1.299,6.128-3.899v0.558c-2.694,4.456-5.479,6.685-8.355,6.685h-1.114
			c-7.057,0-11.698-12.996-13.926-38.992h-0.557c-5.013,19.404-8.355,30.545-10.026,33.422l-1.671,1.113h-1.671
			c-2.228-1.02-3.342-3.434-3.342-7.24C247.52,751.742,249.376,735.773,251.14,735.773z"/>
		<path fill="#2E2E2E" stroke="#2D2E2E" stroke-miterlimit="10" d="M290.755,705.694h1.672c1.855,0,2.785,4.828,2.785,14.482v3.899
			h0.557l15.597-3.342h6.128c4.455,0,8.539,2.785,12.254,8.355v1.113h-0.557c-3.529-2.97-7.057-4.456-10.584-4.456
			c-16.341,1.671-24.509,4.087-24.509,7.241c-3.343,26.367-5.013,43.635-5.013,51.803v2.229h0.557v-1.672h1.113v3.9
			c0,2.6-1.113,3.898-3.342,3.898c-2.6-1.114-3.898-2.971-3.898-5.57v-5.014c0-9.281,1.671-25.807,5.013-49.574h-0.558
			l-15.039,2.785h-3.342l-2.228-2.229c0-1.577,7.241-3.99,21.724-7.24v-11.698l-0.558-5.013
			C289.176,706.996,289.92,705.694,290.755,705.694z"/>
		<path fill="#2E2E2E" stroke="#2D2E2E" stroke-miterlimit="10" d="M328.977,749.42h1.672c0.742,0,1.484,1.115,2.229,3.343
			c-0.744,1.671-1.115,4.086-1.115,7.241v1.113c0,7.43,4.642,11.141,13.926,11.141h3.342c2.041,0,5.199-0.742,9.47-2.228h0.558
			c-6.594,4.828-12.721,7.241-18.382,7.241h-1.671c-5.292,0-9.191-2.971-11.697-8.912c-5.479,7.798-10.492,11.697-15.04,11.697
			h-2.785c-4.087-0.742-6.128-2.785-6.128-6.127v-3.342c2.041-10.027,7.055-15.04,15.04-15.04l0.558-0.558l6.684,1.672v-0.558
			C325.635,752.949,326.75,750.722,328.977,749.42z M308.925,772.258v0.558l1.672,1.671h0.557c4.734,0,9.004-4.641,12.812-13.926
			h-0.558c-7.52,0-12.162,2.785-13.925,8.355L308.925,772.258z"/>
		<path fill="#2E2E2E" stroke="#2D2E2E" stroke-miterlimit="10" d="M365.39,747.889h1.671c4.826,0.65,7.241,2.693,7.241,6.127v0.557
			l-1.114,1.115h-1.113c0-1.484-1.302-2.229-3.9-2.229h-1.67c-6.036,0-10.492,5.941-13.369,17.824v0.557
			c0,3.715,3.155,5.57,9.47,5.57h0.557c5.478,0,11.604-1.299,18.382-3.898v1.113c-7.985,5.57-13.184,8.355-15.597,8.355h-5.013
			c-7.52,0-11.977-3.154-13.369-9.469v-2.785c0-6.033,3.155-12.533,9.47-19.496C360.561,749.002,363.346,747.889,365.39,747.889z"/>
		<path fill="#2E2E2E" stroke="#2D2E2E" stroke-miterlimit="10" d="M395.397,705.694h1.671c1.856,0,2.785,4.828,2.785,14.482v3.899
			h0.557l15.597-3.342h6.127c4.457,0,8.541,2.785,12.254,8.355v1.113h-0.557c-3.529-2.97-7.057-4.456-10.582-4.456
			c-16.342,1.671-24.51,4.087-24.51,7.241c-3.342,26.367-5.014,43.635-5.014,51.803v2.229h0.558v-1.672h1.114v3.9
			c0,2.6-1.114,3.898-3.342,3.898c-2.601-1.114-3.9-2.971-3.9-5.57v-5.014c0-9.281,1.672-25.807,5.014-49.574h-0.557l-15.04,2.785
			h-3.342l-2.228-2.229c0-1.577,7.24-3.99,21.723-7.24v-11.698l-0.557-5.013C393.817,706.996,394.561,705.694,395.397,705.694z"/>
	</g>
</g>
<g id="_x29_">
	<g>
		<path fill="#231F20" d="M464.545,803.482c0-0.004,0.004-0.008,0.004-0.008c0.016-0.375,0.033-0.729,0.033-1.016
			c0-0.031,0-0.064,0-0.1c-0.004-0.268-0.004-0.535,0.004-0.795c0.02-0.861,0.107-1.652,0.494-2.164l-0.531,4.076L464.545,803.482"
			/>
		<g>
			<polyline fill="#231F20" points="443.256,854.805 444.07,853.854 444.158,853.879 443.304,854.789 443.256,854.805 			"/>
			<path fill="#231F20" d="M458.689,827.055l0.289-1.203c0.275-0.045,0.549,0.063,0.844-0.473l0.021-1.24
				c1.125-1.533,1.324-3.438,1.475-5.324l-0.639,0.701c-0.107,0.602-0.082,0.918,0.037,0.918c0.068,0,0.17-0.107,0.297-0.326
				c-0.98,1.92-1.553,3.787-2.035,5.744l-0.094,0.021c0.639-3.543,1.031-7.391,1.109-10.742c0.357-0.301,0.727-0.367,1.092-0.424
				l0,0c-0.365,0.057-0.734,0.123-1.092,0.424l0.023-1.383c0.096-0.713,0.248-1.365,0.412-2.025c0.314-1.033,0.635-2.1,0.941-3.291
				c0.482-1.566-0.459-3.648-0.402-6.164c-0.064-0.404,0.859-0.215,0.73-1.023c-0.078-1.873-0.365-3.479-0.238-5.195
				c-0.152-0.803,0.971-1.977,0.807-2.783c-0.107-1.469-0.779-4.725-1.1-4.725c-0.09,0-0.148,0.248-0.162,0.854
				c-0.057,4.186,0.006,6.938-0.168,10.68c-0.094-3.371-0.18-6.877-0.008-10.945c0.119-2.59,0.684-5.99,0.568-9.201
				c-0.402-4.396-1.285-8.982-1.293-14.268c0.289-19.895-1.191-37.285-1.252-55.928c-0.178-3.591-0.615-6.753-0.68-9.761
				c-0.125-6.02-1.422-12.381-2.592-18.414c-1.154-6.047-2.18-11.767-1.594-16.904c0.357-3.541-0.604-8.278-1.619-11.166
				c-0.561-1.605-1.1-2.648-1.373-2.648c-0.168,0-0.24,0.374-0.172,1.225c-0.615-4.717-1.732-7.892-2.523-10.542
				c-0.861-2.847-1.367-5.101-0.811-8.17c0.025-0.227,0.527-1.752,1.619-2.332c0.252-0.131,0.539-0.215,0.861-0.215
				c1.063,0,2.506,0.887,4.33,3.771c1.27,3.004,3.094,7.427,4.607,11.987c1.529,4.556,2.758,9.235,3.201,12.604
				c1.064,8.79,2.371,16.947,3.479,25.121c1.096,8.162,1.982,16.324,2.033,24.886c0.051,8.583-0.031,17.289-0.137,26.331
				l-0.242,23.997c-0.133,7.779-0.17,15.484-0.656,23.531c-0.137,2.498-0.305,4.941-0.506,7.359l0,0l-0.324,3.693
				c-0.035,0.09-0.072,0.197-0.109,0.324l0.094-0.164l-0.086,0.877c-0.504,0.693-0.463,1.875-0.434,3.066
				c0.004,0.293-0.004,0.648-0.012,1.029c-0.189,1.621-0.396,3.236-0.625,4.863l-0.045-0.355l0.006-0.246l0.529-4.076
				c-0.387,0.512-0.475,1.303-0.494,2.164c-0.021,0.32-0.031,0.631-0.035,0.939c-0.102,0.432-0.234,0.795-0.391,1.117
				c0.084-0.115,0.166-0.199,0.232-0.199s0.119,0.076,0.152,0.277v0.021l-0.012,0.762l-0.313,2.123
				c-0.117,0.373-0.271,0.744-0.482,1.1c-0.174,0.49-0.006,0.779,0.123,1.178c-0.791,4.857-1.771,9.797-3.127,14.973
				C460.738,823.859,459.41,826.373,458.689,827.055 M464.158,803.623c-0.16,0.227-0.326,0.578-0.424,0.705
				C463.883,804.127,464.029,803.887,464.158,803.623 M464.783,787.932c0,0.504,0.381,1.076,0.381,1.637
				C465.164,789.008,464.783,788.436,464.783,787.932 M466.164,787.1l-0.502,0.813l0,0L466.164,787.1L466.164,787.1
				 M465.744,785.707L465.744,785.707c0.506-1.1,0.924-2.367,0.559-3.889C465.822,783.025,465.613,784.533,465.744,785.707
				L465.744,785.707 M461.013,820.105c0.041-0.078,0.078-0.152,0.119-0.23C461.092,819.961,461.051,820.039,461.013,820.105
				 M464.549,803.475v-0.969c0.012-0.049,0.021-0.098,0.031-0.146c0,0.035,0,0.068,0,0.102
				C464.582,802.746,464.562,803.1,464.549,803.475 M450.951,653.087c-0.057-0.398-0.098-0.74-0.123-1.027
				C450.873,652.396,450.914,652.735,450.951,653.087"/>
		</g>
		<path fill="#231F20" d="M451.422,841.723c0.469-0.672,0.922-1.348,1.287-2.139c1.152-2.9,1.891-5.746,2.598-8.684
			c1.109-3.531,1.654-6.18,2.527-10.211c0.127-0.564,0.23-0.799,0.316-0.799c0.322,0,0.367,3.338,0.137,4.813
			c-0.016,0.816-1.371,1.693-1.402,2.496c-0.521,1.625-0.641,3.236-1.057,5.045c-0.088,0.811-0.932,0.371-0.979,0.773
			c-0.725,2.363-0.473,4.623-1.436,5.949C452.728,839.984,452.088,840.879,451.422,841.723"/>
		<path fill="#231F20" d="M444.652,854.043c-0.197,0-0.326-0.104-0.494-0.164c1.395-1.475,2.768-2.873,4.48-4.191
			c-0.16,0.107-0.275,0.158-0.348,0.158c-0.166,0-0.064-0.307,0.328-0.854l0.885-0.379c-0.938,1.664-2.004,3.324-3.744,4.164
			c0.004,0.002-0.408,0.734-0.623,1.09C444.931,853.998,444.779,854.043,444.652,854.043"/>
		<path fill="#231F20" d="M457.871,835.416l0.004-0.016c0.037-0.236-0.004-0.322-0.084-0.322c-0.066,0-0.16,0.057-0.26,0.133
			c0.244-0.264,0.479-0.59,0.693-0.979L457.871,835.416"/>
		<polyline fill="#231F20" points="457.638,836.16 457.871,835.416 457.812,835.781 457.638,836.16 		"/>
		<path fill="#231F20" d="M458.224,834.23c0.195-0.639,0.408-1.291,0.717-1.945C458.76,833.076,458.513,833.715,458.224,834.23"/>
		<path fill="#231F20" d="M456.926,835.773c0.006-0.008,0.014-0.012,0.021-0.021C456.939,835.762,456.931,835.766,456.926,835.773
			 M456.947,835.752c0.131-0.102,0.379-0.381,0.584-0.541C457.338,835.424,457.14,835.605,456.947,835.752"/>
		<path fill="#231F20" d="M455.621,840.207c0.014-0.428-0.063-0.762,0.266-1.17c0.326-0.281,0.582-0.594,0.813-0.92
			C456.353,838.822,455.982,839.516,455.621,840.207"/>
	</g>
	<g>
		<path fill="#2E2E2E" stroke="#2D2E2E" stroke-miterlimit="10" d="M464.545,803.482c0-0.004,0.004-0.008,0.004-0.008
			c0.016-0.375,0.033-0.729,0.033-1.016c0-0.031,0-0.064,0-0.1c-0.004-0.268-0.004-0.535,0.004-0.795
			c0.02-0.861,0.107-1.652,0.494-2.164l-0.531,4.076L464.545,803.482"/>
		<g>
			<polyline fill="#2E2E2E" stroke="#2D2E2E" stroke-miterlimit="10" points="443.256,854.805 444.07,853.854 444.158,853.879 
				443.304,854.789 443.256,854.805 			"/>
			<path fill="#2E2E2E" stroke="#2D2E2E" stroke-miterlimit="10" d="M458.689,827.055l0.289-1.203
				c0.275-0.045,0.549,0.063,0.844-0.473l0.021-1.24c1.125-1.533,1.324-3.438,1.475-5.324l-0.639,0.701
				c-0.107,0.602-0.082,0.918,0.037,0.918c0.068,0,0.17-0.107,0.297-0.326c-0.98,1.92-1.553,3.787-2.035,5.744l-0.094,0.021
				c0.639-3.543,1.031-7.391,1.109-10.742c0.357-0.301,0.727-0.367,1.092-0.424l0,0c-0.365,0.057-0.734,0.123-1.092,0.424
				l0.023-1.383c0.096-0.713,0.248-1.365,0.412-2.025c0.314-1.033,0.635-2.1,0.941-3.291c0.482-1.566-0.459-3.648-0.402-6.164
				c-0.064-0.404,0.859-0.215,0.73-1.023c-0.078-1.873-0.365-3.479-0.238-5.195c-0.152-0.803,0.971-1.977,0.807-2.783
				c-0.107-1.469-0.779-4.725-1.1-4.725c-0.09,0-0.148,0.248-0.162,0.854c-0.057,4.186,0.006,6.938-0.168,10.68
				c-0.094-3.371-0.18-6.877-0.008-10.945c0.119-2.59,0.684-5.99,0.568-9.201c-0.402-4.396-1.285-8.982-1.293-14.268
				c0.289-19.895-1.191-37.285-1.252-55.928c-0.178-3.591-0.615-6.753-0.68-9.761c-0.125-6.02-1.422-12.381-2.592-18.414
				c-1.154-6.047-2.18-11.767-1.594-16.904c0.357-3.541-0.604-8.278-1.619-11.166c-0.561-1.605-1.1-2.648-1.373-2.648
				c-0.168,0-0.24,0.374-0.172,1.225c-0.615-4.717-1.732-7.892-2.523-10.542c-0.861-2.847-1.367-5.101-0.811-8.17
				c0.025-0.227,0.527-1.752,1.619-2.332c0.252-0.131,0.539-0.215,0.861-0.215c1.063,0,2.506,0.887,4.33,3.771
				c1.27,3.004,3.094,7.427,4.607,11.987c1.529,4.556,2.758,9.235,3.201,12.604c1.064,8.79,2.371,16.947,3.479,25.121
				c1.096,8.162,1.982,16.324,2.033,24.886c0.051,8.583-0.031,17.289-0.137,26.331l-0.242,23.997
				c-0.133,7.779-0.17,15.484-0.656,23.531c-0.137,2.498-0.305,4.941-0.506,7.359l0,0l-0.324,3.693
				c-0.035,0.09-0.072,0.197-0.109,0.324l0.094-0.164l-0.086,0.877c-0.504,0.693-0.463,1.875-0.434,3.066
				c0.004,0.293-0.004,0.648-0.012,1.029c-0.189,1.621-0.396,3.236-0.625,4.863l-0.045-0.355l0.006-0.246l0.529-4.076
				c-0.387,0.512-0.475,1.303-0.494,2.164c-0.021,0.32-0.031,0.631-0.035,0.939c-0.102,0.432-0.234,0.795-0.391,1.117
				c0.084-0.115,0.166-0.199,0.232-0.199s0.119,0.076,0.152,0.277v0.021l-0.012,0.762l-0.313,2.123
				c-0.117,0.373-0.271,0.744-0.482,1.1c-0.174,0.49-0.006,0.779,0.123,1.178c-0.791,4.857-1.771,9.797-3.127,14.973
				C460.738,823.859,459.41,826.373,458.689,827.055 M464.158,803.623c-0.16,0.227-0.326,0.578-0.424,0.705
				C463.883,804.127,464.029,803.887,464.158,803.623 M464.783,787.932c0,0.504,0.381,1.076,0.381,1.637
				C465.164,789.008,464.783,788.436,464.783,787.932 M466.164,787.1l-0.502,0.813l0,0L466.164,787.1L466.164,787.1
				 M465.744,785.707L465.744,785.707c0.506-1.1,0.924-2.367,0.559-3.889C465.822,783.025,465.613,784.533,465.744,785.707
				L465.744,785.707 M461.013,820.105c0.041-0.078,0.078-0.152,0.119-0.23C461.092,819.961,461.051,820.039,461.013,820.105
				 M464.549,803.475v-0.969c0.012-0.049,0.021-0.098,0.031-0.146c0,0.035,0,0.068,0,0.102
				C464.582,802.746,464.562,803.1,464.549,803.475 M450.951,653.087c-0.057-0.398-0.098-0.74-0.123-1.027
				C450.873,652.396,450.914,652.735,450.951,653.087"/>
		</g>
		<path fill="#2E2E2E" stroke="#2D2E2E" stroke-miterlimit="10" d="M451.422,841.723c0.469-0.672,0.922-1.348,1.287-2.139
			c1.152-2.9,1.891-5.746,2.598-8.684c1.109-3.531,1.654-6.18,2.527-10.211c0.127-0.564,0.23-0.799,0.316-0.799
			c0.322,0,0.367,3.338,0.137,4.813c-0.016,0.816-1.371,1.693-1.402,2.496c-0.521,1.625-0.641,3.236-1.057,5.045
			c-0.088,0.811-0.932,0.371-0.979,0.773c-0.725,2.363-0.473,4.623-1.436,5.949C452.728,839.984,452.088,840.879,451.422,841.723"/>
		<path fill="#2E2E2E" stroke="#2D2E2E" stroke-miterlimit="10" d="M444.652,854.043c-0.197,0-0.326-0.104-0.494-0.164
			c1.395-1.475,2.768-2.873,4.48-4.191c-0.16,0.107-0.275,0.158-0.348,0.158c-0.166,0-0.064-0.307,0.328-0.854l0.885-0.379
			c-0.938,1.664-2.004,3.324-3.744,4.164c0.004,0.002-0.408,0.734-0.623,1.09C444.931,853.998,444.779,854.043,444.652,854.043"/>
		<path fill="#2E2E2E" stroke="#2D2E2E" stroke-miterlimit="10" d="M457.871,835.416l0.004-0.016
			c0.037-0.236-0.004-0.322-0.084-0.322c-0.066,0-0.16,0.057-0.26,0.133c0.244-0.264,0.479-0.59,0.693-0.979L457.871,835.416"/>
		<polyline fill="#2E2E2E" stroke="#2D2E2E" stroke-miterlimit="10" points="457.638,836.16 457.871,835.416 457.812,835.781 
			457.638,836.16 		"/>
		<path fill="#2E2E2E" stroke="#2D2E2E" stroke-miterlimit="10" d="M458.224,834.23c0.195-0.639,0.408-1.291,0.717-1.945
			C458.76,833.076,458.513,833.715,458.224,834.23"/>
		<path fill="#2E2E2E" stroke="#2D2E2E" stroke-miterlimit="10" d="M456.926,835.773c0.006-0.008,0.014-0.012,0.021-0.021
			C456.939,835.762,456.931,835.766,456.926,835.773 M456.947,835.752c0.131-0.102,0.379-0.381,0.584-0.541
			C457.338,835.424,457.14,835.605,456.947,835.752"/>
		<path fill="#2E2E2E" stroke="#2D2E2E" stroke-miterlimit="10" d="M455.621,840.207c0.014-0.428-0.063-0.762,0.266-1.17
			c0.326-0.281,0.582-0.594,0.813-0.92C456.353,838.822,455.982,839.516,455.621,840.207"/>
	</g>
</g>
<g id="_x28_">
	<path fill="#2E2E2E" stroke="#2D2E2E" stroke-miterlimit="10" d="M101.059,834.014c-0.145-0.76-0.279-1.514-0.531-2.287
		c-1.084-2.73-2.18-5.285-3.193-7.984c-0.953-3.391-1.736-5.838-2.617-9.666c-0.123-0.578-0.111-0.816-0.014-0.816
		c0.33,0,1.668,2.748,2.145,4.008c0.352,0.676-0.428,2.021-0.068,2.699c0.344,1.58,1.078,2.93,1.729,4.545
		c0.373,0.664-0.559,0.799-0.371,1.137c0.758,2.238,2.375,3.689,2.506,5.199L101.059,834.014"/>
	<path fill="#2E2E2E" stroke="#2D2E2E" stroke-miterlimit="10" d="M106.598,845.992c-0.693-1.715-1.191-3.457-1.279-5.418
		c-0.002,0.264-0.051,0.395-0.131,0.395c-0.105,0-0.266-0.238-0.441-0.707l0.219-0.865c0.76,1.553,1.535,3.086,1.412,4.84
		l0.652,0.932C107.081,845.721,106.798,845.795,106.598,845.992"/>
	<path fill="#2E2E2E" stroke="#2D2E2E" stroke-miterlimit="10" d="M98.292,818.992c-0.107-0.363-0.215-0.73-0.307-1.096
		c0.223-0.164,0.516-0.201,0.533-0.758l-0.529-1.014c0.342-1.727-0.238-3.354-0.809-4.994l-0.324,0.828
		c0.125,0.504,0.26,0.762,0.365,0.762c0.074,0,0.135-0.131,0.17-0.387c-0.15,1.973,0.125,3.766,0.594,5.563l-0.074,0.059
		c-1.07-3.146-2.217-6.549-3.279-9.508c0.227-0.383,0.551-0.564,0.881-0.736c0.023,0.283,0.025,0.617,0.025,0.961
		c0-0.344-0.002-0.678-0.025-0.961c-0.33,0.172-0.654,0.354-0.881,0.736l-0.448-1.219c-0.145-0.658-0.207-1.285-0.254-1.92
		l-0.064-3.193c0.033-1.52-1.418-3.139-1.939-5.447c-0.15-0.354,0.789-0.391,0.488-1.096c-0.484-1.674-1.08-3.09-1.266-4.686
		c-0.295-0.709,0.609-1.98,0.324-2.689c-0.355-1.303-1.447-4.18-1.771-4.18c-0.092,0-0.123,0.232-0.053,0.813
		c0.529,3.881,1.068,6.404,1.676,9.865c-0.805-3.063-1.502-6.293-1.885-10.088c-0.238-2.418-0.061-5.629-0.451-8.586
		c-0.787-4.025-1.926-8.225-2.176-13.07c-0.588-18.262-2.055-34.39-0.543-51.657c0.129-3.331,0.029-6.294,0.324-9.072
		c1.174-11.113-1.305-24.023,2.498-32.914c1.988-4.861,1.873-13.022,1.111-13.022c-0.154,0-0.336,0.336-0.533,1.106
		c1.896-8.992,0.219-12.625,3.564-17.212c0.117-0.183,1.263-1.359,2.554-1.359c1.193,0,2.512,1.008,3.25,4.749
		c0.08,5.809,0.33,16.971-0.654,22.943c-2.744,15.551-1.961,29.622-3.33,44.985c-0.687,7.705-1.171,15.567-1.399,23.755
		c-0.35,15.118,0.193,28.538,0.791,43.093l0.37,6.666l0,0l0.23,3.354c-0.02,0.086-0.041,0.186-0.057,0.309l0.068-0.164l0.061,0.791
		c-0.381,0.711-0.133,1.762,0.119,2.809c0.063,0.26,0.123,0.578,0.189,0.916c0.133,1.475,0.277,2.945,0.438,4.424l-0.127-0.305
		l0.166,0.672l0.223,1.934c-0.02,0.357-0.07,0.719-0.18,1.086c-0.041,0.475,0.203,0.68,0.434,0.99
		c0.574,4.426,1.303,8.941,2.287,13.691l0,0C98.663,815.518,98.575,818.111,98.292,818.992 M95.538,808.832
		c0,0.361,0.002,0.717,0.027,1.012C95.54,809.549,95.538,809.193,95.538,808.832 M95.337,797.146
		c-0.102,0.238-0.182,0.59-0.244,0.725C95.19,797.656,95.274,797.41,95.337,797.146 M95.292,795.229
		c0.049,0.289,0.107,0.57,0.172,0.846c0,0.402-0.049,0.754-0.127,1.074c0.063-0.135,0.129-0.234,0.203-0.234
		c0.061,0,0.121,0.061,0.189,0.211l0.008,0.02l-0.057-0.215l-0.35-3.715C95.052,793.746,95.126,794.463,95.292,795.229
		 M94.815,785.014L94.815,785.014L94.815,785.014 M93.189,782.881c0,0.531,0.609,1.068,0.607,1.666
		C93.799,783.949,93.189,783.412,93.189,782.881 M94.464,782.057l-0.397,0.795l0,0L94.464,782.057L94.464,782.057 M93.883,780.85
		L93.883,780.85c0.379-1.051,0.663-2.23,0.154-3.564C93.672,778.42,93.623,779.807,93.883,780.85L93.883,780.85 M97.391,812.334
		c0.006-0.082,0.012-0.164,0.021-0.244C97.407,812.184,97.399,812.264,97.391,812.334 M95.677,796.912l-0.213-0.838
		c0-0.049,0-0.094-0.002-0.139c0.01,0.029,0.018,0.061,0.023,0.09C95.548,796.273,95.61,796.582,95.677,796.912 M89.482,658.249
		c0.064-0.329,0.127-0.613,0.188-0.855C89.611,657.673,89.549,657.958,89.482,658.249"/>
</g>
<g id="purity_of_nature">
</g>
</svg>
