<?xml version="1.0" encoding="utf-8"?>
<!-- Generator: Adobe Illustrator 16.0.0, SVG Export Plug-In . SVG Version: 6.00 Build 0)  -->
<!DOCTYPE svg PUBLIC "-//W3C//DTD SVG 1.1//EN" "http://www.w3.org/Graphics/SVG/1.1/DTD/svg11.dtd">
<svg version="1.1" xmlns="http://www.w3.org/2000/svg" xmlns:xlink="http://www.w3.org/1999/xlink" x="0px" y="0px"
	 width="549.244px" height="281px" viewBox="581 601 549.244 281" enable-background="new 581 601 549.244 281"
	 xml:space="preserve">
<g id="Layer_1" display="none">
</g>
<g id="about_us">
	<g>
		<rect x="581" y="695.25" fill="none" width="549.244" height="144.146"/>
		<path fill="#2E2E2E" stroke="#2D2E2E" stroke-miterlimit="10" d="M748.645,691.49c41.963,1.207,68.514,14.391,79.654,39.549
			c1.484,5.941,2.229,10.77,2.229,14.482v1.113c0,13.834-10.771,29.244-32.307,46.233c-14.762,8.542-26.09,12.812-33.979,12.812
			h-2.229c-11.885-1.205-17.824-6.591-17.824-16.154c0.835-7.054,1.949-10.583,3.342-10.583v0.558l-1.114,5.013v3.343
			c0,6.684,5.198,10.77,15.597,12.254c-4.828-15.318-10.771-29.986-17.824-44.005l-23.952-41.776l-0.558-3.898v-3.343
			c0-4.362,4.087-8.446,12.255-12.255C734.905,693.349,740.475,692.234,748.645,691.49z M725.251,708.758v0.557
			c0,2.416,6.313,13.926,18.939,34.535l14.482,30.08h0.557c0-17.268-2.043-41.033-6.127-71.299l1.113-1.114
			c4.92,2.507,8.078,19.032,9.47,49.575c1.577,32.307,2.877,48.461,3.899,48.461c12.533-2.135,25.901-9.561,40.105-22.281
			c11.51-11.789,17.268-22.56,17.268-32.307c0-15.967-10.213-28.966-30.637-38.992c-12.998-5.57-27.666-8.355-44.004-8.355h-2.229
			C734.442,698.361,726.829,702.074,725.251,708.758z"/>
		<path fill="#2E2E2E" stroke="#2D2E2E" stroke-miterlimit="10" d="M842.431,745.104h0.558l2.228,2.229v0.557l-2.228,23.395
			l1.113,12.255l-1.671,0.557c-3.342-1.114-5.013-4.269-5.013-9.47v-5.013C838.532,753.273,840.204,745.104,842.431,745.104z
			 M844.938,723.24h1.114c2.228,0,4.269,1.672,6.127,5.014v2.785c0,2.043-1.302,3.898-3.899,5.57h-1.671
			c-3.714-0.558-5.569-2.229-5.569-5.014v-2.229C841.04,727.14,842.339,725.099,844.938,723.24z"/>
		<path fill="#2E2E2E" stroke="#2D2E2E" stroke-miterlimit="10" d="M859.766,735.773h1.671c1.114,0.372,1.671,1.486,1.671,3.342
			v2.785l-2.229,26.737v0.558h0.558c3.62-15.225,6.776-22.838,9.47-22.838h0.557c4.456,0,6.685,7.24,6.685,21.723
			c3.063,15.969,6.591,23.952,10.583,23.952c1.114,0,3.155-1.299,6.127-3.899v0.558c-2.693,4.456-5.479,6.685-8.355,6.685h-1.113
			c-7.057,0-11.697-12.996-13.926-38.992h-0.557c-5.014,19.404-8.355,30.545-10.027,33.422l-1.67,1.113h-1.672
			c-2.228-1.02-3.342-3.434-3.342-7.24C856.145,751.742,858.002,735.773,859.766,735.773z"/>
		<path fill="#2E2E2E" stroke="#2D2E2E" stroke-miterlimit="10" d="M895.204,745.104h0.557l2.229,2.229v0.557l-2.229,23.395
			l1.114,12.255l-1.671,0.557c-3.342-1.114-5.014-4.269-5.014-9.47v-5.013C891.304,753.273,892.975,745.104,895.204,745.104z
			 M897.71,723.24h1.115c2.228,0,4.268,1.672,6.127,5.014v2.785c0,2.043-1.302,3.898-3.899,5.57h-1.671
			c-3.715-0.558-5.57-2.229-5.57-5.014v-2.229C893.811,727.14,895.11,725.099,897.71,723.24z"/>
		<path fill="#2E2E2E" stroke="#2D2E2E" stroke-miterlimit="10" d="M912.538,735.773h1.672c1.113,0.372,1.671,1.486,1.671,3.342
			v2.785l-2.229,26.737v0.558h0.558c3.62-15.225,6.775-22.838,9.469-22.838h0.557c4.457,0,6.686,7.24,6.686,21.723
			c3.063,15.969,6.59,23.952,10.582,23.952c1.115,0,3.156-1.299,6.128-3.899v0.558c-2.694,4.456-5.479,6.685-8.355,6.685h-1.114
			c-7.057,0-11.697-12.996-13.926-38.992h-0.557c-5.014,19.404-8.355,30.545-10.026,33.422l-1.671,1.113h-1.671
			c-2.228-1.02-3.343-3.434-3.343-7.24C908.918,751.742,910.774,735.773,912.538,735.773z"/>
		<path fill="#2E2E2E" stroke="#2D2E2E" stroke-miterlimit="10" d="M973.321,737.444c1.762,0,3.063,2.044,3.898,6.128
			c0,3.898-1.671,9.656-5.014,17.268v2.228l1.672,40.105l20.053-5.013v1.113c-11.885,2.879-18.568,4.922-20.053,6.127l1.671,28.408
			l-1.671,1.114h-1.672c-16.152-6.593-33.049-10.12-50.688-10.583c-9.283-1.484-13.926-3.155-13.926-5.014v-2.229
			c0-1.67,7.984-2.784,23.951-3.342l36.207-9.469v-1.672l-1.115-33.978h-0.557c-5.013,4.828-9.1,7.241-12.254,7.241h-1.114
			c-5.2-1.299-7.798-3.712-7.798-7.241v-4.456c2.876-11.141,7.704-16.711,14.482-16.711h0.557c2.413,0,4.641,0.93,6.684,2.785h0.558
			c0.648-8.54,2.507-12.812,5.57-12.812H973.321z M930.43,818.77v0.557c23.395,2.879,35.092,5.292,35.092,7.242l3.898,1.113v-0.557
			l-1.113-20.053h-0.557C950.946,813.014,938.507,816.914,930.43,818.77z M950.483,766.967c0,1.58,0.926,2.693,2.785,3.342
			c3.62,0,7.889-4.27,12.811-12.812v-1.114c0-1.205-2.228-2.319-6.684-3.342C953.453,755.826,950.483,760.469,950.483,766.967z"/>
	</g>
</g>
<g id="_x29_">
	<g>
		<path fill="#231F20" d="M1035.545,803.482c0-0.004,0.004-0.008,0.004-0.008c0.016-0.375,0.033-0.729,0.033-1.016
			c0-0.031,0-0.064,0-0.1c-0.004-0.268-0.004-0.535,0.004-0.795c0.02-0.861,0.107-1.652,0.494-2.164l-0.531,4.076L1035.545,803.482"
			/>
		<g>
			<polyline fill="#231F20" points="1014.256,854.805 1015.07,853.854 1015.158,853.879 1014.304,854.789 1014.256,854.805 			"/>
			<path fill="#231F20" d="M1029.689,827.055l0.289-1.203c0.275-0.045,0.549,0.063,0.844-0.473l0.021-1.24
				c1.125-1.533,1.324-3.438,1.475-5.324l-0.639,0.701c-0.107,0.602-0.082,0.918,0.037,0.918c0.068,0,0.17-0.107,0.297-0.326
				c-0.98,1.92-1.553,3.787-2.035,5.744l-0.094,0.021c0.639-3.543,1.031-7.391,1.109-10.742c0.357-0.301,0.727-0.367,1.092-0.424
				l0,0c-0.365,0.057-0.734,0.123-1.092,0.424l0.023-1.383c0.096-0.713,0.248-1.365,0.412-2.025c0.314-1.033,0.635-2.1,0.941-3.291
				c0.482-1.566-0.459-3.648-0.402-6.164c-0.064-0.404,0.859-0.215,0.73-1.023c-0.078-1.873-0.365-3.479-0.238-5.195
				c-0.152-0.803,0.971-1.977,0.807-2.783c-0.107-1.469-0.779-4.725-1.1-4.725c-0.09,0-0.148,0.248-0.162,0.854
				c-0.057,4.186,0.006,6.938-0.168,10.68c-0.094-3.371-0.18-6.877-0.008-10.945c0.119-2.59,0.684-5.99,0.568-9.201
				c-0.402-4.396-1.285-8.982-1.293-14.268c0.289-19.895-1.191-37.285-1.252-55.928c-0.178-3.591-0.615-6.753-0.68-9.761
				c-0.125-6.02-1.422-12.381-2.592-18.414c-1.154-6.047-2.18-11.767-1.594-16.904c0.357-3.541-0.604-8.278-1.619-11.166
				c-0.561-1.605-1.1-2.648-1.373-2.648c-0.168,0-0.24,0.374-0.172,1.225c-0.615-4.717-1.732-7.892-2.523-10.542
				c-0.861-2.847-1.367-5.101-0.811-8.17c0.025-0.227,0.527-1.752,1.619-2.332c0.252-0.131,0.539-0.215,0.861-0.215
				c1.063,0,2.506,0.887,4.33,3.771c1.27,3.004,3.094,7.427,4.607,11.987c1.529,4.556,2.758,9.235,3.201,12.604
				c1.064,8.79,2.371,16.947,3.479,25.121c1.096,8.162,1.982,16.324,2.033,24.886c0.051,8.583-0.031,17.289-0.137,26.331
				l-0.242,23.997c-0.133,7.779-0.17,15.484-0.656,23.531c-0.137,2.498-0.305,4.941-0.506,7.359l0,0l-0.324,3.693
				c-0.035,0.09-0.072,0.197-0.109,0.324l0.094-0.164l-0.086,0.877c-0.504,0.693-0.463,1.875-0.434,3.066
				c0.004,0.293-0.004,0.648-0.012,1.029c-0.189,1.621-0.396,3.236-0.625,4.863l-0.045-0.355l0.006-0.246l0.529-4.076
				c-0.387,0.512-0.475,1.303-0.494,2.164c-0.021,0.32-0.031,0.631-0.035,0.939c-0.102,0.432-0.234,0.795-0.391,1.117
				c0.084-0.115,0.166-0.199,0.232-0.199s0.119,0.076,0.152,0.277v0.021l-0.012,0.762l-0.313,2.123
				c-0.117,0.373-0.271,0.744-0.482,1.1c-0.174,0.49-0.006,0.779,0.123,1.178c-0.791,4.857-1.771,9.797-3.127,14.973
				C1031.738,823.859,1030.41,826.373,1029.689,827.055 M1035.158,803.623c-0.16,0.227-0.326,0.578-0.424,0.705
				C1034.883,804.127,1035.029,803.887,1035.158,803.623 M1035.783,787.932c0,0.504,0.381,1.076,0.381,1.637
				C1036.164,789.008,1035.783,788.436,1035.783,787.932 M1037.164,787.1l-0.502,0.813l0,0L1037.164,787.1L1037.164,787.1
				 M1036.744,785.707L1036.744,785.707c0.506-1.1,0.924-2.367,0.559-3.889C1036.822,783.025,1036.613,784.533,1036.744,785.707
				L1036.744,785.707 M1032.013,820.105c0.041-0.078,0.078-0.152,0.119-0.23C1032.092,819.961,1032.051,820.039,1032.013,820.105
				 M1035.549,803.475v-0.969c0.012-0.049,0.021-0.098,0.031-0.146c0,0.035,0,0.068,0,0.102
				C1035.582,802.746,1035.562,803.1,1035.549,803.475 M1021.951,653.087c-0.057-0.398-0.098-0.74-0.123-1.027
				C1021.873,652.396,1021.914,652.735,1021.951,653.087"/>
		</g>
		<path fill="#231F20" d="M1022.422,841.723c0.469-0.672,0.922-1.348,1.287-2.139c1.152-2.9,1.891-5.746,2.598-8.684
			c1.109-3.531,1.654-6.18,2.527-10.211c0.127-0.564,0.23-0.799,0.316-0.799c0.322,0,0.367,3.338,0.137,4.813
			c-0.016,0.816-1.371,1.693-1.402,2.496c-0.521,1.625-0.641,3.236-1.057,5.045c-0.088,0.811-0.932,0.371-0.979,0.773
			c-0.725,2.363-0.473,4.623-1.436,5.949C1023.728,839.984,1023.088,840.879,1022.422,841.723"/>
		<path fill="#231F20" d="M1015.652,854.043c-0.197,0-0.326-0.104-0.494-0.164c1.395-1.475,2.768-2.873,4.48-4.191
			c-0.16,0.107-0.275,0.158-0.348,0.158c-0.166,0-0.064-0.307,0.328-0.854l0.885-0.379c-0.938,1.664-2.004,3.324-3.744,4.164
			c0.004,0.002-0.408,0.734-0.623,1.09C1015.931,853.998,1015.779,854.043,1015.652,854.043"/>
		<path fill="#231F20" d="M1028.871,835.416l0.004-0.016c0.037-0.236-0.004-0.322-0.084-0.322c-0.066,0-0.16,0.057-0.26,0.133
			c0.244-0.264,0.479-0.59,0.693-0.979L1028.871,835.416"/>
		<polyline fill="#231F20" points="1028.638,836.16 1028.871,835.416 1028.812,835.781 1028.638,836.16 		"/>
		<path fill="#231F20" d="M1029.224,834.23c0.195-0.639,0.408-1.291,0.717-1.945C1029.76,833.076,1029.513,833.715,1029.224,834.23"
			/>
		<path fill="#231F20" d="M1027.926,835.773c0.006-0.008,0.014-0.012,0.021-0.021
			C1027.939,835.762,1027.931,835.766,1027.926,835.773 M1027.947,835.752c0.131-0.102,0.379-0.381,0.584-0.541
			C1028.338,835.424,1028.14,835.605,1027.947,835.752"/>
		<path fill="#231F20" d="M1026.621,840.207c0.014-0.428-0.063-0.762,0.266-1.17c0.326-0.281,0.582-0.594,0.813-0.92
			C1027.353,838.822,1026.982,839.516,1026.621,840.207"/>
	</g>
	<g>
		<path fill="#2E2E2E" stroke="#2D2E2E" stroke-miterlimit="10" d="M1035.545,803.482c0-0.004,0.004-0.008,0.004-0.008
			c0.016-0.375,0.033-0.729,0.033-1.016c0-0.031,0-0.064,0-0.1c-0.004-0.268-0.004-0.535,0.004-0.795
			c0.02-0.861,0.107-1.652,0.494-2.164l-0.531,4.076L1035.545,803.482"/>
		<g>
			<polyline fill="#2E2E2E" stroke="#2D2E2E" stroke-miterlimit="10" points="1014.256,854.805 1015.07,853.854 1015.158,853.879 
				1014.304,854.789 1014.256,854.805 			"/>
			<path fill="#2E2E2E" stroke="#2D2E2E" stroke-miterlimit="10" d="M1029.689,827.055l0.289-1.203
				c0.275-0.045,0.549,0.063,0.844-0.473l0.021-1.24c1.125-1.533,1.324-3.438,1.475-5.324l-0.639,0.701
				c-0.107,0.602-0.082,0.918,0.037,0.918c0.068,0,0.17-0.107,0.297-0.326c-0.98,1.92-1.553,3.787-2.035,5.744l-0.094,0.021
				c0.639-3.543,1.031-7.391,1.109-10.742c0.357-0.301,0.727-0.367,1.092-0.424l0,0c-0.365,0.057-0.734,0.123-1.092,0.424
				l0.023-1.383c0.096-0.713,0.248-1.365,0.412-2.025c0.314-1.033,0.635-2.1,0.941-3.291c0.482-1.566-0.459-3.648-0.402-6.164
				c-0.064-0.404,0.859-0.215,0.73-1.023c-0.078-1.873-0.365-3.479-0.238-5.195c-0.152-0.803,0.971-1.977,0.807-2.783
				c-0.107-1.469-0.779-4.725-1.1-4.725c-0.09,0-0.148,0.248-0.162,0.854c-0.057,4.186,0.006,6.938-0.168,10.68
				c-0.094-3.371-0.18-6.877-0.008-10.945c0.119-2.59,0.684-5.99,0.568-9.201c-0.402-4.396-1.285-8.982-1.293-14.268
				c0.289-19.895-1.191-37.285-1.252-55.928c-0.178-3.591-0.615-6.753-0.68-9.761c-0.125-6.02-1.422-12.381-2.592-18.414
				c-1.154-6.047-2.18-11.767-1.594-16.904c0.357-3.541-0.604-8.278-1.619-11.166c-0.561-1.605-1.1-2.648-1.373-2.648
				c-0.168,0-0.24,0.374-0.172,1.225c-0.615-4.717-1.732-7.892-2.523-10.542c-0.861-2.847-1.367-5.101-0.811-8.17
				c0.025-0.227,0.527-1.752,1.619-2.332c0.252-0.131,0.539-0.215,0.861-0.215c1.063,0,2.506,0.887,4.33,3.771
				c1.27,3.004,3.094,7.427,4.607,11.987c1.529,4.556,2.758,9.235,3.201,12.604c1.064,8.79,2.371,16.947,3.479,25.121
				c1.096,8.162,1.982,16.324,2.033,24.886c0.051,8.583-0.031,17.289-0.137,26.331l-0.242,23.997
				c-0.133,7.779-0.17,15.484-0.656,23.531c-0.137,2.498-0.305,4.941-0.506,7.359l0,0l-0.324,3.693
				c-0.035,0.09-0.072,0.197-0.109,0.324l0.094-0.164l-0.086,0.877c-0.504,0.693-0.463,1.875-0.434,3.066
				c0.004,0.293-0.004,0.648-0.012,1.029c-0.189,1.621-0.396,3.236-0.625,4.863l-0.045-0.355l0.006-0.246l0.529-4.076
				c-0.387,0.512-0.475,1.303-0.494,2.164c-0.021,0.32-0.031,0.631-0.035,0.939c-0.102,0.432-0.234,0.795-0.391,1.117
				c0.084-0.115,0.166-0.199,0.232-0.199s0.119,0.076,0.152,0.277v0.021l-0.012,0.762l-0.313,2.123
				c-0.117,0.373-0.271,0.744-0.482,1.1c-0.174,0.49-0.006,0.779,0.123,1.178c-0.791,4.857-1.771,9.797-3.127,14.973
				C1031.738,823.859,1030.41,826.373,1029.689,827.055 M1035.158,803.623c-0.16,0.227-0.326,0.578-0.424,0.705
				C1034.883,804.127,1035.029,803.887,1035.158,803.623 M1035.783,787.932c0,0.504,0.381,1.076,0.381,1.637
				C1036.164,789.008,1035.783,788.436,1035.783,787.932 M1037.164,787.1l-0.502,0.813l0,0L1037.164,787.1L1037.164,787.1
				 M1036.744,785.707L1036.744,785.707c0.506-1.1,0.924-2.367,0.559-3.889C1036.822,783.025,1036.613,784.533,1036.744,785.707
				L1036.744,785.707 M1032.013,820.105c0.041-0.078,0.078-0.152,0.119-0.23C1032.092,819.961,1032.051,820.039,1032.013,820.105
				 M1035.549,803.475v-0.969c0.012-0.049,0.021-0.098,0.031-0.146c0,0.035,0,0.068,0,0.102
				C1035.582,802.746,1035.562,803.1,1035.549,803.475 M1021.951,653.087c-0.057-0.398-0.098-0.74-0.123-1.027
				C1021.873,652.396,1021.914,652.735,1021.951,653.087"/>
		</g>
		<path fill="#2E2E2E" stroke="#2D2E2E" stroke-miterlimit="10" d="M1022.422,841.723c0.469-0.672,0.922-1.348,1.287-2.139
			c1.152-2.9,1.891-5.746,2.598-8.684c1.109-3.531,1.654-6.18,2.527-10.211c0.127-0.564,0.23-0.799,0.316-0.799
			c0.322,0,0.367,3.338,0.137,4.813c-0.016,0.816-1.371,1.693-1.402,2.496c-0.521,1.625-0.641,3.236-1.057,5.045
			c-0.088,0.811-0.932,0.371-0.979,0.773c-0.725,2.363-0.473,4.623-1.436,5.949C1023.728,839.984,1023.088,840.879,1022.422,841.723
			"/>
		<path fill="#2E2E2E" stroke="#2D2E2E" stroke-miterlimit="10" d="M1015.652,854.043c-0.197,0-0.326-0.104-0.494-0.164
			c1.395-1.475,2.768-2.873,4.48-4.191c-0.16,0.107-0.275,0.158-0.348,0.158c-0.166,0-0.064-0.307,0.328-0.854l0.885-0.379
			c-0.938,1.664-2.004,3.324-3.744,4.164c0.004,0.002-0.408,0.734-0.623,1.09C1015.931,853.998,1015.779,854.043,1015.652,854.043"
			/>
		<path fill="#2E2E2E" stroke="#2D2E2E" stroke-miterlimit="10" d="M1028.871,835.416l0.004-0.016
			c0.037-0.236-0.004-0.322-0.084-0.322c-0.066,0-0.16,0.057-0.26,0.133c0.244-0.264,0.479-0.59,0.693-0.979L1028.871,835.416"/>
		<polyline fill="#2E2E2E" stroke="#2D2E2E" stroke-miterlimit="10" points="1028.638,836.16 1028.871,835.416 1028.812,835.781 
			1028.638,836.16 		"/>
		<path fill="#2E2E2E" stroke="#2D2E2E" stroke-miterlimit="10" d="M1029.224,834.23c0.195-0.639,0.408-1.291,0.717-1.945
			C1029.76,833.076,1029.513,833.715,1029.224,834.23"/>
		<path fill="#2E2E2E" stroke="#2D2E2E" stroke-miterlimit="10" d="M1027.926,835.773c0.006-0.008,0.014-0.012,0.021-0.021
			C1027.939,835.762,1027.931,835.766,1027.926,835.773 M1027.947,835.752c0.131-0.102,0.379-0.381,0.584-0.541
			C1028.338,835.424,1028.14,835.605,1027.947,835.752"/>
		<path fill="#2E2E2E" stroke="#2D2E2E" stroke-miterlimit="10" d="M1026.621,840.207c0.014-0.428-0.063-0.762,0.266-1.17
			c0.326-0.281,0.582-0.594,0.813-0.92C1027.353,838.822,1026.982,839.516,1026.621,840.207"/>
	</g>
</g>
<g id="_x28_">
	<path fill="#2E2E2E" stroke="#2D2E2E" stroke-miterlimit="10" d="M692.059,834.014c-0.145-0.76-0.279-1.514-0.531-2.287
		c-1.084-2.73-2.18-5.285-3.193-7.984c-0.953-3.391-1.736-5.838-2.617-9.666c-0.123-0.578-0.111-0.816-0.014-0.816
		c0.33,0,1.668,2.748,2.145,4.008c0.352,0.676-0.428,2.021-0.068,2.699c0.344,1.58,1.078,2.93,1.729,4.545
		c0.373,0.664-0.559,0.799-0.371,1.137c0.758,2.238,2.375,3.689,2.506,5.199L692.059,834.014"/>
	<path fill="#2E2E2E" stroke="#2D2E2E" stroke-miterlimit="10" d="M697.598,845.992c-0.693-1.715-1.191-3.457-1.279-5.418
		c-0.002,0.264-0.051,0.395-0.131,0.395c-0.105,0-0.266-0.238-0.441-0.707l0.219-0.865c0.76,1.553,1.535,3.086,1.412,4.84
		l0.652,0.932C698.081,845.721,697.798,845.795,697.598,845.992"/>
	<path fill="#2E2E2E" stroke="#2D2E2E" stroke-miterlimit="10" d="M689.292,818.992c-0.107-0.363-0.215-0.73-0.307-1.096
		c0.223-0.164,0.516-0.201,0.533-0.758l-0.529-1.014c0.342-1.727-0.238-3.354-0.809-4.994l-0.324,0.828
		c0.125,0.504,0.26,0.762,0.365,0.762c0.074,0,0.135-0.131,0.17-0.387c-0.15,1.973,0.125,3.766,0.594,5.563l-0.074,0.059
		c-1.07-3.146-2.217-6.549-3.279-9.508c0.227-0.383,0.551-0.564,0.881-0.736c0.023,0.283,0.025,0.617,0.025,0.961
		c0-0.344-0.002-0.678-0.025-0.961c-0.33,0.172-0.654,0.354-0.881,0.736l-0.448-1.219c-0.145-0.658-0.207-1.285-0.254-1.92
		l-0.064-3.193c0.033-1.52-1.418-3.139-1.939-5.447c-0.15-0.354,0.789-0.391,0.488-1.096c-0.484-1.674-1.08-3.09-1.266-4.686
		c-0.295-0.709,0.609-1.98,0.324-2.689c-0.355-1.303-1.447-4.18-1.771-4.18c-0.092,0-0.123,0.232-0.053,0.813
		c0.529,3.881,1.068,6.404,1.676,9.865c-0.805-3.063-1.502-6.293-1.885-10.088c-0.238-2.418-0.061-5.629-0.451-8.586
		c-0.787-4.025-1.926-8.225-2.176-13.07c-0.588-18.262-2.055-34.39-0.543-51.657c0.129-3.331,0.029-6.294,0.324-9.072
		c1.174-11.113-1.305-24.023,2.498-32.914c1.988-4.861,1.873-13.022,1.111-13.022c-0.154,0-0.336,0.336-0.533,1.106
		c1.896-8.992,0.219-12.625,3.564-17.212c0.117-0.183,1.263-1.359,2.554-1.359c1.193,0,2.512,1.008,3.25,4.749
		c0.08,5.809,0.33,16.971-0.654,22.943c-2.744,15.551-1.961,29.622-3.33,44.985c-0.687,7.705-1.171,15.567-1.399,23.755
		c-0.35,15.118,0.193,28.538,0.791,43.093l0.37,6.666l0,0l0.23,3.354c-0.02,0.086-0.041,0.186-0.057,0.309l0.068-0.164l0.061,0.791
		c-0.381,0.711-0.133,1.762,0.119,2.809c0.063,0.26,0.123,0.578,0.189,0.916c0.133,1.475,0.277,2.945,0.438,4.424l-0.127-0.305
		l0.166,0.672l0.223,1.934c-0.02,0.357-0.07,0.719-0.18,1.086c-0.041,0.475,0.203,0.68,0.434,0.99
		c0.574,4.426,1.303,8.941,2.287,13.691l0,0C689.663,815.518,689.575,818.111,689.292,818.992 M686.538,808.832
		c0,0.361,0.002,0.717,0.027,1.012C686.54,809.549,686.538,809.193,686.538,808.832 M686.337,797.146
		c-0.102,0.238-0.182,0.59-0.244,0.725C686.19,797.656,686.274,797.41,686.337,797.146 M686.292,795.229
		c0.049,0.289,0.107,0.57,0.172,0.846c0,0.402-0.049,0.754-0.127,1.074c0.063-0.135,0.129-0.234,0.203-0.234
		c0.061,0,0.121,0.061,0.189,0.211l0.008,0.02l-0.057-0.215l-0.35-3.715C686.052,793.746,686.126,794.463,686.292,795.229
		 M685.815,785.014L685.815,785.014L685.815,785.014 M684.189,782.881c0,0.531,0.609,1.068,0.607,1.666
		C684.799,783.949,684.189,783.412,684.189,782.881 M685.464,782.057l-0.397,0.795l0,0L685.464,782.057L685.464,782.057
		 M684.883,780.85L684.883,780.85c0.379-1.051,0.663-2.23,0.154-3.564C684.672,778.42,684.623,779.807,684.883,780.85
		L684.883,780.85 M688.391,812.334c0.006-0.082,0.012-0.164,0.021-0.244C688.407,812.184,688.399,812.264,688.391,812.334
		 M686.677,796.912l-0.213-0.838c0-0.049,0-0.094-0.002-0.139c0.01,0.029,0.018,0.061,0.023,0.09
		C686.548,796.273,686.61,796.582,686.677,796.912 M680.482,658.249c0.064-0.329,0.127-0.613,0.188-0.855
		C680.611,657.673,680.549,657.958,680.482,658.249"/>
</g>
<g id="purity_of_nature">
</g>
</svg>
