<svg xmlns="http://www.w3.org/2000/svg" width="57.233" height="466.317" viewBox="0 0 57.233 466.317">
  <g id="QRNhEL.tif" transform="matrix(-0.999, 0.035, -0.035, -0.999, 57.233, 466.225)">
    <g id="Group_7" data-name="Group 7" transform="translate(0 0)">
      <g id="Group_6" data-name="Group 6">
        <path id="Path_92" data-name="Path 92" d="M4.708,0a17.616,17.616,0,0,0,.125,9.52A22.835,22.835,0,0,1,5.24,21.334c-2.029,8.733-2.2,17.544-2.284,26.372C2.8,63.02,3.14,78.341,2.844,93.651c-.188,9.726-.071,19.561-1.119,29.156C.358,135.341,1.274,147.8.762,160.273.3,171.35-.26,182.428.131,193.522a.7.7,0,0,0,1.058-.162c1.4-4.261.395-8.65.688-12.971-.123-1.25-.063-2.5-.071-3.755,1.813-16.419.864-32.917,1.483-49.363.253-6.74.283-13.477.478-20.215a13.866,13.866,0,0,1,.471-4.269c.421-8.745.121-17.494.182-26.242.055-7.865,0-15.729.014-23.594.006-4.089-.208-8.192.631-12.235A63.435,63.435,0,0,1,6.794,23.543,70.292,70.292,0,0,0,6.684,9.386,9.238,9.238,0,0,1,6.361,8.3a7.449,7.449,0,0,0-.291-1.068c-.8-2.074-.006-4.324-.67-6.416A1.684,1.684,0,0,0,4.708,0Z" transform="translate(24.773 134.888)" fill="#f3efeb"/>
        <path id="Path_93" data-name="Path 93" d="M4.871,147.86a10.55,10.55,0,0,1-.761-4.54c.028-26.52.439-53.047-.15-79.555-.263-11.843.049-23.709-.68-35.525-.449-7.316-.36-14.616-.49-21.923A9.261,9.261,0,0,0,.695,0C-.647,2.659.318,5.479.6,8.071c.755,7.051.338,14.1.674,21.146a6.389,6.389,0,0,0,.212,1.2,218.705,218.705,0,0,1,.087,25.415A4.976,4.976,0,0,0,1.587,57.1a61.286,61.286,0,0,1,.9,12.233q-.061,36.611,0,73.224c0,1.821-.492,3.832,1.188,5.3A1.018,1.018,0,0,0,4.871,147.86Z" transform="translate(37.357 123.796)" fill="#f3efeb"/>
        <path id="Path_94" data-name="Path 94" d="M9.835,0c-.7,3.711-1.364,7.428-2.1,11.13C6.3,18.43,6.768,26.008,4.166,33.186c-1.256,3.462-.059,7.482-.89,11.191C1.9,50.5,2.333,56.738,2.632,62.88,3.053,71.465.961,79.68,0,88.057c.757.225,1.226-.188,1.633-.753a3.411,3.411,0,0,0,.326-.941A16.2,16.2,0,0,1,2.6,82.9a8.277,8.277,0,0,0,.22-1.653c2.64-11.059.524-22.354,1.659-33.482a38.732,38.732,0,0,1,.757-3.992,58.121,58.121,0,0,1,2.6-16.87c1.046-3.4-.38-7.3,1.354-10.732.532-3.009-.372-6.222,1.257-9.079C10.641,4.69,11.337,2.246,9.835,0Z" transform="translate(14.529 329.15)" fill="#f3efeb"/>
        <path id="Path_95" data-name="Path 95" d="M4.407,42.752c.047-10,.02-20-1.439-29.933-1.7-2.432-.767-5.226-1.022-7.854C1.793,3.354,1.819,1.725,1.763.1A.75.75,0,0,0,.708.4C-.514,4.965.2,9.59.273,14.2.391,21.8,2.23,29.258,2.121,36.9,2.09,38.989,1.538,41.667,4.407,42.752Z" transform="translate(35.083 110.977)" fill="#f3efeb"/>
        <path id="Path_96" data-name="Path 96" d="M.376,52.995c2.341-.429,3.571-2.5,4.249-4.213,1.224-3.092,3.2-5.762,3.9-9.224,1.1-5.423,3.48-10.566,4.8-15.958,1.613-6.574,4.016-12.957,4.737-19.754.127-1.2.415-2.375.627-3.563A1.056,1.056,0,0,0,17.72.028,3.027,3.027,0,0,0,16.126,2.08c-.591,8.969-3.921,17.273-6.009,25.88-.84,3.46-2.7,6.473-3.411,9.922.805,3.624-2.315,5.951-2.938,9.1C2.73,48.877.967,50.237,0,52.187A1,1,0,0,0,.376,52.995Z" transform="translate(13.499 410.188)" fill="#f3efeb"/>
        <path id="Path_97" data-name="Path 97" d="M9.795,0,8.631.852C6.9,2.681,6.406,4.915,5.967,7.387,4.9,13.406,3.549,19.387,2,25.3A53.528,53.528,0,0,0,.01,40.175a.693.693,0,0,0,.953-.134c.921-1.8.666-3.862,1.236-5.742A98.4,98.4,0,0,1,4.532,23.655a12.528,12.528,0,0,0,.293-2.944,6.574,6.574,0,0,1,.787-3.5,5.634,5.634,0,0,0,.314-.868,13.489,13.489,0,0,1,1.53-4.364c1.18-2.315.324-4.915,1.012-7.3.253-1.313,1.386-2.147,1.8-3.373A1.259,1.259,0,0,0,9.795,0Z" transform="translate(5.897 416.355)" fill="#f3efeb"/>
        <path id="Path_98" data-name="Path 98" d="M1.2,51.643C3.07,44.351,3.282,36.851,3.565,29.4c.324-8.518,1.3-17.022.783-25.567A8.867,8.867,0,0,1,5.128.3C4.949.2,4.773.1,4.6,0,2.54.7,2.7,2.515,2.744,4.119c.2,7.264-.35,14.5-.69,21.74a10.532,10.532,0,0,1-.358,2.6,8.627,8.627,0,0,0-.277,1.787c.024,5.139.115,10.27-1.139,15.333A10.181,10.181,0,0,0,.4,50.789,1.663,1.663,0,0,0,1.2,51.643Z" transform="translate(37.129 304.326)" fill="#f3efeb"/>
        <path id="Path_99" data-name="Path 99" d="M0,.169c1.323,3.4,1.032,6.966.969,10.485A32.768,32.768,0,0,0,3.106,23.635,8.373,8.373,0,0,1,3.4,29.5a11.614,11.614,0,0,0,.666,10.145,1.928,1.928,0,0,0,.755-1.386A5.1,5.1,0,0,0,4.7,36.645a11.707,11.707,0,0,1,.172-6.282c.36-3.223.5-6.5-.633-9.544C2,14.824,2.521,8.6,2.345,2.423A2.936,2.936,0,0,0,1.016.1,1.03,1.03,0,0,0,0,.169Z" transform="translate(26.757 71.588)" fill="#f3efeb"/>
        <path id="Path_100" data-name="Path 100" d="M7.656,29.253c-.686-5.416-.469-10.983-2.823-16.124a7.465,7.465,0,0,1-.4-3.571C4.769,5.6,2.663,2.776.382,0A1.648,1.648,0,0,0,0,.959a3.636,3.636,0,0,0,.617,2.2C2.776,5.845,3,8.99,2.849,12.245c.933,5,2.406,9.9,2.723,15.021a2.667,2.667,0,0,0,1.052,2A.911.911,0,0,0,7.656,29.253Z" transform="translate(26.555 58.473)" fill="#f3efeb"/>
        <path id="Path_101" data-name="Path 101" d="M1.141,31.645C1.606,23.95,5.259,16.717,4.3,8.8,3.947,5.94,4.65,3.118,5.07.3L4.7,0C3.616.18,3.258,1.042,2.926,1.934A31.23,31.23,0,0,0,2.653,7.5,41.932,41.932,0,0,1,.429,23.389a17.8,17.8,0,0,0-.071,7.44A1.542,1.542,0,0,0,1.141,31.645Z" transform="translate(33.254 355.672)" fill="#f3efeb"/>
        <path id="Path_102" data-name="Path 102" d="M1.813,0l-.68.022C-.569,2.416.107,5.161.267,7.715c.291,4.625,1.558,9.119,2.385,13.674a3.131,3.131,0,0,0,1.1,1.977l.7-.01-.014-6.673C3.278,11.167,1.8,5.706,1.823,0Z" transform="translate(32.399 87.727)" fill="#f3efeb"/>
        <path id="Path_103" data-name="Path 103" d="M1.283,32.97c.148-.293.423-.585.423-.878Q1.733,16.48,1.692.87c0-.291-.285-.581-.437-.87L.909.287C-.364,2.064.067,4.144.081,6.074c.049,7.4-.04,14.8-.018,22.2.006,1.513-.2,3.13.91,4.433C1.077,32.794,1.18,32.881,1.283,32.97Z" transform="translate(40.973 271.656)" fill="#f3efeb"/>
        <path id="Path_104" data-name="Path 104" d="M0,5.536c3.179,1.975,2.076,5.109,2.084,7.941a.606.606,0,0,0,.749.1A4.983,4.983,0,0,1,4.079,12.6a1.9,1.9,0,0,0,.609-.467l.043-3.215c.223-.368.668-.538.836-.957a2.076,2.076,0,0,0-.89-1.878c-4.423.53-2.92-2.845-3.217-5.034C1.839.312,1.441.081.809,0-.172.817.19,1.965.1,3A20.872,20.872,0,0,1,0,5.536Z" transform="translate(16.37 32.943)" fill="#f3efeb"/>
        <path id="Path_105" data-name="Path 105" d="M.775.059.463,0,.145.026C-.789,4.1,3.049,6.252,4.03,9.6c.206.7,2.614,1.192,3.278-.836.233-.714.1-1.558.805-2.084l-.186-.791C3.666,5.718,3.039,5.3,2.108,1.942A2.7,2.7,0,0,0,.775.059Z" transform="translate(5.762 456.503)" fill="#f3efeb"/>
        <path id="Path_106" data-name="Path 106" d="M.98,19.1l.277,1.06a.889.889,0,0,0,.791-.32,4.393,4.393,0,0,0,.5-1.3c.166-.617.364-1.224.52-1.845.259-2.021,1.02-3.974.791-6.06a5.6,5.6,0,0,0-.364-1.544C2.368,7.126,2.443,4.864,2,2.734c-.2-.957-.073-2-.9-2.734C.019.635-.224,1.366.191,2.713c.929,3.015.65,6.26,1.651,9.329C2.607,14.388,1.2,16.729.98,19.1Z" transform="translate(28.501 115.788)" fill="#f3efeb"/>
        <path id="Path_107" data-name="Path 107" d="M0,4.136c2.408,3.183,1.821,7.12,2.616,10.709.981-.771.823-1.9.874-2.95.057-1.2.093-2.377,1.222-3.132C4.722,5.576,1.815,3.278,2.12,0,.9.787,1.489,2.515.409,3.373A3.222,3.222,0,0,0,0,4.136Z" transform="translate(19.043 46.293)" fill="#f3efeb"/>
        <path id="Path_108" data-name="Path 108" d="M.821,23.416l.753.03c-.216-4.271,2.033-8.257,1.418-12.575.678-1.524-.255-3.245.568-4.749Q3.67,3.206,3.779.289C3.658.194,3.536.1,3.417,0,1.2,1.119,2.478,3.543,1.543,5.143c-.3,4.627-.818,9.23-1.382,13.831C-.027,20.5-.263,22.068.821,23.416Z" transform="translate(30.616 387.025)" fill="#f3efeb"/>
        <path id="Path_109" data-name="Path 109" d="M0,6.108C.251,9.3-.275,12.658,1.916,15.44a1.618,1.618,0,0,0,.49-1.325C2.27,11.766,1.514,9.471,1.8,7.082c.109-.308.2-.621.283-.937s.178-.651.265-.979C2.572,3.353,3.65,1.388,1.469,0L1.21,1.554C1.078,3.146,1.016,4.759,0,6.108Z" transform="translate(29.608 109.68)" fill="#f3efeb"/>
        <path id="Path_110" data-name="Path 110" d="M.115,0C-.4,5.785.874,11.28,2.725,16.682c.811-2.187-.37-4.119-.929-6.054C.789,7.136,1.173,3.456.115,0Z" transform="translate(34.107 87.727)" fill="#f3efeb"/>
        <path id="Path_111" data-name="Path 111" d="M.815,7.785c.848-.514.722-1.356.7-2.163C1.252,4.527.684,3.41,1.746,2.413q.264.437.528.878.3-.455.6-.912C3.306,1.652,3.482.77,2.733.321a1.559,1.559,0,0,0-2.44.722C.111,3.317-.48,5.626.815,7.785Z" transform="translate(15.555 30.695)" fill="#f3efeb"/>
        <path id="Path_112" data-name="Path 112" d="M2.1.355C.866-.25.059-.217.1,1.527.14,3.162.038,4.8,0,6.438l.049-.059a.608.608,0,0,0,.783.085c.824-1.133.743-2.853,2.24-3.551A1.236,1.236,0,0,0,3.5,2.176Z" transform="translate(21.659 54.701)" fill="#f3efeb"/>
        <path id="Path_113" data-name="Path 113" d="M2.551,3.275C4.071,2.4,5.226,2.267,5.133,4.61c1.089-1.1,1.912-2.39-.484-2.517C2.828,2,2.236-.159,0,.009Z" transform="translate(13.296 28.462)" fill="#f3efeb"/>
        <path id="Path_114" data-name="Path 114" d="M.8,4.923,2.942,6.742C2.63,4.16,2.663,1.574.354,0A.887.887,0,0,0,0,.747C.176,1.874.67,2.932.743,4.083A5.862,5.862,0,0,1,.8,4.923Z" transform="translate(6.955 6.357)" fill="#f3efeb"/>
        <path id="Path_115" data-name="Path 115" d="M.722,0,0,.024c.939,2.6.4,5.568,1.969,8.006a.629.629,0,0,0,.906-.107c1.192-2.191-.815-3.98-.726-6.036C1.922,1.066,1.965.03.722,0Z" transform="translate(21.707 61.055)" fill="#f3efeb"/>
        <path id="Path_116" data-name="Path 116" d="M4.684,3.96C4.8,1.582,3.181.7,1.362,0,.959.336.263.087,0,.7L1.362,2.663c1.327-.346,1.4,1.052,2.11,1.568A1.068,1.068,0,0,0,4.684,3.96Z" transform="translate(1.276 1.768)" fill="#f3efeb"/>
        <path id="Path_117" data-name="Path 117" d="M0,1.29.69,3.281a1.738,1.738,0,0,0,2.088.1A4.647,4.647,0,0,0,2.628.076C1.39-.331.937,1.017,0,1.29Z" transform="translate(21.046 37.732)" fill="#f3efeb"/>
        <path id="Path_118" data-name="Path 118" d="M.1.741,0,8l.461.235a1.2,1.2,0,0,0,.757-.66c.674-2.005.132-4.14.633-6.165A1.62,1.62,0,0,0,1.3,0L.637,0Z" transform="translate(24.267 328.41)" fill="#f3efeb"/>
        <path id="Path_119" data-name="Path 119" d="M1.276,2.47l1.362-.7C1.875,1.283,1.935-.207.62.024.4.063.125.441.07.7-.138,1.687.078,2.442,1.276,2.47Z" transform="translate(0 0)" fill="#f3efeb"/>
        <path id="Path_120" data-name="Path 120" d="M2.549.443.637.461Q.319.88,0,1.3C1.951.9,3.77.815,4.5,3.276c.807-.488.37-1.374.635-2.033A1.715,1.715,0,0,0,3.818,0C3.413.2,2.887.042,2.549.443Z" transform="translate(21.098 40.551)" fill="#f3efeb"/>
        <path id="Path_121" data-name="Path 121" d="M2.128.209,1.155.185A.82.82,0,0,0,0,.3L2.019,3a.642.642,0,0,0,.751.049c-.281-.771.2-1.18.722-1.57A3.91,3.91,0,0,1,3.478.838C3.029.628,2.578.419,2.128.209Z" transform="translate(3.831 5.519)" fill="#f3efeb"/>
        <path id="Path_122" data-name="Path 122" d="M.853,5.293c1.809-.882.965-2.7,1.394-4.071C2.212.815,2.176.409,2.142,0L1.48.006C.428,1.058.887,2.681.084,3.828-.208,4.613.312,4.959.853,5.293Z" transform="translate(18.916 45.071)" fill="#f3efeb"/>
        <path id="Path_123" data-name="Path 123" d="M1.194,2.608,2.349,2.49C2.268,1.5,2.11.461,1.1.075.2-.269.2.657,0,1.216Z" transform="translate(2.638 3.213)" fill="#f3efeb"/>
        <path id="Path_124" data-name="Path 124" d="M.646.026A4.674,4.674,0,0,0,.017,0C-.184,2.351,1.447,2.525,3.1,2.673a.265.265,0,0,1,.336-.008,1.484,1.484,0,0,0-.53-1.55A4.416,4.416,0,0,0,.646.026Z" transform="translate(23.659 69.084)" fill="#f3efeb"/>
        <path id="Path_125" data-name="Path 125" d="M1.377,4.006.857,2.58A1.845,1.845,0,0,0,.6,0,4.271,4.271,0,0,1,.062.063c0,1.366-.346,2.784.589,4.008Z" transform="translate(18.392 46.358)" fill="#f3efeb"/>
        <path id="Path_126" data-name="Path 126" d="M.676,0C-.487,1.461.231,3.156.106,4.749,1.142,3.27.547,1.59.676,0Z" transform="translate(33.501 393.148)" fill="#f3efeb"/>
        <path id="Path_127" data-name="Path 127" d="M.633,0C-.1.51.1,1.317,0,2.033,1.394,1.993,1.493,1.677.633,0Z" transform="translate(25.604 41.793)" fill="#f3efeb"/>
        <path id="Path_128" data-name="Path 128" d="M0,3.189a1.209,1.209,0,0,0,1.271-.443L.026,0Z" transform="translate(23.648 37.805)" fill="#f3efeb"/>
        <path id="Path_129" data-name="Path 129" d="M.606.018.311,0l-.3.02A2.468,2.468,0,0,0,1.919,2.786c.1-.136.194-.271.287-.411A2.515,2.515,0,0,0,.606.018Z" transform="translate(5.837 8.494)" fill="#f3efeb"/>
        <path id="Path_130" data-name="Path 130" d="M2.033,2.341,2.12,1.6A3.217,3.217,0,0,0,.346,0C.232.14.117.277,0,.415A1.86,1.86,0,0,0,.615,1.829,1.546,1.546,0,0,0,2.033,2.341Z" transform="translate(24.818 56.877)" fill="#f3efeb"/>
        <path id="Path_131" data-name="Path 131" d="M19.749,4.069,20.557,5.4l1.236,1.315a5.281,5.281,0,0,1,.269,2.92,42.455,42.455,0,0,0,2.017,16.591,16.756,16.756,0,0,1,.654,5.214c.146,4.354-1.1,8.731.53,13.091a3.908,3.908,0,0,1-.753,4.332,4.107,4.107,0,0,0,.024.544c.5,3.423.053,7.017,1.594,10.25,1.094,2.3-.777,3.931-1.068,5.916-2.288,7.26.587,14.511.022,21.787-.409,5.285-1.222,10.519-1.657,15.78-.409,4.951-1.372,9.854-1.352,14.843.024,5.548-.03,11.1.012,16.642.245,31.942-.684,63.876-.8,95.816-.022,6.05-1.182,12.253-2.1,18.349q-.079,6.637-.16,13.275c.026.459.055.919.081,1.38-.451,3.46-.6,6.952-.84,10.426a15.173,15.173,0,0,1-2.179,7.476c-.981,3.3-.162,6.776-.911,10.1-.3,2.513-.026,5.157-1.6,7.393a3.685,3.685,0,0,0-.3.989,19.856,19.856,0,0,1-.386,4.15,22.607,22.607,0,0,1-.688,6.007c-.7,8.372-.233,16.757-.265,25.132A45.042,45.042,0,0,1,10,346.773c-.55.821-.158,1.892-.69,2.719a.807.807,0,0,0-.15.516l.093,1.459c-.564.953-1.335,1.752-1.959,2.661-1.574,2.479.136,5.5-1.279,8-.585,1.526-.562,3.227-1.325,4.7l.01-.016a17.927,17.927,0,0,0-1.234,3.557L3.3,373.477a86.271,86.271,0,0,1-2.444,10.8c-1.1,1.861-.488,3.974-.852,5.942q.364.965.726,1.932c2.019,4.864,5.336,5.293,8.516,1.119.783-1.026,1.809-1.874,2.226-3.164.045-3.021,3.116-5.008,2.711-8.184-.293-3.512,2.521-6,2.94-9.317.672-5.317,3.733-10.044,3.877-15.515.37-1.675.389-3.454,1.416-4.939,1.131-2.187.848-4.605,1.1-6.938a7.033,7.033,0,0,0,.435-2.26c-.662-6.924,1.089-13.518,2.608-20.146a21.71,21.71,0,0,1,.39-2.869c.176-6.728-.186-13.483,2.228-20,1.125-3.035.255-6.385.534-9.584.56-6.369,1.125-12.737,2.205-19.037.107-.658.306-1.3.4-1.965a2.613,2.613,0,0,1,.617-1.214l.022-1.277c.7-3.614.475-7.314.471-10.924-.008-12.4,1.621-24.79,1.022-37.16-1.584-32.727-.532-65.462-.917-98.191a44.362,44.362,0,0,0-.552-6.6.427.427,0,0,0,0-.465c.4-8.714.435-17.431-.024-26.147l0,.01a4.517,4.517,0,0,1-1.214-3.644c.417-6.679-1.184-13.168-1.542-19.77-.346-6.408-.856-12.8-.583-19.223-.506-6.839-3.088-13.394-2.7-20.355.055-1,.053-1.993.079-2.988-1.089-5.777-1.738-11.64-3.324-17.32-.536-.653-.13-1.511-.461-2.211C22.9.9,22.487-.217,21.318.036c-1.2.259-1.392,1.54-1.6,2.628A5.027,5.027,0,0,0,19.749,4.069Z" transform="translate(6.537 66.346)" fill="#f3efeb"/>
        <path id="Path_132" data-name="Path 132" d="M0,184.836a26.5,26.5,0,0,0,1.754-9.947c-.083-3.148,1.536-6.074,1.526-9.4q-.155-55.419.012-110.837c.006-3.636.826-7.207,1.329-10.8,1.455-10.42,2.812-20.895,1.4-31.448-.526-3.919.4-7.707.532-11.561A.517.517,0,0,0,6.466,0c-1.831.251-.326,2.112-1.3,2.778a1.235,1.235,0,0,0-.5,1.323,85.039,85.039,0,0,0-.039,8.708,2.233,2.233,0,0,0-.026.6c.338.275.787.571.785,1-.016,5.01.71,10.042-.411,15.021C4.283,34.54,3.577,39.649,3.211,44.8,2.078,57.553,2.928,70.334,2.7,83.1c-.144,8.109-.142,16.221-.2,24.332a3.208,3.208,0,0,0-.259,1.617c.271,16.369-1.313,32.719-.591,49.079.35,7.9-1.728,15.559-1.572,23.4Z" transform="translate(25.724 130.303)" fill="#f3efeb"/>
        <path id="Path_133" data-name="Path 133" d="M.231,74.1c.609-5,1.568-9.989,1.748-15,.293-8.188.034-16.4.093-24.6C2.155,23,3.189,11.513,2.653,0a3.055,3.055,0,0,0-.611,2.491C2.165,19.984.8,37.46,1.358,54.957,1.562,61.379-.714,67.639.231,74.1Z" transform="translate(25.568 237.737)" fill="#f3efeb"/>
        <path id="Path_134" data-name="Path 134" d="M.054,16.769C.7,11.673,2.091,6.675,2.065,1.487A1.1,1.1,0,0,0,1.966,0,51.241,51.241,0,0,0,.054,16.769Z" transform="translate(28.881 158.332)" fill="#f3efeb"/>
        <path id="Path_135" data-name="Path 135" d="M.522,14.616q.048.743.1,1.487C1.862,11,1.123,5.849.985.714.979.467.342.239,0,0,1.323,4.83.463,9.74.522,14.616Z" transform="translate(30.325 143.716)" fill="#f3efeb"/>
        <path id="Path_136" data-name="Path 136" d="M.489,8.708A14.562,14.562,0,0,0,.528,0C.475.445.424.888.372,1.333a15.31,15.31,0,0,0,0,6.707Z" transform="translate(29.862 134.404)" fill="#f3efeb"/>
        <path id="Path_137" data-name="Path 137" d="M.6,6.707Q.6,3.354.6,0A.861.861,0,0,0,.119.21C.237,2.379-.463,4.611.6,6.707Z" transform="translate(29.637 135.738)" fill="#f3efeb"/>
        <path id="Path_138" data-name="Path 138" d="M.23,0C.2,2.321.145,4.641.145,6.962.135,33.591.092,60.222.161,86.851c.016,7.035.6,14.072.544,21.105C.6,121.939.238,135.92,0,149.9c-.016.989.132,1.981.2,2.972.652-7.863,1.6-15.7,1.236-23.628-.081-1.774-.581-3.82,1.218-5.214q-.03-16.21-.065-32.42c-1.7-1.174-1.163-3-1.165-4.575q-.043-38.3.036-76.588A37.69,37.69,0,0,0,.23,0Z" transform="translate(39.287 180.331)" fill="#f3efeb"/>
        <path id="Path_139" data-name="Path 139" d="M.263,0C-.061,8.716-.122,17.433.287,26.147A202.433,202.433,0,0,0,.263,0Z" transform="translate(39.225 153.719)" fill="#f3efeb"/>
        <path id="Path_140" data-name="Path 140" d="M.488,31.033c.949-1.975.332-4.1.554-6.141.769-1.252-.229-2.8.643-4.032l0,.006a20.23,20.23,0,0,0,1.958-7.347c.079-3.555-.053-7.124.7-10.634C4.7,2.008,5.623,1.3,5.11.165a.642.642,0,0,0-.862,0A11.9,11.9,0,0,0,2.969,6.545C3.177,10.336,2.062,13.867,1,17.428-.024,20.854.26,24.406.28,27.925.029,28.983-.283,30.045.488,31.033Z" transform="translate(18.726 344.953)" fill="#f3efeb"/>
        <path id="Path_141" data-name="Path 141" d="M3.049,3.106Q2.942,1.555,2.84,0q-.307,1.76-.615,3.527C1.576,10.677,1.948,17.846,2.011,25A44.463,44.463,0,0,1,.287,38.271l-.1,1.143c-.227.6-.356,1.192.243,1.669A19.19,19.19,0,0,0,2.941,31.62Q3.02,17.362,3.049,3.106Z" transform="translate(16.166 372.88)" fill="#f3efeb"/>
        <path id="Path_142" data-name="Path 142" d="M.024,34.744a14.121,14.121,0,0,0,1.963-7.529C2.021,18.145,1.977,9.073,1.963,0c-.981.888-.57,2.064-.575,3.122-.024,6.307-.3,12.632.1,18.912C1.771,26.443-.243,30.429.024,34.744Z" transform="translate(16.428 376.407)" fill="#f3efeb"/>
        <path id="Path_143" data-name="Path 143" d="M.024,8.714.708,8.7A6.5,6.5,0,0,0,2.013,5.157c-.107-1.651.407-3.363-.455-4.941L1.317,0C-.761,2.653.321,5.789.024,8.714Z" transform="translate(22.95 336.406)" fill="#f3efeb"/>
        <path id="Path_144" data-name="Path 144" d="M.763,1.669.52,0A7.624,7.624,0,0,0,.006,3.545C.825,3.154.653,2.353.763,1.669Z" transform="translate(15.836 412.294)" fill="#f3efeb"/>
        <path id="Path_145" data-name="Path 145" d="M6.568,11.482c-.5,3.019-1.42,5.975-2.056,8.888C3.292,25.959.2,30.989,0,36.812c.216.308.437.308.658.006,1.989-6.143,4.561-12.168,5.8-18.463C7.642,12.316,10.95,6.663,9.977.2A.484.484,0,0,0,9.22.164c.366,2.377-.708,4.451-1.348,6.616C7.195,8.279,7.152,9.959,6.568,11.482Z" transform="translate(20.386 411.671)" fill="#f3efeb"/>
        <path id="Path_146" data-name="Path 146" d="M.182,22.752l.757.038,1.074-1.432C1.606,16.951,3.3,12.763,3.3,8.4c0-1.857.138-3.713.213-5.568C3.8,1.853,4.14.872,3.272,0A50.3,50.3,0,0,0,.182,22.752Z" transform="translate(29.424 389.083)" fill="#f3efeb"/>
        <path id="Path_147" data-name="Path 147" d="M10.394,0C9.886.7,9.356,1.38,8.872,2.094,5.613,6.914,2.815,6.375,0,2.131.239,6.189,2.7,7.68,6.426,6.025a14.98,14.98,0,0,0,4.1-4.536A.978.978,0,0,0,10.394,0Z" transform="translate(7.263 456.364)" fill="#f3efeb"/>
        <path id="Path_148" data-name="Path 148" d="M.049,7.883l.13,1.489C.86,6.106,4.138,3.769,3.436.008L3.108,0l-.33,0C2.495,2.853-.409,4.767.049,7.883Z" transform="translate(17.608 448.481)" fill="#f3efeb"/>
        <path id="Path_149" data-name="Path 149" d="M0,10.8A21.79,21.79,0,0,0,2.444,0,39.231,39.231,0,0,0,0,10.8Z" transform="translate(7.388 439.823)" fill="#f3efeb"/>
        <path id="Path_150" data-name="Path 150" d="M.011,4.7C1.439,3.419,1.366,1.7,1.336,0A6.436,6.436,0,0,0,.011,4.7Z" transform="translate(11.212 428.477)" fill="#f3efeb"/>
        <path id="Path_151" data-name="Path 151" d="M.058,3.557A5.9,5.9,0,0,0,1.292,0,3.579,3.579,0,0,0,.058,3.557Z" transform="translate(9.941 433.161)" fill="#f3efeb"/>
        <path id="Path_152" data-name="Path 152" d="M0,2.661A2.932,2.932,0,0,0,1.959,0,3.331,3.331,0,0,0,0,2.661Z" transform="translate(13.826 417.814)" fill="#f3efeb"/>
        <path id="Path_153" data-name="Path 153" d="M3.315,0,2.652.662C1.48,2.778,2.445,5.228,1.626,7.4.968,8.415.157,9.378.458,10.742a15.989,15.989,0,0,1-.221,6.812,13.608,13.608,0,0,0-.2,3.887A1.7,1.7,0,0,0,.784,22.9q.51-.856,1.016-1.714C1.63,14.932,3.985,8.9,3.421,2.6,3.342,1.74,3.348.868,3.315,0Z" transform="translate(36.155 334.482)" fill="#f3efeb"/>
        <path id="Path_154" data-name="Path 154" d="M2.745,42.148c2.131-1.317,1.23-3.464.981-5.1A36.077,36.077,0,0,1,3.3,30.441c.17-5.453.057-10.833-1.916-16.049C.107,11,.811,7.365.619,3.836.548,2.547,1.013,1.151.028,0-.049,7.367-.148,14.712,2.393,21.817c.85,2.381.374,5.018.22,7.543a12.543,12.543,0,0,0-.044,6.007l.206,1.248C3.711,38.465,3.2,40.306,2.745,42.148Z" transform="translate(28.301 73.064)" fill="#f3efeb"/>
        <path id="Path_155" data-name="Path 155" d="M.757,6.007Q.778,3,.8,0A6.184,6.184,0,0,0,.757,6.007Z" transform="translate(30.114 102.424)" fill="#f3efeb"/>
        <path id="Path_156" data-name="Path 156" d="M4.3,9.981c.077.714-.024,1.487.639,2.007C5.8,7.642,3.511,4.265,1.587.777L.379,0A1.349,1.349,0,0,0,.015,1.2,4.18,4.18,0,0,0,.3,2.037C.879,3.391,1.747,4.593,2.308,5.961,2.909,7.335,4.056,8.427,4.3,9.981Z" transform="translate(25.263 58.441)" fill="#f3efeb"/>
        <path id="Path_157" data-name="Path 157" d="M.7,16.29c1.948-2.8,1.8-6.155,2.282-9.309A52.225,52.225,0,0,0,3.172.124.532.532,0,0,0,2.34.318C2.12,3.185.778,5.777.359,8.6.317,10.22.624,11.863.078,13.459A6.165,6.165,0,0,0,.09,15.491,1.47,1.47,0,0,0,.7,16.29Z" transform="translate(33.569 363.012)" fill="#f3efeb"/>
        <path id="Path_158" data-name="Path 158" d="M1.576.951l-.17-.88A.566.566,0,0,0,.563.449C.306,3.013.888,5.615.208,8.158Q.105,9.445,0,10.732q.121,1.414.245,2.829c.939-1.5-.071-3.442,1.093-4.886Q1.456,4.813,1.576.951Z" transform="translate(32.696 378.351)" fill="#f3efeb"/>
        <path id="Path_159" data-name="Path 159" d="M.505,7.466l.538-.012q.1-2.874.2-5.75c-.067-.567-.136-1.135-.2-1.7C-.746,2.369.256,4.945.505,7.466Z" transform="translate(35.697 355.682)" fill="#f3efeb"/>
        <path id="Path_160" data-name="Path 160" d="M0,1.61Q.13,2.9.259,4.19c2.25-.714.666-2.6,1.149-3.861C.338-.233.338-.233,0,1.61Z" transform="translate(18.988 44.748)" fill="#f3efeb"/>
        <path id="Path_161" data-name="Path 161" d="M.931,0C-.25.753-.287,1.252.7,3.211Q.815,1.605.931,0Z" transform="translate(16.369 33.107)" fill="#f3efeb"/>
        <path id="Path_162" data-name="Path 162" d="M1.35,14.618c.028.257.057.514.087.769,1.9-1.781,2.5-3.846.826-6.029C.966,7.666,1.5,5.815,1.381,4.014A8.643,8.643,0,0,0,.235,0C.179.223.122.443.063.664c-.293,2.5.52,4.909.617,7.375Q.687,8.7.689,9.366c.038.407.075.813.113,1.218C2.065,11.778.7,13.34,1.35,14.618Z" transform="translate(30.836 115.753)" fill="#f3efeb"/>
        <path id="Path_163" data-name="Path 163" d="M1.295,4.032C1.246,2.669,3.2,1.026.747,0Q.373,3.369,0,6.742C1.034,6.135.312,4.664,1.295,4.032Z" transform="translate(30.891 126.339)" fill="#f3efeb"/>
        <path id="Path_164" data-name="Path 164" d="M1.049,7.375A24.9,24.9,0,0,0,.432,0C-.624,2.568.523,4.945,1.049,7.375Z" transform="translate(30.467 116.417)" fill="#f3efeb"/>
        <path id="Path_165" data-name="Path 165" d="M3.227,2.456,3.213,1.162C2.94.779,2.667.395,2.392.012-.635-.192.277,2.181,0,3.776.607,4.318.56,5.093.7,5.8c1.048,2.05,1.265,4.544,3.16,6.145a5.7,5.7,0,0,0-.809-6.424C2.161,4.409,1.957,3.407,3.227,2.456Z" transform="translate(22.43 57.28)" fill="#f3efeb"/>
        <path id="Path_166" data-name="Path 166" d="M.086,1.52C.112,2.661,1.1,3.128,1.686,3.877,2.74,2.337,1.656,1.206.966,0-.2-.012-.04.763.086,1.52Z" transform="translate(6.358 6.992)" fill="#f3efeb"/>
        <path id="Path_167" data-name="Path 167" d="M3.193,6.015A28.488,28.488,0,0,0,.042,0c-.368,2.163,1.8,3.814,1.176,6.029.425.8.945,1.457,1.981,1.305a.734.734,0,0,0,.708-.71C3.636,6.462,3.579,6.038,3.193,6.015Z" transform="translate(23.087 63.081)" fill="#f3efeb"/>
        <path id="Path_168" data-name="Path 168" d="M1.295,12.016a5.68,5.68,0,0,0-.7,3.3Q.3,16.679,0,18.044c2.017-1.687,2.513-4.037,2.564-6.487.079-3.85.018-7.7.016-11.557C1.337,2.118,2.3,4.461,1.926,6.671,1.07,8.375,2.155,10.313,1.295,12.016Z" transform="translate(23.065 329.794)" fill="#f3efeb"/>
        <path id="Path_169" data-name="Path 169" d="M0,5.346C1.238,3.689.37,1.774.631,0A.984.984,0,0,0,.148.156Q.075,2.751,0,5.346Z" transform="translate(24.36 336.464)" fill="#f3efeb"/>
        <path id="Path_170" data-name="Path 170" d="M3.545,26.708c.2-2.487-.508-5.04.534-7.466q.046-1.942.093-3.885a18.447,18.447,0,0,0,.115-6.6,3.6,3.6,0,0,1,1.18-2.77A11.736,11.736,0,0,0,5.455,0,30.8,30.8,0,0,0,3.707,8.192a103.409,103.409,0,0,0-.856,11.494c.03,4.733-.136,9.327-1.795,13.957C-.821,38.882.411,44.576.247,50.069c1.19-2.592.253-5.362.649-8.02a34.7,34.7,0,0,0,.8-5.159,1.675,1.675,0,0,0-.119-1.513Z" transform="translate(32.657 336.44)" fill="#f3efeb"/>
        <path id="Path_171" data-name="Path 171" d="M2.668,9.81c.237.2.475.407.714.609-.047-1-.014-2.2.817-2.659,1.074-.593.969,1.139,1.756,1.376.514-1.823-1.036-3.049-1.3-4.648C2.942,3.709,2.539,2.054,2.049.456l0-.006C1.466.3.764-.434.333.369A2.487,2.487,0,0,0,.773,3.424C2.622,5.211,2.9,7.416,2.668,9.81Z" transform="translate(23.612 59.286)" fill="#f3efeb"/>
        <path id="Path_172" data-name="Path 172" d="M1.958,0Q.978,3.672,0,7.347C2.044,5.281,2.106,2.669,1.958,0Z" transform="translate(20.41 358.472)" fill="#f3efeb"/>
        <path id="Path_173" data-name="Path 173" d="M0,1.3.012,7.286C1.273,4.957.312,2.414.694,0A1.322,1.322,0,0,0,0,1.3Z" transform="translate(38.112 335.143)" fill="#f3efeb"/>
        <path id="Path_174" data-name="Path 174" d="M.013,4.7A6.541,6.541,0,0,0,1.318,0C-.138,1.277-.011,3,.013,4.7Z" transform="translate(26.94 418.451)" fill="#f3efeb"/>
        <path id="Path_175" data-name="Path 175" d="M.7,0C-.48,1.184.226,2.679.06,4.032,1.135,2.829.524,1.35.7,0Z" transform="translate(19.709 365.813)" fill="#f3efeb"/>
        <path id="Path_176" data-name="Path 176" d="M.115,0Q.058,3.3,0,6.6A8.066,8.066,0,0,0,.115,0Z" transform="translate(36.83 345.199)" fill="#f3efeb"/>
        <path id="Path_177" data-name="Path 177" d="M.058,0c-.214,2.068.057,3.812,2.61,4.032Z" transform="translate(25.602 59.742)" fill="#f3efeb"/>
        <path id="Path_178" data-name="Path 178" d="M.682,0C-.536,1.669.3,3.581.061,5.366A4.546,4.546,0,0,0,.612,5.3q.055-.971.109-1.94A4.082,4.082,0,0,0,.682,0Z" transform="translate(33.493 373.123)" fill="#f3efeb"/>
        <path id="Path_179" data-name="Path 179" d="M0,1.307Q.018,2.988.038,4.668A4.124,4.124,0,0,0,.059,0Q.031.656,0,1.307Z" transform="translate(34.175 371.816)" fill="#f3efeb"/>
      </g>
    </g>
  </g>
</svg>
