<svg xmlns="http://www.w3.org/2000/svg" width="105.199" height="857.134" viewBox="0 0 105.199 857.134">
  <g id="QRNhEL.tif" transform="matrix(-0.999, 0.035, -0.035, -0.999, 105.199, 856.964)" opacity="0.4">
    <g id="Group_7" data-name="Group 7" transform="translate(0 0)">
      <g id="Group_6" data-name="Group 6">
        <path id="Path_92" data-name="Path 92" d="M8.653,0a32.379,32.379,0,0,0,.231,17.5,41.973,41.973,0,0,1,.748,21.715C5.9,55.265,5.6,71.461,5.432,87.687c-.287,28.149.338,56.31-.2,84.452-.346,17.877-.13,35.956-2.057,53.591C.657,248.77,2.342,271.668,1.4,294.6.56,314.957-.477,335.319.241,355.711a1.286,1.286,0,0,0,1.945-.3c2.57-7.832.725-15.9,1.265-23.843-.227-2.3-.115-4.6-.13-6.9,3.332-30.18,1.588-60.5,2.726-90.733.465-12.388.521-24.773.878-37.157.078-2.648-.026-5.3.867-7.847.774-16.074.223-32.155.335-48.236.1-14.456.007-28.912.026-43.368.011-7.516-.383-15.058,1.161-22.489-.1-10.64.405-21.221,3.176-31.563.621-8.68.93-17.357-.2-26.022a16.98,16.98,0,0,1-.6-1.99,13.692,13.692,0,0,0-.535-1.964C9.69,9.487,11.145,5.352,9.925,1.506A3.1,3.1,0,0,0,8.653,0Z" transform="translate(45.536 247.936)" fill="#e2d8cf"/>
        <path id="Path_93" data-name="Path 93" d="M8.953,271.779a19.391,19.391,0,0,1-1.4-8.346c.052-48.745.807-97.505-.275-146.228-.484-21.768.089-43.58-1.25-65.3-.826-13.448-.662-26.866-.9-40.3C5.052,7.155,4.174,3.325,1.277,0-1.189,4.887.585,10.071,1.095,14.835,2.482,27.8,1.716,40.761,2.333,53.7a11.743,11.743,0,0,0,.39,2.213c1.175,15.568.8,31.136.16,46.715a9.145,9.145,0,0,0,.033,2.321c1.488,7.427,1.677,14.928,1.663,22.485q-.112,67.294.008,134.592c0,3.347-.9,7.044,2.183,9.74A1.871,1.871,0,0,0,8.953,271.779Z" transform="translate(68.666 227.548)" fill="#e2d8cf"/>
        <path id="Path_94" data-name="Path 94" d="M18.078,0C16.8,6.821,15.572,13.653,14.225,20.458,11.574,33.877,12.44,47.8,7.658,61,5.348,67.363,7.55,74.753,6.021,81.57,3.5,92.82,4.288,104.289,4.839,115.58,5.612,131.36,1.767,146.459,0,161.856c1.391.413,2.254-.346,3-1.383a6.27,6.27,0,0,0,.6-1.729,29.767,29.767,0,0,1,1.179-6.371,15.213,15.213,0,0,0,.405-3.038c4.853-20.328.963-41.088,3.05-61.542.613-2.417.52-4.969,1.391-7.338A106.832,106.832,0,0,1,14.4,49.445c1.923-6.241-.7-13.415,2.488-19.726.978-5.53-.684-11.436,2.31-16.687C19.559,8.621,20.838,4.128,18.078,0Z" transform="translate(26.705 605.008)" fill="#e2d8cf"/>
        <path id="Path_95" data-name="Path 95" d="M8.1,78.582c.086-18.387.037-36.766-2.644-55.019-3.128-4.47-1.41-9.606-1.878-14.437C3.3,6.165,3.344,3.171,3.24.192A1.379,1.379,0,0,0,1.3.739C-.944,9.125.368,17.627.5,26.1.718,40.079,4.1,53.78,3.9,67.823,3.842,71.664,2.827,76.588,8.1,78.582Z" transform="translate(64.486 203.986)" fill="#e2d8cf"/>
        <path id="Path_96" data-name="Path 96" d="M.692,97.409c4.3-.788,6.564-4.6,7.81-7.743,2.25-5.683,5.883-10.592,7.17-16.955,2.02-9.967,6.4-19.421,8.825-29.332C27.461,31.3,31.88,19.562,33.2,7.07c.234-2.2.762-4.366,1.153-6.549A1.941,1.941,0,0,0,32.571.052a5.564,5.564,0,0,0-2.931,3.771C28.555,20.31,22.433,35.573,18.6,51.394c-1.543,6.36-4.969,11.9-6.27,18.238,1.48,6.661-4.255,10.938-5.4,16.724C5.017,89.841,1.778,92.34,0,95.925A1.846,1.846,0,0,0,.692,97.409Z" transform="translate(24.812 753.962)" fill="#e2d8cf"/>
        <path id="Path_97" data-name="Path 97" d="M18,0,15.865,1.566c-3.187,3.362-4.091,7.468-4.9,12.012C9.011,24.642,6.523,35.636,3.667,46.5A98.39,98.39,0,0,0,.019,73.845,1.273,1.273,0,0,0,1.77,73.6c1.692-3.31,1.224-7.1,2.272-10.555A180.87,180.87,0,0,1,8.331,43.479a23.027,23.027,0,0,0,.539-5.411,12.084,12.084,0,0,1,1.447-6.438,10.356,10.356,0,0,0,.577-1.6A24.794,24.794,0,0,1,13.7,22.013c2.168-4.255.6-9.034,1.859-13.411.465-2.414,2.548-3.946,3.306-6.2A2.314,2.314,0,0,0,18,0Z" transform="translate(10.839 765.298)" fill="#e2d8cf"/>
        <path id="Path_98" data-name="Path 98" d="M2.2,94.924c3.444-13.4,3.834-27.19,4.355-40.876.6-15.657,2.391-31.288,1.439-46.994-.141-2.332.684-4.4,1.432-6.5C9.1.368,8.774.186,8.45,0,4.668,1.29,4.962,4.623,5.044,7.572,5.416,20.923,4.4,34.219,3.776,47.533a19.359,19.359,0,0,1-.658,4.786A15.857,15.857,0,0,0,2.608,55.6C2.652,65.05,2.82,74.481.514,83.786a18.714,18.714,0,0,0,.23,9.569A3.056,3.056,0,0,0,2.2,94.924Z" transform="translate(68.246 559.379)" fill="#e2d8cf"/>
        <path id="Path_99" data-name="Path 99" d="M0,.31c2.432,6.244,1.9,12.8,1.781,19.272A60.23,60.23,0,0,0,5.709,43.443a15.39,15.39,0,0,1,.532,10.781c-2.391,6.6-2.1,12.626,1.224,18.647a3.544,3.544,0,0,0,1.387-2.548,9.369,9.369,0,0,0-.219-2.968,21.519,21.519,0,0,1,.316-11.548c.662-5.924.926-11.946-1.164-17.543C3.674,27.247,4.634,15.807,4.31,4.453A5.4,5.4,0,0,0,1.867.191,1.893,1.893,0,0,0,0,.31Z" transform="translate(49.183 131.585)" fill="#e2d8cf"/>
        <path id="Path_100" data-name="Path 100" d="M14.073,53.77c-1.261-9.956-.863-20.187-5.188-29.637a13.721,13.721,0,0,1-.733-6.564C8.766,10.291,4.894,5.1.7,0A3.029,3.029,0,0,0,0,1.763,6.682,6.682,0,0,0,1.134,5.805c3.968,4.939,4.385,10.718,4.1,16.7,1.714,9.2,4.422,18.2,5.005,27.61a4.9,4.9,0,0,0,1.934,3.671A1.675,1.675,0,0,0,14.073,53.77Z" transform="translate(48.811 107.479)" fill="#e2d8cf"/>
        <path id="Path_101" data-name="Path 101" d="M2.1,58.166c.855-14.144,7.568-27.439,5.8-41.988C7.256,10.919,8.546,5.731,9.32.547L8.639,0C6.646.331,5.988,1.915,5.378,3.555c-.748,3.381-.364,6.821-.5,10.235a77.076,77.076,0,0,1-4.087,29.2,32.717,32.717,0,0,0-.13,13.675A2.835,2.835,0,0,0,2.1,58.166Z" transform="translate(61.125 653.757)" fill="#e2d8cf"/>
        <path id="Path_102" data-name="Path 102" d="M3.332,0,2.082.041C-1.045,4.441.2,9.487.491,14.181c.535,8.5,2.863,16.762,4.385,25.133a5.756,5.756,0,0,0,2.02,3.634l1.279-.019L8.148,30.663C6.025,20.525,3.3,10.488,3.351,0Z" transform="translate(59.552 161.249)" fill="#e2d8cf"/>
        <path id="Path_103" data-name="Path 103" d="M2.359,60.6c.271-.539.777-1.075.777-1.614q.05-28.7-.026-57.388c0-.535-.524-1.067-.8-1.6-.212.175-.424.353-.636.528C-.669,3.793.124,7.617.15,11.164c.089,13.6-.074,27.2-.033,40.805.011,2.782-.376,5.753,1.673,8.148C1.98,60.278,2.169,60.438,2.359,60.6Z" transform="translate(75.312 499.328)" fill="#e2d8cf"/>
        <path id="Path_104" data-name="Path 104" d="M0,10.175c5.842,3.63,3.816,9.391,3.83,14.6a1.114,1.114,0,0,0,1.376.19A9.158,9.158,0,0,1,7.5,23.151a3.494,3.494,0,0,0,1.119-.859l.078-5.91c.409-.677,1.227-.989,1.536-1.759a3.816,3.816,0,0,0-1.636-3.451c-8.13.974-5.367-5.229-5.913-9.253C3.381.573,2.648.149,1.487,0-.316,1.5.349,3.611.175,5.512A38.364,38.364,0,0,1,0,10.175Z" transform="translate(30.089 60.553)" fill="#e2d8cf"/>
        <path id="Path_105" data-name="Path 105" d="M1.424.108.851,0,.267.048C-1.451,7.538,5.6,11.492,7.408,17.639c.38,1.294,4.805,2.191,6.025-1.536.428-1.313.186-2.864,1.48-3.831l-.342-1.454C6.738,10.51,5.585,9.733,3.875,3.57,3.436,2.142,2.889.788,1.424.108Z" transform="translate(10.591 839.095)" fill="#e2d8cf"/>
        <path id="Path_106" data-name="Path 106" d="M1.8,35.108l.51,1.949a1.634,1.634,0,0,0,1.454-.588,8.074,8.074,0,0,0,.919-2.388c.3-1.134.669-2.25.956-3.392.476-3.715,1.875-7.3,1.454-11.138a10.288,10.288,0,0,0-.67-2.838C4.352,13.1,4.49,8.941,3.683,5.025,3.322,3.265,3.549,1.354,2.035,0,.034,1.168-.412,2.51.35,4.987c1.707,5.541,1.194,11.507,3.035,17.148C4.791,26.446,2.2,30.749,1.8,35.108Z" transform="translate(52.388 212.829)" fill="#e2d8cf"/>
        <path id="Path_107" data-name="Path 107" d="M0,7.6c4.426,5.85,3.347,13.087,4.809,19.685,1.8-1.417,1.514-3.5,1.606-5.422.1-2.205.171-4.37,2.246-5.757C8.68,10.25,3.336,6.025,3.9,0,1.659,1.447,2.737,4.623.751,6.2A5.922,5.922,0,0,0,0,7.6Z" transform="translate(35.002 85.091)" fill="#e2d8cf"/>
        <path id="Path_108" data-name="Path 108" d="M1.509,43.04l1.384.056C2.495,35.245,6.63,27.919,5.5,19.982c1.246-2.8-.469-5.965,1.045-8.729q.2-5.361.4-10.722C6.723.357,6.5.178,6.281,0,2.2,2.057,4.555,6.512,2.837,9.454,2.283,17.959,1.334,26.42.3,34.877-.049,37.674-.484,40.563,1.509,43.04Z" transform="translate(56.275 711.387)" fill="#e2d8cf"/>
        <path id="Path_109" data-name="Path 109" d="M0,11.228C.461,17.1-.506,23.266,3.522,28.38a2.974,2.974,0,0,0,.9-2.436c-.249-4.318-1.64-8.535-1.112-12.927.2-.565.361-1.142.521-1.722.175-.6.327-1.2.487-1.8C4.727,6.162,6.709,2.551,2.7,0L2.224,2.856C1.982,5.783,1.867,8.747,0,11.228Z" transform="translate(54.423 201.601)" fill="#e2d8cf"/>
        <path id="Path_110" data-name="Path 110" d="M.211,0c-.945,10.633,1.395,20.734,4.8,30.663C6.5,26.643,4.328,23.091,3.3,19.536,1.449,13.117,2.156,6.352.211,0Z" transform="translate(62.691 161.249)" fill="#e2d8cf"/>
        <path id="Path_111" data-name="Path 111" d="M1.5,14.309c1.558-.945,1.328-2.492,1.29-3.976-.487-2.012-1.532-4.065.42-5.9q.486.8.971,1.614.552-.837,1.1-1.677C6.077,3.036,6.4,1.415,5.024.589,3.384-.4,1.532-.262.539,1.917.2,6.1-.882,10.341,1.5,14.309Z" transform="translate(28.591 56.419)" fill="#e2d8cf"/>
        <path id="Path_112" data-name="Path 112" d="M3.853.653C1.592-.459.108-.4.182,2.807c.074,3-.111,6.017-.182,9.026l.089-.108a1.117,1.117,0,0,0,1.439.156C3.042,9.8,2.893,6.637,5.646,5.354A2.272,2.272,0,0,0,6.441,4Z" transform="translate(39.811 100.545)" fill="#e2d8cf"/>
        <path id="Path_113" data-name="Path 113" d="M4.69,6.02c2.793-1.6,4.916-1.852,4.745,2.455,2-2.027,3.515-4.392-.889-4.627C5.2,3.669,4.109-.292,0,.017Z" transform="translate(24.44 52.317)" fill="#e2d8cf"/>
        <path id="Path_114" data-name="Path 114" d="M1.469,9.048l3.938,3.343C4.835,7.646,4.894,2.893.651,0A1.63,1.63,0,0,0,0,1.372C.324,3.444,1.231,5.389,1.365,7.5A10.775,10.775,0,0,1,1.469,9.048Z" transform="translate(12.784 11.685)" fill="#e2d8cf"/>
        <path id="Path_115" data-name="Path 115" d="M1.328,0,0,.045C1.726,4.82.74,10.279,3.618,14.761a1.156,1.156,0,0,0,1.666-.2C7.475,10.536,3.786,7.248,3.95,3.47,3.533,1.96,3.611.056,1.328,0Z" transform="translate(39.9 112.225)" fill="#e2d8cf"/>
        <path id="Path_116" data-name="Path 116" d="M8.609,7.278C8.822,2.908,5.846,1.294,2.5,0,1.763.617.483.16,0,1.291l2.5,3.6c2.44-.636,2.573,1.934,3.879,2.882A1.963,1.963,0,0,0,8.609,7.278Z" transform="translate(2.345 3.25)" fill="#e2d8cf"/>
        <path id="Path_117" data-name="Path 117" d="M0,2.371,1.268,6.03c1.235,1.06,2.525.837,3.838.186A8.542,8.542,0,0,0,4.831.14C2.555-.608,1.722,1.869,0,2.371Z" transform="translate(38.684 69.354)" fill="#e2d8cf"/>
        <path id="Path_118" data-name="Path 118" d="M.178,1.361,0,14.7c.283.145.565.286.848.431a2.21,2.21,0,0,0,1.391-1.212C3.477,10.231,2.481,6.307,3.4,2.585A2.978,2.978,0,0,0,2.384.007L1.171,0Z" transform="translate(44.605 603.647)" fill="#e2d8cf"/>
        <path id="Path_119" data-name="Path 119" d="M2.345,4.541l2.5-1.291C3.446,2.358,3.557-.38,1.14.044.731.115.229.81.129,1.294-.254,3.1.144,4.489,2.345,4.541Z" transform="translate(0 0)" fill="#e2d8cf"/>
        <path id="Path_120" data-name="Path 120" d="M4.686.814,1.172.848Q.586,1.618,0,2.4c3.585-.733,6.929-.9,8.279,3.626,1.484-.9.681-2.525,1.168-3.738A3.153,3.153,0,0,0,7.018,0C6.274.364,5.307.078,4.686.814Z" transform="translate(38.781 74.536)" fill="#e2d8cf"/>
        <path id="Path_121" data-name="Path 121" d="M3.912.384,2.123.34A1.507,1.507,0,0,0,0,.555l3.711,4.95a1.181,1.181,0,0,0,1.38.089c-.517-1.417.368-2.168,1.328-2.886a7.188,7.188,0,0,1-.026-1.168C5.567,1.154,4.738.771,3.912.384Z" transform="translate(7.042 10.144)" fill="#e2d8cf"/>
        <path id="Path_122" data-name="Path 122" d="M1.567,9.729C4.892,8.107,3.341,4.768,4.13,2.246,4.066,1.5,4,.751,3.936,0L2.72.011C.786,1.945,1.63,4.928.154,7.036-.381,8.479.574,9.115,1.567,9.729Z" transform="translate(34.77 82.845)" fill="#e2d8cf"/>
        <path id="Path_123" data-name="Path 123" d="M2.194,4.793c.707-.071,1.413-.145,2.123-.216C4.169,2.759,3.879.847,2.027.137.375-.5.368,1.208,0,2.235Z" transform="translate(4.848 5.906)" fill="#e2d8cf"/>
        <path id="Path_124" data-name="Path 124" d="M1.188.048A8.591,8.591,0,0,0,.031,0C-.337,4.321,2.66,4.641,5.695,4.913A.488.488,0,0,1,6.312,4.9a2.728,2.728,0,0,0-.975-2.849C4.07,1.134,2.831.156,1.188.048Z" transform="translate(43.488 126.982)" fill="#e2d8cf"/>
        <path id="Path_125" data-name="Path 125" d="M2.531,7.364,1.575,4.742C2.542,3.042,2.724,1.428,1.1,0A7.851,7.851,0,0,1,.113.115c0,2.51-.636,5.117,1.082,7.368Z" transform="translate(33.806 85.21)" fill="#e2d8cf"/>
        <path id="Path_126" data-name="Path 126" d="M1.243,0C-.9,2.685.425,5.8.194,8.729,2.1,6.01,1.005,2.923,1.243,0Z" transform="translate(61.577 722.641)" fill="#e2d8cf"/>
        <path id="Path_127" data-name="Path 127" d="M1.164,0C-.182.937.175,2.421,0,3.738,2.563,3.663,2.745,3.083,1.164,0Z" transform="translate(47.063 76.82)" fill="#e2d8cf"/>
        <path id="Path_128" data-name="Path 128" d="M0,5.861a2.223,2.223,0,0,0,2.336-.814Q1.192,2.525.048,0Z" transform="translate(43.467 69.49)" fill="#e2d8cf"/>
        <path id="Path_129" data-name="Path 129" d="M1.114.033.571,0,.024.037C-.2,2.719,1.114,4.31,3.528,5.121c.179-.249.357-.5.528-.755C3.837,2.391,3.111.766,1.114.033Z" transform="translate(10.729 15.612)" fill="#e2d8cf"/>
        <path id="Path_130" data-name="Path 130" d="M3.737,4.3,3.9,2.934A5.913,5.913,0,0,0,.635,0C.427.257.215.509.006.762a3.418,3.418,0,0,0,1.123,2.6A2.842,2.842,0,0,0,3.737,4.3Z" transform="translate(45.617 104.545)" fill="#e2d8cf"/>
        <path id="Path_131" data-name="Path 131" d="M36.3,7.479,37.785,9.93l2.272,2.417c.933,1.711.576,3.585.495,5.367-.48,10.387.149,20.618,3.708,30.5,1.116,3.094,1.09,6.33,1.2,9.584.268,8-2.023,16.048.974,24.062.856,2.287,1.12,5.683-1.384,7.963a7.549,7.549,0,0,0,.045,1c.911,6.293.1,12.9,2.931,18.841,2.012,4.225-1.428,7.226-1.964,10.874-4.206,13.344,1.078,26.673.041,40.047-.751,9.714-2.246,19.335-3.046,29-.751,9.1-2.522,18.112-2.484,27.283.045,10.2-.056,20.4.022,30.589.45,58.712-1.257,117.41-1.473,176.118-.041,11.12-2.172,22.522-3.857,33.728q-.145,12.2-.294,24.4c.048.844.1,1.688.149,2.536-.829,6.36-1.1,12.779-1.543,19.164-.342,4.984-1.305,9.569-4.006,13.742-1.8,6.073-.3,12.455-1.674,18.562-.558,4.619-.048,9.48-2.934,13.589a6.773,6.773,0,0,0-.554,1.819c-.212,2.544.037,5.132-.71,7.628a41.554,41.554,0,0,1-1.265,11.042c-1.279,15.389-.428,30.8-.487,46.194-.026,7.416-1.685,14.407-3.578,21.422-1.012,1.51-.29,3.477-1.268,5a1.483,1.483,0,0,0-.275.948L17,646.029c-1.038,1.752-2.455,3.221-3.6,4.891-2.893,4.556.249,10.1-2.35,14.709-1.075,2.8-1.034,5.932-2.436,8.639l.019-.03a32.952,32.952,0,0,0-2.269,6.538l-.305,5.709A158.57,158.57,0,0,1,1.566,706.33c-2.019,3.422-.9,7.3-1.566,10.923q.67,1.774,1.335,3.552c3.712,8.94,9.807,9.729,15.654,2.057,1.439-1.885,3.325-3.444,4.091-5.817.082-5.552,5.727-9.2,4.984-15.043-.539-6.456,4.634-11.02,5.4-17.126,1.235-9.774,6.862-18.461,7.126-28.518.681-3.079.714-6.348,2.6-9.078,2.079-4.02,1.558-8.464,2.027-12.752a12.928,12.928,0,0,0,.8-4.154c-1.216-12.727,2-24.847,4.794-37.03a39.907,39.907,0,0,1,.718-5.273c.323-12.366-.342-24.784,4.095-36.759,2.068-5.578.469-11.737.982-17.617,1.03-11.707,2.068-23.411,4.054-34.992.2-1.209.562-2.4.736-3.611a4.8,4.8,0,0,1,1.134-2.232l.041-2.347c1.294-6.642.874-13.444.867-20.079-.015-22.8,2.979-45.566,1.878-68.3-2.912-60.155-.978-120.325-1.685-180.484a81.541,81.541,0,0,0-1.015-12.128.784.784,0,0,0-.008-.855c.729-16.018.8-32.04-.045-48.061l0,.019c-1.99-1.8-2.358-4.619-2.232-6.7.766-12.277-2.176-24.2-2.834-36.339-.636-11.778-1.573-23.527-1.071-35.334-.93-12.57-5.675-24.62-4.961-37.414.1-1.83.1-3.663.145-5.493-2-10.618-3.195-21.4-6.11-31.835-.986-1.2-.238-2.778-.848-4.065C42.1,1.651,41.333-.4,39.184.067,36.978.543,36.625,2.9,36.234,4.9A9.24,9.24,0,0,0,36.3,7.479Z" transform="translate(12.015 121.95)" fill="#e2d8cf"/>
        <path id="Path_132" data-name="Path 132" d="M0,339.745a48.711,48.711,0,0,0,3.224-18.283c-.153-5.787,2.823-11.165,2.8-17.275q-.285-101.864.022-203.729c.011-6.683,1.517-13.247,2.443-19.86,2.674-19.153,5.169-38.406,2.566-57.8-.967-7.2.733-14.166.978-21.251A.95.95,0,0,0,11.886,0C8.52.461,11.287,3.883,9.5,5.106a2.271,2.271,0,0,0-.922,2.432,156.309,156.309,0,0,0-.071,16.007,4.1,4.1,0,0,0-.048,1.108C9.078,25.159,9.9,25.7,9.9,26.487,9.87,35.7,11.205,44.944,9.145,54.1,7.873,63.488,6.575,72.878,5.9,82.343c-2.083,23.445-.52,46.938-.937,70.405-.264,14.906-.26,29.815-.376,44.725a5.9,5.9,0,0,0-.476,2.972c.5,30.087-2.414,60.14-1.086,90.212.643,14.523-3.176,28.6-2.89,43.014Z" transform="translate(47.282 239.509)" fill="#e2d8cf"/>
        <path id="Path_133" data-name="Path 133" d="M.424,136.2c1.12-9.19,2.882-18.361,3.213-27.58.539-15.051.063-30.139.171-45.209C3.961,42.271,5.861,21.161,4.876,0,3.544,1.283,3.741,2.964,3.753,4.578c.227,32.155-2.28,64.276-1.257,96.438C2.871,112.821-1.313,124.327.424,136.2Z" transform="translate(46.996 436.982)" fill="#e2d8cf"/>
        <path id="Path_134" data-name="Path 134" d="M.1,30.823c1.194-9.368,3.745-18.554,3.7-28.09A2.024,2.024,0,0,0,3.613,0,94.186,94.186,0,0,0,.1,30.823Z" transform="translate(53.086 291.029)" fill="#e2d8cf"/>
        <path id="Path_135" data-name="Path 135" d="M.96,26.866q.089,1.367.182,2.733c2.28-9.376.922-18.848.669-28.287C1.8.859.628.439,0,0,2.432,8.877.852,17.9.96,26.866Z" transform="translate(55.739 264.162)" fill="#e2d8cf"/>
        <path id="Path_136" data-name="Path 136" d="M.9,16.007A26.767,26.767,0,0,0,.97,0C.873.818.78,1.633.683,2.451a28.142,28.142,0,0,0,0,12.329Z" transform="translate(54.889 247.047)" fill="#e2d8cf"/>
        <path id="Path_137" data-name="Path 137" d="M1.1,12.329Q1.1,6.164,1.1,0A1.583,1.583,0,0,0,.219.387C.435,4.374-.852,8.476,1.1,12.329Z" transform="translate(54.475 249.498)" fill="#e2d8cf"/>
        <path id="Path_138" data-name="Path 138" d="M.423,0C.367,4.266.266,8.531.266,12.8.248,61.743.17,110.693.3,159.64c.03,12.931,1.1,25.866,1,38.793-.186,25.7-.859,51.4-1.294,77.1-.03,1.819.242,3.641.376,5.463,1.2-14.452,2.945-28.863,2.272-43.431-.149-3.262-1.067-7.021,2.239-9.584q-.056-29.8-.119-59.59c-3.128-2.157-2.138-5.508-2.142-8.409q-.078-70.39.067-140.776A69.278,69.278,0,0,0,.423,0Z" transform="translate(72.212 331.466)" fill="#e2d8cf"/>
        <path id="Path_139" data-name="Path 139" d="M.483,0c-.6,16.022-.707,32.043.045,48.061A372.09,372.09,0,0,0,.483,0Z" transform="translate(72.1 282.549)" fill="#e2d8cf"/>
        <path id="Path_140" data-name="Path 140" d="M.9,57.041c1.744-3.63.61-7.531,1.019-11.287,1.413-2.3-.42-5.14,1.183-7.412l0,.011c2.354-4.184,2.949-8.851,3.6-13.5C6.84,18.315,6.6,11.754,7.979,5.3c.658-1.61,2.358-2.92,1.413-5a1.18,1.18,0,0,0-1.584,0A21.868,21.868,0,0,0,5.457,12.03c.383,6.969-1.666,13.459-3.622,20C-.043,38.331.477,44.861.514,51.329.054,53.274-.52,55.226.9,57.041Z" transform="translate(34.42 634.055)" fill="#e2d8cf"/>
        <path id="Path_141" data-name="Path 141" d="M5.6,5.709Q5.408,2.858,5.22,0,4.657,3.236,4.09,6.482C2.9,19.625,3.58,32.8,3.7,45.952A81.728,81.728,0,0,1,.527,70.346l-.179,2.1c-.417,1.108-.654,2.19.446,3.068A35.274,35.274,0,0,0,5.406,58.121Q5.551,31.913,5.6,5.709Z" transform="translate(29.714 685.387)" fill="#e2d8cf"/>
        <path id="Path_142" data-name="Path 142" d="M.045,63.863A25.955,25.955,0,0,0,3.652,50.025C3.716,33.352,3.634,16.676,3.608,0,1.8,1.633,2.559,3.793,2.551,5.738,2.507,17.331,2,28.956,2.741,40.5,3.254,48.6-.446,55.93.045,63.863Z" transform="translate(30.197 691.87)" fill="#e2d8cf"/>
        <path id="Path_143" data-name="Path 143" d="M.044,16.018,1.3,16c1.67-1.845,2.016-4.188,2.4-6.52C3.5,6.445,4.447,3.3,2.863.4L2.42,0C-1.4,4.876.59,10.64.044,16.018Z" transform="translate(42.184 618.344)" fill="#e2d8cf"/>
        <path id="Path_144" data-name="Path 144" d="M1.4,3.068Q1.179,1.534.956,0c-1,2.068-.978,4.292-.945,6.516C1.517,5.8,1.2,4.325,1.4,3.068Z" transform="translate(29.107 757.834)" fill="#e2d8cf"/>
        <path id="Path_145" data-name="Path 145" d="M12.072,21.106c-.915,5.549-2.611,10.982-3.779,16.338C6.051,47.715.364,56.961,0,67.664c.4.565.8.565,1.209.011C4.865,56.384,9.591,45.309,11.867,33.739c2.179-11.1,8.26-21.492,6.471-33.367A.889.889,0,0,0,16.948.3c.673,4.37-1.3,8.182-2.477,12.161C13.225,15.218,13.147,18.305,12.072,21.106Z" transform="translate(37.471 756.688)" fill="#e2d8cf"/>
        <path id="Path_146" data-name="Path 146" d="M.335,41.82l1.391.071L3.7,39.258c-.747-8.1,2.362-15.8,2.373-23.824,0-3.414.253-6.824.391-10.235.517-1.793,1.146-3.6-.45-5.2C.632,13.452-.729,27.465.335,41.82Z" transform="translate(54.085 715.169)" fill="#e2d8cf"/>
        <path id="Path_147" data-name="Path 147" d="M19.1,0c-.933,1.283-1.908,2.536-2.8,3.849C10.317,12.708,5.173,11.719,0,3.916c.439,7.46,4.965,10.2,11.812,7.159a27.535,27.535,0,0,0,7.531-8.338A1.8,1.8,0,0,0,19.1,0Z" transform="translate(13.35 838.838)" fill="#e2d8cf"/>
        <path id="Path_148" data-name="Path 148" d="M.09,14.489l.238,2.737c1.253-6,7.278-10.3,5.988-17.212L5.713,0,5.107,0C4.586,5.244-.751,8.762.09,14.489Z" transform="translate(32.365 824.349)" fill="#e2d8cf"/>
        <path id="Path_149" data-name="Path 149" d="M0,19.845A40.051,40.051,0,0,0,4.493,0,72.11,72.11,0,0,0,0,19.845Z" transform="translate(13.58 808.435)" fill="#e2d8cf"/>
        <path id="Path_150" data-name="Path 150" d="M.019,8.639C2.645,6.285,2.511,3.131,2.455,0,.313,2.492-.1,5.489.019,8.639Z" transform="translate(20.608 787.579)" fill="#e2d8cf"/>
        <path id="Path_151" data-name="Path 151" d="M.106,6.538C1.386,4.545,2.52,2.5,2.375,0,.27,1.7-.258,3.957.106,6.538Z" transform="translate(18.272 796.188)" fill="#e2d8cf"/>
        <path id="Path_152" data-name="Path 152" d="M0,4.891C2.012,3.875,3.578,2.525,3.6,0,1.748,1.134.141,2.455,0,4.891Z" transform="translate(25.414 767.979)" fill="#e2d8cf"/>
        <path id="Path_153" data-name="Path 153" d="M6.094,0,4.874,1.216C2.721,5.106,4.495,9.61,2.989,13.6,1.78,15.468.289,17.238.843,19.744c.454,4.191.941,8.386-.405,12.522-.681,2.35-.364,4.757-.361,7.144A3.123,3.123,0,0,0,1.441,42.1q.937-1.573,1.867-3.15C3,27.446,7.325,16.36,6.287,4.786,6.142,3.2,6.153,1.6,6.094,0Z" transform="translate(66.456 614.807)" fill="#e2d8cf"/>
        <path id="Path_154" data-name="Path 154" d="M5.046,77.471C8.963,75.05,7.308,71.1,6.85,68.1a66.312,66.312,0,0,1-.777-12.143c.312-10.023.1-19.912-3.522-29.5C.2,20.224,1.491,13.537,1.138,7.051,1.007,4.682,1.863,2.116.052,0-.09,13.541-.272,27.041,4.4,40.1c1.562,4.377.688,9.223.405,13.865a23.055,23.055,0,0,0-.082,11.042c.126.766.253,1.528.379,2.295C6.82,70.7,5.891,74.087,5.046,77.471Z" transform="translate(52.021 134.297)" fill="#e2d8cf"/>
        <path id="Path_155" data-name="Path 155" d="M1.391,11.042Q1.43,5.519,1.472,0A11.366,11.366,0,0,0,1.391,11.042Z" transform="translate(55.353 188.264)" fill="#e2d8cf"/>
        <path id="Path_156" data-name="Path 156" d="M7.912,18.346c.141,1.313-.045,2.734,1.175,3.689,1.569-7.988-2.633-14.2-6.17-20.607L.7,0A2.48,2.48,0,0,0,.028,2.209,7.684,7.684,0,0,0,.545,3.745c1.071,2.488,2.666,4.7,3.7,7.211C5.346,13.481,7.455,15.49,7.912,18.346Z" transform="translate(46.436 107.42)" fill="#e2d8cf"/>
        <path id="Path_157" data-name="Path 157" d="M1.293,29.942C4.874,24.8,4.6,18.629,5.488,12.831c.629-4.121.264-8.4.342-12.6A.978.978,0,0,0,4.3.584C3.9,5.854,1.431,10.618.661,15.8c-.078,2.983.487,6-.517,8.937a11.331,11.331,0,0,0,.022,3.734A2.7,2.7,0,0,0,1.293,29.942Z" transform="translate(61.702 667.249)" fill="#e2d8cf"/>
        <path id="Path_158" data-name="Path 158" d="M2.9,1.748,2.585.13a1.041,1.041,0,0,0-1.551.7C.562,5.538,1.633,10.32.383,15Q.193,17.36,0,19.726q.223,2.6.45,5.2C2.176,22.177.32,18.6,2.458,15.943Q2.676,8.848,2.9,1.748Z" transform="translate(60.098 695.443)" fill="#e2d8cf"/>
        <path id="Path_159" data-name="Path 159" d="M.928,13.723l.989-.022Q2.1,8.418,2.282,3.131C2.159,2.09,2.033,1.045,1.91,0-1.37,4.355.471,9.089.928,13.723Z" transform="translate(65.615 653.776)" fill="#e2d8cf"/>
        <path id="Path_160" data-name="Path 160" d="M0,2.959Q.24,5.33.476,7.7C4.611,6.388,1.7,2.914,2.588.6.621-.429.621-.429,0,2.959Z" transform="translate(34.902 82.251)" fill="#e2d8cf"/>
        <path id="Path_161" data-name="Path 161" d="M1.712,0C-.46,1.383-.527,2.3,1.292,5.9Q1.5,2.951,1.712,0Z" transform="translate(30.088 60.854)" fill="#e2d8cf"/>
        <path id="Path_162" data-name="Path 162" d="M2.482,26.87c.052.472.1.945.16,1.413,3.5-3.273,4.6-7.07,1.518-11.083-2.384-3.109-1.4-6.512-1.622-9.822A15.886,15.886,0,0,0,.433,0C.329.409.224.814.117,1.22c-.539,4.6.956,9.022,1.134,13.556q.011,1.222.015,2.44c.071.748.138,1.5.208,2.239C3.795,21.648,1.284,24.52,2.482,26.87Z" transform="translate(56.679 212.765)" fill="#e2d8cf"/>
        <path id="Path_163" data-name="Path 163" d="M2.38,7.412C2.291,4.905,5.883,1.886,1.372,0Q.686,6.192,0,12.392C1.9,11.276.573,8.572,2.38,7.412Z" transform="translate(56.781 232.223)" fill="#e2d8cf"/>
        <path id="Path_164" data-name="Path 164" d="M1.928,13.556A45.769,45.769,0,0,0,.794,0C-1.147,4.719.961,9.089,1.928,13.556Z" transform="translate(56.001 213.985)" fill="#e2d8cf"/>
        <path id="Path_165" data-name="Path 165" d="M5.932,4.515l-.026-2.38c-.5-.7-1-1.41-1.51-2.112C-1.168-.353.51,4.01,0,6.94c1.116,1,1.03,2.421,1.291,3.723C3.217,14.43,3.615,19.016,7.1,21.958A10.485,10.485,0,0,0,5.612,10.15C3.972,8.1,3.6,6.263,5.932,4.515Z" transform="translate(41.228 105.285)" fill="#e2d8cf"/>
        <path id="Path_166" data-name="Path 166" d="M.157,2.793C.206,4.891,2.024,5.75,3.1,7.126,5.037,4.3,3.044,2.217,1.775,0-.359-.022-.073,1.4.157,2.793Z" transform="translate(11.686 12.852)" fill="#e2d8cf"/>
        <path id="Path_167" data-name="Path 167" d="M5.869,11.057C4.154,7.252,2.666,3.328.078,0-.6,3.976,3.388,7.01,2.239,11.083c.781,1.476,1.737,2.678,3.641,2.4a1.349,1.349,0,0,0,1.3-1.305C6.683,11.879,6.579,11.1,5.869,11.057Z" transform="translate(42.437 115.948)" fill="#e2d8cf"/>
        <path id="Path_168" data-name="Path 168" d="M2.38,22.087c-1.22,1.848-1.3,3.95-1.291,6.066Q.549,30.658,0,33.166c3.708-3.1,4.619-7.419,4.712-11.923.145-7.077.033-14.162.03-21.243-2.284,3.894-.521,8.2-1.2,12.262C1.968,15.393,3.961,18.956,2.38,22.087Z" transform="translate(42.395 606.19)" fill="#e2d8cf"/>
        <path id="Path_169" data-name="Path 169" d="M0,9.826C2.276,6.78.681,3.262,1.16,0A1.808,1.808,0,0,0,.271.286Q.138,5.056,0,9.826Z" transform="translate(44.776 618.452)" fill="#e2d8cf"/>
        <path id="Path_170" data-name="Path 170" d="M6.516,49.091c.361-4.571-.934-9.264.982-13.723q.084-3.57.171-7.141c1.008-4.024.662-8.074.212-12.128a6.61,6.61,0,0,1,2.168-5.091A21.572,21.572,0,0,0,10.027,0C8.089,4.824,7.338,10.138,6.814,15.058,6.077,22.024,5.2,29.105,5.24,36.186c.056,8.7-.249,17.145-3.3,25.654C-1.51,71.469.755,81.934.454,92.031c2.187-4.764.465-9.855,1.194-14.742,1.034-3.076.915-6.334,1.473-9.484A3.078,3.078,0,0,0,2.9,65.024Z" transform="translate(60.027 618.407)" fill="#e2d8cf"/>
        <path id="Path_171" data-name="Path 171" d="M4.9,18.031c.435.372.874.747,1.313,1.119-.086-1.837-.026-4.046,1.5-4.887,1.975-1.09,1.782,2.094,3.228,2.529.945-3.351-1.9-5.6-2.384-8.543-3.157-1.432-3.9-4.474-4.8-7.412L3.759.827C2.7.555,1.4-.8.613.678A4.571,4.571,0,0,0,1.42,6.294C4.819,9.578,5.336,13.632,4.9,18.031Z" transform="translate(43.401 108.973)" fill="#e2d8cf"/>
        <path id="Path_172" data-name="Path 172" d="M3.6,0Q1.8,6.75,0,13.5C3.756,9.707,3.871,4.905,3.6,0Z" transform="translate(37.516 658.904)" fill="#e2d8cf"/>
        <path id="Path_173" data-name="Path 173" d="M0,2.384.023,13.392C2.339,9.112.573,4.437,1.276,0A2.43,2.43,0,0,0,0,2.384Z" transform="translate(70.054 616.024)" fill="#e2d8cf"/>
        <path id="Path_174" data-name="Path 174" d="M.025,8.643C2.107,6.133,2.565,3.15,2.423,0-.254,2.347-.02,5.523.025,8.643Z" transform="translate(49.519 769.151)" fill="#e2d8cf"/>
        <path id="Path_175" data-name="Path 175" d="M1.294,0C-.882,2.176.416,4.924.111,7.412,2.086,5.2.963,2.481,1.294,0Z" transform="translate(36.226 672.397)" fill="#e2d8cf"/>
        <path id="Path_176" data-name="Path 176" d="M.212,0Q.106,6.064,0,12.128C1.982,8.122,1.688,4.072.212,0Z" transform="translate(67.696 634.507)" fill="#e2d8cf"/>
        <path id="Path_177" data-name="Path 177" d="M.107,0c-.394,3.8.1,7.007,4.8,7.412Q2.506,3.708.107,0Z" transform="translate(47.06 109.811)" fill="#e2d8cf"/>
        <path id="Path_178" data-name="Path 178" d="M1.254,0C-.984,3.068.548,6.583.113,9.863a8.355,8.355,0,0,0,1.012-.119q.1-1.785.2-3.567A7.5,7.5,0,0,0,1.254,0Z" transform="translate(61.562 685.833)" fill="#e2d8cf"/>
        <path id="Path_179" data-name="Path 179" d="M0,2.4Q.033,5.493.07,8.58A7.581,7.581,0,0,0,.108,0Q.058,1.2,0,2.4Z" transform="translate(62.817 683.431)" fill="#e2d8cf"/>
      </g>
    </g>
  </g>
</svg>
