<?xml version="1.0" encoding="utf-8"?>
<!-- Generator: Adobe Illustrator 25.2.0, SVG Export Plug-In . SVG Version: 6.00 Build 0)  -->
<svg version="1.1" id="Layer_1" xmlns="http://www.w3.org/2000/svg" xmlns:xlink="http://www.w3.org/1999/xlink" x="0px" y="0px"
	 viewBox="0 0 549.24 281" style="enable-background:new 0 0 549.24 281;" xml:space="preserve">
<style type="text/css">
	.st0{fill:#231F20;}
</style>
<g>
	<path d="M131.71,56.07h2.23l1.67,1.67c-6.33,18.51-11.35,36.09-15.07,52.74c-4.09,19.44-8.37,42.88-12.83,70.32
		c-3.07,14.89-7.17,22.33-12.28,22.33H93.2c-9.21,0-15.54-28.47-18.98-85.39c-1.49-7.72-2.6-17.02-3.35-27.91h1.12
		c4.83,8.47,7.26,17.21,7.26,26.23c4.74,54.32,9.77,81.49,15.07,81.49c4.09,0,9.67-23.63,16.74-70.88
		c3.35-16.83,7.63-34.23,12.84-52.18C127.99,62.68,130.59,56.54,131.71,56.07L131.71,56.07z"/>
	<path d="M131.71,56.07v0.49h2.03l1.53,1.53l0.35-0.35l-0.46-0.16c-6.33,18.53-11.36,36.12-15.08,52.79l0,0v0
		c-4.1,19.45-8.38,42.9-12.84,70.34l0.48,0.08l-0.48-0.1c-1.53,7.42-3.32,12.96-5.32,16.61c-1,1.82-2.06,3.17-3.14,4.04
		c-1.09,0.88-2.18,1.29-3.34,1.29H93.2c-1.02,0-2.01-0.39-3-1.22c-1.74-1.45-3.45-4.31-5.01-8.55
		c-4.71-12.73-8.22-37.83-10.47-75.16l0-0.03l-0.01-0.03c-1.48-7.69-2.6-16.98-3.34-27.85l-0.49,0.03v0.49h1.12v-0.49l-0.42,0.24
		c4.8,8.4,7.19,17.06,7.19,25.99v0.02l0,0.02c2.37,27.17,4.82,47.55,7.33,61.16c1.26,6.81,2.53,11.92,3.84,15.36
		c0.66,1.72,1.32,3.03,2.02,3.94c0.35,0.46,0.71,0.82,1.11,1.07c0.39,0.25,0.82,0.4,1.25,0.39c0.38,0,0.74-0.14,1.06-0.36
		c0.61-0.42,1.15-1.15,1.72-2.18c0.98-1.8,1.99-4.56,3.07-8.3c3.24-11.23,7.02-31.37,11.37-60.45l-0.48-0.07l0.48,0.1
		c3.35-16.82,7.62-34.2,12.83-52.14l-0.47-0.14l0.46,0.16c2.04-5.9,3.72-10.38,5.01-13.43c0.65-1.53,1.2-2.69,1.65-3.49
		c0.22-0.4,0.42-0.71,0.59-0.91c0.08-0.1,0.15-0.18,0.21-0.23l0.09-0.07L131.71,56.07v0.49V56.07l-0.19-0.45
		c-0.28,0.12-0.47,0.32-0.68,0.59c-0.37,0.47-0.77,1.17-1.25,2.14c-1.42,2.91-3.47,8.22-6.16,15.98l0,0.01l0,0.01
		c-5.21,17.97-9.49,35.37-12.85,52.23l0,0.01l0,0.01c-3.53,23.62-6.7,41.33-9.48,53.12c-1.39,5.89-2.69,10.31-3.88,13.22
		c-0.59,1.45-1.17,2.53-1.68,3.21c-0.26,0.34-0.5,0.58-0.71,0.72c-0.21,0.14-0.37,0.19-0.51,0.19c-0.22,0-0.46-0.07-0.73-0.24
		c-0.5-0.32-1.09-1.03-1.67-2.13c-1.03-1.93-2.08-5.05-3.12-9.32c-3.12-12.8-6.14-35.94-9.06-69.35l-0.49,0.04h0.49
		c0-9.11-2.45-17.95-7.32-26.48l-0.14-0.25h-1.92l0.04,0.52c0.74,10.9,1.86,20.22,3.36,27.96l0.48-0.09l-0.49,0.03
		c1.72,28.48,4.16,49.84,7.34,64.12c1.59,7.14,3.36,12.51,5.33,16.14c0.99,1.81,2.04,3.19,3.16,4.14c1.12,0.95,2.35,1.45,3.63,1.45
		h2.23c1.4,0,2.73-0.52,3.95-1.5c1.83-1.48,3.43-3.99,4.89-7.52c1.46-3.53,2.76-8.09,3.91-13.69l0-0.01l0-0.01
		c4.46-27.43,8.74-50.87,12.83-70.3l-0.48-0.1l0.48,0.11c3.71-16.63,8.73-34.19,15.05-52.69l0.1-0.29l-2.03-2.03h-2.53l-0.09,0.04
		L131.71,56.07L131.71,56.07z"/>
	<path d="M125.85,147.47h0.56l2.23,2.23v0.56l-2.23,23.44l1.12,12.28l-1.67,0.56c-3.35-1.11-5.02-4.28-5.02-9.49v-5.02
		C121.94,155.65,123.62,147.47,125.85,147.47L125.85,147.47z"/>
	<path d="M125.85,147.47v0.49h0.35l1.95,1.95v0.33l-2.24,23.46l1.09,11.94l-1.31,0.43l0.16,0.46l0.15-0.46
		c-1.57-0.52-2.7-1.49-3.49-2.97c-0.79-1.48-1.2-3.49-1.2-6.05v-5.02h-0.49l0.49,0.03c0.56-8.17,1.25-14.3,2.08-18.35
		c0.41-2.02,0.86-3.53,1.32-4.49c0.23-0.48,0.46-0.82,0.66-1.01c0.2-0.2,0.35-0.25,0.47-0.25V147.47v-0.49
		c-0.44,0-0.84,0.21-1.15,0.52c-0.56,0.56-1,1.45-1.42,2.71c-1.24,3.79-2.21,11.01-2.94,21.77v0.02v5.04c0,2.66,0.42,4.83,1.31,6.51
		c0.89,1.68,2.26,2.85,4.04,3.44l0.16,0.05l2.2-0.73l-1.15-12.62l2.23-23.42v-0.58v-0.21l-2.52-2.52h-0.76V147.47L125.85,147.47z"/>
	<path d="M126.27,129.61h0.75c1.51,0,2.89,1.13,4.15,3.39v1.88c0,1.38-0.88,2.64-2.64,3.77h-1.13c-2.51-0.38-3.77-1.51-3.77-3.39
		v-1.51C123.63,132.24,124.51,130.86,126.27,129.61L126.27,129.61z"/>
	<path d="M126.27,129.61v0.49h0.75c0.63,0,1.23,0.23,1.86,0.74c0.62,0.51,1.25,1.31,1.86,2.4l0.43-0.24h-0.49v1.88
		c0,0.59-0.18,1.14-0.57,1.7c-0.39,0.56-1,1.12-1.84,1.66l0.26,0.41v-0.49h-1.13v0.49l0.07-0.48c-1.2-0.18-2.05-0.54-2.57-1.01
		c-0.52-0.48-0.77-1.06-0.78-1.9v-1.51c0-0.66,0.19-1.28,0.58-1.9c0.4-0.62,1.01-1.24,1.85-1.84L126.27,129.61v0.49V129.61
		l-0.28-0.4c-0.92,0.66-1.62,1.36-2.11,2.11c-0.48,0.76-0.74,1.58-0.74,2.43v1.51c-0.01,1.05,0.37,1.97,1.1,2.63
		c0.73,0.66,1.77,1.05,3.08,1.25l0.04,0h1.17h0.14l0.12-0.08c0.92-0.59,1.63-1.22,2.11-1.92c0.49-0.69,0.75-1.46,0.75-2.26v-2.01
		l-0.06-0.11c-0.65-1.17-1.34-2.06-2.1-2.68c-0.76-0.62-1.6-0.96-2.48-0.96h-0.75h-0.16l-0.13,0.09L126.27,129.61L126.27,129.61z"/>
	<path d="M142.22,146.36h1.26c0.84,0.28,1.26,1.12,1.26,2.52v2.1l-1.68,20.19v0.42h0.42c2.73-11.49,5.11-17.24,7.15-17.24h0.42
		c3.36,0,5.04,5.47,5.04,16.4c2.31,12.06,4.97,18.08,7.99,18.08c0.84,0,2.38-0.98,4.62-2.94v0.42c-2.03,3.36-4.14,5.05-6.31,5.05
		h-0.84c-5.33,0-8.83-9.81-10.51-29.44h-0.42c-3.78,14.65-6.31,23.06-7.57,25.23l-1.26,0.84h-1.26c-1.68-0.77-2.52-2.59-2.52-5.47
		C139.48,158.42,140.88,146.36,142.22,146.36L142.22,146.36z"/>
	<path d="M142.22,146.36v0.49h1.26v-0.49l-0.16,0.46c0.3,0.1,0.5,0.28,0.66,0.59c0.16,0.32,0.26,0.81,0.26,1.46v2.08l-1.68,20.18
		v0.44v0.49h0.91h0.39l0.09-0.38c1.36-5.73,2.64-10.03,3.81-12.86c0.58-1.41,1.15-2.46,1.66-3.12c0.25-0.33,0.49-0.56,0.7-0.7
		c0.21-0.14,0.37-0.19,0.5-0.19h0.42c0.7,0,1.28,0.27,1.85,0.87c0.84,0.9,1.55,2.62,2.01,5.14c0.46,2.52,0.7,5.82,0.7,9.9v0.05
		l0.01,0.04c1.16,6.05,2.41,10.59,3.77,13.67c0.68,1.54,1.39,2.71,2.15,3.53c0.76,0.81,1.62,1.28,2.55,1.28
		c0.61-0.01,1.24-0.3,2.05-0.81c0.8-0.51,1.76-1.26,2.9-2.25l-0.32-0.37h-0.49v0.42h0.49l-0.42-0.25c-1,1.65-2,2.87-2.99,3.65
		c-0.99,0.79-1.94,1.16-2.9,1.16h-0.84c-1.18,0-2.24-0.52-3.29-1.67c-1.56-1.73-2.96-4.89-4.09-9.45
		c-1.13-4.56-2.02-10.52-2.65-17.86l-0.04-0.45h-0.87h-0.38l-0.09,0.36c-1.89,7.32-3.47,13.08-4.73,17.27
		c-0.63,2.1-1.18,3.81-1.65,5.11c-0.47,1.31-0.86,2.23-1.14,2.72l0.42,0.25l-0.27-0.41l-1.14,0.76h-1.11v0.49l0.2-0.45
		c-0.73-0.34-1.27-0.88-1.65-1.71c-0.38-0.82-0.59-1.93-0.59-3.32h-0.49l0.49,0.03c0.74-12.05,1.45-21.08,2.15-27.09
		c0.35-3,0.69-5.25,1.03-6.73c0.17-0.74,0.33-1.28,0.48-1.6c0.07-0.16,0.14-0.26,0.17-0.3l0.01-0.01l-0.08-0.09l0.05,0.11l0.03-0.01
		l-0.08-0.09l0.05,0.11l-0.1-0.23v0.25l0.1-0.02l-0.1-0.23v0.25V146.36v-0.49c-0.28,0-0.48,0.16-0.61,0.3
		c-0.25,0.29-0.4,0.67-0.58,1.21c-0.58,1.86-1.14,5.66-1.72,11.51c-0.58,5.84-1.17,13.71-1.78,23.6l0,0.02v0.01
		c0,1.49,0.22,2.73,0.68,3.73c0.46,1,1.18,1.75,2.13,2.18l0.1,0.04h1.52l1.48-0.99l0.06-0.1c0.35-0.6,0.74-1.54,1.22-2.88
		c1.43-4,3.56-11.48,6.4-22.47l-0.47-0.12v0.49h0.42v-0.49l-0.49,0.04c0.85,9.83,2.14,17.22,3.92,22.2c0.89,2.49,1.9,4.38,3.07,5.68
		c1.16,1.3,2.53,2.01,4.02,2h0.84c1.22,0,2.4-0.48,3.51-1.37c1.11-0.9,2.18-2.2,3.21-3.91l0.07-0.12v-0.56v-1.08l-0.81,0.71
		c-1.11,0.97-2.04,1.69-2.78,2.16c-0.73,0.48-1.29,0.67-1.52,0.66c-0.58,0-1.18-0.28-1.84-0.98c-0.98-1.04-1.99-2.96-2.94-5.76
		c-0.95-2.79-1.87-6.45-2.73-10.95l-0.48,0.09h0.49c0-5.49-0.42-9.62-1.28-12.44c-0.44-1.41-0.98-2.5-1.69-3.26
		c-0.7-0.76-1.59-1.19-2.57-1.18h-0.42c-0.37,0-0.73,0.13-1.05,0.35c-0.57,0.39-1.07,1.03-1.59,1.93
		c-1.54,2.69-3.18,7.77-4.98,15.33l0.48,0.12v-0.49h-0.42v0.49h0.49v-0.4l1.68-20.18v-2.12c0-0.75-0.11-1.38-0.37-1.9
		c-0.25-0.52-0.69-0.91-1.23-1.08l-0.08-0.03h-1.34V146.36L142.22,146.36z"/>
	<path d="M224.5,173.98c0.46,2.98,1.77,4.47,3.91,4.47c2.88,0,5.86-1.3,8.93-3.91v-3.91l-0.56-2.23l0.56-0.56l-0.56-2.79v-0.56
		l0.56-0.56l-0.56-2.24h-1.67C229.43,161.7,225.89,165.79,224.5,173.98L224.5,173.98z M246.82,97.51h0.56l1.68,1.67l-5.58,49.11
		l-0.56,18.42v3.91c6.79-5.21,10.19-9.49,10.19-12.83h0.56v0.56c0,4.28-3.4,10.79-10.19,19.53l4.05,13.82l-0.56,0.56h-0.56
		c-5.58-4.09-8.23-7.58-7.95-10.46h-0.56c-4,1.49-7.16,2.23-9.49,2.23h-0.56c-5.21,0-8.19-3.16-8.93-9.49v-1.12
		c0-8.37,4.09-13.76,12.28-16.19h3.35l2.79,0.56C240.31,117.61,243.47,97.51,246.82,97.51L246.82,97.51z"/>
	<path d="M224.5,173.98l-0.48,0.08c0.24,1.54,0.7,2.75,1.44,3.59c0.74,0.85,1.77,1.29,2.95,1.28c3.04,0,6.12-1.37,9.25-4.02
		l0.17-0.14v-4.2l-0.5-2.02l0.36-0.36l0.19-0.19l-0.6-3v-0.3l0.41-0.42l0.2-0.2l-0.72-2.87h-2.06c-2.95-0.01-5.43,1.09-7.28,3.24
		c-1.85,2.15-3.1,5.3-3.81,9.45l-0.01,0.08l0.01,0.08L224.5,173.98l0.48,0.08c0.69-4.04,1.9-7.03,3.59-8.97
		c1.69-1.95,3.82-2.9,6.54-2.9h1.29l0.4,1.59l-0.36,0.36l-0.14,0.14v0.76v0.04l0.52,2.58l-0.37,0.37l-0.2,0.2l0.61,2.44v3.85h0.49
		l-0.32-0.38c-3.02,2.56-5.88,3.79-8.61,3.79c-0.96-0.01-1.65-0.31-2.21-0.95c-0.56-0.64-0.99-1.67-1.21-3.1L224.5,173.98l0.48,0.08
		L224.5,173.98L224.5,173.98z M246.82,97.51V98h0.35l1.36,1.36l-5.56,48.9l-0.56,18.45v4.9l0.79-0.6c3.41-2.62,5.99-5.01,7.72-7.2
		c1.73-2.19,2.65-4.18,2.65-6.02h-0.49v0.49h0.07v0.07c0,2.01-0.81,4.65-2.49,7.87c-1.68,3.22-4.21,7.01-7.59,11.37l-0.15,0.2
		l4.03,13.78l-0.21,0.21h-0.36v0.49l0.29-0.4c-2.63-1.93-4.6-3.72-5.89-5.34c-1.29-1.63-1.89-3.07-1.89-4.31
		c0-0.12,0.01-0.25,0.02-0.37l0.05-0.53h-1.1h-0.09l-0.08,0.03c-3.97,1.48-7.1,2.21-9.32,2.2h-0.56c-2.51,0-4.39-0.75-5.78-2.22
		c-1.39-1.47-2.3-3.74-2.66-6.84l-0.48,0.06h0.49v-1.12c0-4.11,1-7.43,2.97-10.03c1.97-2.6,4.93-4.5,8.96-5.69l-0.14-0.47v0.49h3.3
		l3.28,0.66l0.04-0.55c1.49-20.08,3.02-35.15,4.6-45.17c0.79-5.01,1.59-8.76,2.39-11.23c0.4-1.23,0.8-2.14,1.17-2.71
		c0.19-0.28,0.36-0.48,0.51-0.58c0.15-0.11,0.25-0.14,0.33-0.14V97.51v-0.49c-0.33,0-0.65,0.13-0.92,0.33
		c-0.5,0.39-0.91,1.02-1.31,1.9c-0.7,1.54-1.37,3.89-2.03,7.08c-1.98,9.56-3.88,26.68-5.71,51.42l0.49,0.04l0.09-0.48l-2.84-0.56
		h-3.47l-0.07,0.02c-4.16,1.23-7.34,3.24-9.46,6.03c-2.12,2.8-3.17,6.36-3.17,10.62v1.12v0.03l0,0.03c0.38,3.23,1.33,5.7,2.92,7.39
		c1.59,1.69,3.8,2.53,6.5,2.53h0.56c2.43,0,5.63-0.76,9.66-2.26l-0.17-0.46v0.49h0.56v-0.49l-0.49-0.05
		c-0.01,0.16-0.02,0.31-0.02,0.46c0,1.56,0.73,3.19,2.1,4.92c1.37,1.73,3.39,3.56,6.07,5.53l0.13,0.09h0.72h0.2l0.91-0.91
		l-4.13-14.09l-0.47,0.13l0.39,0.3c3.41-4.39,5.97-8.22,7.69-11.51c1.72-3.29,2.6-6.05,2.6-8.32v-0.56v-0.49h-1.05h-0.49v0.49
		c0,1.5-0.78,3.32-2.44,5.41c-1.66,2.09-4.18,4.44-7.55,7.03l0.3,0.39h0.49v-3.9l0.56-18.39l5.61-49.33l-1.98-1.98h-0.76V97.51
		L246.82,97.51z"/>
	<path d="M257.98,106.86c3.54,0,5.77,2.79,6.7,8.37v5.02c-1.58,10.05-4.93,15.07-10.04,15.07l-0.56-0.56h-0.56
		c3.72-8.28,5.58-13.3,5.58-15.07v-3.35c0-1.49-1.3-3.53-3.91-6.14v-1.67C255.19,107.89,256.12,107.33,257.98,106.86L257.98,106.86z
		"/>
	<path d="M257.98,106.86v0.49c1.64,0.01,2.9,0.62,3.94,1.91c1.04,1.3,1.82,3.31,2.27,6.05l0.48-0.08h-0.49v5.02h0.49l-0.48-0.08
		c-0.78,4.98-2.01,8.69-3.62,11.11c-0.81,1.21-1.7,2.09-2.68,2.68c-0.98,0.58-2.06,0.87-3.25,0.87v0.49l0.34-0.35l-0.56-0.56
		l-0.14-0.14h-0.76v0.49l0.45,0.2c1.86-4.15,3.26-7.48,4.2-10.01c0.47-1.26,0.82-2.33,1.06-3.2c0.24-0.87,0.37-1.54,0.37-2.06v-3.35
		c0-0.89-0.38-1.84-1.05-2.91c-0.68-1.07-1.68-2.25-3-3.57l-0.35,0.35h0.49v-1.67l0.07-0.17c0.09-0.13,0.34-0.32,0.73-0.5
		c0.4-0.18,0.94-0.36,1.62-0.53L257.98,106.86v0.49V106.86l-0.12-0.48c-0.96,0.24-1.69,0.5-2.23,0.82
		c-0.27,0.16-0.49,0.34-0.66,0.56c-0.17,0.22-0.28,0.49-0.27,0.77v1.88l0.14,0.14c1.28,1.29,2.24,2.43,2.86,3.41
		c0.62,0.98,0.9,1.79,0.9,2.39v3.35c0,0.36-0.1,0.98-0.33,1.81c-0.68,2.49-2.42,6.87-5.21,13.06l-0.31,0.69h1.11l0.42,0.42
		l0.14,0.14h0.2c1.36,0,2.62-0.34,3.75-1.01c1.7-1.01,3.09-2.75,4.21-5.16c1.12-2.41,1.97-5.52,2.56-9.31l0.01-0.04v-5.1l-0.01-0.04
		c-0.48-2.84-1.28-5.01-2.47-6.5c-1.19-1.5-2.81-2.29-4.71-2.28h-0.06l-0.06,0.02L257.98,106.86L257.98,106.86z"/>
	<path d="M381.04,77.42h2.24c13.39,1.4,26.04,7.91,37.95,19.54c10.79,12.47,16.19,26.23,16.19,41.3c0,21.58-9.86,40.19-29.58,55.81
		c-10.7,7.45-21.86,11.16-33.49,11.16c-21.3,0-37.3-8.74-48-26.23c-2.61-6.88-3.91-14.51-3.91-22.88c0-10.7,5.02-22.98,15.07-36.84
		c12.09-12.28,23.25-18.42,33.49-18.42c12.74,0,21.49,6.51,26.23,19.53v1.12c-5.67-10.79-12.74-16.19-21.21-16.19
		c-15.07,0-28.65,9.12-40.75,27.35c-4.46,9.4-6.7,17.02-6.7,22.88v3.91c0,17.58,8.37,29.49,25.12,35.72c5.67,2.6,12,3.91,18.98,3.91
		h2.23c17.49,0,32.56-8.56,45.21-25.67c7.44-11.35,11.16-22.14,11.16-32.37v-4.47c0-18.23-8.75-33.3-26.23-45.21
		c-11.16-6.7-21.95-10.42-32.37-11.16h-11.16c-3.91,0-9.86,1.3-17.86,3.91h-0.56C348.02,79.65,360.67,77.42,381.04,77.42
		L381.04,77.42z"/>
	<path d="M381.04,77.42v0.49h2.24v-0.49l-0.05,0.49c13.27,1.38,25.81,7.83,37.66,19.4l0.34-0.35l-0.37,0.32
		c10.73,12.4,16.06,26.03,16.07,40.98c-0.01,21.43-9.77,39.86-29.4,55.43l0.3,0.38l-0.28-0.4c-10.63,7.4-21.69,11.07-33.21,11.08
		c-10.59,0-19.83-2.17-27.74-6.5c-7.92-4.33-14.53-10.82-19.84-19.5l-0.42,0.26l0.46-0.17c-2.58-6.82-3.88-14.39-3.88-22.71
		c0-10.54,4.96-22.74,14.98-36.55l-0.39-0.29l0.35,0.34c12.05-12.24,23.11-18.28,33.14-18.27c6.29,0,11.54,1.6,15.82,4.79
		c4.28,3.19,7.6,7.98,9.95,14.43l0.46-0.17h-0.49v1.12h0.49l0.43-0.23c-2.86-5.44-6.09-9.54-9.7-12.3
		c-3.61-2.76-7.61-4.15-11.95-4.15c-7.63,0-14.9,2.31-21.76,6.92c-6.86,4.6-13.32,11.49-19.39,20.65l-0.02,0.03l-0.01,0.03
		c-4.48,9.43-6.74,17.11-6.75,23.09v3.91c0,8.87,2.12,16.35,6.37,22.4c4.25,6.05,10.63,10.64,19.07,13.78l0.17-0.46l-0.2,0.44
		c5.74,2.64,12.14,3.96,19.18,3.96h2.23c17.66,0,32.9-8.67,45.6-25.87l0.01-0.01l0.01-0.01c7.48-11.4,11.24-22.28,11.24-32.64v-4.47
		c0-9.19-2.21-17.61-6.62-25.22c-4.42-7.61-11.03-14.41-19.82-20.39l-0.01-0.01l-0.01-0.01c-11.21-6.73-22.08-10.48-32.59-11.23
		l-0.01,0h-11.18c-4.01,0-9.99,1.32-18.01,3.93l0.15,0.46v-0.49h-0.56v0.49l0.33,0.36c2.34-2.13,6.66-3.8,12.94-4.9
		c6.28-1.11,14.51-1.67,24.68-1.67V77.42v-0.49c-10.2,0-18.48,0.56-24.85,1.68c-6.37,1.13-10.84,2.8-13.43,5.14l-0.94,0.85h1.91
		l0.07-0.02c7.97-2.6,13.9-3.89,17.71-3.88h11.16v-0.49l-0.03,0.49c10.32,0.74,21.04,4.43,32.15,11.09l0.25-0.42l-0.27,0.4
		c8.7,5.92,15.2,12.62,19.53,20.07c4.32,7.46,6.49,15.69,6.49,24.73v4.47c0,10.11-3.68,20.81-11.08,32.1l0.41,0.27l-0.39-0.29
		c-12.6,17.03-27.5,25.47-44.82,25.47h-2.23c-6.92,0-13.17-1.29-18.77-3.86l-0.02-0.01l-0.02-0.01
		c-8.31-3.09-14.49-7.57-18.61-13.42c-4.12-5.86-6.19-13.12-6.19-21.84v-3.91c0-5.74,2.2-13.31,6.65-22.67l-0.45-0.21l0.41,0.27
		c6.02-9.08,12.4-15.86,19.12-20.37c6.72-4.51,13.78-6.75,21.22-6.75c4.13,0,7.89,1.31,11.35,3.95c3.46,2.64,6.61,6.63,9.42,11.98
		l0.92-0.23v-1.12v-0.09l-0.03-0.08c-2.39-6.57-5.82-11.55-10.29-14.88c-4.46-3.33-9.95-4.98-16.41-4.98
		c-10.44,0.01-21.7,6.24-33.84,18.56l-0.03,0.03l-0.02,0.03c-10.08,13.91-15.16,26.27-15.16,37.13c0,8.42,1.31,16.11,3.94,23.06
		l0.02,0.04l0.02,0.04c5.39,8.8,12.12,15.43,20.21,19.85c8.08,4.42,17.49,6.62,28.21,6.62c11.73,0,23-3.76,33.76-11.25l0.01-0.01
		l0.01-0.01c19.81-15.68,29.77-34.46,29.77-56.19c0-15.19-5.45-29.08-16.3-41.62l-0.01-0.02l-0.01-0.01
		c-11.96-11.68-24.72-18.26-38.24-19.67l-0.03,0h-2.26V77.42L381.04,77.42z"/>
	<path d="M447.74,127.65h0.56c1.4,0,4.75,2.42,10.04,7.26c4.75,1.95,9.39,3.26,13.95,3.91l0.56-0.56l0.56,0.56v0.56
		c-2.61,2.23-5.21,3.35-7.82,3.35h-1.11c-3.72,0-8.75-2.42-15.07-7.26l-3.35-5.02C446.52,128.58,447.08,127.65,447.74,127.65
		L447.74,127.65z M446.62,150.4h1.12l1.11,1.11v1.12c-3.72,11.72-5.58,19.35-5.58,22.88v5.58l1.12,1.11
		c6.6-5.86,12.74-13.67,18.42-23.44l2.23-0.56h0.56l2.24,2.79l-1.67,11.72c0,2.23,1.3,4.28,3.91,6.14h7.26l13.39-1.12v1.12
		l-16.74,5.58h-3.35c-5.58,0-8.93-3.72-10.04-11.16c-7.35,9.68-12.75,14.51-16.19,14.51h-2.79c-2.98-1.95-4.46-5.11-4.46-9.49
		c0-6.69,2.05-15.07,6.14-25.11L446.62,150.4L446.62,150.4z"/>
	<path d="M447.74,127.65v0.49h0.56c0.21,0,0.64,0.11,1.19,0.4c1.69,0.86,4.56,3.11,8.53,6.73l0.06,0.06l0.08,0.03
		c4.78,1.97,9.47,3.28,14.07,3.94l0.25,0.04l0.38-0.39l0.07,0.07v0.36h0.49l-0.32-0.37c-2.55,2.18-5.04,3.23-7.5,3.23h-1.11
		c-3.51,0.01-8.49-2.34-14.77-7.15l-0.3,0.39l0.4-0.27l-3.35-5.02l-0.41,0.27l0.47,0.12c0.23-0.9,0.48-1.57,0.71-1.96
		c0.12-0.2,0.23-0.32,0.32-0.39l0.17-0.07V127.65v-0.49c-0.28,0-0.55,0.11-0.77,0.27c-0.33,0.26-0.56,0.62-0.78,1.1
		c-0.22,0.48-0.42,1.07-0.59,1.79l-0.05,0.21l3.51,5.27l0.07,0.05c6.36,4.86,11.43,7.34,15.37,7.36h1.11c2.75,0,5.47-1.18,8.13-3.47
		l0.17-0.15v-0.78v-0.2l-1.05-1.05l-0.9,0.9l0.34,0.35l0.07-0.48c-4.51-0.64-9.13-1.94-13.83-3.88l-0.19,0.45l0.33-0.36
		c-2.66-2.42-4.83-4.25-6.53-5.48c-0.85-0.61-1.58-1.08-2.21-1.4c-0.63-0.32-1.14-0.5-1.63-0.51h-0.56V127.65L447.74,127.65z
		 M446.62,150.4v0.49h0.91l0.83,0.83v0.91h0.49l-0.46-0.15c-1.86,5.87-3.26,10.71-4.2,14.54c-0.93,3.83-1.41,6.64-1.41,8.49v5.78
		l1.58,1.59l0.35-0.3c6.65-5.9,12.82-13.76,18.52-23.56l-0.42-0.25l0.12,0.47l2.17-0.54h0.26l1.95,2.44l-1.65,11.55v0.03
		c0,1.21,0.36,2.38,1.05,3.47c0.69,1.09,1.72,2.11,3.06,3.07l0.13,0.09h7.43l12.88-1.07v0.23l-16.33,5.44h-3.27
		c-2.68-0.01-4.75-0.88-6.33-2.63c-1.58-1.76-2.68-4.45-3.23-8.12l-0.17-1.15l-0.7,0.92c-3.67,4.82-6.84,8.43-9.5,10.81
		c-2.66,2.4-4.82,3.52-6.3,3.5h-2.79v0.49l0.27-0.41c-1.42-0.93-2.47-2.13-3.17-3.63c-0.71-1.5-1.07-3.31-1.07-5.44
		c0-6.6,2.02-14.92,6.11-24.93l-0.45-0.18l0.32,0.38l3.35-2.79L446.62,150.4v0.49V150.4l-0.31-0.38l-3.44,2.87l-0.05,0.11
		c-4.11,10.08-6.17,18.5-6.18,25.3c0,2.24,0.38,4.2,1.16,5.86c0.78,1.66,1.96,3.01,3.52,4.04l0.12,0.08h2.94
		c1.95-0.02,4.21-1.31,6.95-3.75c2.74-2.45,5.94-6.1,9.62-10.95l-0.39-0.3l-0.48,0.07c0.56,3.78,1.7,6.66,3.47,8.63
		c1.76,1.97,4.16,2.96,7.06,2.95h3.43l17.16-5.72v-2l-13.91,1.16h-7.23v0.49l0.28-0.4c-1.26-0.9-2.19-1.84-2.8-2.79
		c-0.61-0.96-0.9-1.93-0.9-2.95h-0.49l0.48,0.07l1.7-11.93l-2.51-3.14h-0.79h-0.06l-2.49,0.62l-0.1,0.18
		c-5.66,9.74-11.76,17.5-18.32,23.32l0.32,0.36l0.35-0.35l-0.97-0.97v-5.38c0-1.69,0.45-4.46,1.38-8.26
		c0.92-3.79,2.32-8.63,4.18-14.48l0.02-0.07v-1.2v-0.2l-1.4-1.4h-1.49l-0.14,0.11L446.62,150.4L446.62,150.4z"/>
	<path class="st0" d="M41.11,229.28c-0.27-0.28-0.53-0.46-0.54-0.93c0.07-0.39,0.08-0.75,0.06-1.1L41.11,229.28"/>
	<polyline class="st0" points="40.21,225.37 39.97,224.72 40.13,225.01 40.21,225.37 	"/>
	<path class="st0" d="M39.59,223.68c-0.2-0.56-0.37-1.15-0.46-1.79C39.4,222.57,39.54,223.16,39.59,223.68"/>
	<path class="st0" d="M39.58,224.77c0.05-0.32,0.05-0.69,0.02-1.08l0.38,1.04l-0.01-0.01c-0.08-0.14-0.15-0.2-0.2-0.2
		C39.68,224.51,39.62,224.62,39.58,224.77"/>
	<path class="st0" d="M39.41,225.5c0-0.01,0.01-0.02,0.01-0.03C39.42,225.49,39.41,225.5,39.41,225.5 M39.42,225.48
		c0.04-0.14,0.09-0.49,0.16-0.71C39.54,225.03,39.49,225.26,39.42,225.48"/>
	<path class="st0" d="M39.06,233.01c-0.14-0.76-0.28-1.51-0.53-2.29c-1.08-2.73-2.18-5.28-3.19-7.98c-0.95-3.39-1.74-5.84-2.62-9.67
		c-0.12-0.58-0.11-0.82-0.01-0.82c0.33,0,1.67,2.75,2.14,4.01c0.35,0.68-0.43,2.02-0.07,2.7c0.35,1.58,1.08,2.93,1.73,4.54
		c0.37,0.66-0.56,0.8-0.37,1.14c0.76,2.24,2.38,3.69,2.51,5.2L39.06,233.01"/>
	<path class="st0" d="M44.6,244.99c-0.69-1.71-1.19-3.46-1.28-5.42c0,0.26-0.05,0.39-0.13,0.39c-0.11,0-0.27-0.24-0.44-0.71
		l0.22-0.87c0.76,1.55,1.54,3.09,1.41,4.84l0.65,0.93C45.08,244.72,44.8,244.79,44.6,244.99"/>
	<polyline class="st0" points="45.03,246.08 44.53,245.06 44.6,244.99 45.04,246.03 45.03,246.08 	"/>
	<path d="M36.29,217.99c-0.11-0.36-0.22-0.73-0.31-1.09c0.22-0.16,0.52-0.2,0.53-0.76l-0.53-1.01c0.34-1.73-0.24-3.35-0.81-4.99
		l-0.32,0.83c0.12,0.5,0.26,0.76,0.37,0.76c0.07,0,0.14-0.13,0.17-0.39c-0.15,1.97,0.12,3.76,0.59,5.56l-0.07,0.06
		c-1.07-3.15-2.22-6.55-3.28-9.51c0.23-0.38,0.55-0.56,0.88-0.74c0.02,0.28,0.03,0.62,0.03,0.96c0-0.34,0-0.68-0.03-0.96
		c-0.33,0.17-0.65,0.35-0.88,0.74l-0.45-1.22c-0.14-0.66-0.21-1.28-0.25-1.92l-0.06-3.19c0.03-1.52-1.42-3.14-1.94-5.45
		c-0.15-0.35,0.79-0.39,0.49-1.09c-0.48-1.67-1.08-3.09-1.27-4.69c-0.29-0.71,0.61-1.98,0.33-2.69c-0.35-1.3-1.45-4.18-1.77-4.18
		c-0.09,0-0.12,0.23-0.05,0.81c0.53,3.88,1.07,6.41,1.68,9.87c-0.8-3.06-1.5-6.29-1.88-10.09c-0.24-2.42-0.06-5.63-0.45-8.58
		c-0.79-4.03-1.93-8.22-2.18-13.07c-0.59-18.26-2.05-34.39-0.54-51.66c0.13-3.33,0.03-6.29,0.32-9.07
		c1.17-11.11-1.31-24.02,2.5-32.91c1.99-4.86,1.87-13.02,1.11-13.02c-0.15,0-0.34,0.34-0.53,1.11c1.9-8.99,0.22-12.63,3.56-17.21
		c0.12-0.18,1.26-1.36,2.55-1.36c1.19,0,2.51,1.01,3.25,4.75c0.08,5.81,0.33,16.97-0.65,22.94c-2.74,15.55-1.96,29.62-3.33,44.99
		c-0.69,7.71-1.17,15.57-1.4,23.76c-0.35,15.12,0.19,28.54,0.79,43.09l0.37,6.67l0,0l0.23,3.35c-0.02,0.09-0.04,0.19-0.06,0.31
		l0.07-0.16l0.06,0.79c-0.38,0.71-0.13,1.76,0.12,2.81c0.06,0.26,0.12,0.58,0.19,0.92c0.13,1.47,0.28,2.94,0.44,4.42l-0.13-0.3
		l0.17,0.67l0.22,1.93c-0.02,0.36-0.07,0.72-0.18,1.09c-0.04,0.47,0.2,0.68,0.43,0.99c0.57,4.43,1.3,8.94,2.29,13.69l0,0
		C36.66,214.52,36.57,217.11,36.29,217.99 M33.54,207.83c0,0.36,0,0.72,0.03,1.01C33.54,208.55,33.54,208.19,33.54,207.83
		 M33.34,196.15c-0.1,0.24-0.18,0.59-0.24,0.72C33.19,196.66,33.27,196.41,33.34,196.15 M33.29,194.23
		c0.05,0.29,0.11,0.57,0.17,0.85c0,0.4-0.05,0.75-0.13,1.07c0.06-0.13,0.13-0.23,0.2-0.23c0.06,0,0.12,0.06,0.19,0.21l0.01,0.02
		l-0.06-0.22l-0.35-3.71C33.05,192.75,33.13,193.46,33.29,194.23 M32.81,184.01L32.81,184.01L32.81,184.01 M31.19,181.88
		c0,0.53,0.61,1.07,0.61,1.67C31.8,182.95,31.19,182.41,31.19,181.88 M32.46,181.06l-0.4,0.79l0,0L32.46,181.06L32.46,181.06
		 M31.88,179.85L31.88,179.85c0.38-1.05,0.66-2.23,0.15-3.56C31.67,177.42,31.62,178.81,31.88,179.85L31.88,179.85 M35.39,211.34
		c0.01-0.08,0.01-0.16,0.02-0.25C35.41,211.18,35.4,211.26,35.39,211.34 M33.68,195.91l-0.21-0.84c0-0.05,0-0.09,0-0.14
		c0.01,0.03,0.02,0.06,0.02,0.09C33.55,195.27,33.61,195.58,33.68,195.91 M27.48,57.25c0.06-0.33,0.13-0.61,0.19-0.86
		C27.61,56.67,27.55,56.96,27.48,57.25"/>
	<path class="st0" d="M33.68,195.93c0,0,0-0.01-0.01-0.02c-0.07-0.33-0.13-0.64-0.19-0.89c-0.01-0.03-0.02-0.06-0.02-0.09
		c-0.06-0.24-0.12-0.47-0.17-0.71c-0.17-0.76-0.24-1.48,0.04-2.01L33.68,195.93L33.68,195.93"/>
	<path class="st0" d="M513.62,239.21c0.01-0.43-0.06-0.76,0.26-1.17c0.33-0.28,0.58-0.59,0.81-0.92
		C514.35,237.82,513.98,238.52,513.62,239.21"/>
	<polyline class="st0" points="515.63,235.16 515.87,234.42 515.81,234.78 515.63,235.16 	"/>
	<path class="st0" d="M516.22,233.23c0.2-0.64,0.41-1.29,0.72-1.95C516.75,232.08,516.51,232.72,516.22,233.23"/>
	<path class="st0" d="M515.87,234.42l0-0.01c0.04-0.24,0-0.32-0.09-0.32c-0.07,0-0.16,0.06-0.26,0.13c0.24-0.26,0.48-0.59,0.69-0.98
		L515.87,234.42"/>
	<path class="st0" d="M514.92,234.77c0.01-0.01,0.01-0.01,0.02-0.02C514.93,234.76,514.93,234.77,514.92,234.77 M514.94,234.75
		c0.13-0.1,0.38-0.38,0.58-0.54C515.33,234.42,515.14,234.61,514.94,234.75"/>
	<path class="st0" d="M509.42,240.72c0.47-0.67,0.92-1.35,1.29-2.14c1.15-2.9,1.89-5.75,2.6-8.68c1.11-3.53,1.66-6.18,2.53-10.21
		c0.13-0.56,0.23-0.8,0.32-0.8c0.32,0,0.37,3.34,0.14,4.81c-0.01,0.82-1.37,1.69-1.4,2.5c-0.52,1.63-0.64,3.24-1.05,5.05
		c-0.09,0.81-0.93,0.37-0.98,0.77c-0.72,2.37-0.47,4.62-1.43,5.95C510.72,238.98,510.08,239.88,509.42,240.72"/>
	<path class="st0" d="M502.65,253.04c-0.2,0-0.33-0.1-0.49-0.16c1.39-1.47,2.77-2.87,4.48-4.19c-0.16,0.11-0.28,0.16-0.35,0.16
		c-0.17,0-0.07-0.31,0.33-0.85l0.88-0.38c-0.94,1.66-2,3.32-3.74,4.16c0,0-0.41,0.73-0.62,1.09
		C502.93,253,502.77,253.04,502.65,253.04"/>
	<g>
		<polyline points="501.25,253.8 502.06,252.85 502.15,252.88 501.3,253.79 501.25,253.8 		"/>
		<path d="M516.68,226.05l0.29-1.2c0.28-0.04,0.55,0.06,0.84-0.47l0.02-1.24c1.13-1.53,1.33-3.44,1.47-5.32l-0.64,0.7
			c-0.11,0.6-0.08,0.92,0.04,0.92c0.07,0,0.17-0.11,0.3-0.33c-0.98,1.92-1.55,3.79-2.04,5.74l-0.09,0.02
			c0.64-3.54,1.03-7.39,1.11-10.74c0.36-0.3,0.72-0.37,1.09-0.42l0,0c-0.37,0.06-0.74,0.12-1.09,0.42l0.02-1.38
			c0.1-0.71,0.25-1.37,0.41-2.03c0.32-1.03,0.63-2.1,0.94-3.29c0.48-1.57-0.46-3.65-0.4-6.16c-0.06-0.4,0.86-0.21,0.73-1.02
			c-0.08-1.87-0.36-3.48-0.24-5.2c-0.15-0.8,0.97-1.98,0.81-2.78c-0.11-1.47-0.78-4.72-1.1-4.72c-0.09,0-0.15,0.25-0.16,0.85
			c-0.06,4.19,0.01,6.94-0.17,10.68c-0.09-3.37-0.18-6.88-0.01-10.95c0.12-2.59,0.68-5.99,0.57-9.2c-0.4-4.4-1.29-8.98-1.29-14.27
			c0.29-19.89-1.19-37.28-1.25-55.93c-0.18-3.59-0.62-6.75-0.68-9.76c-0.13-6.02-1.42-12.38-2.59-18.41
			c-1.15-6.05-2.18-11.77-1.59-16.9c0.36-3.54-0.61-8.28-1.62-11.17c-0.56-1.61-1.1-2.65-1.37-2.65c-0.17,0-0.24,0.37-0.17,1.22
			c-0.62-4.72-1.73-7.89-2.52-10.54c-0.86-2.85-1.37-5.1-0.81-8.17c0.03-0.23,0.53-1.75,1.62-2.33c0.25-0.13,0.54-0.22,0.86-0.22
			c1.06,0,2.51,0.89,4.33,3.77c1.27,3,3.09,7.43,4.61,11.99c1.53,4.55,2.76,9.24,3.2,12.6c1.07,8.79,2.37,16.95,3.48,25.12
			c1.09,8.16,1.98,16.33,2.03,24.89c0.05,8.58-0.03,17.29-0.14,26.33l-0.24,24c-0.13,7.78-0.17,15.48-0.66,23.53
			c-0.14,2.5-0.3,4.94-0.5,7.36l0,0l-0.33,3.7c-0.03,0.09-0.07,0.2-0.11,0.32l0.09-0.16l-0.08,0.88c-0.5,0.69-0.46,1.88-0.43,3.07
			c0,0.29,0,0.65-0.01,1.03c-0.19,1.62-0.4,3.24-0.62,4.86l-0.04-0.36l0-0.25l0.53-4.08c-0.39,0.51-0.48,1.3-0.49,2.17
			c-0.02,0.32-0.03,0.63-0.04,0.94c-0.1,0.43-0.23,0.79-0.39,1.12c0.08-0.12,0.17-0.2,0.23-0.2c0.07,0,0.12,0.08,0.15,0.28v0.02
			l-0.01,0.76l-0.31,2.12c-0.12,0.37-0.27,0.74-0.48,1.1c-0.17,0.49-0.01,0.78,0.12,1.18c-0.79,4.86-1.77,9.8-3.13,14.97
			C518.73,222.86,517.4,225.37,516.68,226.05 M522.15,202.62c-0.16,0.23-0.33,0.58-0.42,0.71
			C521.88,203.13,522.02,202.89,522.15,202.62 M522.78,186.93c0,0.5,0.38,1.08,0.38,1.64C523.16,188.01,522.78,187.44,522.78,186.93
			 M524.16,186.1l-0.5,0.81l0,0L524.16,186.1L524.16,186.1 M523.74,184.71L523.74,184.71c0.51-1.1,0.92-2.37,0.56-3.89
			C523.82,182.03,523.61,183.53,523.74,184.71L523.74,184.71 M519.01,219.11c0.04-0.08,0.08-0.15,0.12-0.23
			C519.09,218.96,519.05,219.04,519.01,219.11 M522.54,202.47v-0.97c0.01-0.05,0.02-0.1,0.03-0.15c0,0.03,0,0.07,0,0.1
			C522.58,201.75,522.56,202.1,522.54,202.47 M508.95,52.09c-0.06-0.4-0.1-0.74-0.12-1.03C508.87,51.39,508.91,51.74,508.95,52.09"
			/>
	</g>
	<path class="st0" d="M522.54,202.48C522.54,202.48,522.54,202.47,522.54,202.48c0.02-0.38,0.04-0.74,0.04-1.02c0-0.03,0-0.07,0-0.1
		c0-0.27,0-0.53,0-0.79c0.02-0.86,0.11-1.65,0.49-2.17L522.54,202.48L522.54,202.48"/>
</g>
</svg>
