<svg xmlns="http://www.w3.org/2000/svg" width="33.977" height="276.837" viewBox="0 0 33.977 276.837">
  <g id="QRNhEL.tif" transform="matrix(-0.999, 0.035, -0.035, -0.999, 33.977, 276.783)">
    <g id="Group_7" data-name="Group 7" transform="translate(0 0)">
      <g id="Group_6" data-name="Group 6">
        <path id="Path_92" data-name="Path 92" d="M2.795,0a10.458,10.458,0,0,0,.074,5.652,13.557,13.557,0,0,1,.241,7.014c-1.2,5.184-1.3,10.415-1.356,15.656-.093,9.092.109,18.187-.066,27.276-.112,5.774-.042,11.613-.664,17.309C.212,80.348.756,87.743.452,95.149.181,101.725-.154,108.3.078,114.887a.415.415,0,0,0,.628-.1c.83-2.53.234-5.135.408-7.7-.073-.742-.037-1.486-.042-2.229,1.076-9.748.513-19.542.88-29.305.15-4,.168-8,.284-12a8.232,8.232,0,0,1,.28-2.535c.25-5.191.072-10.385.108-15.579.032-4.669,0-9.338.008-14.007a35.669,35.669,0,0,1,.375-7.264A37.659,37.659,0,0,1,4.033,13.977a41.73,41.73,0,0,0-.065-8.4,5.484,5.484,0,0,1-.192-.643A4.422,4.422,0,0,0,3.6,4.3c-.473-1.231,0-2.567-.4-3.809A1,1,0,0,0,2.795,0Z" transform="translate(14.707 80.079)" fill="#f3efeb"/>
        <path id="Path_93" data-name="Path 93" d="M2.892,87.779a6.263,6.263,0,0,1-.452-2.7c.017-15.744.261-31.492-.089-47.229-.156-7.031.029-14.075-.4-21.09-.267-4.343-.214-8.677-.291-13.015A5.5,5.5,0,0,0,.412,0C-.384,1.578.189,3.253.354,4.792c.448,4.186.2,8.373.4,12.553a3.793,3.793,0,0,0,.126.715A129.838,129.838,0,0,1,.931,33.148a2.954,2.954,0,0,0,.011.75,36.383,36.383,0,0,1,.537,7.262q-.036,21.735,0,43.47c0,1.081-.292,2.275.705,3.146A.6.6,0,0,0,2.892,87.779Z" transform="translate(22.178 73.494)" fill="#f3efeb"/>
        <path id="Path_94" data-name="Path 94" d="M5.839,0c-.414,2.2-.81,4.41-1.244,6.608C3.738,10.941,4.018,15.44,2.473,19.7c-.746,2.055-.035,4.442-.528,6.644-.814,3.634-.56,7.338-.382,10.985C1.813,42.427.571,47.3,0,52.276c.449.133.728-.112.969-.447a2.025,2.025,0,0,0,.193-.559,9.614,9.614,0,0,1,.381-2.058,4.913,4.913,0,0,0,.131-.981c1.568-6.566.311-13.271.985-19.877a22.994,22.994,0,0,1,.449-2.37A34.5,34.5,0,0,1,4.651,15.97c.621-2.016-.226-4.333.8-6.371C5.77,7.812,5.234,5.9,6.2,4.209,6.317,2.784,6.73,1.333,5.839,0Z" transform="translate(8.625 195.406)" fill="#f3efeb"/>
        <path id="Path_95" data-name="Path 95" d="M2.616,25.38A118.077,118.077,0,0,0,1.762,7.61c-1.01-1.444-.455-3.1-.607-4.663C1.064,1.991,1.08,1.024,1.046.062A.445.445,0,0,0,.421.239C-.3,2.947.119,5.693.162,8.429c.07,4.515,1.162,8.94,1.1,13.476C1.241,23.146.913,24.737,2.616,25.38Z" transform="translate(20.828 65.883)" fill="#f3efeb"/>
        <path id="Path_96" data-name="Path 96" d="M.223,31.461a3.631,3.631,0,0,0,2.523-2.5c.727-1.835,1.9-3.421,2.316-5.476.652-3.219,2.066-6.273,2.85-9.474.957-3.9,2.384-7.692,2.812-11.727.076-.71.246-1.41.372-2.115A.627.627,0,0,0,10.52.017a1.8,1.8,0,0,0-.947,1.218C9.223,6.56,7.245,11.489,6.006,16.6c-.5,2.054-1.6,3.843-2.025,5.891.478,2.151-1.374,3.533-1.744,5.4C1.62,29.017.574,29.824,0,30.982A.6.6,0,0,0,.223,31.461Z" transform="translate(8.014 243.515)" fill="#f3efeb"/>
        <path id="Path_97" data-name="Path 97" d="M5.815,0,5.124.506a7,7,0,0,0-1.582,3.88C2.911,7.959,2.107,11.51,1.184,15.018A31.778,31.778,0,0,0,.006,23.851a.411.411,0,0,0,.566-.079c.547-1.069.4-2.293.734-3.409a58.417,58.417,0,0,1,1.385-6.319A7.437,7.437,0,0,0,2.865,12.3a3.9,3.9,0,0,1,.467-2.079A3.345,3.345,0,0,0,3.518,9.7,8.008,8.008,0,0,1,4.426,7.11c.7-1.374.192-2.918.6-4.331.15-.78.823-1.274,1.068-2A.747.747,0,0,0,5.815,0Z" transform="translate(3.501 247.176)" fill="#f3efeb"/>
        <path id="Path_98" data-name="Path 98" d="M.71,30.659a62.124,62.124,0,0,0,1.407-13.2c.192-5.057.772-10.105.465-15.178a5.264,5.264,0,0,1,.462-2.1C2.938.119,2.834.06,2.729,0,1.508.417,1.6,1.493,1.629,2.446c.12,4.312-.208,8.606-.41,12.907A6.253,6.253,0,0,1,1.007,16.9a5.121,5.121,0,0,0-.165,1.061,36.662,36.662,0,0,1-.676,9.1A6.044,6.044,0,0,0,.24,30.152.987.987,0,0,0,.71,30.659Z" transform="translate(22.042 180.668)" fill="#f3efeb"/>
        <path id="Path_99" data-name="Path 99" d="M0,.1C.786,2.117.613,4.236.575,6.325a19.453,19.453,0,0,0,1.269,7.707,4.971,4.971,0,0,1,.172,3.482,6.9,6.9,0,0,0,.4,6.023,1.145,1.145,0,0,0,.448-.823,3.026,3.026,0,0,0-.071-.959,6.95,6.95,0,0,1,.1-3.73,12.19,12.19,0,0,0-.376-5.666C1.187,8.8,1.5,5.105,1.392,1.438A1.743,1.743,0,0,0,.6.062.611.611,0,0,0,0,.1Z" transform="translate(15.885 42.499)" fill="#f3efeb"/>
        <path id="Path_100" data-name="Path 100" d="M4.545,17.367c-.407-3.216-.279-6.52-1.676-9.572a4.432,4.432,0,0,1-.237-2.12C2.831,3.324,1.581,1.648.227,0A.978.978,0,0,0,0,.569,2.158,2.158,0,0,0,.366,1.875,7.54,7.54,0,0,1,1.691,7.27a73.758,73.758,0,0,1,1.617,8.918,1.583,1.583,0,0,0,.625,1.186A.541.541,0,0,0,4.545,17.367Z" transform="translate(15.765 34.714)" fill="#f3efeb"/>
        <path id="Path_101" data-name="Path 101" d="M.677,18.786C.954,14.218,3.122,9.924,2.55,5.225A18.839,18.839,0,0,1,3.01.177L2.79,0c-.644.107-.856.619-1.053,1.148a18.54,18.54,0,0,0-.162,3.306,24.894,24.894,0,0,1-1.32,9.432A10.567,10.567,0,0,0,.213,18.3.916.916,0,0,0,.677,18.786Z" transform="translate(19.742 211.151)" fill="#f3efeb"/>
        <path id="Path_102" data-name="Path 102" d="M1.076,0l-.4.013C-.338,1.434.064,3.064.159,4.58A70.605,70.605,0,0,0,1.575,12.7a1.859,1.859,0,0,0,.652,1.174l.413-.006L2.632,9.9C1.946,6.629,1.067,3.387,1.082,0Z" transform="translate(19.234 52.08)" fill="#f3efeb"/>
        <path id="Path_103" data-name="Path 103" d="M.762,19.573c.088-.174.251-.347.251-.521Q1.029,9.784,1,.516C1,.344.835.172.745,0L.54.171C-.216,1.225.04,2.46.048,3.606.077,8,.024,12.392.038,16.785a3.717,3.717,0,0,0,.541,2.632Z" transform="translate(24.324 161.273)" fill="#f3efeb"/>
        <path id="Path_104" data-name="Path 104" d="M0,3.286C1.887,4.459,1.232,6.319,1.237,8a.36.36,0,0,0,.444.061,2.958,2.958,0,0,1,.74-.585A1.129,1.129,0,0,0,2.783,7.2l.025-1.909c.132-.219.4-.32.5-.568a1.233,1.233,0,0,0-.528-1.115C.15,3.923,1.043,1.919.866.62,1.092.185.855.048.48,0-.1.485.113,1.166.056,1.78A12.391,12.391,0,0,1,0,3.286Z" transform="translate(9.718 19.557)" fill="#f3efeb"/>
        <path id="Path_105" data-name="Path 105" d="M.46.035.275,0,.086.016C-.469,2.435,1.81,3.712,2.393,5.7c.123.418,1.552.708,1.946-.5.138-.424.06-.925.478-1.237l-.111-.47c-2.53-.1-2.9-.351-3.455-2.341A1.6,1.6,0,0,0,.46.035Z" transform="translate(3.421 271.011)" fill="#f3efeb"/>
        <path id="Path_106" data-name="Path 106" d="M.582,11.339l.165.629a.528.528,0,0,0,.47-.19,2.608,2.608,0,0,0,.3-.771c.1-.366.216-.727.309-1.1a15.078,15.078,0,0,0,.47-3.6A3.323,3.323,0,0,0,2.075,5.4c-.669-1.168-.625-2.51-.885-3.775C1.073,1.055,1.146.437.657,0,.011.377-.133.811.113,1.611.665,3.4.5,5.327,1.093,7.149,1.547,8.542.711,9.931.582,11.339Z" transform="translate(16.92 68.739)" fill="#f3efeb"/>
        <path id="Path_107" data-name="Path 107" d="M0,2.455C1.429,4.345,1.081,6.682,1.553,8.813c.583-.458.489-1.13.519-1.751.034-.712.055-1.411.726-1.859C2.8,3.31,1.077,1.946,1.259,0,.536.467.884,1.493.243,2A1.913,1.913,0,0,0,0,2.455Z" transform="translate(11.305 27.483)" fill="#f3efeb"/>
        <path id="Path_108" data-name="Path 108" d="M.487,13.9l.447.018c-.129-2.536,1.207-4.9.842-7.465.4-.9-.151-1.927.337-2.819Q2.179,1.9,2.244.172C2.172.115,2.1.058,2.029,0,.712.664,1.471,2.1.916,3.053.737,5.8.431,8.533.1,11.265A3.249,3.249,0,0,0,.487,13.9Z" transform="translate(18.176 229.764)" fill="#f3efeb"/>
        <path id="Path_109" data-name="Path 109" d="M0,3.626c.149,1.9-.163,3.888,1.138,5.54a.961.961,0,0,0,.291-.787A23.26,23.26,0,0,1,1.069,4.2c.065-.183.117-.369.168-.556s.106-.387.157-.581C1.527,1.99,2.167.824.872,0L.718.922A4.895,4.895,0,0,1,0,3.626Z" transform="translate(17.577 65.113)" fill="#f3efeb"/>
        <path id="Path_110" data-name="Path 110" d="M.068,0A23.815,23.815,0,0,0,1.618,9.9c.482-1.3-.22-2.446-.551-3.594C.468,4.237.7,2.052.068,0Z" transform="translate(20.248 52.08)" fill="#f3efeb"/>
        <path id="Path_111" data-name="Path 111" d="M.484,4.621c.5-.305.429-.8.417-1.284-.157-.65-.495-1.313.136-1.905l.314.521.357-.542C1.963.981,2.067.457,1.623.19A.925.925,0,0,0,.174.619C.066,1.969-.285,3.34.484,4.621Z" transform="translate(9.234 18.222)" fill="#f3efeb"/>
        <path id="Path_112" data-name="Path 112" d="M1.244.211C.514-.148.035-.129.059.907.083,1.877.023,2.85,0,3.822l.029-.035a.361.361,0,0,0,.465.05c.489-.673.441-1.694,1.33-2.108a.734.734,0,0,0,.257-.437Z" transform="translate(12.858 32.474)" fill="#f3efeb"/>
        <path id="Path_113" data-name="Path 113" d="M1.515,1.944c.9-.516,1.588-.6,1.533.793.646-.655,1.135-1.419-.287-1.494C1.679,1.185,1.327-.094,0,.006Z" transform="translate(7.894 16.897)" fill="#f3efeb"/>
        <path id="Path_114" data-name="Path 114" d="M.474,2.922,1.746,4C1.561,2.47,1.581.934.21,0A.526.526,0,0,0,0,.443c.1.669.4,1.3.441,1.981A3.48,3.48,0,0,1,.474,2.922Z" transform="translate(4.129 3.774)" fill="#f3efeb"/>
        <path id="Path_115" data-name="Path 115" d="M.429,0,0,.014C.557,1.557.239,3.32,1.169,4.767A.373.373,0,0,0,1.707,4.7c.708-1.3-.484-2.363-.431-3.583C1.141.633,1.166.018.429,0Z" transform="translate(12.887 36.246)" fill="#f3efeb"/>
        <path id="Path_116" data-name="Path 116" d="M2.781,2.351C2.849.939,1.888.418.808,0,.569.2.156.052,0,.417L.808,1.581c.788-.205.831.625,1.253.931A.634.634,0,0,0,2.781,2.351Z" transform="translate(0.757 1.05)" fill="#f3efeb"/>
        <path id="Path_117" data-name="Path 117" d="M0,.766.41,1.948a1.032,1.032,0,0,0,1.24.06A2.759,2.759,0,0,0,1.56.045C.825-.2.556.6,0,.766Z" transform="translate(12.494 22.4)" fill="#f3efeb"/>
        <path id="Path_118" data-name="Path 118" d="M.058.44,0,4.747l.274.139a.714.714,0,0,0,.449-.392C1.123,3.3.8,2.037,1.1.835A.962.962,0,0,0,.77,0L.378,0Z" transform="translate(14.406 194.966)" fill="#f3efeb"/>
        <path id="Path_119" data-name="Path 119" d="M.757,1.467l.808-.417C1.113.761,1.149-.123.368.014.236.037.074.262.042.418-.082,1,.046,1.45.757,1.467Z" transform="translate(0 0)" fill="#f3efeb"/>
        <path id="Path_120" data-name="Path 120" d="M1.513.263.378.274,0,.774C1.158.537,2.238.484,2.674,1.945c.479-.29.22-.816.377-1.207A1.018,1.018,0,0,0,2.267,0C2.026.118,1.714.025,1.513.263Z" transform="translate(12.525 24.074)" fill="#f3efeb"/>
        <path id="Path_121" data-name="Path 121" d="M1.264.124.686.11A.487.487,0,0,0,0,.179l1.2,1.6a.381.381,0,0,0,.446.029c-.167-.458.119-.7.429-.932A2.321,2.321,0,0,1,2.065.5Z" transform="translate(2.275 3.276)" fill="#f3efeb"/>
        <path id="Path_122" data-name="Path 122" d="M.506,3.142c1.074-.524.573-1.6.828-2.417C1.313.484,1.292.243,1.271,0L.879,0C.254.628.527,1.592.05,2.273-.123,2.739.185,2.944.506,3.142Z" transform="translate(11.23 26.757)" fill="#f3efeb"/>
        <path id="Path_123" data-name="Path 123" d="M.709,1.548l.686-.07C1.346.891,1.253.274.655.044.121-.16.119.39,0,.722Z" transform="translate(1.566 1.908)" fill="#f3efeb"/>
        <path id="Path_124" data-name="Path 124" d="M.384.016A2.775,2.775,0,0,0,.01,0C-.109,1.4.859,1.5,1.839,1.587a.158.158,0,0,1,.2,0,.881.881,0,0,0-.315-.92A2.622,2.622,0,0,0,.384.016Z" transform="translate(14.046 41.013)" fill="#f3efeb"/>
        <path id="Path_125" data-name="Path 125" d="M.817,2.378.509,1.532A1.1,1.1,0,0,0,.354,0,2.536,2.536,0,0,1,.037.037a3.548,3.548,0,0,0,.35,2.38Z" transform="translate(10.919 27.521)" fill="#f3efeb"/>
        <path id="Path_126" data-name="Path 126" d="M.4,0C-.289.867.137,1.874.063,2.819.678,1.941.325.944.4,0Z" transform="translate(19.888 233.399)" fill="#f3efeb"/>
        <path id="Path_127" data-name="Path 127" d="M.376,0C-.059.3.056.782,0,1.207.828,1.183.887,1,.376,0Z" transform="translate(15.2 24.811)" fill="#f3efeb"/>
        <path id="Path_128" data-name="Path 128" d="M0,1.893A.718.718,0,0,0,.754,1.63L.016,0Z" transform="translate(14.039 22.444)" fill="#f3efeb"/>
        <path id="Path_129" data-name="Path 129" d="M.36.011.184,0,.008.012A1.465,1.465,0,0,0,1.139,1.654c.058-.08.115-.161.171-.244A1.493,1.493,0,0,0,.36.011Z" transform="translate(3.465 5.042)" fill="#f3efeb"/>
        <path id="Path_130" data-name="Path 130" d="M1.207,1.39,1.258.948A1.91,1.91,0,0,0,.205,0C.138.083.069.165,0,.246a1.1,1.1,0,0,0,.363.84A.918.918,0,0,0,1.207,1.39Z" transform="translate(14.733 33.766)" fill="#f3efeb"/>
        <path id="Path_131" data-name="Path 131" d="M11.725,2.415l.479.792.734.781a3.135,3.135,0,0,1,.16,1.733,25.2,25.2,0,0,0,1.2,9.85,9.948,9.948,0,0,1,.388,3.1c.086,2.585-.653,5.183.315,7.772a2.32,2.32,0,0,1-.447,2.572,2.438,2.438,0,0,0,.014.323c.294,2.032.031,4.166.947,6.085.65,1.365-.461,2.334-.634,3.512-1.359,4.31.348,8.615.013,12.934-.243,3.137-.726,6.245-.984,9.368-.243,2.939-.814,5.85-.8,8.812.014,3.294-.018,6.587.007,9.88.145,18.963-.406,37.921-.476,56.883A76.522,76.522,0,0,1,11.391,147.7q-.047,3.94-.095,7.881c.016.273.032.545.048.819-.268,2.054-.356,4.127-.5,6.19a9.007,9.007,0,0,1-1.294,4.438c-.583,1.961-.1,4.023-.541,6-.18,1.492-.016,3.062-.948,4.389a2.188,2.188,0,0,0-.179.587,11.788,11.788,0,0,1-.229,2.464,13.421,13.421,0,0,1-.408,3.566c-.413,4.97-.138,9.948-.157,14.92a26.74,26.74,0,0,1-1.155,6.919c-.327.488-.094,1.123-.41,1.614a.479.479,0,0,0-.089.306l.055.866c-.335.566-.793,1.04-1.163,1.58-.935,1.471.081,3.264-.759,4.751a25.441,25.441,0,0,1-.787,2.79l.006-.01a10.643,10.643,0,0,0-.733,2.112l-.1,1.844a51.216,51.216,0,0,1-1.451,6.41c-.652,1.105-.289,2.359-.506,3.528q.216.573.431,1.147c1.2,2.888,3.168,3.142,5.056.664a6.6,6.6,0,0,0,1.321-1.879c.026-1.793,1.85-2.973,1.61-4.859-.174-2.085,1.5-3.559,1.745-5.531.4-3.157,2.216-5.963,2.3-9.211a7.709,7.709,0,0,1,.841-2.932c.671-1.3.5-2.734.655-4.119a4.176,4.176,0,0,0,.258-1.342c-.393-4.11.646-8.025,1.548-11.96a12.889,12.889,0,0,1,.232-1.7c.1-3.994-.111-8,1.322-11.872.668-1.8.151-3.791.317-5.69.333-3.781.668-7.561,1.309-11.3.064-.39.181-.774.238-1.166a1.552,1.552,0,0,1,.366-.721l.013-.758a33.526,33.526,0,0,0,.28-6.485c0-7.364.962-14.717.607-22.061-.941-19.429-.316-38.863-.544-58.293a26.336,26.336,0,0,0-.328-3.917.253.253,0,0,0,0-.276c.235-5.173.258-10.348-.014-15.523v.006a2.682,2.682,0,0,1-.721-2.163c.248-3.965-.7-7.817-.915-11.737-.205-3.8-.508-7.6-.346-11.412-.3-4.06-1.833-7.952-1.6-12.084.032-.591.031-1.183.047-1.774C15.38,9.277,14.994,5.8,14.052,2.424c-.318-.388-.077-.9-.274-1.313C13.6.533,13.35-.129,12.656.022c-.712.154-.826.914-.952,1.56A2.984,2.984,0,0,0,11.725,2.415Z" transform="translate(3.881 39.388)" fill="#f3efeb"/>
        <path id="Path_132" data-name="Path 132" d="M0,109.731a15.733,15.733,0,0,0,1.041-5.9c-.049-1.869.912-3.606.906-5.579q-.092-32.9.007-65.8a47.082,47.082,0,0,1,.789-6.414c.864-6.186,1.67-12.4.829-18.67C3.26,5.035,3.809,2.787,3.888.5A.307.307,0,0,0,3.839,0c-1.087.149-.193,1.254-.771,1.649a.733.733,0,0,0-.3.786A50.485,50.485,0,0,0,2.747,7.6a1.326,1.326,0,0,0-.016.358c.2.163.467.339.466.592-.01,2.974.422,5.961-.244,8.917-.411,3.033-.83,6.066-1.047,9.123-.673,7.572-.168,15.16-.3,22.739-.085,4.814-.084,9.63-.121,14.445a1.9,1.9,0,0,0-.154.96c.161,9.717-.78,19.424-.351,29.137.208,4.691-1.026,9.237-.933,13.893Z" transform="translate(15.271 77.357)" fill="#f3efeb"/>
        <path id="Path_133" data-name="Path 133" d="M.137,43.989c.362-2.968.931-5.93,1.038-8.908.174-4.861.02-9.734.055-14.6.049-6.827.663-13.645.345-20.48a1.814,1.814,0,0,0-.363,1.479C1.285,11.864.476,22.239.806,32.626.927,36.439-.424,40.155.137,43.989Z" transform="translate(15.179 141.137)" fill="#f3efeb"/>
        <path id="Path_134" data-name="Path 134" d="M.032,9.955C.417,6.93,1.241,3.963,1.226.883A.654.654,0,0,0,1.167,0,30.42,30.42,0,0,0,.032,9.955Z" transform="translate(17.146 93.997)" fill="#f3efeb"/>
        <path id="Path_135" data-name="Path 135" d="M.31,8.677q.029.441.059.883c.736-3.028.3-6.088.216-9.136C.581.277.2.142,0,0,.786,2.867.275,5.782.31,8.677Z" transform="translate(18.003 85.319)" fill="#f3efeb"/>
        <path id="Path_136" data-name="Path 136" d="M.29,5.17A8.645,8.645,0,0,0,.313,0C.282.264.252.527.221.792a9.089,9.089,0,0,0,0,3.982Z" transform="translate(17.728 79.791)" fill="#f3efeb"/>
        <path id="Path_137" data-name="Path 137" d="M.354,3.982q0-1.991,0-3.982A.511.511,0,0,0,.071.125C.141,1.413-.275,2.737.354,3.982Z" transform="translate(17.594 80.583)" fill="#f3efeb"/>
        <path id="Path_138" data-name="Path 138" d="M.137,0C.118,1.378.086,2.755.086,4.133.08,19.942.055,35.752.1,51.56c.01,4.176.354,8.354.323,12.529-.06,8.3-.278,16.6-.418,24.9-.01.587.078,1.176.121,1.765A108.77,108.77,0,0,0,.856,76.729c-.048-1.053-.345-2.268.723-3.1q-.018-9.623-.038-19.246C.53,53.69.85,52.608.849,51.671Q.824,28.936.87,6.2A22.375,22.375,0,0,0,.137,0Z" transform="translate(23.323 107.057)" fill="#f3efeb"/>
        <path id="Path_139" data-name="Path 139" d="M.156,0C-.036,5.175-.072,10.349.17,15.523A120.178,120.178,0,0,0,.156,0Z" transform="translate(23.287 91.258)" fill="#f3efeb"/>
        <path id="Path_140" data-name="Path 140" d="M.29,18.423c.563-1.172.2-2.432.329-3.646.456-.744-.136-1.66.382-2.394v0A12.01,12.01,0,0,0,2.162,8.026a33.455,33.455,0,0,1,.414-6.313c.213-.52.762-.943.456-1.614a.381.381,0,0,0-.512,0,7.063,7.063,0,0,0-.759,3.786,18.863,18.863,0,0,1-1.17,6.461,21.061,21.061,0,0,0-.426,6.232A1.989,1.989,0,0,0,.29,18.423Z" transform="translate(11.117 204.787)" fill="#f3efeb"/>
        <path id="Path_141" data-name="Path 141" d="M1.81,1.844Q1.747.923,1.686,0,1.5,1.045,1.321,2.094c-.386,4.245-.165,8.5-.127,12.748A26.4,26.4,0,0,1,.17,22.72L.113,23.4c-.135.358-.211.707.144.991a11.393,11.393,0,0,0,1.489-5.618Q1.793,10.307,1.81,1.844Z" transform="translate(9.597 221.367)" fill="#f3efeb"/>
        <path id="Path_142" data-name="Path 142" d="M.015,20.627a8.383,8.383,0,0,0,1.165-4.47C1.2,10.772,1.174,5.386,1.165,0,.583.527.826,1.225.824,1.853.81,5.6.648,9.352.885,13.081,1.051,15.7-.144,18.064.015,20.627Z" transform="translate(9.753 223.46)" fill="#f3efeb"/>
        <path id="Path_143" data-name="Path 143" d="M.014,5.173.42,5.167a3.86,3.86,0,0,0,.775-2.106c-.064-.98.241-2-.27-2.933L.782,0C-.452,1.575.191,3.437.014,5.173Z" transform="translate(13.625 199.713)" fill="#f3efeb"/>
        <path id="Path_144" data-name="Path 144" d="M.453.991.309,0A4.526,4.526,0,0,0,0,2.1C.49,1.873.388,1.4.453.991Z" transform="translate(9.401 244.765)" fill="#f3efeb"/>
        <path id="Path_145" data-name="Path 145" d="M3.9,6.817c-.3,1.792-.843,3.547-1.22,5.277C1.954,15.411.118,18.4,0,21.854c.129.183.259.183.39,0C1.571,18.211,3.1,14.634,3.833,10.9,4.537,7.312,6.5,3.956,5.923.12A.287.287,0,0,0,5.474.1c.217,1.411-.42,2.643-.8,3.928C4.271,4.915,4.246,5.912,3.9,6.817Z" transform="translate(12.103 244.395)" fill="#f3efeb"/>
        <path id="Path_146" data-name="Path 146" d="M.108,13.507l.449.023.638-.85c-.241-2.616.763-5.1.766-7.695,0-1.1.082-2.2.126-3.306C2.255,1.1,2.458.518,1.942,0A29.86,29.86,0,0,0,.108,13.507Z" transform="translate(17.468 230.986)" fill="#f3efeb"/>
        <path id="Path_147" data-name="Path 147" d="M6.17,0c-.3.414-.616.819-.9,1.243C3.332,4.1,1.671,3.785,0,1.265.142,3.674,1.6,4.56,3.815,3.577A8.893,8.893,0,0,0,6.247.884.58.58,0,0,0,6.17,0Z" transform="translate(4.312 270.928)" fill="#f3efeb"/>
        <path id="Path_148" data-name="Path 148" d="M.029,4.68l.077.884C.511,3.625,2.457,2.238,2.04,0L1.845,0h-.2C1.481,1.694-.243,2.83.029,4.68Z" transform="translate(10.453 266.248)" fill="#f3efeb"/>
        <path id="Path_149" data-name="Path 149" d="M0,6.409A12.936,12.936,0,0,0,1.451,0,23.29,23.29,0,0,0,0,6.409Z" transform="translate(4.386 261.109)" fill="#f3efeb"/>
        <path id="Path_150" data-name="Path 150" d="M.006,2.79A3.276,3.276,0,0,0,.793,0,3.821,3.821,0,0,0,.006,2.79Z" transform="translate(6.656 254.372)" fill="#f3efeb"/>
        <path id="Path_151" data-name="Path 151" d="M.034,2.112A3.5,3.5,0,0,0,.767,0,2.125,2.125,0,0,0,.034,2.112Z" transform="translate(5.901 257.153)" fill="#f3efeb"/>
        <path id="Path_152" data-name="Path 152" d="M0,1.58A1.741,1.741,0,0,0,1.163,0,1.977,1.977,0,0,0,0,1.58Z" transform="translate(8.208 248.042)" fill="#f3efeb"/>
        <path id="Path_153" data-name="Path 153" d="M1.968,0,1.574.393c-.7,1.256-.123,2.711-.609,4A2.549,2.549,0,0,0,.272,6.377a9.492,9.492,0,0,1-.131,4.044,8.079,8.079,0,0,0-.116,2.307,1.009,1.009,0,0,0,.441.868q.3-.508.6-1.017c-.1-3.715,1.3-7.3.962-11.034C1.984,1.033,1.987.515,1.968,0Z" transform="translate(21.464 198.571)" fill="#f3efeb"/>
        <path id="Path_154" data-name="Path 154" d="M1.63,25.022c1.265-.782.73-2.056.583-3.028a21.417,21.417,0,0,1-.251-3.922A24.222,24.222,0,0,0,.824,8.544C.064,6.532.482,4.372.367,2.277.325,1.512.6.683.017,0c-.046,4.373-.1,8.734,1.4,12.952a11.3,11.3,0,0,1,.131,4.478A7.446,7.446,0,0,0,1.525,21l.123.741A4.5,4.5,0,0,1,1.63,25.022Z" transform="translate(16.802 43.375)" fill="#f3efeb"/>
        <path id="Path_155" data-name="Path 155" d="M.449,3.566Q.462,1.782.476,0A3.671,3.671,0,0,0,.449,3.566Z" transform="translate(17.878 60.806)" fill="#f3efeb"/>
        <path id="Path_156" data-name="Path 156" d="M2.556,5.925c.046.424-.014.883.38,1.192C3.442,4.537,2.085,2.532.942.461L.225,0A.8.8,0,0,0,.009.714a2.482,2.482,0,0,0,.167.5c.346.8.861,1.517,1.194,2.329A10.133,10.133,0,0,1,2.556,5.925Z" transform="translate(14.998 34.695)" fill="#f3efeb"/>
        <path id="Path_157" data-name="Path 157" d="M.418,9.671c1.157-1.66,1.068-3.654,1.355-5.527A31,31,0,0,0,1.883.073a.316.316,0,0,0-.494.115C1.258,1.891.462,3.429.213,5.1A9.363,9.363,0,0,1,.046,7.99,3.66,3.66,0,0,0,.054,9.2.873.873,0,0,0,.418,9.671Z" transform="translate(19.929 215.508)" fill="#f3efeb"/>
        <path id="Path_158" data-name="Path 158" d="M.936.565.835.042a.336.336,0,0,0-.5.225C.181,1.789.527,3.333.124,4.843Q.062,5.607,0,6.371q.072.84.145,1.679C.7,7.163.1,6.007.794,5.149Q.864,2.858.936.565Z" transform="translate(19.41 224.615)" fill="#f3efeb"/>
        <path id="Path_159" data-name="Path 159" d="M.3,4.432l.319-.007Q.679,2.719.737,1.011C.7.675.657.338.617,0-.443,1.407.152,2.936.3,4.432Z" transform="translate(21.192 211.157)" fill="#f3efeb"/>
        <path id="Path_160" data-name="Path 160" d="M0,.956q.077.766.154,1.532C1.489,2.063.549.941.836.2.2-.139.2-.139,0,.956Z" transform="translate(11.273 26.565)" fill="#f3efeb"/>
        <path id="Path_161" data-name="Path 161" d="M.553,0C-.148.447-.17.744.417,1.906Q.484.953.553,0Z" transform="translate(9.718 19.655)" fill="#f3efeb"/>
        <path id="Path_162" data-name="Path 162" d="M.8,8.678c.017.153.034.305.052.456,1.129-1.057,1.485-2.283.49-3.58-.77-1-.452-2.1-.524-3.172A5.131,5.131,0,0,0,.14,0C.106.132.072.263.038.394-.136,1.879.346,3.308.4,4.772q0,.395,0,.788c.023.241.044.483.067.723C1.226,6.992.415,7.919.8,8.678Z" transform="translate(18.306 68.719)" fill="#f3efeb"/>
        <path id="Path_163" data-name="Path 163" d="M.769,2.394C.74,1.584,1.9.609.443,0L0,4C.614,3.642.185,2.769.769,2.394Z" transform="translate(18.339 75.004)" fill="#f3efeb"/>
        <path id="Path_164" data-name="Path 164" d="M.623,4.378A14.783,14.783,0,0,0,.256,0C-.371,1.524.311,2.936.623,4.378Z" transform="translate(18.087 69.113)" fill="#f3efeb"/>
        <path id="Path_165" data-name="Path 165" d="M1.916,1.458,1.908.69C1.745.463,1.583.234,1.42.007-.377-.114.165,1.3,0,2.242c.36.322.333.782.417,1.2.622,1.217.751,2.7,1.876,3.648a3.386,3.386,0,0,0-.48-3.814C1.283,2.617,1.162,2.023,1.916,1.458Z" transform="translate(13.316 34.005)" fill="#f3efeb"/>
        <path id="Path_166" data-name="Path 166" d="M.051.9c.016.677.6.955.95,1.4C1.627,1.387.983.716.573,0-.116-.007-.024.453.051.9Z" transform="translate(3.774 4.151)" fill="#f3efeb"/>
        <path id="Path_167" data-name="Path 167" d="M1.9,3.571A16.913,16.913,0,0,0,.025,0c-.219,1.284,1.069,2.264.7,3.579.252.477.561.865,1.176.775a.436.436,0,0,0,.42-.422C2.158,3.837,2.125,3.584,1.9,3.571Z" transform="translate(13.706 37.449)" fill="#f3efeb"/>
        <path id="Path_168" data-name="Path 168" d="M.769,7.134A3.372,3.372,0,0,0,.352,9.093Q.177,9.9,0,10.712A4.8,4.8,0,0,0,1.522,6.861c.047-2.286.011-4.574.01-6.861-.738,1.258-.168,2.649-.388,3.96C.635,4.972,1.279,6.122.769,7.134Z" transform="translate(13.693 195.788)" fill="#f3efeb"/>
        <path id="Path_169" data-name="Path 169" d="M0,3.174C.735,2.19.22,1.053.375,0A.584.584,0,0,0,.088.093Q.044,1.633,0,3.174Z" transform="translate(14.462 199.748)" fill="#f3efeb"/>
        <path id="Path_170" data-name="Path 170" d="M2.1,15.855c.116-1.476-.3-2.992.317-4.432q.027-1.153.055-2.306A10.952,10.952,0,0,0,2.545,5.2a2.135,2.135,0,0,1,.7-1.644A6.967,6.967,0,0,0,3.238,0,18.282,18.282,0,0,0,2.2,4.864a61.39,61.39,0,0,0-.508,6.824A23.39,23.39,0,0,1,.627,19.973c-1.115,3.11-.383,6.49-.48,9.751.706-1.539.15-3.183.386-4.761A20.6,20.6,0,0,0,1.008,21.9.994.994,0,0,0,.937,21Z" transform="translate(19.388 199.733)" fill="#f3efeb"/>
        <path id="Path_171" data-name="Path 171" d="M1.584,5.824l.424.362C1.98,5.592,2,4.878,2.493,4.607c.638-.352.575.676,1.043.817.305-1.082-.615-1.81-.77-2.759C1.746,2.2,1.507,1.22,1.216.271l0,0C.871.179.454-.258.2.219A1.476,1.476,0,0,0,.459,2.033,4.287,4.287,0,0,1,1.584,5.824Z" transform="translate(14.018 35.196)" fill="#f3efeb"/>
        <path id="Path_172" data-name="Path 172" d="M1.163,0Q.581,2.18,0,4.361C1.213,3.135,1.25,1.584,1.163,0Z" transform="translate(12.117 212.813)" fill="#f3efeb"/>
        <path id="Path_173" data-name="Path 173" d="M0,.77.007,4.325C.756,2.943.185,1.433.412,0A.785.785,0,0,0,0,.77Z" transform="translate(22.626 198.964)" fill="#f3efeb"/>
        <path id="Path_174" data-name="Path 174" d="M.008,2.792A3.883,3.883,0,0,0,.783,0C-.082.758-.006,1.784.008,2.792Z" transform="translate(15.994 248.421)" fill="#f3efeb"/>
        <path id="Path_175" data-name="Path 175" d="M.418,0C-.285.7.134,1.59.036,2.394.674,1.679.311.8.418,0Z" transform="translate(11.7 217.171)" fill="#f3efeb"/>
        <path id="Path_176" data-name="Path 176" d="M.068,0Q.034,1.959,0,3.917A4.788,4.788,0,0,0,.068,0Z" transform="translate(21.865 204.933)" fill="#f3efeb"/>
        <path id="Path_177" data-name="Path 177" d="M.035,0c-.127,1.228.034,2.263,1.55,2.394Z" transform="translate(15.199 35.467)" fill="#f3efeb"/>
        <path id="Path_178" data-name="Path 178" d="M.405,0C-.318.991.177,2.126.036,3.186a2.7,2.7,0,0,0,.327-.038L.428,2A2.423,2.423,0,0,0,.405,0Z" transform="translate(19.883 221.511)" fill="#f3efeb"/>
        <path id="Path_179" data-name="Path 179" d="M0,.776q.011,1,.023,2A2.449,2.449,0,0,0,.035,0Q.019.389,0,.776Z" transform="translate(20.289 220.735)" fill="#f3efeb"/>
      </g>
    </g>
  </g>
</svg>
