<?xml version="1.0" encoding="utf-8"?>
<!-- Generator: Adobe Illustrator 16.0.0, SVG Export Plug-In . SVG Version: 6.00 Build 0)  -->
<!DOCTYPE svg PUBLIC "-//W3C//DTD SVG 1.1//EN" "http://www.w3.org/Graphics/SVG/1.1/DTD/svg11.dtd">
<svg version="1.1" xmlns="http://www.w3.org/2000/svg" xmlns:xlink="http://www.w3.org/1999/xlink" x="0px" y="0px"
	 width="549.244px" height="281px" viewBox="574.667 0 549.244 281" enable-background="new 574.667 0 549.244 281"
	 xml:space="preserve">
<g id="Layer_1" display="none">
</g>
<g id="purity_of_nature">
	<g>
		<g>
			<path fill="#CBC1B6" d="M752.208,256.809c-0.141,0-0.263-0.038-0.367-0.115c-0.105-0.077-0.158-0.186-0.158-0.326v-14.489
				c0-0.112,0.042-0.207,0.126-0.284c0.084-0.076,0.196-0.122,0.336-0.136h3.802c0.783,0,1.494,0.144,2.131,0.43
				c0.637,0.287,1.142,0.753,1.513,1.396c0.37,0.645,0.556,1.499,0.556,2.563v0.23c0,1.064-0.186,1.919-0.556,2.563
				c-0.371,0.645-0.879,1.113-1.522,1.407c-0.645,0.294-1.358,0.44-2.143,0.44h-3.191v5.88c0,0.141-0.057,0.249-0.169,0.326
				C752.453,256.771,752.334,256.809,752.208,256.809z M752.733,249.521h3.191c0.994,0,1.771-0.279,2.331-0.84
				c0.56-0.56,0.84-1.421,0.84-2.583v-0.252c0-1.147-0.28-1.998-0.84-2.552c-0.56-0.553-1.337-0.829-2.331-0.829h-3.191V249.521z"/>
			<path fill="#CBC1B6" d="M765.899,256.935c-0.7,0-1.344-0.179-1.932-0.535c-0.588-0.357-1.057-0.83-1.407-1.418
				c-0.35-0.588-0.524-1.218-0.524-1.89v-5.754c0-0.112,0.053-0.214,0.157-0.305c0.105-0.091,0.228-0.137,0.367-0.137
				s0.259,0.046,0.357,0.137c0.098,0.091,0.146,0.192,0.146,0.305v5.754c0,0.49,0.126,0.952,0.379,1.386
				c0.252,0.435,0.591,0.791,1.018,1.071c0.428,0.28,0.906,0.42,1.438,0.42s1.009-0.137,1.429-0.409
				c0.42-0.273,0.756-0.631,1.008-1.071c0.252-0.441,0.378-0.906,0.378-1.396v-5.775c0-0.111,0.053-0.21,0.157-0.294
				c0.105-0.084,0.228-0.126,0.368-0.126c0.153,0,0.276,0.042,0.367,0.126s0.137,0.183,0.137,0.294v5.775
				c0,0.686-0.176,1.323-0.525,1.911s-0.815,1.057-1.396,1.406C767.24,256.76,766.599,256.935,765.899,256.935z"/>
			<path fill="#CBC1B6" d="M772.892,256.809c-0.141,0-0.26-0.045-0.357-0.137c-0.098-0.091-0.146-0.192-0.146-0.305v-9.051
				c0-0.126,0.049-0.228,0.146-0.305c0.098-0.076,0.217-0.115,0.357-0.115c0.153,0,0.276,0.039,0.367,0.115
				c0.091,0.077,0.137,0.179,0.137,0.305v1.071c0.168-0.28,0.385-0.543,0.651-0.788c0.266-0.244,0.584-0.443,0.955-0.598
				s0.794-0.231,1.271-0.231h0.756c0.126,0,0.231,0.046,0.315,0.137s0.126,0.207,0.126,0.347s-0.042,0.255-0.126,0.346
				c-0.084,0.092-0.189,0.137-0.315,0.137h-0.756c-0.477,0-0.935,0.123-1.376,0.368c-0.44,0.245-0.798,0.595-1.07,1.05
				c-0.273,0.455-0.41,1.005-0.41,1.648v5.564c0,0.112-0.049,0.214-0.146,0.305C773.172,256.764,773.046,256.809,772.892,256.809z"
				/>
			<path fill="#CBC1B6" d="M779.57,243.768c-0.21,0-0.396-0.077-0.557-0.231c-0.161-0.153-0.241-0.336-0.241-0.546
				s0.08-0.385,0.241-0.524s0.347-0.21,0.557-0.21c0.224,0,0.409,0.07,0.557,0.21c0.146,0.14,0.221,0.314,0.221,0.524
				s-0.074,0.393-0.221,0.546C779.979,243.69,779.794,243.768,779.57,243.768z M779.57,256.809c-0.141,0-0.26-0.045-0.357-0.137
				c-0.098-0.091-0.146-0.192-0.146-0.305v-9.051c0-0.126,0.049-0.228,0.146-0.305c0.098-0.076,0.217-0.115,0.357-0.115
				c0.153,0,0.279,0.039,0.378,0.115c0.098,0.077,0.146,0.179,0.146,0.305v9.051c0,0.112-0.049,0.214-0.146,0.305
				C779.849,256.764,779.723,256.809,779.57,256.809z"/>
			<path fill="#CBC1B6" d="M785.996,256.809c-1.036,0-1.826-0.238-2.373-0.714c-0.546-0.476-0.818-1.231-0.818-2.269v-11.298
				c0-0.14,0.056-0.248,0.168-0.325c0.111-0.077,0.224-0.115,0.336-0.115c0.14,0,0.263,0.038,0.367,0.115
				c0.105,0.077,0.157,0.186,0.157,0.325v4.368h2.793c0.112,0,0.207,0.042,0.284,0.126c0.076,0.084,0.115,0.196,0.115,0.336
				c0,0.112-0.039,0.214-0.115,0.305c-0.077,0.091-0.172,0.137-0.284,0.137h-2.793v6.026c0,0.729,0.165,1.247,0.494,1.555
				c0.328,0.308,0.885,0.462,1.669,0.462h0.525c0.154,0,0.273,0.046,0.357,0.137s0.126,0.206,0.126,0.346
				c0,0.126-0.042,0.238-0.126,0.336c-0.084,0.099-0.203,0.147-0.357,0.147H785.996z"/>
			<path fill="#CBC1B6" d="M788.263,261.743c-0.126,0-0.238-0.042-0.336-0.126s-0.146-0.203-0.146-0.356
				c0-0.126,0.027-0.238,0.084-0.336c0.056-0.099,0.153-0.147,0.294-0.147c0.35,0,0.675-0.122,0.977-0.367
				c0.301-0.245,0.58-0.581,0.84-1.008c0.259-0.428,0.489-0.893,0.692-1.396s0.382-1.016,0.536-1.533l-3.402-9.051
				c-0.028-0.07-0.042-0.126-0.042-0.168c0-0.098,0.031-0.182,0.095-0.252c0.063-0.07,0.14-0.13,0.23-0.179s0.186-0.073,0.284-0.073
				c0.084,0,0.168,0.024,0.252,0.073s0.133,0.115,0.146,0.199l2.961,8.085l2.877-8.085c0.042-0.084,0.098-0.15,0.168-0.199
				s0.147-0.073,0.231-0.073c0.098,0,0.192,0.021,0.283,0.063s0.168,0.102,0.231,0.179c0.063,0.077,0.095,0.165,0.095,0.263
				c0,0.07-0.015,0.126-0.042,0.168l-3.318,9.051c-0.183,0.546-0.393,1.123-0.63,1.732c-0.238,0.609-0.515,1.18-0.83,1.712
				c-0.314,0.531-0.679,0.969-1.092,1.313C789.289,261.572,788.809,261.743,788.263,261.743z"/>
			<path fill="#CBC1B6" d="M805.001,256.935c-0.672,0-1.302-0.182-1.89-0.546c-0.589-0.364-1.061-0.84-1.418-1.428
				s-0.535-1.226-0.535-1.911v-2.437c0-0.686,0.175-1.322,0.524-1.911c0.35-0.588,0.819-1.057,1.407-1.406s1.225-0.525,1.911-0.525
				c0.7,0,1.34,0.172,1.922,0.515c0.58,0.343,1.05,0.805,1.406,1.386c0.357,0.581,0.536,1.229,0.536,1.942v2.437
				c0,0.672-0.179,1.306-0.536,1.9c-0.356,0.595-0.826,1.074-1.406,1.438C806.341,256.753,805.701,256.935,805.001,256.935z
				 M805.001,255.969c0.532,0,1.008-0.14,1.428-0.42s0.76-0.644,1.019-1.092s0.389-0.917,0.389-1.407v-2.437
				c0-0.489-0.126-0.951-0.378-1.386c-0.252-0.434-0.592-0.791-1.019-1.071c-0.428-0.279-0.906-0.42-1.438-0.42
				s-1.008,0.141-1.428,0.42c-0.42,0.28-0.756,0.638-1.009,1.071c-0.252,0.435-0.378,0.896-0.378,1.386v2.437
				c0,0.49,0.126,0.959,0.378,1.407c0.253,0.448,0.592,0.812,1.019,1.092C804.01,255.829,804.482,255.969,805.001,255.969z"/>
			<path fill="#CBC1B6" d="M811.72,256.809c-0.141,0-0.256-0.042-0.347-0.126s-0.137-0.182-0.137-0.294v-11.865
				c0-0.686,0.172-1.315,0.515-1.89s0.798-1.036,1.365-1.386c0.566-0.351,1.187-0.525,1.858-0.525h0.357
				c0.153,0,0.272,0.049,0.356,0.146c0.084,0.099,0.126,0.218,0.126,0.357c0,0.126-0.042,0.234-0.126,0.325
				c-0.084,0.092-0.203,0.137-0.356,0.137h-0.273c-0.519,0-0.987,0.134-1.407,0.399s-0.753,0.608-0.997,1.028
				c-0.245,0.42-0.375,0.876-0.389,1.365v2.415h3.129c0.126,0,0.228,0.042,0.305,0.126c0.076,0.084,0.115,0.189,0.115,0.315
				s-0.039,0.234-0.115,0.325c-0.077,0.091-0.179,0.137-0.305,0.137h-3.129v8.589c0,0.112-0.053,0.21-0.157,0.294
				C812.004,256.767,811.874,256.809,811.72,256.809z"/>
			<path fill="#CBC1B6" d="M822.158,256.809c-0.141,0-0.26-0.045-0.357-0.137c-0.098-0.091-0.146-0.192-0.146-0.305v-9.051
				c0-0.126,0.049-0.228,0.146-0.305c0.098-0.076,0.217-0.115,0.357-0.115c0.153,0,0.276,0.039,0.367,0.115
				c0.091,0.077,0.137,0.179,0.137,0.305v1.05c0.238-0.405,0.591-0.773,1.061-1.103c0.469-0.328,1.053-0.493,1.753-0.493
				c0.687,0,1.313,0.172,1.88,0.515s1.021,0.805,1.365,1.386c0.343,0.581,0.515,1.229,0.515,1.942v5.754
				c0,0.141-0.053,0.249-0.158,0.326c-0.104,0.077-0.228,0.115-0.367,0.115c-0.112,0-0.224-0.038-0.336-0.115
				s-0.168-0.186-0.168-0.326v-5.754c0-0.489-0.13-0.951-0.389-1.386c-0.259-0.434-0.599-0.791-1.019-1.071
				c-0.42-0.279-0.889-0.42-1.407-0.42c-0.448,0-0.878,0.116-1.291,0.347c-0.413,0.231-0.753,0.561-1.019,0.987
				s-0.399,0.941-0.399,1.543v5.754c0,0.112-0.049,0.214-0.146,0.305C822.437,256.764,822.311,256.809,822.158,256.809z"/>
			<path fill="#CBC1B6" d="M834.106,256.935c-0.812,0-1.498-0.228-2.058-0.683c-0.561-0.455-0.84-1.151-0.84-2.09
				c0-0.741,0.206-1.315,0.619-1.722c0.413-0.405,0.987-0.689,1.722-0.851c0.735-0.16,1.586-0.241,2.552-0.241h1.134v-0.546
				c0-0.49-0.087-0.973-0.263-1.449c-0.175-0.476-0.455-0.868-0.84-1.176s-0.899-0.462-1.543-0.462
				c-0.448,0-0.816,0.045-1.103,0.137c-0.287,0.091-0.519,0.188-0.693,0.294c-0.175,0.104-0.312,0.157-0.409,0.157
				c-0.141,0-0.252-0.066-0.336-0.199s-0.126-0.256-0.126-0.368c0-0.168,0.137-0.325,0.409-0.473
				c0.273-0.146,0.619-0.266,1.04-0.356c0.42-0.091,0.84-0.137,1.26-0.137c0.91,0,1.627,0.192,2.152,0.577
				c0.525,0.386,0.903,0.883,1.134,1.491c0.231,0.609,0.347,1.264,0.347,1.964v5.564c0,0.112-0.046,0.214-0.137,0.305
				c-0.091,0.092-0.214,0.137-0.367,0.137c-0.141,0-0.26-0.045-0.357-0.137c-0.098-0.091-0.146-0.192-0.146-0.305v-1.028
				c-0.351,0.406-0.788,0.773-1.313,1.103C835.419,256.771,834.806,256.935,834.106,256.935z M834.254,256.011
				c0.489,0,0.962-0.122,1.417-0.367s0.83-0.547,1.124-0.903c0.294-0.357,0.44-0.689,0.44-0.998v-1.554h-1.028
				c-0.687,0-1.331,0.039-1.933,0.115c-0.602,0.077-1.092,0.252-1.47,0.525s-0.567,0.703-0.567,1.291
				c0,0.659,0.196,1.138,0.588,1.439C833.218,255.86,833.693,256.011,834.254,256.011z"/>
			<path fill="#CBC1B6" d="M844.06,256.809c-1.036,0-1.826-0.238-2.373-0.714c-0.546-0.476-0.818-1.231-0.818-2.269v-11.298
				c0-0.14,0.056-0.248,0.168-0.325c0.111-0.077,0.224-0.115,0.336-0.115c0.14,0,0.263,0.038,0.367,0.115
				c0.105,0.077,0.157,0.186,0.157,0.325v4.368h2.793c0.112,0,0.207,0.042,0.284,0.126c0.076,0.084,0.115,0.196,0.115,0.336
				c0,0.112-0.039,0.214-0.115,0.305c-0.077,0.091-0.172,0.137-0.284,0.137h-2.793v6.026c0,0.729,0.165,1.247,0.494,1.555
				c0.328,0.308,0.885,0.462,1.669,0.462h0.525c0.154,0,0.273,0.046,0.357,0.137s0.126,0.206,0.126,0.346
				c0,0.126-0.042,0.238-0.126,0.336c-0.084,0.099-0.203,0.147-0.357,0.147H844.06z"/>
			<path fill="#CBC1B6" d="M850.633,256.935c-0.7,0-1.344-0.179-1.932-0.535c-0.588-0.357-1.057-0.83-1.407-1.418
				c-0.35-0.588-0.524-1.218-0.524-1.89v-5.754c0-0.112,0.053-0.214,0.157-0.305c0.105-0.091,0.228-0.137,0.367-0.137
				s0.259,0.046,0.357,0.137c0.098,0.091,0.146,0.192,0.146,0.305v5.754c0,0.49,0.126,0.952,0.379,1.386
				c0.252,0.435,0.591,0.791,1.018,1.071c0.428,0.28,0.906,0.42,1.438,0.42s1.009-0.137,1.429-0.409
				c0.42-0.273,0.756-0.631,1.008-1.071c0.252-0.441,0.378-0.906,0.378-1.396v-5.775c0-0.111,0.053-0.21,0.157-0.294
				c0.105-0.084,0.228-0.126,0.368-0.126c0.153,0,0.276,0.042,0.367,0.126s0.137,0.183,0.137,0.294v5.775
				c0,0.686-0.176,1.323-0.525,1.911s-0.815,1.057-1.396,1.406C851.973,256.76,851.333,256.935,850.633,256.935z"/>
			<path fill="#CBC1B6" d="M857.626,256.809c-0.141,0-0.26-0.045-0.357-0.137c-0.098-0.091-0.146-0.192-0.146-0.305v-9.051
				c0-0.126,0.049-0.228,0.146-0.305c0.098-0.076,0.217-0.115,0.357-0.115c0.153,0,0.276,0.039,0.367,0.115
				c0.091,0.077,0.137,0.179,0.137,0.305v1.071c0.168-0.28,0.385-0.543,0.651-0.788c0.266-0.244,0.584-0.443,0.955-0.598
				s0.794-0.231,1.271-0.231h0.756c0.126,0,0.231,0.046,0.315,0.137s0.126,0.207,0.126,0.347s-0.042,0.255-0.126,0.346
				c-0.084,0.092-0.189,0.137-0.315,0.137h-0.756c-0.477,0-0.935,0.123-1.376,0.368c-0.44,0.245-0.798,0.595-1.07,1.05
				c-0.273,0.455-0.41,1.005-0.41,1.648v5.564c0,0.112-0.049,0.214-0.146,0.305C857.905,256.764,857.779,256.809,857.626,256.809z"
				/>
			<path fill="#CBC1B6" d="M867.306,256.935c-0.854,0-1.606-0.161-2.258-0.483c-0.65-0.321-1.165-0.773-1.543-1.354
				c-0.378-0.58-0.567-1.263-0.567-2.047v-2.499c0-0.686,0.179-1.316,0.536-1.891c0.356-0.573,0.825-1.032,1.406-1.375
				s1.222-0.515,1.922-0.515c0.686,0,1.315,0.165,1.89,0.493c0.574,0.329,1.04,0.777,1.396,1.345
				c0.357,0.566,0.536,1.222,0.536,1.963c0,0.519-0.088,0.893-0.263,1.124c-0.176,0.23-0.396,0.371-0.662,0.42
				c-0.266,0.049-0.553,0.073-0.86,0.073h-4.872v0.882c0,0.896,0.322,1.606,0.966,2.132s1.449,0.787,2.415,0.787
				c0.574,0,1.015-0.069,1.323-0.21c0.308-0.14,0.546-0.279,0.714-0.42c0.168-0.14,0.322-0.21,0.462-0.21
				c0.098,0,0.182,0.028,0.252,0.084c0.07,0.057,0.126,0.123,0.168,0.199c0.042,0.077,0.063,0.151,0.063,0.221
				c0,0.141-0.123,0.315-0.368,0.525s-0.592,0.389-1.039,0.535C868.475,256.861,867.936,256.935,867.306,256.935z M863.968,251.327
				h4.473c0.476,0,0.791-0.049,0.945-0.146s0.23-0.301,0.23-0.609c0-0.476-0.115-0.935-0.346-1.375
				c-0.231-0.441-0.561-0.802-0.987-1.082c-0.428-0.279-0.921-0.42-1.48-0.42c-0.532,0-1.012,0.126-1.438,0.378
				c-0.428,0.252-0.767,0.588-1.019,1.009c-0.252,0.42-0.378,0.882-0.378,1.386V251.327z"/>
			<path fill="#CBC1B6" d="M872.494,244.523c-0.099,0-0.192-0.031-0.284-0.095c-0.091-0.063-0.136-0.157-0.136-0.283
				c0-0.056,0.014-0.104,0.042-0.146l0.378-1.071c-0.168-0.056-0.309-0.161-0.42-0.315c-0.112-0.153-0.168-0.321-0.168-0.504
				c0-0.237,0.08-0.44,0.241-0.608s0.367-0.252,0.619-0.252c0.224,0,0.417,0.084,0.578,0.252c0.16,0.168,0.241,0.371,0.241,0.608
				c0,0.07-0.018,0.183-0.053,0.336c-0.035,0.154-0.087,0.329-0.157,0.525s-0.15,0.406-0.241,0.63
				c-0.092,0.224-0.193,0.455-0.305,0.693c-0.028,0.07-0.073,0.126-0.137,0.168C872.631,244.503,872.563,244.523,872.494,244.523z"
				/>
			<path fill="#CBC1B6" d="M877.911,256.935c-0.644,0-1.2-0.081-1.669-0.241c-0.47-0.161-0.837-0.35-1.103-0.567
				c-0.267-0.217-0.399-0.423-0.399-0.619c0-0.07,0.018-0.14,0.053-0.21s0.084-0.133,0.146-0.189
				c0.063-0.056,0.123-0.084,0.179-0.084c0.14,0,0.301,0.081,0.483,0.241c0.182,0.161,0.447,0.326,0.798,0.494
				c0.35,0.168,0.847,0.252,1.491,0.252c0.84,0,1.435-0.161,1.785-0.483c0.35-0.321,0.524-0.699,0.524-1.134
				c0-0.504-0.122-0.899-0.367-1.187s-0.57-0.507-0.977-0.661s-0.829-0.291-1.271-0.41c-0.441-0.118-0.864-0.269-1.271-0.451
				c-0.406-0.182-0.735-0.441-0.987-0.777s-0.378-0.79-0.378-1.364c0-0.42,0.112-0.848,0.336-1.281s0.57-0.791,1.04-1.071
				c0.469-0.279,1.081-0.42,1.837-0.42c0.448,0,0.875,0.046,1.281,0.137s0.742,0.21,1.008,0.356
				c0.266,0.147,0.399,0.298,0.399,0.452c0,0.056-0.021,0.129-0.063,0.221c-0.042,0.091-0.094,0.168-0.157,0.23
				c-0.063,0.063-0.144,0.095-0.241,0.095c-0.099,0-0.238-0.049-0.42-0.147c-0.183-0.098-0.42-0.192-0.714-0.283
				c-0.295-0.091-0.651-0.137-1.071-0.137c-0.546,0-0.984,0.099-1.313,0.294c-0.329,0.196-0.567,0.435-0.714,0.714
				c-0.147,0.28-0.221,0.554-0.221,0.819c0,0.42,0.126,0.749,0.378,0.987s0.577,0.424,0.977,0.557
				c0.398,0.133,0.822,0.262,1.271,0.388c0.448,0.127,0.871,0.295,1.271,0.505c0.398,0.21,0.725,0.5,0.977,0.871
				s0.378,0.879,0.378,1.522c0,0.784-0.287,1.41-0.861,1.88C879.752,256.7,878.947,256.935,877.911,256.935z"/>
			<path fill="#CBC1B6" d="M888.033,256.809c-0.141,0-0.256-0.042-0.347-0.126s-0.137-0.182-0.137-0.294v-11.781
				c0-0.812,0.207-1.508,0.62-2.089c0.412-0.581,0.948-1.025,1.606-1.334c0.657-0.308,1.344-0.462,2.058-0.462
				c0.392,0,0.791,0.053,1.197,0.157c0.405,0.105,0.787,0.267,1.145,0.483c0.356,0.217,0.668,0.486,0.935,0.809v14.195
				c0,0.112-0.05,0.214-0.147,0.305c-0.098,0.092-0.224,0.137-0.378,0.137c-0.14,0-0.259-0.045-0.356-0.137
				c-0.099-0.091-0.147-0.192-0.147-0.305v-13.901c-0.294-0.308-0.645-0.536-1.05-0.683c-0.406-0.147-0.813-0.221-1.218-0.221
				c-0.547,0-1.064,0.123-1.555,0.367c-0.49,0.245-0.893,0.592-1.207,1.04c-0.315,0.448-0.473,0.987-0.473,1.617v2.31h2.813
				c0.127,0,0.228,0.042,0.305,0.126s0.116,0.189,0.116,0.315s-0.039,0.234-0.116,0.325s-0.178,0.137-0.305,0.137h-2.813v8.589
				c0,0.112-0.053,0.21-0.157,0.294C888.316,256.767,888.186,256.809,888.033,256.809z"/>
			<path fill="#CBC1B6" d="M900.255,256.935c-0.812,0-1.498-0.228-2.058-0.683c-0.561-0.455-0.84-1.151-0.84-2.09
				c0-0.741,0.206-1.315,0.619-1.722c0.413-0.405,0.987-0.689,1.722-0.851c0.735-0.16,1.586-0.241,2.552-0.241h1.134v-0.546
				c0-0.49-0.087-0.973-0.263-1.449c-0.175-0.476-0.455-0.868-0.84-1.176s-0.899-0.462-1.543-0.462
				c-0.448,0-0.816,0.045-1.103,0.137c-0.287,0.091-0.519,0.188-0.693,0.294c-0.175,0.104-0.312,0.157-0.409,0.157
				c-0.141,0-0.252-0.066-0.336-0.199s-0.126-0.256-0.126-0.368c0-0.168,0.137-0.325,0.409-0.473
				c0.273-0.146,0.619-0.266,1.04-0.356c0.42-0.091,0.84-0.137,1.26-0.137c0.91,0,1.627,0.192,2.152,0.577
				c0.525,0.386,0.903,0.883,1.134,1.491c0.231,0.609,0.347,1.264,0.347,1.964v5.564c0,0.112-0.046,0.214-0.137,0.305
				c-0.091,0.092-0.214,0.137-0.367,0.137c-0.141,0-0.26-0.045-0.357-0.137c-0.098-0.091-0.146-0.192-0.146-0.305v-1.028
				c-0.351,0.406-0.788,0.773-1.313,1.103C901.567,256.771,900.955,256.935,900.255,256.935z M900.402,256.011
				c0.489,0,0.962-0.122,1.417-0.367s0.83-0.547,1.124-0.903c0.294-0.357,0.44-0.689,0.44-0.998v-1.554h-1.028
				c-0.687,0-1.331,0.039-1.933,0.115c-0.602,0.077-1.092,0.252-1.47,0.525s-0.567,0.703-0.567,1.291
				c0,0.659,0.196,1.138,0.588,1.439C899.366,255.86,899.842,256.011,900.402,256.011z"/>
			<path fill="#CBC1B6" d="M909.831,256.956c-0.126,0-0.23-0.025-0.314-0.074s-0.147-0.122-0.189-0.221l-3.317-8.987
				c-0.015-0.028-0.032-0.077-0.053-0.147c-0.021-0.069-0.031-0.126-0.031-0.168c0-0.084,0.031-0.164,0.094-0.241
				c0.063-0.077,0.137-0.137,0.221-0.179s0.175-0.063,0.273-0.063c0.084,0,0.168,0.021,0.252,0.063s0.14,0.105,0.168,0.189
				l2.897,7.938l2.856-7.812c0.027-0.098,0.069-0.186,0.126-0.263c0.056-0.077,0.153-0.115,0.294-0.115
				c0.084,0,0.171,0.018,0.263,0.052c0.091,0.035,0.171,0.092,0.241,0.168c0.07,0.077,0.105,0.158,0.105,0.242
				c0,0.07-0.011,0.133-0.032,0.188c-0.021,0.057-0.038,0.105-0.052,0.147l-3.318,8.987c-0.042,0.084-0.105,0.154-0.189,0.211
				C910.041,256.928,909.943,256.956,909.831,256.956z"/>
			<path fill="#CBC1B6" d="M918.903,256.935c-0.672,0-1.302-0.182-1.89-0.546c-0.589-0.364-1.061-0.84-1.418-1.428
				s-0.535-1.226-0.535-1.911v-2.437c0-0.686,0.175-1.322,0.524-1.911c0.35-0.588,0.819-1.057,1.407-1.406s1.225-0.525,1.911-0.525
				c0.7,0,1.34,0.172,1.922,0.515c0.58,0.343,1.05,0.805,1.406,1.386c0.357,0.581,0.536,1.229,0.536,1.942v2.437
				c0,0.672-0.179,1.306-0.536,1.9c-0.356,0.595-0.826,1.074-1.406,1.438C920.243,256.753,919.603,256.935,918.903,256.935z
				 M918.903,255.969c0.532,0,1.008-0.14,1.428-0.42s0.76-0.644,1.019-1.092s0.389-0.917,0.389-1.407v-2.437
				c0-0.489-0.126-0.951-0.378-1.386c-0.252-0.434-0.592-0.791-1.019-1.071c-0.428-0.279-0.906-0.42-1.438-0.42
				s-1.008,0.141-1.428,0.42c-0.42,0.28-0.756,0.638-1.009,1.071c-0.252,0.435-0.378,0.896-0.378,1.386v2.437
				c0,0.49,0.126,0.959,0.378,1.407c0.253,0.448,0.592,0.812,1.019,1.092C917.913,255.829,918.385,255.969,918.903,255.969z"/>
			<path fill="#CBC1B6" d="M928.898,256.935c-0.7,0-1.344-0.179-1.932-0.535c-0.588-0.357-1.057-0.83-1.407-1.418
				c-0.35-0.588-0.524-1.218-0.524-1.89v-5.754c0-0.112,0.053-0.214,0.157-0.305c0.105-0.091,0.228-0.137,0.367-0.137
				s0.259,0.046,0.357,0.137c0.098,0.091,0.146,0.192,0.146,0.305v5.754c0,0.49,0.126,0.952,0.379,1.386
				c0.252,0.435,0.591,0.791,1.018,1.071c0.428,0.28,0.906,0.42,1.438,0.42s1.009-0.137,1.429-0.409
				c0.42-0.273,0.756-0.631,1.008-1.071c0.252-0.441,0.378-0.906,0.378-1.396v-5.775c0-0.111,0.053-0.21,0.157-0.294
				c0.105-0.084,0.228-0.126,0.368-0.126c0.153,0,0.276,0.042,0.367,0.126s0.137,0.183,0.137,0.294v5.775
				c0,0.686-0.176,1.323-0.525,1.911s-0.815,1.057-1.396,1.406C930.239,256.76,929.598,256.935,928.898,256.935z"/>
			<path fill="#CBC1B6" d="M935.891,256.809c-0.141,0-0.26-0.045-0.357-0.137c-0.098-0.091-0.146-0.192-0.146-0.305v-9.051
				c0-0.126,0.049-0.228,0.146-0.305c0.098-0.076,0.217-0.115,0.357-0.115c0.153,0,0.276,0.039,0.367,0.115
				c0.091,0.077,0.137,0.179,0.137,0.305v1.071c0.168-0.28,0.385-0.543,0.651-0.788c0.266-0.244,0.584-0.443,0.955-0.598
				s0.794-0.231,1.271-0.231h0.756c0.126,0,0.231,0.046,0.315,0.137s0.126,0.207,0.126,0.347s-0.042,0.255-0.126,0.346
				c-0.084,0.092-0.189,0.137-0.315,0.137h-0.756c-0.477,0-0.935,0.123-1.376,0.368c-0.44,0.245-0.798,0.595-1.07,1.05
				c-0.273,0.455-0.41,1.005-0.41,1.648v5.564c0,0.112-0.049,0.214-0.146,0.305C936.171,256.764,936.045,256.809,935.891,256.809z"
				/>
			<path fill="#CBC1B6" d="M944.522,256.935c-0.644,0-1.2-0.081-1.669-0.241c-0.47-0.161-0.837-0.35-1.103-0.567
				c-0.267-0.217-0.399-0.423-0.399-0.619c0-0.07,0.018-0.14,0.053-0.21s0.084-0.133,0.146-0.189
				c0.063-0.056,0.123-0.084,0.179-0.084c0.14,0,0.301,0.081,0.483,0.241c0.182,0.161,0.447,0.326,0.798,0.494
				c0.35,0.168,0.847,0.252,1.491,0.252c0.84,0,1.435-0.161,1.785-0.483c0.35-0.321,0.524-0.699,0.524-1.134
				c0-0.504-0.122-0.899-0.367-1.187s-0.57-0.507-0.977-0.661s-0.829-0.291-1.271-0.41c-0.441-0.118-0.864-0.269-1.271-0.451
				c-0.406-0.182-0.735-0.441-0.987-0.777s-0.378-0.79-0.378-1.364c0-0.42,0.112-0.848,0.336-1.281s0.57-0.791,1.04-1.071
				c0.469-0.279,1.081-0.42,1.837-0.42c0.448,0,0.875,0.046,1.281,0.137s0.742,0.21,1.008,0.356
				c0.266,0.147,0.399,0.298,0.399,0.452c0,0.056-0.021,0.129-0.063,0.221c-0.042,0.091-0.094,0.168-0.157,0.23
				c-0.063,0.063-0.144,0.095-0.241,0.095c-0.099,0-0.238-0.049-0.42-0.147c-0.183-0.098-0.42-0.192-0.714-0.283
				c-0.295-0.091-0.651-0.137-1.071-0.137c-0.546,0-0.984,0.099-1.313,0.294c-0.329,0.196-0.567,0.435-0.714,0.714
				c-0.147,0.28-0.221,0.554-0.221,0.819c0,0.42,0.126,0.749,0.378,0.987s0.577,0.424,0.977,0.557
				c0.398,0.133,0.822,0.262,1.271,0.388c0.448,0.127,0.871,0.295,1.271,0.505c0.398,0.21,0.725,0.5,0.977,0.871
				s0.378,0.879,0.378,1.522c0,0.784-0.287,1.41-0.861,1.88C946.363,256.7,945.558,256.935,944.522,256.935z"/>
		</g>
	</g>
</g>
<g id="about_us">
	<g>
		<rect x="574.668" y="91.736" fill="none" width="549.245" height="172.984"/>
		<path fill="#2E2E2E" stroke="#2D2E2E" stroke-miterlimit="10" d="M710.102,50.378h2.229l1.672,1.671
			c-6.314,18.475-11.328,36.021-15.04,52.639c-4.087,19.404-8.355,42.799-12.812,70.184c-3.063,14.855-7.15,22.281-12.254,22.281
			h-2.229c-9.191,0-15.506-28.408-18.939-85.224c-1.485-7.705-2.6-16.989-3.342-27.851h1.114c4.826,8.449,7.241,17.176,7.241,26.18
			c4.734,54.218,9.748,81.325,15.039,81.325c4.085,0,9.654-23.58,16.711-70.741c3.342-16.802,7.611-34.163,12.813-52.082
			C706.389,56.971,708.989,50.843,710.102,50.378z"/>
		<path fill="#2E2E2E" stroke="#2D2E2E" stroke-miterlimit="10" d="M704.255,141.59h0.557l2.229,2.229v0.557l-2.229,23.395
			l1.114,12.255l-1.671,0.557c-3.342-1.114-5.014-4.269-5.014-9.47v-5.013C700.355,149.76,702.026,141.59,704.255,141.59z
			 M706.76,119.727h1.115c2.228,0,4.268,1.671,6.127,5.013v2.785c0,2.043-1.302,3.899-3.899,5.57h-1.671
			c-3.715-0.557-5.57-2.228-5.57-5.013v-2.228C702.862,123.626,704.161,121.585,706.76,119.727z"/>
		<path fill="#2E2E2E" stroke="#2D2E2E" stroke-miterlimit="10" d="M718.737,132.26h1.671c1.114,0.372,1.671,1.486,1.671,3.342
			v2.785l-2.229,26.737v0.558h0.558c3.62-15.225,6.776-22.838,9.47-22.838h0.557c4.456,0,6.685,7.24,6.685,21.723
			c3.063,15.969,6.591,23.952,10.583,23.952c1.114,0,3.155-1.299,6.127-3.899v0.558c-2.693,4.456-5.479,6.685-8.355,6.685h-1.113
			c-7.057,0-11.697-12.996-13.926-38.992h-0.557c-5.014,19.404-8.355,30.545-10.027,33.422l-1.67,1.113h-1.672
			c-2.228-1.02-3.342-3.434-3.342-7.24C715.116,148.229,716.972,132.26,718.737,132.26z"/>
		<path fill="#2E2E2E" stroke="#2D2E2E" stroke-miterlimit="10" d="M824.989,91.736h0.557l1.671,1.671l-5.57,49.018l-0.558,18.381
			v3.899c6.776-5.198,10.166-9.47,10.166-12.812h0.557v0.557c0,4.271-3.389,10.771-10.165,19.496l4.038,13.787l-0.557,0.557h-0.557
			c-5.57-4.084-8.217-7.566-7.938-10.444h-0.558c-3.993,1.485-7.149,2.228-9.47,2.228h-0.557c-5.2,0-8.17-3.154-8.912-9.469v-1.114
			c0-8.355,4.084-13.738,12.254-16.153h3.343l2.785,0.557C818.489,111.789,821.646,91.736,824.989,91.736z M802.708,168.049
			c0.463,2.972,1.762,4.455,3.898,4.455c2.877,0,5.85-1.299,8.913-3.898v-3.899l-0.558-2.228l0.558-0.558l-0.558-2.785v-0.557
			l0.558-0.558l-0.558-2.228h-1.67C807.628,155.794,804.1,159.881,802.708,168.049z"/>
		<path fill="#2E2E2E" stroke="#2D2E2E" stroke-miterlimit="10" d="M836.13,101.066c3.526,0,5.754,2.785,6.684,8.355v5.013
			c-1.58,10.026-4.922,15.04-10.026,15.04l-0.558-0.557h-0.557c3.713-8.262,5.57-13.275,5.57-15.04v-3.342
			c0-1.484-1.301-3.527-3.898-6.127v-1.671C833.344,102.089,834.27,101.532,836.13,101.066z"/>
		<path fill="#2E2E2E" stroke="#2D2E2E" stroke-miterlimit="10" d="M958.952,71.684h2.228c13.369,1.392,25.993,7.892,37.878,19.496
			c10.768,12.441,16.153,26.18,16.153,41.219c0,21.539-9.842,40.105-29.522,55.703c-10.677,7.428-21.817,11.14-33.421,11.14
			c-21.26,0-37.229-8.726-47.903-26.18c-2.601-6.869-3.899-14.482-3.899-22.838c0-10.675,5.013-22.929,15.039-36.763
			c12.067-12.254,23.208-18.382,33.422-18.382c12.718,0,21.445,6.5,26.18,19.496v1.114c-5.664-10.769-12.72-16.154-21.167-16.154
			c-15.039,0-28.595,9.1-40.662,27.294c-4.456,9.378-6.685,16.99-6.685,22.837v3.9c0,17.545,8.355,29.43,25.066,35.648
			c5.661,2.601,11.976,3.899,18.938,3.899h2.228c17.453,0,32.492-8.54,45.119-25.623c7.426-11.325,11.141-22.094,11.141-32.307
			v-4.456c0-18.195-8.728-33.234-26.181-45.119c-11.14-6.684-21.91-10.396-32.307-11.141h-11.141c-3.899,0-9.841,1.301-17.824,3.899
			h-0.558C925.994,73.912,938.621,71.684,958.952,71.684z"/>
		<path fill="#2E2E2E" stroke="#2D2E2E" stroke-miterlimit="10" d="M1024.401,144.514h1.114l1.114,1.115v1.113
			c-3.714,11.697-5.57,19.311-5.57,22.838v5.57l1.114,1.113c6.591-5.848,12.718-13.646,18.382-23.395l2.228-0.557h0.558l2.228,2.785
			l-1.671,11.697c0,2.229,1.299,4.271,3.899,6.127h7.241l13.368-1.113v1.113l-16.711,5.57h-3.342c-5.57,0-8.912-3.712-10.026-11.141
			c-7.335,9.656-12.72,14.482-16.153,14.482h-2.785c-2.973-1.949-4.456-5.104-4.456-9.469c0-6.684,2.041-15.039,6.127-25.066
			L1024.401,144.514z M1025.515,121.815h0.558c1.393,0,4.734,2.416,10.026,7.242c4.734,1.949,9.375,3.25,13.925,3.899l0.558-0.557
			l0.557,0.557v0.557c-2.601,2.228-5.2,3.342-7.798,3.342h-1.114c-3.715,0-8.728-2.413-15.04-7.241l-3.342-5.013
			C1024.308,122.745,1024.865,121.815,1025.515,121.815z"/>
	</g>
</g>
<g id="_x29_">
	<g>
		<path fill="#231F20" d="M1097.212,202.482c0-0.004,0.004-0.008,0.004-0.008c0.016-0.375,0.033-0.729,0.033-1.016
			c0-0.031,0-0.064,0-0.1c-0.004-0.268-0.004-0.535,0.004-0.795c0.02-0.861,0.107-1.652,0.494-2.164l-0.531,4.076L1097.212,202.482"
			/>
		<g>
			<polyline fill="#231F20" points="1075.923,253.805 1076.737,252.854 1076.825,252.879 1075.971,253.789 1075.923,253.805 			"/>
			<path fill="#231F20" d="M1091.356,226.055l0.289-1.203c0.275-0.045,0.549,0.063,0.844-0.473l0.021-1.24
				c1.125-1.533,1.324-3.438,1.475-5.324l-0.639,0.701c-0.107,0.602-0.082,0.918,0.037,0.918c0.068,0,0.17-0.107,0.297-0.326
				c-0.98,1.92-1.553,3.787-2.035,5.744l-0.094,0.021c0.639-3.543,1.031-7.391,1.109-10.742c0.357-0.301,0.727-0.367,1.092-0.424
				l0,0c-0.365,0.057-0.734,0.123-1.092,0.424l0.023-1.383c0.096-0.713,0.248-1.365,0.412-2.025c0.314-1.033,0.635-2.1,0.941-3.291
				c0.482-1.566-0.459-3.648-0.402-6.164c-0.064-0.404,0.859-0.215,0.73-1.023c-0.078-1.873-0.365-3.479-0.238-5.195
				c-0.152-0.803,0.971-1.977,0.807-2.783c-0.107-1.469-0.779-4.725-1.1-4.725c-0.09,0-0.148,0.248-0.162,0.854
				c-0.057,4.186,0.006,6.938-0.168,10.68c-0.094-3.371-0.18-6.877-0.008-10.945c0.119-2.59,0.684-5.99,0.568-9.201
				c-0.402-4.396-1.285-8.982-1.293-14.268c0.289-19.895-1.191-37.285-1.252-55.928c-0.178-3.591-0.615-6.753-0.68-9.761
				c-0.125-6.02-1.422-12.381-2.592-18.414c-1.154-6.047-2.18-11.767-1.594-16.904c0.357-3.541-0.604-8.278-1.619-11.166
				c-0.561-1.605-1.1-2.648-1.373-2.648c-0.168,0-0.24,0.374-0.172,1.225c-0.615-4.717-1.732-7.892-2.523-10.542
				c-0.861-2.847-1.367-5.101-0.811-8.17c0.025-0.227,0.527-1.752,1.619-2.332c0.252-0.131,0.539-0.215,0.861-0.215
				c1.063,0,2.506,0.887,4.33,3.771c1.27,3.004,3.094,7.427,4.607,11.987c1.529,4.556,2.758,9.235,3.201,12.604
				c1.064,8.79,2.371,16.947,3.479,25.121c1.096,8.162,1.982,16.324,2.033,24.886c0.051,8.583-0.031,17.289-0.137,26.332
				l-0.242,23.997c-0.133,7.779-0.17,15.484-0.656,23.531c-0.137,2.498-0.305,4.941-0.506,7.359l0,0l-0.324,3.693
				c-0.035,0.09-0.072,0.197-0.109,0.324l0.094-0.164l-0.086,0.877c-0.504,0.693-0.463,1.875-0.434,3.066
				c0.004,0.293-0.004,0.648-0.012,1.029c-0.189,1.621-0.396,3.236-0.625,4.863l-0.045-0.355l0.006-0.246l0.529-4.076
				c-0.387,0.512-0.475,1.303-0.494,2.164c-0.021,0.32-0.031,0.631-0.035,0.939c-0.102,0.432-0.234,0.795-0.391,1.117
				c0.084-0.115,0.166-0.199,0.232-0.199s0.119,0.076,0.152,0.277v0.021l-0.012,0.762l-0.313,2.123
				c-0.117,0.373-0.271,0.744-0.482,1.1c-0.174,0.49-0.006,0.779,0.123,1.178c-0.791,4.857-1.771,9.797-3.127,14.973
				C1093.405,222.859,1092.077,225.373,1091.356,226.055 M1096.825,202.623c-0.16,0.227-0.326,0.578-0.424,0.705
				C1096.55,203.127,1096.696,202.887,1096.825,202.623 M1097.45,186.932c0,0.504,0.381,1.076,0.381,1.637
				C1097.831,188.008,1097.45,187.436,1097.45,186.932 M1098.831,186.1l-0.502,0.813l0,0L1098.831,186.1L1098.831,186.1
				 M1098.411,184.707L1098.411,184.707c0.506-1.1,0.924-2.367,0.559-3.889C1098.489,182.025,1098.28,183.533,1098.411,184.707
				L1098.411,184.707 M1093.68,219.105c0.041-0.078,0.078-0.152,0.119-0.23C1093.759,218.961,1093.718,219.039,1093.68,219.105
				 M1097.216,202.475v-0.969c0.012-0.049,0.021-0.098,0.031-0.146c0,0.035,0,0.068,0,0.102
				C1097.249,201.746,1097.229,202.1,1097.216,202.475 M1083.618,52.087c-0.057-0.398-0.098-0.74-0.123-1.027
				C1083.54,51.396,1083.581,51.735,1083.618,52.087"/>
		</g>
		<path fill="#231F20" d="M1084.089,240.723c0.469-0.672,0.922-1.348,1.287-2.139c1.152-2.9,1.891-5.746,2.598-8.684
			c1.109-3.531,1.654-6.18,2.527-10.211c0.127-0.564,0.23-0.799,0.316-0.799c0.322,0,0.367,3.338,0.137,4.813
			c-0.016,0.816-1.371,1.693-1.402,2.496c-0.521,1.625-0.641,3.236-1.057,5.045c-0.088,0.811-0.932,0.371-0.979,0.773
			c-0.725,2.363-0.473,4.623-1.436,5.949C1085.395,238.984,1084.755,239.879,1084.089,240.723"/>
		<path fill="#231F20" d="M1077.319,253.043c-0.197,0-0.326-0.104-0.494-0.164c1.395-1.475,2.768-2.873,4.48-4.191
			c-0.16,0.107-0.275,0.158-0.348,0.158c-0.166,0-0.064-0.307,0.328-0.854l0.885-0.379c-0.938,1.664-2.004,3.324-3.744,4.164
			c0.004,0.002-0.408,0.734-0.623,1.09C1077.598,252.998,1077.446,253.043,1077.319,253.043"/>
		<path fill="#231F20" d="M1090.538,234.416l0.004-0.016c0.037-0.236-0.004-0.322-0.084-0.322c-0.066,0-0.16,0.057-0.26,0.133
			c0.244-0.264,0.479-0.59,0.693-0.979L1090.538,234.416"/>
		<polyline fill="#231F20" points="1090.305,235.16 1090.538,234.416 1090.479,234.781 1090.305,235.16 		"/>
		<path fill="#231F20" d="M1090.891,233.23c0.195-0.639,0.408-1.291,0.717-1.945C1091.427,232.076,1091.18,232.715,1090.891,233.23"
			/>
		<path fill="#231F20" d="M1089.593,234.773c0.006-0.008,0.014-0.012,0.021-0.021
			C1089.606,234.762,1089.598,234.766,1089.593,234.773 M1089.614,234.752c0.131-0.102,0.379-0.381,0.584-0.541
			C1090.005,234.424,1089.807,234.605,1089.614,234.752"/>
		<path fill="#231F20" d="M1088.288,239.207c0.014-0.428-0.063-0.762,0.266-1.17c0.326-0.281,0.582-0.594,0.813-0.92
			C1089.02,237.822,1088.649,238.516,1088.288,239.207"/>
	</g>
	<g>
		<path fill="#2E2E2E" stroke="#2D2E2E" stroke-miterlimit="10" d="M1097.212,202.482c0-0.004,0.004-0.008,0.004-0.008
			c0.016-0.375,0.033-0.729,0.033-1.016c0-0.031,0-0.064,0-0.1c-0.004-0.268-0.004-0.535,0.004-0.795
			c0.02-0.861,0.107-1.652,0.494-2.164l-0.531,4.076L1097.212,202.482"/>
		<g>
			<polyline fill="#2E2E2E" stroke="#2D2E2E" stroke-miterlimit="10" points="1075.923,253.805 1076.737,252.854 1076.825,252.879 
				1075.971,253.789 1075.923,253.805 			"/>
			<path fill="#2E2E2E" stroke="#2D2E2E" stroke-miterlimit="10" d="M1091.356,226.055l0.289-1.203
				c0.275-0.045,0.549,0.063,0.844-0.473l0.021-1.24c1.125-1.533,1.324-3.438,1.475-5.324l-0.639,0.701
				c-0.107,0.602-0.082,0.918,0.037,0.918c0.068,0,0.17-0.107,0.297-0.326c-0.98,1.92-1.553,3.787-2.035,5.744l-0.094,0.021
				c0.639-3.543,1.031-7.391,1.109-10.742c0.357-0.301,0.727-0.367,1.092-0.424l0,0c-0.365,0.057-0.734,0.123-1.092,0.424
				l0.023-1.383c0.096-0.713,0.248-1.365,0.412-2.025c0.314-1.033,0.635-2.1,0.941-3.291c0.482-1.566-0.459-3.648-0.402-6.164
				c-0.064-0.404,0.859-0.215,0.73-1.023c-0.078-1.873-0.365-3.479-0.238-5.195c-0.152-0.803,0.971-1.977,0.807-2.783
				c-0.107-1.469-0.779-4.725-1.1-4.725c-0.09,0-0.148,0.248-0.162,0.854c-0.057,4.186,0.006,6.938-0.168,10.68
				c-0.094-3.371-0.18-6.877-0.008-10.945c0.119-2.59,0.684-5.99,0.568-9.201c-0.402-4.396-1.285-8.982-1.293-14.268
				c0.289-19.895-1.191-37.285-1.252-55.928c-0.178-3.591-0.615-6.753-0.68-9.761c-0.125-6.02-1.422-12.381-2.592-18.414
				c-1.154-6.047-2.18-11.767-1.594-16.904c0.357-3.541-0.604-8.278-1.619-11.166c-0.561-1.605-1.1-2.648-1.373-2.648
				c-0.168,0-0.24,0.374-0.172,1.225c-0.615-4.717-1.732-7.892-2.523-10.542c-0.861-2.847-1.367-5.101-0.811-8.17
				c0.025-0.227,0.527-1.752,1.619-2.332c0.252-0.131,0.539-0.215,0.861-0.215c1.063,0,2.506,0.887,4.33,3.771
				c1.27,3.004,3.094,7.427,4.607,11.987c1.529,4.556,2.758,9.235,3.201,12.604c1.064,8.79,2.371,16.947,3.479,25.121
				c1.096,8.162,1.982,16.324,2.033,24.886c0.051,8.583-0.031,17.289-0.137,26.332l-0.242,23.997
				c-0.133,7.779-0.17,15.484-0.656,23.531c-0.137,2.498-0.305,4.941-0.506,7.359l0,0l-0.324,3.693
				c-0.035,0.09-0.072,0.197-0.109,0.324l0.094-0.164l-0.086,0.877c-0.504,0.693-0.463,1.875-0.434,3.066
				c0.004,0.293-0.004,0.648-0.012,1.029c-0.189,1.621-0.396,3.236-0.625,4.863l-0.045-0.355l0.006-0.246l0.529-4.076
				c-0.387,0.512-0.475,1.303-0.494,2.164c-0.021,0.32-0.031,0.631-0.035,0.939c-0.102,0.432-0.234,0.795-0.391,1.117
				c0.084-0.115,0.166-0.199,0.232-0.199s0.119,0.076,0.152,0.277v0.021l-0.012,0.762l-0.313,2.123
				c-0.117,0.373-0.271,0.744-0.482,1.1c-0.174,0.49-0.006,0.779,0.123,1.178c-0.791,4.857-1.771,9.797-3.127,14.973
				C1093.405,222.859,1092.077,225.373,1091.356,226.055 M1096.825,202.623c-0.16,0.227-0.326,0.578-0.424,0.705
				C1096.55,203.127,1096.696,202.887,1096.825,202.623 M1097.45,186.932c0,0.504,0.381,1.076,0.381,1.637
				C1097.831,188.008,1097.45,187.436,1097.45,186.932 M1098.831,186.1l-0.502,0.813l0,0L1098.831,186.1L1098.831,186.1
				 M1098.411,184.707L1098.411,184.707c0.506-1.1,0.924-2.367,0.559-3.889C1098.489,182.025,1098.28,183.533,1098.411,184.707
				L1098.411,184.707 M1093.68,219.105c0.041-0.078,0.078-0.152,0.119-0.23C1093.759,218.961,1093.718,219.039,1093.68,219.105
				 M1097.216,202.475v-0.969c0.012-0.049,0.021-0.098,0.031-0.146c0,0.035,0,0.068,0,0.102
				C1097.249,201.746,1097.229,202.1,1097.216,202.475 M1083.618,52.087c-0.057-0.398-0.098-0.74-0.123-1.027
				C1083.54,51.396,1083.581,51.735,1083.618,52.087"/>
		</g>
		<path fill="#2E2E2E" stroke="#2D2E2E" stroke-miterlimit="10" d="M1084.089,240.723c0.469-0.672,0.922-1.348,1.287-2.139
			c1.152-2.9,1.891-5.746,2.598-8.684c1.109-3.531,1.654-6.18,2.527-10.211c0.127-0.564,0.23-0.799,0.316-0.799
			c0.322,0,0.367,3.338,0.137,4.813c-0.016,0.816-1.371,1.693-1.402,2.496c-0.521,1.625-0.641,3.236-1.057,5.045
			c-0.088,0.811-0.932,0.371-0.979,0.773c-0.725,2.363-0.473,4.623-1.436,5.949C1085.395,238.984,1084.755,239.879,1084.089,240.723
			"/>
		<path fill="#2E2E2E" stroke="#2D2E2E" stroke-miterlimit="10" d="M1077.319,253.043c-0.197,0-0.326-0.104-0.494-0.164
			c1.395-1.475,2.768-2.873,4.48-4.191c-0.16,0.107-0.275,0.158-0.348,0.158c-0.166,0-0.064-0.307,0.328-0.854l0.885-0.379
			c-0.938,1.664-2.004,3.324-3.744,4.164c0.004,0.002-0.408,0.734-0.623,1.09C1077.598,252.998,1077.446,253.043,1077.319,253.043"
			/>
		<path fill="#2E2E2E" stroke="#2D2E2E" stroke-miterlimit="10" d="M1090.538,234.416l0.004-0.016
			c0.037-0.236-0.004-0.322-0.084-0.322c-0.066,0-0.16,0.057-0.26,0.133c0.244-0.264,0.479-0.59,0.693-0.979L1090.538,234.416"/>
		<polyline fill="#2E2E2E" stroke="#2D2E2E" stroke-miterlimit="10" points="1090.305,235.16 1090.538,234.416 1090.479,234.781 
			1090.305,235.16 		"/>
		<path fill="#2E2E2E" stroke="#2D2E2E" stroke-miterlimit="10" d="M1090.891,233.23c0.195-0.639,0.408-1.291,0.717-1.945
			C1091.427,232.076,1091.18,232.715,1090.891,233.23"/>
		<path fill="#2E2E2E" stroke="#2D2E2E" stroke-miterlimit="10" d="M1089.593,234.773c0.006-0.008,0.014-0.012,0.021-0.021
			C1089.606,234.762,1089.598,234.766,1089.593,234.773 M1089.614,234.752c0.131-0.102,0.379-0.381,0.584-0.541
			C1090.005,234.424,1089.807,234.605,1089.614,234.752"/>
		<path fill="#2E2E2E" stroke="#2D2E2E" stroke-miterlimit="10" d="M1088.288,239.207c0.014-0.428-0.063-0.762,0.266-1.17
			c0.326-0.281,0.582-0.594,0.813-0.92C1089.02,237.822,1088.649,238.516,1088.288,239.207"/>
	</g>
</g>
<g id="_x28_">
	<path fill="#2E2E2E" stroke="#2D2E2E" stroke-miterlimit="10" d="M613.726,233.014c-0.145-0.76-0.279-1.514-0.531-2.287
		c-1.084-2.73-2.18-5.285-3.193-7.984c-0.953-3.391-1.736-5.838-2.617-9.666c-0.123-0.578-0.111-0.816-0.014-0.816
		c0.33,0,1.668,2.748,2.145,4.008c0.352,0.676-0.428,2.021-0.068,2.699c0.344,1.58,1.078,2.93,1.729,4.545
		c0.373,0.664-0.559,0.799-0.371,1.137c0.758,2.238,2.375,3.689,2.506,5.199L613.726,233.014"/>
	<path fill="#2E2E2E" stroke="#2D2E2E" stroke-miterlimit="10" d="M619.265,244.992c-0.693-1.715-1.191-3.457-1.279-5.418
		c-0.002,0.264-0.051,0.395-0.131,0.395c-0.105,0-0.266-0.238-0.441-0.707l0.219-0.865c0.76,1.553,1.535,3.086,1.412,4.84
		l0.652,0.932C619.748,244.721,619.465,244.795,619.265,244.992"/>
	<path fill="#2E2E2E" stroke="#2D2E2E" stroke-miterlimit="10" d="M610.959,217.992c-0.107-0.363-0.215-0.73-0.307-1.096
		c0.223-0.164,0.516-0.201,0.533-0.758l-0.529-1.014c0.342-1.727-0.238-3.354-0.809-4.994l-0.324,0.828
		c0.125,0.504,0.26,0.762,0.365,0.762c0.074,0,0.135-0.131,0.17-0.387c-0.15,1.973,0.125,3.766,0.594,5.563l-0.074,0.059
		c-1.07-3.146-2.217-6.549-3.279-9.508c0.227-0.383,0.551-0.564,0.881-0.736c0.023,0.283,0.025,0.617,0.025,0.961
		c0-0.344-0.002-0.678-0.025-0.961c-0.33,0.172-0.654,0.354-0.881,0.736l-0.448-1.219c-0.145-0.658-0.207-1.285-0.254-1.92
		l-0.064-3.193c0.033-1.52-1.418-3.139-1.939-5.447c-0.15-0.354,0.789-0.391,0.488-1.096c-0.484-1.674-1.08-3.09-1.266-4.686
		c-0.295-0.709,0.609-1.98,0.324-2.689c-0.355-1.303-1.447-4.18-1.771-4.18c-0.092,0-0.123,0.232-0.053,0.813
		c0.529,3.881,1.068,6.404,1.676,9.865c-0.805-3.063-1.502-6.293-1.885-10.088c-0.238-2.418-0.061-5.629-0.451-8.586
		c-0.787-4.025-1.926-8.225-2.176-13.07c-0.588-18.262-2.055-34.39-0.543-51.657c0.129-3.331,0.029-6.294,0.324-9.072
		c1.174-11.113-1.305-24.023,2.498-32.914c1.988-4.861,1.873-13.022,1.111-13.022c-0.154,0-0.336,0.336-0.533,1.106
		c1.896-8.992,0.219-12.625,3.564-17.212c0.117-0.183,1.263-1.359,2.554-1.359c1.193,0,2.512,1.008,3.25,4.749
		c0.08,5.809,0.33,16.971-0.654,22.943c-2.744,15.551-1.961,29.622-3.33,44.985c-0.687,7.705-1.171,15.567-1.399,23.755
		c-0.35,15.118,0.193,28.538,0.791,43.092l0.37,6.666l0,0l0.23,3.354c-0.02,0.086-0.041,0.186-0.057,0.309l0.068-0.164l0.061,0.791
		c-0.381,0.711-0.133,1.762,0.119,2.809c0.063,0.26,0.123,0.578,0.189,0.916c0.133,1.475,0.277,2.945,0.438,4.424l-0.127-0.305
		l0.166,0.672l0.223,1.934c-0.02,0.357-0.07,0.719-0.18,1.086c-0.041,0.475,0.203,0.68,0.434,0.99
		c0.574,4.426,1.303,8.941,2.287,13.691l0,0C611.33,214.518,611.242,217.111,610.959,217.992 M608.205,207.832
		c0,0.361,0.002,0.717,0.027,1.012C608.207,208.549,608.205,208.193,608.205,207.832 M608.004,196.146
		c-0.102,0.238-0.182,0.59-0.244,0.725C607.857,196.656,607.941,196.41,608.004,196.146 M607.959,194.229
		c0.049,0.289,0.107,0.57,0.172,0.846c0,0.402-0.049,0.754-0.127,1.074c0.063-0.135,0.129-0.234,0.203-0.234
		c0.061,0,0.121,0.061,0.189,0.211l0.008,0.02l-0.057-0.215l-0.35-3.715C607.719,192.746,607.793,193.463,607.959,194.229
		 M607.482,184.014L607.482,184.014L607.482,184.014 M605.856,181.881c0,0.531,0.609,1.068,0.607,1.666
		C606.466,182.949,605.856,182.412,605.856,181.881 M607.131,181.057l-0.397,0.795l0,0L607.131,181.057L607.131,181.057
		 M606.55,179.85L606.55,179.85c0.379-1.051,0.663-2.23,0.154-3.564C606.339,177.42,606.29,178.807,606.55,179.85L606.55,179.85
		 M610.058,211.334c0.006-0.082,0.012-0.164,0.021-0.244C610.074,211.184,610.066,211.264,610.058,211.334 M608.344,195.912
		l-0.213-0.838c0-0.049,0-0.094-0.002-0.139c0.01,0.029,0.018,0.061,0.023,0.09C608.215,195.273,608.277,195.582,608.344,195.912
		 M602.149,57.249c0.064-0.329,0.127-0.613,0.188-0.855C602.278,56.673,602.216,56.958,602.149,57.249"/>
</g>
</svg>
