<svg xmlns="http://www.w3.org/2000/svg" width="32.727" height="266.65" viewBox="0 0 32.727 266.65">
  <g id="QRNhEL.tif" transform="matrix(0.999, 0.035, -0.035, 0.999, 9.314, -0.115)">
    <g id="Group_7" data-name="Group 7" transform="translate(0 0)">
      <g id="Group_6" data-name="Group 6">
        <path id="Path_92" data-name="Path 92" d="M2.692,110.758a10.073,10.073,0,0,1,.072-5.444A13.058,13.058,0,0,0,3,98.559,69,69,0,0,1,1.69,83.479C1.6,74.722,1.8,65.961,1.626,57.207c-.108-5.562-.04-11.186-.64-16.672C.2,33.367.729,26.244.436,19.111.174,12.777-.148,6.442.075.1A.4.4,0,0,1,.68.191c.8,2.437.226,4.946.393,7.417C1,8.323,1.037,9.04,1.033,9.756c1.037,9.389.494,18.823.848,28.227.145,3.854.162,7.707.273,11.559a7.929,7.929,0,0,0,.27,2.441c.241,5,.069,10,.1,15.006.031,4.5,0,8.994.008,13.491a34.357,34.357,0,0,0,.361,7A36.273,36.273,0,0,0,3.885,97.3a40.194,40.194,0,0,1-.062,8.1,5.283,5.283,0,0,0-.185.619,4.26,4.26,0,0,1-.167.611c-.456,1.186,0,2.472-.383,3.669A.963.963,0,0,1,2.692,110.758Z" transform="translate(14.166 78.985)"/>
        <path id="Path_93" data-name="Path 93" d="M2.785.108A6.032,6.032,0,0,0,2.35,2.7c.016,15.164.251,30.333-.086,45.491-.15,6.772.028,13.557-.389,20.314-.257,4.184-.206,8.358-.28,12.536A5.3,5.3,0,0,1,.4,84.657c-.767-1.52-.215-3.133-.057-4.615.431-4.032.193-8.065.385-12.091a3.653,3.653,0,0,1,.121-.688A125.06,125.06,0,0,0,.9,52.729a2.845,2.845,0,0,1,.01-.722,35.044,35.044,0,0,0,.517-7q-.035-20.935,0-41.871c0-1.041-.281-2.191.679-3.03A.582.582,0,0,1,2.785.108Z" transform="translate(21.361 111.429)"/>
        <path id="Path_94" data-name="Path 94" d="M5.624,50.388c-.4-2.122-.78-4.247-1.2-6.364C3.6,39.849,3.87,35.516,2.382,31.412c-.718-1.98-.034-4.278-.509-6.4-.784-3.5-.539-7.068-.368-10.58C1.746,9.523.55,4.825,0,.036c.433-.128.7.108.934.43A1.951,1.951,0,0,1,1.12,1a9.26,9.26,0,0,0,.367,1.982,4.733,4.733,0,0,1,.126.945c1.51,6.324.3,12.782.949,19.146a22.147,22.147,0,0,0,.433,2.283A33.235,33.235,0,0,0,4.48,35.006c.6,1.941-.217,4.173.774,6.137.3,1.72-.213,3.558.719,5.191C6.085,47.706,6.483,49.1,5.624,50.388Z" transform="translate(8.308 28.272)"/>
        <path id="Path_95" data-name="Path 95" d="M2.52,0A113.731,113.731,0,0,1,1.7,17.116c-.973,1.391-.439,2.988-.584,4.491-.088.921-.073,1.852-.105,2.779a.429.429,0,0,1-.6-.17c-.7-2.609-.29-5.254-.249-7.889.067-4.349,1.119-8.611,1.056-12.98C1.2,2.152.879.62,2.52,0Z" transform="translate(20.061 178.969)"/>
        <path id="Path_96" data-name="Path 96" d="M.215,0a3.5,3.5,0,0,1,2.43,2.409c.7,1.768,1.83,3.3,2.231,5.275.628,3.1,1.99,6.042,2.746,9.125.922,3.759,2.3,7.409,2.708,11.3.073.684.237,1.358.359,2.037a.6.6,0,0,1-.555.146,1.731,1.731,0,0,1-.912-1.173c-.338-5.129-2.242-9.877-3.436-14.8-.48-1.978-1.546-3.7-1.951-5.674.46-2.072-1.324-3.4-1.68-5.2C1.561,2.354.553,1.577,0,.462A.574.574,0,0,1,.215,0Z" transform="translate(7.719 2.018)"/>
        <path id="Path_97" data-name="Path 97" d="M5.6,23.048l-.665-.487a6.738,6.738,0,0,1-1.524-3.737C2.8,15.382,2.029,11.962,1.141,8.583A30.609,30.609,0,0,1,.006.075.4.4,0,0,1,.551.152c.526,1.03.381,2.209.707,3.283A56.268,56.268,0,0,0,2.592,9.522a7.164,7.164,0,0,1,.168,1.683,3.759,3.759,0,0,0,.45,2,3.222,3.222,0,0,1,.179.5,7.713,7.713,0,0,0,.875,2.5c.675,1.324.185,2.81.578,4.172.145.751.793,1.228,1.029,1.929A.72.72,0,0,1,5.6,23.048Z" transform="translate(3.372 5.746)"/>
        <path id="Path_98" data-name="Path 98" d="M.684,0A59.838,59.838,0,0,1,2.039,12.716c.185,4.871.744,9.734.448,14.619a5.071,5.071,0,0,0,.445,2.024l-.3.171c-1.177-.4-1.085-1.438-1.06-2.356.116-4.154-.2-8.29-.395-12.432a6.023,6.023,0,0,0-.2-1.489,4.933,4.933,0,0,1-.158-1.022A35.313,35.313,0,0,0,.16,3.465,5.822,5.822,0,0,1,.232.488.951.951,0,0,1,.684,0Z" transform="translate(21.231 63.324)"/>
        <path id="Path_99" data-name="Path 99" d="M0,22.574c.757-1.943.59-3.983.554-6A18.737,18.737,0,0,1,1.776,9.155,4.788,4.788,0,0,0,1.941,5.8,6.641,6.641,0,0,1,2.322,0a1.1,1.1,0,0,1,.432.793,2.915,2.915,0,0,1-.068.923,6.694,6.694,0,0,0,.1,3.592,11.741,11.741,0,0,1-.362,5.457c-1.278,3.428-.98,6.987-1.081,10.519a1.679,1.679,0,0,1-.76,1.326A.589.589,0,0,1,0,22.574Z" transform="translate(15.3 203.269)"/>
        <path id="Path_100" data-name="Path 100" d="M4.378.094c-.392,3.1-.268,6.28-1.614,9.22a4.269,4.269,0,0,0-.228,2.042c.191,2.264-1.014,3.878-2.317,5.466A.942.942,0,0,1,0,16.274a2.079,2.079,0,0,1,.353-1.258,7.262,7.262,0,0,0,1.276-5.2A71.043,71.043,0,0,0,3.186,1.231a1.525,1.525,0,0,1,.6-1.142A.521.521,0,0,1,4.378.094Z" transform="translate(15.185 216.616)"/>
        <path id="Path_101" data-name="Path 101" d="M.653,0c.266,4.4,2.354,8.536,1.8,13.062A18.145,18.145,0,0,0,2.9,17.925l-.212.17c-.62-.1-.825-.6-1.015-1.106A17.858,17.858,0,0,1,1.517,13.8,23.978,23.978,0,0,0,.245,4.72,10.178,10.178,0,0,1,.2.466.882.882,0,0,1,.653,0Z" transform="translate(19.016 45.399)"/>
        <path id="Path_102" data-name="Path 102" d="M1.037,13.361l-.389-.013c-.973-1.369-.587-2.939-.5-4.4A68.007,68.007,0,0,1,1.517,1.13,1.791,1.791,0,0,1,2.145,0l.4.006L2.535,3.821C1.874,6.975,1.027,10.1,1.042,13.361Z" transform="translate(18.526 203.35)"/>
        <path id="Path_103" data-name="Path 103" d="M.734,0C.818.168.976.334.976.5Q.991,9.429.968,18.355c0,.167-.163.332-.25.5l-.2-.164C-.208,17.673.039,16.483.047,15.38.074,11.147.023,6.916.036,2.685A3.58,3.58,0,0,1,.557.15Z" transform="translate(23.429 92.683)"/>
        <path id="Path_104" data-name="Path 104" d="M0,4.648C1.818,3.519,1.187,1.727,1.192.107A.347.347,0,0,1,1.62.048a2.849,2.849,0,0,0,.713.563,1.087,1.087,0,0,1,.348.267l.024,1.838c.127.211.382.308.478.547a1.187,1.187,0,0,1-.509,1.074C.145,4.035,1,5.965.834,7.217c.217.419-.01.551-.371.6C-.1,7.347.109,6.691.054,6.1A11.935,11.935,0,0,0,0,4.648Z" transform="translate(9.361 240.223)"/>
        <path id="Path_105" data-name="Path 105" d="M.443,5.8l-.178.034L.083,5.822C-.451,3.492,1.743,2.262,2.3.349c.118-.4,1.495-.681,1.874.478.133.408.058.891.46,1.192l-.106.452c-2.437.1-2.8.338-3.327,2.255A1.544,1.544,0,0,1,.443,5.8Z" transform="translate(3.295 0)"/>
        <path id="Path_106" data-name="Path 106" d="M.56.609.719,0a.508.508,0,0,1,.452.183,2.512,2.512,0,0,1,.286.743c.095.353.208.7.3,1.055a14.523,14.523,0,0,1,.452,3.465A3.2,3.2,0,0,1,2,6.331a11.58,11.58,0,0,0-.853,3.636c-.112.547-.042,1.142-.512,1.563-.622-.363-.761-.781-.524-1.552C.64,8.255.48,6.4,1.053,4.644,1.49,3.3.685,1.965.56.609Z" transform="translate(16.297 189.134)"/>
        <path id="Path_107" data-name="Path 107" d="M0,6.124C1.377,4.3,1.041,2.052,1.5,0c.561.441.471,1.089.5,1.687.032.686.053,1.359.7,1.791C2.7,5.3,1.038,6.614,1.213,8.489.516,8.039.852,7.051.234,6.56A1.842,1.842,0,0,1,0,6.124Z" transform="translate(10.889 231.914)"/>
        <path id="Path_108" data-name="Path 108" d="M.469.017.9,0c-.124,2.442,1.163,4.722.811,7.191.388.871-.146,1.856.325,2.715q.063,1.668.125,3.336c-.069.054-.139.11-.207.165-1.268-.64-.537-2.026-1.071-2.941C.71,7.82.415,5.188.092,2.557A3.13,3.13,0,0,1,.469.017Z" transform="translate(17.507 32.159)"/>
        <path id="Path_109" data-name="Path 109" d="M0,5.336C.143,3.51-.157,1.591,1.1,0a.925.925,0,0,1,.28.758A22.4,22.4,0,0,0,1.03,4.779c.062.176.112.355.162.536s.1.373.152.56c.127,1.037.744,2.16-.5,2.954L.692,7.94A4.715,4.715,0,0,0,0,5.336Z" transform="translate(16.931 195.329)"/>
        <path id="Path_110" data-name="Path 110" d="M.066,9.539A22.939,22.939,0,0,1,1.558,0c.464,1.251-.212,2.356-.531,3.462C.451,5.459.671,7.563.066,9.539Z" transform="translate(19.503 207.171)"/>
        <path id="Path_111" data-name="Path 111" d="M.466,0c.485.294.413.775.4,1.237C.716,1.863.391,2.5,1,3.072l.3-.5.344.522c.246.415.347.92-.081,1.177a.891.891,0,0,1-1.4-.413C.064,2.555-.274,1.234.466,0Z" transform="translate(8.894 244.871)"/>
        <path id="Path_112" data-name="Path 112" d="M1.2,3.553C.5,3.9.034,3.88.057,2.883.08,1.948.022,1.011,0,.075L.028.109A.347.347,0,0,1,.475.06C.946.708.9,1.691,1.756,2.09A.707.707,0,0,1,2,2.512Z" transform="translate(12.385 231.839)"/>
        <path id="Path_113" data-name="Path 113" d="M1.459.764c.869.5,1.529.576,1.476-.764.622.631,1.093,1.366-.277,1.439C1.617,1.495,1.278,2.727,0,2.631Z" transform="translate(7.603 247.963)"/>
        <path id="Path_114" data-name="Path 114" d="M.457,1.04,1.682,0C1.5,1.476,1.523,2.955.2,3.855A.507.507,0,0,1,0,3.428c.1-.644.383-1.25.425-1.908A3.352,3.352,0,0,0,.457,1.04Z" transform="translate(3.977 259.384)"/>
        <path id="Path_115" data-name="Path 115" d="M.413,4.675,0,4.661C.537,3.176.23,1.477,1.126.083a.36.36,0,0,1,.518.061C2.326,1.4,1.178,2.42,1.229,3.6,1.1,4.065,1.123,4.658.413,4.675Z" transform="translate(12.413 227.287)"/>
        <path id="Path_116" data-name="Path 116" d="M2.678.2c.066,1.359-.86,1.862-1.9,2.264-.23-.192-.628-.05-.779-.4L.779.943c.759.2.8-.6,1.207-.9A.611.611,0,0,1,2.678.2Z" transform="translate(0.73 263.398)"/>
        <path id="Path_117" data-name="Path 117" d="M0,1.367.395.229A.994.994,0,0,1,1.588.171,2.657,2.657,0,0,1,1.5,2.061C.795,2.294.536,1.523,0,1.367Z" transform="translate(12.034 243.194)"/>
        <path id="Path_118" data-name="Path 118" d="M.056,4.283,0,.134.264,0A.687.687,0,0,1,.7.377c.385,1.147.075,2.367.362,3.525a.926.926,0,0,1-.317.8l-.377,0Z" transform="translate(13.876 74.377)"/>
        <path id="Path_119" data-name="Path 119" d="M.73,0l.779.4c-.436.278-.4,1.129-1.154,1C.227,1.377.071,1.16.04,1.01-.079.448.045.016.73,0Z" transform="translate(0 265.462)"/>
        <path id="Path_120" data-name="Path 120" d="M1.458,1.62.364,1.609,0,1.128C1.115,1.356,2.156,1.407,2.575,0c.462.279.212.786.363,1.163a.981.981,0,0,1-.756.71C1.952,1.76,1.651,1.849,1.458,1.62Z" transform="translate(12.064 241.813)"/>
        <path id="Path_121" data-name="Path 121" d="M1.217,1.677l-.557.014A.469.469,0,0,1,0,1.624L1.155.084A.367.367,0,0,1,1.584.056C1.423.5,1.7.731,2,.954a2.236,2.236,0,0,0-.008.363Z" transform="translate(2.191 261.922)"/>
        <path id="Path_122" data-name="Path 122" d="M.488,0c1.034.5.552,1.543.8,2.328-.02.233-.041.465-.06.7l-.378,0c-.6-.6-.339-1.53-.8-2.186C-.119.389.179.191.488,0Z" transform="translate(10.817 238.075)"/>
        <path id="Path_123" data-name="Path 123" d="M.683,0l.661.067C1.3.633,1.207,1.228.631,1.449.117,1.645.115,1.115,0,.8Z" transform="translate(1.508 263.546)"/>
        <path id="Path_124" data-name="Path 124" d="M.369,1.513a2.672,2.672,0,0,1-.36.014C-.1.184.828.084,1.772,0a.152.152,0,0,0,.192,0,.849.849,0,0,1-.3.886A2.525,2.525,0,0,1,.369,1.513Z" transform="translate(13.529 225.843)"/>
        <path id="Path_125" data-name="Path 125" d="M.787.037.49.853A1.055,1.055,0,0,1,.341,2.328a2.442,2.442,0,0,0-.306-.036A3.417,3.417,0,0,1,.372,0Z" transform="translate(10.517 238.038)"/>
        <path id="Path_126" data-name="Path 126" d="M.387,2.715C-.278,1.88.132.911.06,0,.653.846.313,1.806.387,2.715Z" transform="translate(19.156 39.349)"/>
        <path id="Path_127" data-name="Path 127" d="M.362,1.163C-.057.871.054.41,0,0,.8.023.854.2.362,1.163Z" transform="translate(14.641 241.813)"/>
        <path id="Path_128" data-name="Path 128" d="M0,.012A.692.692,0,0,1,.727.265L.015,1.835Z" transform="translate(13.522 243.421)"/>
        <path id="Path_129" data-name="Path 129" d="M.347,1.583l-.169.01-.17-.012A1.411,1.411,0,0,1,1.1,0c.056.078.111.155.164.235A1.438,1.438,0,0,1,.347,1.583Z" transform="translate(3.338 260.424)"/>
        <path id="Path_130" data-name="Path 130" d="M1.162.019l.05.426A1.839,1.839,0,0,1,.2,1.358C.133,1.278.067,1.2,0,1.121A1.063,1.063,0,0,1,.351.312.884.884,0,0,1,1.162.019Z" transform="translate(14.191 232.993)"/>
        <path id="Path_131" data-name="Path 131" d="M11.293,224.184l.462-.762.707-.752a3.02,3.02,0,0,0,.154-1.67,24.277,24.277,0,0,1,1.154-9.487,9.581,9.581,0,0,0,.374-2.982c.083-2.49-.629-4.992.3-7.486a2.234,2.234,0,0,0-.43-2.477,2.348,2.348,0,0,1,.014-.311c.283-1.958.03-4.012.912-5.861.626-1.314-.444-2.248-.611-3.383-1.309-4.151.336-8.3.013-12.458-.234-3.022-.7-6.015-.948-9.023-.234-2.831-.785-5.634-.773-8.488.014-3.172-.017-6.345.007-9.516.14-18.265-.391-36.526-.458-54.789a73.706,73.706,0,0,0-1.2-10.493q-.045-3.8-.091-7.591c.015-.263.031-.525.046-.789-.258-1.978-.342-3.975-.48-5.962A8.676,8.676,0,0,0,9.2,65.629c-.561-1.889-.093-3.875-.521-5.774-.173-1.437-.015-2.949-.913-4.228a2.107,2.107,0,0,1-.172-.566,11.354,11.354,0,0,0-.221-2.373,12.927,12.927,0,0,0-.393-3.435c-.4-4.788-.133-9.582-.152-14.371a25.756,25.756,0,0,0-1.113-6.664c-.315-.47-.09-1.082-.395-1.555a.461.461,0,0,1-.086-.3l.053-.834c-.323-.545-.764-1-1.12-1.521-.9-1.417.078-3.144-.731-4.576a24.5,24.5,0,0,0-.758-2.688l.006.009a10.251,10.251,0,0,1-.706-2.034l-.095-1.776a49.33,49.33,0,0,0-1.4-6.174C-.141,5.711.208,4.5,0,3.377q.208-.552.415-1.1C1.57-.509,3.466-.754,5.285,1.632A6.359,6.359,0,0,1,6.558,3.442c.025,1.727,1.782,2.863,1.55,4.68C7.94,10.13,9.55,11.55,9.789,13.45c.384,3.04,2.135,5.743,2.217,8.872a7.425,7.425,0,0,0,.81,2.824c.647,1.251.485,2.633.631,3.967a4.022,4.022,0,0,1,.249,1.292c-.378,3.959.622,7.73,1.491,11.52a12.415,12.415,0,0,0,.223,1.641c.1,3.847-.106,7.71,1.274,11.436.643,1.735.146,3.651.305,5.481.32,3.642.643,7.283,1.261,10.886.061.376.175.745.229,1.123a1.494,1.494,0,0,0,.353.694l.013.73a32.292,32.292,0,0,1,.27,6.246c0,7.093.927,14.175.584,21.249-.906,18.714-.3,37.433-.524,56.148a25.367,25.367,0,0,1-.316,3.773.244.244,0,0,1,0,.266c.227,4.983.249,9.967-.014,14.952v-.006a2.583,2.583,0,0,0-.694,2.084c.238,3.819-.677,7.53-.882,11.3-.2,3.664-.489,7.319-.333,10.992-.289,3.911-1.766,7.659-1.543,11.639.031.569.03,1.14.045,1.709-.622,3.3-.994,6.656-1.9,9.9-.307.374-.074.864-.264,1.265-.176.557-.413,1.194-1.082,1.049-.686-.148-.8-.88-.917-1.5A2.875,2.875,0,0,1,11.293,224.184Z" transform="translate(3.738 2.426)"/>
        <path id="Path_132" data-name="Path 132" d="M0,0A15.154,15.154,0,0,1,1,5.688c-.047,1.8.878,3.473.872,5.374q-.089,31.689.007,63.379a45.349,45.349,0,0,0,.76,6.178c.832,5.958,1.608,11.948.8,17.983-.3,2.241.228,4.407.3,6.611a.3.3,0,0,1-.047.48c-1.047-.143-.186-1.208-.743-1.589a.706.706,0,0,1-.287-.757,48.627,48.627,0,0,1-.022-4.98,1.277,1.277,0,0,1-.015-.345c.193-.157.45-.326.449-.57-.009-2.865.406-5.742-.235-8.589-.4-2.921-.8-5.843-1.009-8.787-.648-7.294-.162-14.6-.291-21.9-.082-4.637-.081-9.275-.117-13.914a1.835,1.835,0,0,1-.148-.924c.155-9.36-.751-18.709-.338-28.065.2-4.518-.988-8.9-.9-13.382Z" transform="translate(14.709 86.672)"/>
        <path id="Path_133" data-name="Path 133" d="M.132,0c.348,2.859.9,5.712,1,8.58.168,4.682.02,9.376.053,14.064.047,6.576.639,13.143.332,19.726a1.747,1.747,0,0,1-.349-1.424c.07-10-.709-20-.391-30C.893,7.273-.408,3.693.132,0Z" transform="translate(14.62 88.561)"/>
        <path id="Path_134" data-name="Path 134" d="M.031,0C.4,2.914,1.2,5.772,1.181,8.739a.63.63,0,0,1-.057.85A29.3,29.3,0,0,1,.031,0Z" transform="translate(16.515 166.748)"/>
        <path id="Path_135" data-name="Path 135" d="M.3.85Q.326.425.355,0c.709,2.917.287,5.863.208,8.8,0,.141-.368.272-.563.408C.757,6.447.265,3.639.3.85Z" transform="translate(17.34 175.487)"/>
        <path id="Path_136" data-name="Path 136" d="M.28,0A8.327,8.327,0,0,1,.3,4.98c-.03-.255-.059-.508-.089-.762a8.755,8.755,0,0,1,0-3.835Z" transform="translate(17.076 185.04)"/>
        <path id="Path_137" data-name="Path 137" d="M.341,0q0,1.918,0,3.835a.492.492,0,0,1-.273-.12C.135,2.475-.265,1.2.341,0Z" transform="translate(16.947 185.422)"/>
        <path id="Path_138" data-name="Path 138" d="M.132,87.416C.114,86.089.083,84.762.083,83.435.077,68.208.053,52.98.092,37.753.1,33.73.433,29.706.4,25.685.346,17.689.136,9.694,0,1.7-.009,1.134.076.567.118,0A104.767,104.767,0,0,1,.824,13.511c-.046,1.015-.332,2.184.7,2.981Q1.5,25.762,1.484,35.031C.511,35.7.819,36.744.818,37.647q-.024,21.9.021,43.795A21.552,21.552,0,0,1,.132,87.416Z" transform="translate(22.465 76.341)"/>
        <path id="Path_139" data-name="Path 139" d="M.15,14.952C-.035,9.967-.07,4.983.164,0A115.755,115.755,0,0,1,.15,14.952Z" transform="translate(22.43 164.023)"/>
        <path id="Path_140" data-name="Path 140" d="M.279,0C.822,1.129.469,2.343.6,3.511c.44.716-.131,1.6.368,2.306v0a11.568,11.568,0,0,1,1.12,4.2,32.224,32.224,0,0,0,.4,6.081c.2.5.733.908.44,1.555a.367.367,0,0,1-.493,0A6.8,6.8,0,0,1,1.7,14,18.168,18.168,0,0,0,.571,7.779a20.286,20.286,0,0,1-.411-6A1.915,1.915,0,0,1,.279,0Z" transform="translate(10.708 51.878)"/>
        <path id="Path_141" data-name="Path 141" d="M1.743,21.716q-.061.887-.119,1.776-.175-1.007-.352-2.017C.9,17.387,1.114,13.288,1.15,9.2A25.425,25.425,0,0,0,.164,1.608L.108.954C-.021.61-.1.273.247,0A10.973,10.973,0,0,1,1.682,5.411Q1.727,13.564,1.743,21.716Z" transform="translate(9.244 30.162)"/>
        <path id="Path_142" data-name="Path 142" d="M.014,0A8.074,8.074,0,0,1,1.136,4.305c.02,5.187-.006,10.375-.014,15.562C.561,19.36.8,18.687.794,18.082.78,14.476.624,10.859.853,7.268,1.012,4.747-.139,2.468.014,0Z" transform="translate(9.394 31.77)"/>
        <path id="Path_143" data-name="Path 143" d="M.014,0,.4.006a3.718,3.718,0,0,1,.746,2.028c-.061.944.233,1.923-.26,2.825l-.138.124C-.435,3.466.184,1.673.014,0Z" transform="translate(13.123 69.528)"/>
        <path id="Path_144" data-name="Path 144" d="M.436,1.073.3,2.027A4.36,4.36,0,0,1,0,0C.472.223.374.681.436,1.073Z" transform="translate(9.055 29.089)"/>
        <path id="Path_145" data-name="Path 145" d="M3.756,14.616C3.471,12.89,2.943,11.2,2.58,9.534,1.882,6.338.113,3.462,0,.132c.124-.176.25-.176.376,0C1.513,3.641,2.984,7.087,3.692,10.686c.678,3.454,2.57,6.686,2.013,10.38a.277.277,0,0,1-.433.022c.209-1.359-.4-2.545-.771-3.783C4.114,16.448,4.09,15.488,3.756,14.616Z" transform="translate(11.657 10.291)"/>
        <path id="Path_146" data-name="Path 146" d="M.1.022.537,0l.614.819c-.233,2.52.735,4.915.738,7.412,0,1.062.079,2.123.122,3.184.161.558.356,1.119-.14,1.617A28.761,28.761,0,0,1,.1.022Z" transform="translate(16.825 31.357)"/>
        <path id="Path_147" data-name="Path 147" d="M5.943,3.825c-.29-.4-.594-.789-.87-1.2C3.209-.128,1.609.179,0,2.607.137.286,1.545-.567,3.675.38A8.566,8.566,0,0,1,6.017,2.974.559.559,0,0,1,5.943,3.825Z" transform="translate(4.153 2.091)"/>
        <path id="Path_148" data-name="Path 148" d="M.028.852.1,0c.39,1.867,2.264,3.2,1.863,5.354l-.187,0H1.589C1.427,3.728-.234,2.633.028.852Z" transform="translate(10.069 5.065)"/>
        <path id="Path_149" data-name="Path 149" d="M0,0A12.46,12.46,0,0,1,1.4,6.174,22.433,22.433,0,0,1,0,0Z" transform="translate(4.225 9.201)"/>
        <path id="Path_150" data-name="Path 150" d="M.006,0A3.156,3.156,0,0,1,.764,2.688,3.68,3.68,0,0,1,.006,0Z" transform="translate(6.411 19.175)"/>
        <path id="Path_151" data-name="Path 151" d="M.033,0A3.371,3.371,0,0,1,.739,2.034,2.046,2.046,0,0,1,.033,0Z" transform="translate(5.684 17.151)"/>
        <path id="Path_152" data-name="Path 152" d="M0,0A1.677,1.677,0,0,1,1.12,1.521,1.9,1.9,0,0,1,0,0Z" transform="translate(7.906 26.439)"/>
        <path id="Path_153" data-name="Path 153" d="M1.9,13.1l-.379-.378C.846,11.508,1.4,10.107.93,8.867A2.456,2.456,0,0,1,.262,6.955a9.143,9.143,0,0,0-.126-3.9A7.781,7.781,0,0,1,.024.837.972.972,0,0,1,.448,0q.292.489.581.98c-.1,3.579,1.25,7.027.927,10.628C1.911,12.1,1.914,12.6,1.9,13.1Z" transform="translate(20.674 62.514)"/>
        <path id="Path_154" data-name="Path 154" d="M1.57,0c1.218.753.7,1.981.561,2.917a20.629,20.629,0,0,0-.242,3.777,23.331,23.331,0,0,1-1.1,9.177c-.732,1.938-.33,4.018-.44,6.036C.313,22.644.58,23.443.016,24.1c-.044-4.213-.1-8.412,1.352-12.476a10.882,10.882,0,0,0,.126-4.313,7.172,7.172,0,0,1-.025-3.435l.118-.714A4.333,4.333,0,0,0,1.57,0Z" transform="translate(16.183 200.994)"/>
        <path id="Path_155" data-name="Path 155" d="M.433,0Q.445,1.718.458,3.435A3.536,3.536,0,0,1,.433,0Z" transform="translate(17.22 204.871)"/>
        <path id="Path_156" data-name="Path 156" d="M2.462,1.148C2.505.739,2.448.3,2.827,0,3.315,2.485,2.008,4.416.908,6.411l-.691.444a.771.771,0,0,1-.208-.687A2.39,2.39,0,0,1,.17,5.69C.5,4.916,1,4.229,1.32,3.447A9.76,9.76,0,0,0,2.462,1.148Z" transform="translate(14.446 226.602)"/>
        <path id="Path_157" data-name="Path 157" d="M.4,0C1.516,1.6,1.431,3.52,1.707,5.323a29.863,29.863,0,0,1,.106,3.921.3.3,0,0,1-.476-.111C1.212,7.494.445,6.012.206,4.4a9.018,9.018,0,0,0-.161-2.78A3.525,3.525,0,0,1,.052.457.841.841,0,0,1,.4,0Z" transform="translate(19.195 49.982)"/>
        <path id="Path_158" data-name="Path 158" d="M.9,7.21l-.1.5A.324.324,0,0,1,.322,7.5C.175,6.031.508,4.543.119,3.089Q.06,2.353,0,1.617.069.809.14,0C.677.855.1,1.968.765,2.794Q.832,5,.9,7.21Z" transform="translate(18.696 42.772)"/>
        <path id="Path_159" data-name="Path 159" d="M.289,0,.6.007Q.654,1.65.71,3.3c-.038.324-.078.649-.116.974C-.426,2.914.146,1.442.289,0Z" transform="translate(20.412 59.219)"/>
        <path id="Path_160" data-name="Path 160" d="M0,1.475Q.075.738.148,0C1.435.408.529,1.489.805,2.208.193,2.529.193,2.529,0,1.475Z" transform="translate(10.858 238.891)"/>
        <path id="Path_161" data-name="Path 161" d="M.533,1.836C-.143,1.406-.164,1.12.4,0Q.466.918.533,1.836Z" transform="translate(9.36 246.107)"/>
        <path id="Path_162" data-name="Path 162" d="M.772.44C.788.293.8.146.822,0c1.088,1.018,1.43,2.2.472,3.448C.552,4.415.859,5.474.789,6.5A4.942,4.942,0,0,1,.135,8.8C.1,8.671.07,8.545.036,8.419c-.168-1.43.3-2.807.353-4.217q0-.38,0-.759c.022-.233.043-.465.065-.7C1.181,2.064.4,1.171.772.44Z" transform="translate(17.632 191.886)"/>
        <path id="Path_163" data-name="Path 163" d="M.74,1.549c-.028.78,1.09,1.719-.314,2.306L0,0C.591.347.178,1.188.74,1.549Z" transform="translate(17.664 190.776)"/>
        <path id="Path_164" data-name="Path 164" d="M.6,0A14.239,14.239,0,0,1,.247,4.217C-.357,2.749.3,1.39.6,0Z" transform="translate(17.422 196.088)"/>
        <path id="Path_165" data-name="Path 165" d="M1.845,5.426l-.008.74c-.156.219-.312.438-.47.657C-.363,6.941.159,5.584,0,4.672c.347-.31.32-.753.4-1.158C1,2.342,1.125.915,2.209,0a3.262,3.262,0,0,1-.463,3.673C1.236,4.31,1.119,4.882,1.845,5.426Z" transform="translate(12.826 227.29)"/>
        <path id="Path_166" data-name="Path 166" d="M.049,1.348C.064.7.63.428.964,0c.6.88-.017,1.527-.412,2.217C-.112,2.224-.023,1.781.049,1.348Z" transform="translate(3.635 260.659)"/>
        <path id="Path_167" data-name="Path 167" d="M1.826.767a16.29,16.29,0,0,1-1.8,3.44C-.186,2.97,1.054,2.026.7.759.939.3,1.237-.074,1.829.013a.42.42,0,0,1,.4.406C2.079.511,2.047.754,1.826.767Z" transform="translate(13.202 226.597)"/>
        <path id="Path_168" data-name="Path 168" d="M.74,3.447a3.248,3.248,0,0,1-.4-1.887Q.171.78,0,0A4.622,4.622,0,0,1,1.466,3.709c.045,2.2.01,4.406.009,6.609C.765,9.107,1.313,7.767,1.1,6.5.612,5.529,1.232,4.421.74,3.447Z" transform="translate(13.189 67.974)"/>
        <path id="Path_169" data-name="Path 169" d="M0,0C.708.948.212,2.042.361,3.057a.562.562,0,0,1-.277-.089Q.043,1.484,0,0Z" transform="translate(13.929 71.421)"/>
        <path id="Path_170" data-name="Path 170" d="M2.027,13.358c.112,1.422-.29,2.882.305,4.269q.026,1.111.053,2.221a10.549,10.549,0,0,1,.066,3.773,2.056,2.056,0,0,0,.675,1.584,6.711,6.711,0,0,1-.007,3.425,17.609,17.609,0,0,1-1-4.685,59.131,59.131,0,0,1-.489-6.573A22.529,22.529,0,0,0,.6,9.392C-.47,6.4.235,3.141.141,0c.68,1.482.145,3.066.371,4.586a19.843,19.843,0,0,1,.458,2.95A.958.958,0,0,1,.9,8.4Z" transform="translate(18.674 45.861)"/>
        <path id="Path_171" data-name="Path 171" d="M1.526.348,1.934,0c-.027.572-.008,1.259.467,1.52.614.339.554-.651,1-.787.294,1.042-.592,1.744-.742,2.658C1.682,3.837,1.452,4.783,1.172,5.7l0,0c-.331.084-.732.506-.979.046A1.422,1.422,0,0,1,.442,4,4.129,4.129,0,0,0,1.526.348Z" transform="translate(13.502 227.016)"/>
        <path id="Path_172" data-name="Path 172" d="M1.12,4.2Q.559,2.1,0,0C1.169,1.181,1.2,2.675,1.12,4.2Z" transform="translate(11.671 57.692)"/>
        <path id="Path_173" data-name="Path 173" d="M0,3.425.007,0C.728,1.332.178,2.786.4,4.166A.756.756,0,0,1,0,3.425Z" transform="translate(21.793 71.067)"/>
        <path id="Path_174" data-name="Path 174" d="M.008,0A3.74,3.74,0,0,1,.754,2.689C-.079,1.959-.006.971.008,0Z" transform="translate(15.405 24.907)"/>
        <path id="Path_175" data-name="Path 175" d="M.4,2.306C-.274,1.629.129.774.035,0,.649.688.3,1.534.4,2.306Z" transform="translate(11.27 55.39)"/>
        <path id="Path_176" data-name="Path 176" d="M.066,3.773Q.033,1.886,0,0A4.612,4.612,0,0,1,.066,3.773Z" transform="translate(21.06 65.71)"/>
        <path id="Path_177" data-name="Path 177" d="M.033,2.306C-.089,1.123.066.126,1.526,0Z" transform="translate(14.64 230.407)"/>
        <path id="Path_178" data-name="Path 178" d="M.39,3.068C-.306,2.114.17,1.02.035,0A2.6,2.6,0,0,1,.35.037l.062,1.11A2.334,2.334,0,0,1,.39,3.068Z" transform="translate(19.152 50.447)"/>
        <path id="Path_179" data-name="Path 179" d="M0,1.922Q.01.96.022,0A2.358,2.358,0,0,1,.033,2.669Q.018,2.294,0,1.922Z" transform="translate(19.542 51.594)"/>
      </g>
    </g>
  </g>
</svg>
