<svg xmlns="http://www.w3.org/2000/svg" width="43.978" height="358.324" viewBox="0 0 43.978 358.324">
  <g id="QRNhEL.tif" transform="matrix(-0.999, 0.035, -0.035, -0.999, 43.978, 358.253)">
    <g id="Group_7" data-name="Group 7" transform="translate(0 0)">
      <g id="Group_6" data-name="Group 6">
        <path id="Path_92" data-name="Path 92" d="M3.617,0a13.536,13.536,0,0,0,.1,7.315,17.547,17.547,0,0,1,.313,9.078C2.467,23.1,2.339,29.874,2.271,36.658c-.12,11.768.141,23.54-.086,35.305-.145,7.474-.054,15.031-.86,22.4C.275,104,.979,113.571.586,123.156.234,131.668-.2,140.18.1,148.7a.537.537,0,0,0,.813-.124c1.074-3.274.3-6.647.529-9.967-.095-.961-.048-1.923-.054-2.886,1.393-12.617.664-25.294,1.14-37.931.194-5.179.218-10.356.367-15.533a10.655,10.655,0,0,1,.362-3.281c.323-6.72.093-13.442.14-20.165.042-6.043,0-12.087.011-18.13a46.168,46.168,0,0,1,.485-9.4,48.744,48.744,0,0,1,1.328-13.2A54.013,54.013,0,0,0,5.136,7.212a7.1,7.1,0,0,1-.249-.832,5.724,5.724,0,0,0-.224-.821c-.613-1.594,0-3.322-.515-4.93A1.294,1.294,0,0,0,3.617,0Z" transform="translate(19.036 103.65)" fill="#f3efeb"/>
        <path id="Path_93" data-name="Path 93" d="M3.743,113.617a8.106,8.106,0,0,1-.585-3.489C3.18,89.75,3.5,69.366,3.043,49c-.2-9.1.037-18.218-.522-27.3-.345-5.622-.277-11.231-.376-16.846A7.116,7.116,0,0,0,.534,0C-.5,2.043.245,4.21.458,6.2c.58,5.418.26,10.838.518,16.249a4.909,4.909,0,0,0,.163.925A168.056,168.056,0,0,1,1.205,42.9a3.823,3.823,0,0,0,.014.97,47.093,47.093,0,0,1,.7,9.4q-.047,28.132,0,56.266c0,1.4-.378,2.945.913,4.072A.782.782,0,0,0,3.743,113.617Z" transform="translate(28.706 95.126)" fill="#f3efeb"/>
        <path id="Path_94" data-name="Path 94" d="M7.558,0C7.021,2.851,6.51,5.707,5.947,8.553,4.838,14.162,5.2,19.985,3.2,25.5c-.965,2.66-.045,5.749-.684,8.6-1.054,4.7-.725,9.5-.494,14.218C2.346,54.915.739,61.227,0,67.664c.582.173.942-.145,1.255-.578a2.621,2.621,0,0,0,.25-.723A12.444,12.444,0,0,1,2,63.7a6.36,6.36,0,0,0,.169-1.27c2.029-8.5.4-17.177,1.275-25.728a29.762,29.762,0,0,1,.581-3.068,44.661,44.661,0,0,1,2-12.963c.8-2.609-.292-5.608,1.04-8.246.409-2.312-.286-4.781.966-6.976C8.176,3.6,8.711,1.726,7.558,0Z" transform="translate(11.164 252.923)" fill="#f3efeb"/>
        <path id="Path_95" data-name="Path 95" d="M3.386,32.851c.036-7.687.016-15.37-1.105-23C.974,7.982,1.692,5.834,1.5,3.815,1.378,2.577,1.4,1.326,1.354.08a.577.577,0,0,0-.81.229c-.939,3.506-.39,7.06-.334,10.6.09,5.844,1.5,11.572,1.42,17.443C1.606,29.959,1.182,32.018,3.386,32.851Z" transform="translate(26.958 85.276)" fill="#f3efeb"/>
        <path id="Path_96" data-name="Path 96" d="M.289,40.722c1.8-.33,2.744-1.922,3.265-3.237.941-2.376,2.459-4.428,3-7.088.844-4.167,2.674-8.119,3.689-12.262,1.239-5.051,3.086-9.957,3.64-15.179.1-.919.319-1.825.482-2.738a.811.811,0,0,0-.746-.2A2.326,2.326,0,0,0,12.391,1.6c-.454,6.892-3.013,13.273-4.618,19.887-.645,2.659-2.077,4.974-2.621,7.624C5.771,31.894,3.374,33.682,2.9,36.1,2.1,37.558.743,38.6,0,40.1A.772.772,0,0,0,.289,40.722Z" transform="translate(10.373 315.193)" fill="#f3efeb"/>
        <path id="Path_97" data-name="Path 97" d="M7.527,0,6.633.655A9.054,9.054,0,0,0,4.585,5.676C3.767,10.3,2.727,14.9,1.533,19.439A41.132,41.132,0,0,0,.008,30.871a.532.532,0,0,0,.732-.1c.707-1.384.511-2.968.95-4.412a75.613,75.613,0,0,1,1.792-8.179,9.626,9.626,0,0,0,.225-2.262,5.052,5.052,0,0,1,.6-2.691,4.329,4.329,0,0,0,.241-.667A10.365,10.365,0,0,1,5.729,9.2c.906-1.779.249-3.776.777-5.606C6.7,2.587,7.572,1.947,7.889,1A.967.967,0,0,0,7.527,0Z" transform="translate(4.531 319.932)" fill="#f3efeb"/>
        <path id="Path_98" data-name="Path 98" d="M.919,39.683c1.44-5.6,1.6-11.367,1.821-17.088.249-6.545,1-13.08.6-19.646A6.814,6.814,0,0,1,3.94.23C3.8.154,3.668.078,3.533,0,1.952.539,2.074,1.933,2.109,3.165c.156,5.581-.269,11.14-.53,16.706a8.093,8.093,0,0,1-.275,2,6.629,6.629,0,0,0-.213,1.373c.019,3.949.089,7.892-.875,11.782a7.823,7.823,0,0,0,.1,4A1.278,1.278,0,0,0,.919,39.683Z" transform="translate(28.53 233.848)" fill="#f3efeb"/>
        <path id="Path_99" data-name="Path 99" d="M0,.13C1.017,2.74.793,5.483.745,8.186a25.179,25.179,0,0,0,1.642,9.975,6.434,6.434,0,0,1,.222,4.507,8.925,8.925,0,0,0,.511,7.8A1.481,1.481,0,0,0,3.7,29.4a3.917,3.917,0,0,0-.092-1.241,9,9,0,0,1,.132-4.827A15.778,15.778,0,0,0,3.254,16C1.536,11.391,1.937,6.608,1.8,1.862A2.256,2.256,0,0,0,.781.08.791.791,0,0,0,0,.13Z" transform="translate(20.561 55.009)" fill="#f3efeb"/>
        <path id="Path_100" data-name="Path 100" d="M5.883,22.478c-.527-4.162-.361-8.439-2.169-12.39a5.736,5.736,0,0,1-.306-2.744C3.665,4.3,2.046,2.133.294,0A1.266,1.266,0,0,0,0,.737a2.794,2.794,0,0,0,.474,1.69C2.133,4.492,2.307,6.908,2.189,9.409c.717,3.845,1.848,7.609,2.093,11.542a2.049,2.049,0,0,0,.809,1.534A.7.7,0,0,0,5.883,22.478Z" transform="translate(20.405 44.932)" fill="#f3efeb"/>
        <path id="Path_101" data-name="Path 101" d="M.877,24.316C1.234,18.4,4.041,12.845,3.3,6.763A24.384,24.384,0,0,1,3.9.229L3.612,0C2.778.138,2.5.8,2.248,1.486a24,24,0,0,0-.21,4.279A32.221,32.221,0,0,1,.33,17.973,13.677,13.677,0,0,0,.275,23.69,1.185,1.185,0,0,0,.877,24.316Z" transform="translate(25.553 273.303)" fill="#f3efeb"/>
        <path id="Path_102" data-name="Path 102" d="M1.393,0,.871.017C-.437,1.856.082,3.966.205,5.928c.224,3.554,1.2,7.007,1.833,10.507a2.406,2.406,0,0,0,.844,1.519l.535-.008-.011-5.128C2.519,8.581,1.381,4.384,1.4,0Z" transform="translate(24.896 67.41)" fill="#f3efeb"/>
        <path id="Path_103" data-name="Path 103" d="M.986,25.334c.113-.225.325-.449.325-.675q.021-12-.011-23.991C1.3.445,1.081.222.964,0L.7.221C-.279,1.586.052,3.184.063,4.667.1,10.355.031,16.04.049,21.726c0,1.163-.157,2.405.7,3.406C.828,25.2.907,25.266.986,25.334Z" transform="translate(31.484 208.744)" fill="#f3efeb"/>
        <path id="Path_104" data-name="Path 104" d="M0,4.254c2.442,1.517,1.6,3.926,1.6,6.1a.466.466,0,0,0,.575.079,3.829,3.829,0,0,1,.958-.757A1.461,1.461,0,0,0,3.6,9.319l.033-2.47c.171-.283.513-.414.642-.735A1.6,1.6,0,0,0,3.593,4.67C.194,5.078,1.349,2.484,1.121.8c.292-.563-.014-.74-.5-.8C-.132.628.146,1.51.073,2.3A16.038,16.038,0,0,1,0,4.254Z" transform="translate(12.579 25.314)" fill="#f3efeb"/>
        <path id="Path_105" data-name="Path 105" d="M.6.045.356,0,.112.02C-.607,3.151,2.343,4.8,3.1,7.374c.159.541,2.009.916,2.519-.642.179-.549.078-1.2.619-1.6l-.143-.608c-3.274-.129-3.756-.454-4.471-3.03A2.075,2.075,0,0,0,.6.045Z" transform="translate(4.427 350.783)" fill="#f3efeb"/>
        <path id="Path_106" data-name="Path 106" d="M.753,14.677l.213.815a.683.683,0,0,0,.608-.246,3.375,3.375,0,0,0,.384-1c.127-.474.28-.941.4-1.418.2-1.553.784-3.054.608-4.656a4.3,4.3,0,0,0-.28-1.186C1.819,5.476,1.877,3.738,1.539,2.1,1.389,1.365,1.484.566.851,0,.014.488-.172,1.049.146,2.085.86,4.4.646,6.9,1.415,9.254,2,11.056.921,12.855.753,14.677Z" transform="translate(21.901 88.973)" fill="#f3efeb"/>
        <path id="Path_107" data-name="Path 107" d="M0,3.178c1.85,2.446,1.4,5.471,2.01,8.229.754-.592.633-1.463.672-2.267.044-.922.072-1.827.939-2.407C3.629,4.285,1.395,2.519,1.629,0,.693.6,1.144,1.932.314,2.592A2.476,2.476,0,0,0,0,3.178Z" transform="translate(14.633 35.572)" fill="#f3efeb"/>
        <path id="Path_108" data-name="Path 108" d="M.631,17.993l.578.023c-.166-3.282,1.562-6.345,1.09-9.663C2.82,7.183,2.1,5.86,2.736,4.7Q2.82,2.463,2.9.222C2.811.149,2.717.075,2.626,0,.922.86,1.9,2.722,1.186,3.952.954,7.508.558,11.045.124,14.58-.02,15.75-.2,16.958.631,17.993Z" transform="translate(23.526 297.395)" fill="#f3efeb"/>
        <path id="Path_109" data-name="Path 109" d="M0,4.694c.193,2.453-.211,5.033,1.472,7.17a1.243,1.243,0,0,0,.376-1.018c-.1-1.805-.686-3.568-.465-5.4.084-.236.151-.477.218-.72s.137-.5.2-.753c.171-1.393,1-2.9-.676-3.969L.93,1.194A6.336,6.336,0,0,1,0,4.694Z" transform="translate(22.751 84.279)" fill="#f3efeb"/>
        <path id="Path_110" data-name="Path 110" d="M.088,0A30.825,30.825,0,0,0,2.094,12.819c.623-1.681-.284-3.165-.714-4.652C.606,5.484.9,2.656.088,0Z" transform="translate(26.208 67.41)" fill="#f3efeb"/>
        <path id="Path_111" data-name="Path 111" d="M.626,5.982c.651-.395.555-1.042.539-1.662-.2-.841-.641-1.7.176-2.466q.2.336.406.675.231-.35.462-.7C2.54,1.269,2.676.592,2.1.246A1.2,1.2,0,0,0,.225.8C.085,2.549-.369,4.323.626,5.982Z" transform="translate(11.952 23.586)" fill="#f3efeb"/>
        <path id="Path_112" data-name="Path 112" d="M1.611.273C.665-.192.045-.167.076,1.173.107,2.43.03,3.689,0,4.947L.037,4.9a.467.467,0,0,0,.6.065C1.272,4.1,1.21,2.775,2.36,2.238a.95.95,0,0,0,.333-.566Z" transform="translate(16.643 42.033)" fill="#f3efeb"/>
        <path id="Path_113" data-name="Path 113" d="M1.96,2.517c1.168-.669,2.055-.774,1.984,1.026.836-.847,1.469-1.836-.372-1.934C2.173,1.534,1.718-.122,0,.007Z" transform="translate(10.217 21.871)" fill="#f3efeb"/>
        <path id="Path_114" data-name="Path 114" d="M.614,3.783l1.646,1.4C2.021,3.2,2.046,1.21.272,0A.681.681,0,0,0,0,.574c.135.866.515,1.679.571,2.564A4.5,4.5,0,0,1,.614,3.783Z" transform="translate(5.345 4.885)" fill="#f3efeb"/>
        <path id="Path_115" data-name="Path 115" d="M.555,0,0,.019c.721,2,.309,4.279,1.513,6.152a.483.483,0,0,0,.7-.082C3.125,4.4,1.583,3.03,1.651,1.451,1.477.819,1.51.023.555,0Z" transform="translate(16.68 46.916)" fill="#f3efeb"/>
        <path id="Path_116" data-name="Path 116" d="M3.6,3.043C3.688,1.216,2.444.541,1.046,0,.737.258.2.067,0,.54L1.046,2.046c1.02-.266,1.076.808,1.622,1.2A.821.821,0,0,0,3.6,3.043Z" transform="translate(0.98 1.359)" fill="#f3efeb"/>
        <path id="Path_117" data-name="Path 117" d="M0,.991l.53,1.53a1.336,1.336,0,0,0,1.6.078A3.571,3.571,0,0,0,2.02.058C1.068-.254.72.781,0,.991Z" transform="translate(16.172 28.993)" fill="#f3efeb"/>
        <path id="Path_118" data-name="Path 118" d="M.075.569,0,6.144l.354.18a.924.924,0,0,0,.582-.507c.518-1.541.1-3.181.487-4.737A1.245,1.245,0,0,0,1,0L.49,0Z" transform="translate(18.647 252.354)" fill="#f3efeb"/>
        <path id="Path_119" data-name="Path 119" d="M.98,1.9l1.046-.54C1.441.986,1.487-.159.477.019.306.048.1.339.054.541-.106,1.3.06,1.876.98,1.9Z" transform="translate(0 0)" fill="#f3efeb"/>
        <path id="Path_120" data-name="Path 120" d="M1.959.34.49.354,0,1C1.5.695,2.9.627,3.461,2.517c.62-.375.284-1.056.488-1.563A1.318,1.318,0,0,0,2.934,0C2.623.152,2.219.033,1.959.34Z" transform="translate(16.212 31.16)" fill="#f3efeb"/>
        <path id="Path_121" data-name="Path 121" d="M1.636.161.888.142A.63.63,0,0,0,0,.232L1.552,2.3a.494.494,0,0,0,.577.037c-.216-.592.154-.906.555-1.206A3,3,0,0,1,2.673.644Z" transform="translate(2.944 4.241)" fill="#f3efeb"/>
        <path id="Path_122" data-name="Path 122" d="M.655,4.067C2.045,3.389,1.4,1.993,1.726.939,1.7.627,1.672.314,1.646,0L1.137,0C.329.813.682,2.06.064,2.942-.159,3.545.24,3.811.655,4.067Z" transform="translate(14.536 34.633)" fill="#f3efeb"/>
        <path id="Path_123" data-name="Path 123" d="M.917,2l.888-.09C1.743,1.153,1.622.354.847.057.157-.207.154.505,0,.934Z" transform="translate(2.027 2.469)" fill="#f3efeb"/>
        <path id="Path_124" data-name="Path 124" d="M.5.02A3.591,3.591,0,0,0,.013,0c-.154,1.805,1.1,1.939,2.368,2.052a.2.2,0,0,1,.258-.006A1.14,1.14,0,0,0,2.231.857,3.393,3.393,0,0,0,.5.02Z" transform="translate(18.18 53.085)" fill="#f3efeb"/>
        <path id="Path_125" data-name="Path 125" d="M1.058,3.078l-.4-1.1A1.417,1.417,0,0,0,.458,0,3.282,3.282,0,0,1,.047.048C.049,1.1-.218,2.188.5,3.128Z" transform="translate(14.133 35.622)" fill="#f3efeb"/>
        <path id="Path_126" data-name="Path 126" d="M.52,0C-.374,1.122.178,2.425.081,3.649.877,2.512.42,1.222.52,0Z" transform="translate(25.742 302.099)" fill="#f3efeb"/>
        <path id="Path_127" data-name="Path 127" d="M.487,0C-.076.392.073,1.012,0,1.563,1.071,1.531,1.147,1.289.487,0Z" transform="translate(19.675 32.115)" fill="#f3efeb"/>
        <path id="Path_128" data-name="Path 128" d="M0,2.45a.929.929,0,0,0,.976-.34L.02,0Z" transform="translate(18.171 29.05)" fill="#f3efeb"/>
        <path id="Path_129" data-name="Path 129" d="M.466.014.239,0,.01.016A1.9,1.9,0,0,0,1.475,2.141c.075-.1.149-.208.221-.316A1.932,1.932,0,0,0,.466.014Z" transform="translate(4.485 6.527)" fill="#f3efeb"/>
        <path id="Path_130" data-name="Path 130" d="M1.562,1.8l.067-.572A2.472,2.472,0,0,0,.265,0C.178.107.09.213,0,.319a1.429,1.429,0,0,0,.47,1.087A1.188,1.188,0,0,0,1.562,1.8Z" transform="translate(19.07 43.705)" fill="#f3efeb"/>
        <path id="Path_131" data-name="Path 131" d="M15.176,3.127l.62,1.025.95,1.011a4.058,4.058,0,0,1,.207,2.243A32.623,32.623,0,0,0,18.5,20.154a12.876,12.876,0,0,1,.5,4.007c.112,3.346-.846,6.709.407,10.059a3,3,0,0,1-.578,3.329,3.156,3.156,0,0,0,.019.418c.381,2.631.04,5.392,1.225,7.876.841,1.766-.6,3.021-.821,4.546-1.758,5.578.451,11.151.017,16.741-.314,4.061-.939,8.083-1.273,12.125-.314,3.8-1.054,7.572-1.039,11.406.019,4.263-.023,8.526.009,12.788.188,24.545-.525,49.083-.616,73.626-.017,4.649-.908,9.415-1.612,14.1q-.061,5.1-.123,10.2c.02.353.042.706.062,1.06-.347,2.659-.46,5.342-.645,8.012a11.659,11.659,0,0,1-1.675,5.745c-.754,2.539-.124,5.207-.7,7.76-.233,1.931-.02,3.963-1.227,5.681a2.831,2.831,0,0,0-.232.76,15.258,15.258,0,0,1-.3,3.189A17.372,17.372,0,0,1,9.38,238.2c-.535,6.434-.179,12.876-.2,19.311a34.611,34.611,0,0,1-1.5,8.955c-.423.631-.121,1.454-.53,2.09a.62.62,0,0,0-.115.4l.072,1.121c-.434.732-1.026,1.346-1.505,2.045-1.21,1.9.1,4.224-.983,6.149-.449,1.172-.432,2.48-1.018,3.612l.008-.012A13.775,13.775,0,0,0,2.66,284.6l-.128,2.387a66.292,66.292,0,0,1-1.878,8.3c-.844,1.43-.375,3.053-.655,4.566q.28.742.558,1.485c1.552,3.738,4.1,4.067,6.544.86a8.544,8.544,0,0,0,1.71-2.432c.034-2.321,2.394-3.848,2.083-6.289-.225-2.7,1.937-4.607,2.259-7.16.516-4.086,2.868-7.718,2.979-11.922.285-1.287.3-2.654,1.088-3.8.869-1.681.651-3.539.847-5.331a5.4,5.4,0,0,0,.334-1.737c-.508-5.32.837-10.387,2-15.481a16.682,16.682,0,0,1,.3-2.2c.135-5.17-.143-10.361,1.712-15.367.864-2.332.2-4.907.41-7.365.431-4.894.864-9.787,1.695-14.628.082-.505.235-1,.308-1.51a2.008,2.008,0,0,1,.474-.933l.017-.981a43.394,43.394,0,0,0,.362-8.394c-.006-9.532,1.245-19.049.785-28.554-1.217-25.148-.409-50.3-.7-75.451a34.088,34.088,0,0,0-.424-5.07.328.328,0,0,0,0-.358c.3-6.7.334-13.394-.019-20.092l0,.008a3.471,3.471,0,0,1-.933-2.8c.32-5.132-.909-10.118-1.185-15.191-.266-4.924-.658-9.835-.448-14.772-.389-5.255-2.373-10.292-2.074-15.641.042-.765.04-1.531.061-2.3-.837-4.439-1.336-8.944-2.554-13.309-.412-.5-.1-1.161-.354-1.7C17.6.69,17.279-.166,16.381.028c-.922.2-1.07,1.183-1.233,2.02A3.863,3.863,0,0,0,15.176,3.127Z" transform="translate(5.023 50.981)" fill="#f3efeb"/>
        <path id="Path_132" data-name="Path 132" d="M0,142.03a20.364,20.364,0,0,0,1.348-7.643c-.064-2.419,1.18-4.667,1.172-7.222Q2.4,84.581,2.53,42a60.941,60.941,0,0,1,1.021-8.3C4.669,25.687,5.712,17.638,4.624,9.529c-.4-3.012.306-5.922.409-8.884A.4.4,0,0,0,4.969,0c-1.407.193-.25,1.623-1,2.135a.949.949,0,0,0-.386,1.017,65.345,65.345,0,0,0-.03,6.692,1.716,1.716,0,0,0-.02.463c.26.211.6.438.6.766-.012,3.85.546,7.716-.316,11.542-.532,3.926-1.074,7.851-1.356,11.808-.871,9.8-.218,19.622-.392,29.433-.11,6.231-.109,12.464-.157,18.7a2.465,2.465,0,0,0-.2,1.242c.208,12.578-1.009,25.142-.454,37.713.269,6.071-1.328,11.956-1.208,17.982Z" transform="translate(19.766 100.127)" fill="#f3efeb"/>
        <path id="Path_133" data-name="Path 133" d="M.177,56.938c.468-3.842,1.2-7.676,1.343-11.53.225-6.292.026-12.6.072-18.9C1.656,17.671,2.45,8.846,2.038,0a2.347,2.347,0,0,0-.469,1.914C1.664,15.356.616,28.784,1.043,42.23,1.2,47.165-.549,51.975.177,56.938Z" transform="translate(19.647 182.68)" fill="#f3efeb"/>
        <path id="Path_134" data-name="Path 134" d="M.041,12.886C.54,8.969,1.607,5.129,1.587,1.143A.846.846,0,0,0,1.51,0,39.374,39.374,0,0,0,.041,12.886Z" transform="translate(22.193 121.664)" fill="#f3efeb"/>
        <path id="Path_135" data-name="Path 135" d="M.4,11.231q.037.571.076,1.143C1.43,8.455.863,4.495.757.549.753.359.263.183,0,0,1.017,3.711.356,7.484.4,11.231Z" transform="translate(23.302 110.433)" fill="#f3efeb"/>
        <path id="Path_136" data-name="Path 136" d="M.376,6.692A11.19,11.19,0,0,0,.405,0C.365.342.326.683.286,1.025a11.765,11.765,0,0,0,0,5.154Z" transform="translate(22.946 103.278)" fill="#f3efeb"/>
        <path id="Path_137" data-name="Path 137" d="M.459,5.154q0-2.577,0-5.154A.662.662,0,0,0,.092.162C.182,1.828-.356,3.543.459,5.154Z" transform="translate(22.773 104.303)" fill="#f3efeb"/>
        <path id="Path_138" data-name="Path 138" d="M.177,0C.153,1.783.111,3.567.111,5.35.1,25.812.071,46.275.124,66.737.136,72.143.582,77.55.542,82.955.464,93.7.183,104.443,0,115.186c-.012.76.1,1.522.157,2.284.5-6.042,1.231-12.066.95-18.156-.062-1.363-.446-2.935.936-4.007Q2.021,82.851,1.994,70.4c-1.308-.9-.894-2.3-.9-3.515q-.033-29.427.028-58.852A28.962,28.962,0,0,0,.177,0Z" transform="translate(30.188 138.569)" fill="#f3efeb"/>
        <path id="Path_139" data-name="Path 139" d="M.2,0c-.249,6.7-.3,13.4.019,20.092A155.552,155.552,0,0,0,.2,0Z" transform="translate(30.141 118.119)" fill="#f3efeb"/>
        <path id="Path_140" data-name="Path 140" d="M.375,23.846C1.1,22.329.63,20.7.8,19.127c.591-.962-.176-2.149.494-3.1v0a15.545,15.545,0,0,0,1.5-5.645,43.3,43.3,0,0,1,.536-8.172c.275-.673.986-1.221.591-2.09a.493.493,0,0,0-.662,0,9.142,9.142,0,0,0-.983,4.9c.16,2.914-.7,5.627-1.514,8.363C-.018,16.024.2,18.754.215,21.458A2.574,2.574,0,0,0,.375,23.846Z" transform="translate(14.389 265.066)" fill="#f3efeb"/>
        <path id="Path_141" data-name="Path 141" d="M2.343,2.387Q2.261,1.195,2.182,0,1.947,1.353,1.71,2.71c-.5,5.494-.213,11-.165,16.5A34.166,34.166,0,0,1,.22,29.408l-.075.878c-.174.463-.274.916.187,1.283A14.746,14.746,0,0,0,2.26,24.3Q2.321,13.341,2.343,2.387Z" transform="translate(12.422 286.526)" fill="#f3efeb"/>
        <path id="Path_142" data-name="Path 142" d="M.019,26.7a10.85,10.85,0,0,0,1.508-5.785C1.553,13.943,1.519,6.971,1.508,0,.754.683,1.07,1.586,1.067,2.4c-.019,4.846-.228,9.706.079,14.532C1.361,20.319-.186,23.382.019,26.7Z" transform="translate(12.624 289.236)" fill="#f3efeb"/>
        <path id="Path_143" data-name="Path 143" d="M.018,6.7l.525-.008a5,5,0,0,0,1-2.725c-.082-1.269.312-2.584-.35-3.8L1.012,0C-.585,2.038.247,4.448.018,6.7Z" transform="translate(17.635 258.498)" fill="#f3efeb"/>
        <path id="Path_144" data-name="Path 144" d="M.586,1.283.4,0A5.859,5.859,0,0,0,0,2.724C.634,2.424.5,1.808.586,1.283Z" transform="translate(12.168 316.812)" fill="#f3efeb"/>
        <path id="Path_145" data-name="Path 145" d="M5.047,8.823c-.383,2.32-1.091,4.591-1.58,6.83C2.53,19.947.152,23.812,0,28.287c.166.236.336.236.505,0,1.528-4.72,3.5-9.35,4.456-14.187C5.872,9.464,8.414,5.12,7.666.155a.372.372,0,0,0-.582-.03c.281,1.827-.544,3.42-1.035,5.084C5.529,6.362,5.5,7.652,5.047,8.823Z" transform="translate(15.665 316.333)" fill="#f3efeb"/>
        <path id="Path_146" data-name="Path 146" d="M.14,17.483l.582.03.825-1.1c-.312-3.386.987-6.6.992-9.96,0-1.427.106-2.853.163-4.279C2.918,1.424,3.181.67,2.514,0A38.649,38.649,0,0,0,.14,17.483Z" transform="translate(22.61 298.976)" fill="#f3efeb"/>
        <path id="Path_147" data-name="Path 147" d="M7.987,0c-.39.536-.8,1.06-1.169,1.609C4.313,5.313,2.163,4.9,0,1.637.184,4.756,2.076,5.9,4.938,4.63A11.511,11.511,0,0,0,8.086,1.144.751.751,0,0,0,7.987,0Z" transform="translate(5.581 350.676)" fill="#f3efeb"/>
        <path id="Path_148" data-name="Path 148" d="M.037,6.057.137,7.2C.661,4.692,3.18,2.9,2.64.006L2.388,0,2.135,0C1.917,2.192-.314,3.663.037,6.057Z" transform="translate(13.53 344.618)" fill="#f3efeb"/>
        <path id="Path_149" data-name="Path 149" d="M0,8.3A16.743,16.743,0,0,0,1.878,0,30.146,30.146,0,0,0,0,8.3Z" transform="translate(5.677 337.966)" fill="#f3efeb"/>
        <path id="Path_150" data-name="Path 150" d="M.008,3.612C1.106,2.627,1.05,1.309,1.026,0A4.945,4.945,0,0,0,.008,3.612Z" transform="translate(8.615 329.247)" fill="#f3efeb"/>
        <path id="Path_151" data-name="Path 151" d="M.044,2.733A4.531,4.531,0,0,0,.993,0,2.75,2.75,0,0,0,.044,2.733Z" transform="translate(7.638 332.846)" fill="#f3efeb"/>
        <path id="Path_152" data-name="Path 152" d="M0,2.044A2.253,2.253,0,0,0,1.505,0,2.559,2.559,0,0,0,0,2.044Z" transform="translate(10.624 321.053)" fill="#f3efeb"/>
        <path id="Path_153" data-name="Path 153" d="M2.548,0l-.51.508c-.9,1.626-.159,3.509-.788,5.176-.505.782-1.129,1.522-.9,2.57a12.286,12.286,0,0,1-.169,5.235,10.457,10.457,0,0,0-.151,2.987A1.306,1.306,0,0,0,.6,17.6q.392-.658.78-1.317C1.252,11.474,3.062,6.839,2.628,2,2.568,1.337,2.572.667,2.548,0Z" transform="translate(27.782 257.02)" fill="#f3efeb"/>
        <path id="Path_154" data-name="Path 154" d="M2.11,32.387c1.637-1.012.945-2.662.754-3.92a27.722,27.722,0,0,1-.325-5.076c.131-4.19.044-8.324-1.472-12.332-.984-2.6-.443-5.4-.591-8.111C.421,1.957.779.885.022,0-.037,5.661-.114,11.3,1.839,16.765c.653,1.83.288,3.856.169,5.8a9.638,9.638,0,0,0-.034,4.616l.159.959C2.851,29.557,2.463,30.972,2.11,32.387Z" transform="translate(21.747 56.143)" fill="#f3efeb"/>
        <path id="Path_155" data-name="Path 155" d="M.581,4.616Q.6,2.307.616,0A4.752,4.752,0,0,0,.581,4.616Z" transform="translate(23.14 78.704)" fill="#f3efeb"/>
        <path id="Path_156" data-name="Path 156" d="M3.308,7.67c.059.549-.019,1.143.491,1.542C4.455,5.872,2.7,3.277,1.22.6L.292,0a1.037,1.037,0,0,0-.28.924,3.212,3.212,0,0,0,.216.642C.676,2.606,1.343,3.529,1.773,4.58,2.235,5.636,3.116,6.476,3.308,7.67Z" transform="translate(19.413 44.907)" fill="#f3efeb"/>
        <path id="Path_157" data-name="Path 157" d="M.54,12.517c1.5-2.149,1.382-4.73,1.754-7.153A40.13,40.13,0,0,0,2.437.095.409.409,0,0,0,1.8.244C1.629,2.447.6,4.439.276,6.606A12.119,12.119,0,0,1,.06,10.342,4.737,4.737,0,0,0,.069,11.9,1.13,1.13,0,0,0,.54,12.517Z" transform="translate(25.795 278.943)" fill="#f3efeb"/>
        <path id="Path_158" data-name="Path 158" d="M1.211.731,1.081.054A.435.435,0,0,0,.432.345c-.2,1.97.25,3.969-.272,5.924Q.081,7.258,0,8.246.093,9.333.188,10.42c.721-1.149-.054-2.645.84-3.755Q1.119,3.7,1.211.731Z" transform="translate(25.124 290.73)" fill="#f3efeb"/>
        <path id="Path_159" data-name="Path 159" d="M.388,5.737.8,5.728Q.879,3.519.954,1.309C.9.874.85.437.8,0-.573,1.821.2,3.8.388,5.737Z" transform="translate(27.43 273.31)" fill="#f3efeb"/>
        <path id="Path_160" data-name="Path 160" d="M0,1.237q.1.991.2,1.982c1.729-.549.511-2,.883-2.966C.26-.179.26-.179,0,1.237Z" transform="translate(14.591 34.385)" fill="#f3efeb"/>
        <path id="Path_161" data-name="Path 161" d="M.716,0C-.192.578-.22.962.54,2.467Q.626,1.234.716,0Z" transform="translate(12.578 25.44)" fill="#f3efeb"/>
        <path id="Path_162" data-name="Path 162" d="M1.038,11.233c.022.2.043.395.067.591,1.461-1.368,1.922-2.956.634-4.633-1-1.3-.585-2.722-.678-4.106A6.641,6.641,0,0,0,.181,0C.137.171.094.34.049.51c-.225,1.922.4,3.772.474,5.667q0,.511.006,1.02c.03.313.057.625.087.936C1.586,9.05.537,10.25,1.038,11.233Z" transform="translate(23.695 88.946)" fill="#f3efeb"/>
        <path id="Path_163" data-name="Path 163" d="M1,3.1C.958,2.051,2.46.788.574,0L0,5.18C.794,4.714.239,3.584,1,3.1Z" transform="translate(23.737 97.081)" fill="#f3efeb"/>
        <path id="Path_164" data-name="Path 164" d="M.806,5.667A19.134,19.134,0,0,0,.332,0C-.48,1.973.4,3.8.806,5.667Z" transform="translate(23.411 89.456)" fill="#f3efeb"/>
        <path id="Path_165" data-name="Path 165" d="M2.48,1.888l-.011-1C2.259.6,2.049.3,1.838.01-.488-.148.213,1.676,0,2.9c.466.417.431,1.012.54,1.556.805,1.575.972,3.492,2.428,4.722a4.383,4.383,0,0,0-.622-4.936C1.66,3.388,1.5,2.618,2.48,1.888Z" transform="translate(17.235 44.014)" fill="#f3efeb"/>
        <path id="Path_166" data-name="Path 166" d="M.066,1.168C.086,2.045.846,2.4,1.3,2.979,2.106,1.8,1.272.927.742,0-.15-.009-.031.586.066,1.168Z" transform="translate(4.885 5.373)" fill="#f3efeb"/>
        <path id="Path_167" data-name="Path 167" d="M2.453,4.622A21.891,21.891,0,0,0,.033,0c-.283,1.662,1.384,2.931.9,4.633.327.617.726,1.119,1.522,1A.564.564,0,0,0,3,5.09C2.794,4.966,2.75,4.639,2.453,4.622Z" transform="translate(17.741 48.472)" fill="#f3efeb"/>
        <path id="Path_168" data-name="Path 168" d="M1,9.234a4.364,4.364,0,0,0-.54,2.536Q.229,12.816,0,13.865A6.211,6.211,0,0,0,1.97,8.881c.061-2.959.014-5.92.012-8.881-.955,1.628-.218,3.428-.5,5.126C.823,6.435,1.656,7.924,1,9.234Z" transform="translate(17.723 253.417)" fill="#f3efeb"/>
        <path id="Path_169" data-name="Path 169" d="M0,4.108C.951,2.834.285,1.364.485,0A.756.756,0,0,0,.113.12Q.058,2.114,0,4.108Z" transform="translate(18.718 258.543)" fill="#f3efeb"/>
        <path id="Path_170" data-name="Path 170" d="M2.724,20.523c.151-1.911-.39-3.873.41-5.737q.035-1.493.072-2.985a14.175,14.175,0,0,0,.089-5.07A2.763,2.763,0,0,1,4.2,4.6,9.018,9.018,0,0,0,4.192,0,23.663,23.663,0,0,0,2.848,6.3a79.461,79.461,0,0,0-.658,8.832A30.275,30.275,0,0,1,.812,25.852c-1.443,4.025-.5,8.4-.622,12.621.914-1.992.194-4.12.5-6.163A26.665,26.665,0,0,0,1.3,28.346a1.287,1.287,0,0,0-.092-1.163Z" transform="translate(25.094 258.525)" fill="#f3efeb"/>
        <path id="Path_171" data-name="Path 171" d="M2.05,7.538l.549.468c-.036-.768-.011-1.692.628-2.043.826-.456.745.875,1.35,1.057.395-1.4-.8-2.343-1-3.571-1.32-.6-1.629-1.87-2.006-3.1l0,0C1.127.232.587-.334.256.284A1.911,1.911,0,0,0,.594,2.631,5.549,5.549,0,0,1,2.05,7.538Z" transform="translate(18.144 45.556)" fill="#f3efeb"/>
        <path id="Path_172" data-name="Path 172" d="M1.5,0Q.752,2.822,0,5.645C1.57,4.058,1.618,2.051,1.5,0Z" transform="translate(15.684 275.454)" fill="#f3efeb"/>
        <path id="Path_173" data-name="Path 173" d="M0,1,.009,5.6C.978,3.809.239,1.855.533,0A1.016,1.016,0,0,0,0,1Z" transform="translate(29.286 257.528)" fill="#f3efeb"/>
        <path id="Path_174" data-name="Path 174" d="M.01,3.613A5.026,5.026,0,0,0,1.013,0C-.106.981-.008,2.309.01,3.613Z" transform="translate(20.701 321.543)" fill="#f3efeb"/>
        <path id="Path_175" data-name="Path 175" d="M.541,0C-.369.91.174,2.058.046,3.1.872,2.174.4,1.037.541,0Z" transform="translate(15.144 281.095)" fill="#f3efeb"/>
        <path id="Path_176" data-name="Path 176" d="M.089,0Q.044,2.535,0,5.07A6.2,6.2,0,0,0,.089,0Z" transform="translate(28.3 265.255)" fill="#f3efeb"/>
        <path id="Path_177" data-name="Path 177" d="M.045,0C-.12,1.589.088,2.929,2.051,3.1Z" transform="translate(19.673 45.907)" fill="#f3efeb"/>
        <path id="Path_178" data-name="Path 178" d="M.524,0C-.412,1.283.229,2.752.047,4.123a3.493,3.493,0,0,0,.423-.05q.042-.746.084-1.491A3.136,3.136,0,0,0,.524,0Z" transform="translate(25.736 286.712)" fill="#f3efeb"/>
        <path id="Path_179" data-name="Path 179" d="M0,1Q.014,2.3.029,3.587A3.169,3.169,0,0,0,.045,0Q.024.5,0,1Z" transform="translate(26.26 285.708)" fill="#f3efeb"/>
      </g>
    </g>
  </g>
</svg>
