<?xml version="1.0" encoding="utf-8"?>
<!-- Generator: Adobe Illustrator 16.0.0, SVG Export Plug-In . SVG Version: 6.00 Build 0)  -->
<!DOCTYPE svg PUBLIC "-//W3C//DTD SVG 1.1//EN" "http://www.w3.org/Graphics/SVG/1.1/DTD/svg11.dtd">
<svg version="1.1" xmlns="http://www.w3.org/2000/svg" xmlns:xlink="http://www.w3.org/1999/xlink" x="0px" y="0px"
	 width="549.244px" height="281px" viewBox="574.667 295.333 549.244 281" enable-background="new 574.667 295.333 549.244 281"
	 xml:space="preserve">
<g id="Layer_1" display="none">
</g>
<g id="about_us">
	<g>
		<rect x="569.541" y="391.349" fill="none" width="549.247" height="172.984"/>
		<path fill="#2E2E2E" stroke="#2D2E2E" stroke-miterlimit="10" d="M830.833,368.371c2.598,0,3.898,2.229,3.898,6.686
			l-12.811,81.881l-1.114,24.51v2.785c0,16.432,2.599,28.873,7.798,37.32v0.557l-0.557,0.557h-0.557
			c-6.036,0-10.12-10.211-12.255-30.636v-7.798l-0.558-2.785l0.558-3.343v-1.671c0-18.194,4.456-50.502,13.368-96.922v-0.557h-0.557
			c-16.063,38.621-25.717,58.117-28.965,58.487c-2.601,2.228-5.201,3.342-7.799,3.342h-3.342c-4.271,0-8.912-4.642-13.926-13.925
			c-3.714-11.141-5.57-17.825-5.57-20.053h-1.113v0.557c-4.086,33.051-7.429,65.543-10.027,97.479l-0.557,0.557
			c0,1.114-0.371,1.672-1.113,1.672c-1.859-3.807-2.785-8.447-2.785-13.926c0-6.869,3.527-41.59,10.583-104.163v-4.456
			l-1.114-12.812l1.672-1.114h0.557c2.876,0,4.734,7.242,5.57,21.725l10.025,34.535c3.434,5.57,6.963,8.355,10.584,8.355
			c5.383,0,12.439-11.326,21.166-33.979c8.913-21.909,15.04-32.865,18.383-32.865H830.833z"/>
		<path fill="#2E2E2E" stroke="#2D2E2E" stroke-miterlimit="10" d="M854.295,442.873h2.785c3.712,0.744,5.57,2.6,5.57,5.57v1.671
			c0,6.685-6.128,12.812-18.382,18.382l-3.342,0.557h-3.9c0,2.601,1.672,3.899,5.014,3.899h3.343c5.477,0,16.244-2.041,32.307-6.127
			c-11.513,8.171-22.653,12.255-33.421,12.255c-8.543,0-12.812-2.599-12.812-7.799v-2.229c0-5.848,4.825-13.459,14.482-22.838
			C849.281,443.987,852.066,442.873,854.295,442.873z M840.369,463.482c6.497-1.483,12.067-5.57,16.711-12.254v-1.671l-1.114-1.114
			c-5.758,0-11.141,5.014-16.154,15.039H840.369z"/>
		<path fill="#2E2E2E" stroke="#2D2E2E" stroke-miterlimit="10" d="M880.262,431.872h1.672c1.113,0.372,1.671,1.486,1.671,3.343V438
			l-2.229,26.736v0.557h0.558c3.62-15.225,6.775-22.838,9.469-22.838h0.558c4.456,0,6.684,7.242,6.684,21.725
			c3.063,15.969,6.591,23.951,10.584,23.951c1.113,0,3.154-1.299,6.127-3.898v0.557c-2.693,4.456-5.479,6.684-8.355,6.684h-1.114
			c-7.056,0-11.697-12.996-13.925-38.99h-0.558c-5.013,19.404-8.355,30.544-10.026,33.42l-1.671,1.115h-1.671
			c-2.229-1.021-3.342-3.434-3.342-7.242C876.642,447.841,878.498,431.872,880.262,431.872z"/>
		<path fill="#2E2E2E" stroke="#2D2E2E" stroke-miterlimit="10" d="M917.371,444.127h1.114l1.114,1.113v1.114
			c-3.714,11.698-5.57,19.312-5.57,22.838v5.57l1.114,1.114c6.591-5.85,12.718-13.647,18.382-23.395l2.228-0.558h0.558l2.228,2.785
			l-1.671,11.697c0,2.228,1.299,4.271,3.899,6.128h7.241l13.368-1.115v1.115l-16.711,5.569h-3.342c-5.57,0-8.912-3.712-10.026-11.14
			c-7.335,9.656-12.72,14.482-16.153,14.482h-2.785c-2.973-1.95-4.456-5.105-4.456-9.47c0-6.685,2.041-15.04,6.127-25.065
			L917.371,444.127z"/>
	</g>
</g>
<g id="_x29_">
	<g>
		<path fill="#231F20" d="M991.21,497.815c0-0.004,0.004-0.008,0.004-0.008c0.016-0.375,0.033-0.729,0.033-1.015
			c0-0.032,0-0.065,0-0.101c-0.004-0.268-0.004-0.534,0.004-0.795c0.02-0.86,0.107-1.651,0.494-2.164l-0.531,4.076L991.21,497.815"
			/>
		<g>
			<polyline fill="#231F20" points="969.921,549.138 970.735,548.187 970.823,548.212 969.969,549.122 969.921,549.138 			"/>
			<path fill="#231F20" d="M985.354,521.388l0.289-1.203c0.275-0.045,0.549,0.063,0.844-0.473l0.021-1.24
				c1.125-1.533,1.324-3.438,1.475-5.324l-0.639,0.701c-0.107,0.603-0.082,0.918,0.037,0.918c0.068,0,0.17-0.107,0.297-0.326
				c-0.98,1.92-1.553,3.787-2.035,5.744l-0.094,0.021c0.639-3.542,1.031-7.391,1.109-10.742c0.357-0.301,0.727-0.367,1.092-0.424
				l0,0c-0.365,0.057-0.734,0.123-1.092,0.424l0.023-1.382c0.096-0.713,0.248-1.366,0.412-2.026
				c0.314-1.033,0.635-2.099,0.941-3.291c0.482-1.565-0.459-3.648-0.402-6.164c-0.064-0.404,0.859-0.215,0.73-1.023
				c-0.078-1.872-0.365-3.479-0.238-5.195c-0.152-0.802,0.971-1.977,0.807-2.783c-0.107-1.468-0.779-4.725-1.1-4.725
				c-0.09,0-0.148,0.249-0.162,0.854c-0.057,4.187,0.006,6.938-0.168,10.681c-0.094-3.371-0.18-6.878-0.008-10.946
				c0.119-2.589,0.684-5.99,0.568-9.201c-0.402-4.396-1.285-8.982-1.293-14.268c0.289-19.895-1.191-37.285-1.252-55.928
				c-0.178-3.591-0.615-6.753-0.68-9.761c-0.125-6.02-1.422-12.381-2.592-18.414c-1.154-6.047-2.18-11.767-1.594-16.904
				c0.357-3.541-0.604-8.278-1.619-11.166c-0.561-1.605-1.1-2.648-1.373-2.648c-0.168,0-0.24,0.374-0.172,1.225
				c-0.615-4.717-1.732-7.892-2.523-10.542c-0.861-2.847-1.367-5.101-0.811-8.17c0.025-0.227,0.527-1.752,1.619-2.332
				c0.252-0.131,0.539-0.215,0.861-0.215c1.063,0,2.506,0.887,4.33,3.771c1.27,3.004,3.094,7.427,4.607,11.987
				c1.529,4.556,2.758,9.235,3.201,12.604c1.064,8.79,2.371,16.947,3.479,25.121c1.096,8.162,1.982,16.324,2.033,24.886
				c0.051,8.583-0.031,17.289-0.137,26.331l-0.242,23.997c-0.133,7.779-0.17,15.484-0.656,23.531
				c-0.137,2.498-0.305,4.941-0.506,7.359l0,0l-0.324,3.694c-0.035,0.089-0.072,0.196-0.109,0.323l0.094-0.164l-0.086,0.877
				c-0.504,0.693-0.463,1.875-0.434,3.066c0.004,0.293-0.004,0.649-0.012,1.029c-0.189,1.621-0.396,3.236-0.625,4.863l-0.045-0.355
				l0.006-0.246l0.529-4.076c-0.387,0.513-0.475,1.304-0.494,2.164c-0.021,0.32-0.031,0.632-0.035,0.939
				c-0.102,0.432-0.234,0.795-0.391,1.117c0.084-0.115,0.166-0.199,0.232-0.199s0.119,0.077,0.152,0.277v0.021l-0.012,0.762
				l-0.313,2.123c-0.117,0.373-0.271,0.744-0.482,1.101c-0.174,0.49-0.006,0.778,0.123,1.177c-0.791,4.857-1.771,9.797-3.127,14.973
				C987.403,518.192,986.075,520.707,985.354,521.388 M990.823,497.956c-0.16,0.227-0.326,0.579-0.424,0.706
				C990.548,498.461,990.694,498.22,990.823,497.956 M991.448,482.265c0,0.504,0.381,1.076,0.381,1.637
				C991.829,483.341,991.448,482.769,991.448,482.265 M992.829,481.433l-0.502,0.813l0,0L992.829,481.433L992.829,481.433
				 M992.409,480.04L992.409,480.04c0.506-1.1,0.924-2.366,0.559-3.889C992.487,477.358,992.278,478.866,992.409,480.04
				L992.409,480.04 M987.678,514.438c0.041-0.078,0.078-0.151,0.119-0.229C987.757,514.295,987.716,514.373,987.678,514.438
				 M991.214,497.808v-0.969c0.012-0.049,0.021-0.097,0.031-0.146c0,0.035,0,0.068,0,0.102
				C991.247,497.08,991.227,497.433,991.214,497.808 M977.616,347.42c-0.057-0.398-0.098-0.74-0.123-1.027
				C977.538,346.729,977.579,347.068,977.616,347.42"/>
		</g>
		<path fill="#231F20" d="M978.087,536.056c0.469-0.672,0.922-1.348,1.287-2.139c1.152-2.9,1.891-5.746,2.598-8.684
			c1.109-3.53,1.654-6.18,2.527-10.211c0.127-0.564,0.23-0.799,0.316-0.799c0.322,0,0.367,3.338,0.137,4.813
			c-0.016,0.816-1.371,1.693-1.402,2.496c-0.521,1.626-0.641,3.236-1.057,5.046c-0.088,0.81-0.932,0.371-0.979,0.772
			c-0.725,2.364-0.473,4.623-1.436,5.949C979.393,534.317,978.753,535.212,978.087,536.056"/>
		<path fill="#231F20" d="M971.317,548.376c-0.197,0-0.326-0.104-0.494-0.164c1.395-1.475,2.768-2.873,4.48-4.191
			c-0.16,0.107-0.275,0.158-0.348,0.158c-0.166,0-0.064-0.307,0.328-0.854l0.885-0.379c-0.938,1.664-2.004,3.324-3.744,4.164
			c0.004,0.002-0.408,0.734-0.623,1.09C971.596,548.331,971.444,548.376,971.317,548.376"/>
		<path fill="#231F20" d="M984.536,529.749l0.004-0.016c0.037-0.236-0.004-0.322-0.084-0.322c-0.066,0-0.16,0.057-0.26,0.134
			c0.244-0.265,0.479-0.59,0.693-0.979L984.536,529.749"/>
		<polyline fill="#231F20" points="984.303,530.493 984.536,529.749 984.477,530.114 984.303,530.493 		"/>
		<path fill="#231F20" d="M984.889,528.563c0.195-0.639,0.408-1.291,0.717-1.944C985.425,527.41,985.178,528.049,984.889,528.563"/>
		<path fill="#231F20" d="M983.591,530.106c0.006-0.008,0.014-0.012,0.021-0.021C983.604,530.095,983.596,530.099,983.591,530.106
			 M983.612,530.086c0.131-0.103,0.379-0.381,0.584-0.542C984.003,529.757,983.805,529.938,983.612,530.086"/>
		<path fill="#231F20" d="M982.286,534.54c0.014-0.428-0.063-0.762,0.266-1.17c0.326-0.281,0.582-0.594,0.813-0.92
			C983.018,533.155,982.647,533.849,982.286,534.54"/>
	</g>
	<g>
		<path fill="#2E2E2E" stroke="#2D2E2E" stroke-miterlimit="10" d="M991.21,497.815c0-0.004,0.004-0.008,0.004-0.008
			c0.016-0.375,0.033-0.729,0.033-1.015c0-0.032,0-0.065,0-0.101c-0.004-0.268-0.004-0.534,0.004-0.795
			c0.02-0.86,0.107-1.651,0.494-2.164l-0.531,4.076L991.21,497.815"/>
		<g>
			<polyline fill="#2E2E2E" stroke="#2D2E2E" stroke-miterlimit="10" points="969.921,549.138 970.735,548.187 970.823,548.212 
				969.969,549.122 969.921,549.138 			"/>
			<path fill="#2E2E2E" stroke="#2D2E2E" stroke-miterlimit="10" d="M985.354,521.388l0.289-1.203
				c0.275-0.045,0.549,0.063,0.844-0.473l0.021-1.24c1.125-1.533,1.324-3.438,1.475-5.324l-0.639,0.701
				c-0.107,0.603-0.082,0.918,0.037,0.918c0.068,0,0.17-0.107,0.297-0.326c-0.98,1.92-1.553,3.787-2.035,5.744l-0.094,0.021
				c0.639-3.542,1.031-7.391,1.109-10.742c0.357-0.301,0.727-0.367,1.092-0.424l0,0c-0.365,0.057-0.734,0.123-1.092,0.424
				l0.023-1.382c0.096-0.713,0.248-1.366,0.412-2.026c0.314-1.033,0.635-2.099,0.941-3.291c0.482-1.565-0.459-3.648-0.402-6.164
				c-0.064-0.404,0.859-0.215,0.73-1.023c-0.078-1.872-0.365-3.479-0.238-5.195c-0.152-0.802,0.971-1.977,0.807-2.783
				c-0.107-1.468-0.779-4.725-1.1-4.725c-0.09,0-0.148,0.249-0.162,0.854c-0.057,4.187,0.006,6.938-0.168,10.681
				c-0.094-3.371-0.18-6.878-0.008-10.946c0.119-2.589,0.684-5.99,0.568-9.201c-0.402-4.396-1.285-8.982-1.293-14.268
				c0.289-19.895-1.191-37.285-1.252-55.928c-0.178-3.591-0.615-6.753-0.68-9.761c-0.125-6.02-1.422-12.381-2.592-18.414
				c-1.154-6.047-2.18-11.767-1.594-16.904c0.357-3.541-0.604-8.278-1.619-11.166c-0.561-1.605-1.1-2.648-1.373-2.648
				c-0.168,0-0.24,0.374-0.172,1.225c-0.615-4.717-1.732-7.892-2.523-10.542c-0.861-2.847-1.367-5.101-0.811-8.17
				c0.025-0.227,0.527-1.752,1.619-2.332c0.252-0.131,0.539-0.215,0.861-0.215c1.063,0,2.506,0.887,4.33,3.771
				c1.27,3.004,3.094,7.427,4.607,11.987c1.529,4.556,2.758,9.235,3.201,12.604c1.064,8.79,2.371,16.947,3.479,25.121
				c1.096,8.162,1.982,16.324,2.033,24.886c0.051,8.583-0.031,17.289-0.137,26.331l-0.242,23.997
				c-0.133,7.779-0.17,15.484-0.656,23.531c-0.137,2.498-0.305,4.941-0.506,7.359l0,0l-0.324,3.694
				c-0.035,0.089-0.072,0.196-0.109,0.323l0.094-0.164l-0.086,0.877c-0.504,0.693-0.463,1.875-0.434,3.066
				c0.004,0.293-0.004,0.649-0.012,1.029c-0.189,1.621-0.396,3.236-0.625,4.863l-0.045-0.355l0.006-0.246l0.529-4.076
				c-0.387,0.513-0.475,1.304-0.494,2.164c-0.021,0.32-0.031,0.632-0.035,0.939c-0.102,0.432-0.234,0.795-0.391,1.117
				c0.084-0.115,0.166-0.199,0.232-0.199s0.119,0.077,0.152,0.277v0.021l-0.012,0.762l-0.313,2.123
				c-0.117,0.373-0.271,0.744-0.482,1.101c-0.174,0.49-0.006,0.778,0.123,1.177c-0.791,4.857-1.771,9.797-3.127,14.973
				C987.403,518.192,986.075,520.707,985.354,521.388 M990.823,497.956c-0.16,0.227-0.326,0.579-0.424,0.706
				C990.548,498.461,990.694,498.22,990.823,497.956 M991.448,482.265c0,0.504,0.381,1.076,0.381,1.637
				C991.829,483.341,991.448,482.769,991.448,482.265 M992.829,481.433l-0.502,0.813l0,0L992.829,481.433L992.829,481.433
				 M992.409,480.04L992.409,480.04c0.506-1.1,0.924-2.366,0.559-3.889C992.487,477.358,992.278,478.866,992.409,480.04
				L992.409,480.04 M987.678,514.438c0.041-0.078,0.078-0.151,0.119-0.229C987.757,514.295,987.716,514.373,987.678,514.438
				 M991.214,497.808v-0.969c0.012-0.049,0.021-0.097,0.031-0.146c0,0.035,0,0.068,0,0.102
				C991.247,497.08,991.227,497.433,991.214,497.808 M977.616,347.42c-0.057-0.398-0.098-0.74-0.123-1.027
				C977.538,346.729,977.579,347.068,977.616,347.42"/>
		</g>
		<path fill="#2E2E2E" stroke="#2D2E2E" stroke-miterlimit="10" d="M978.087,536.056c0.469-0.672,0.922-1.348,1.287-2.139
			c1.152-2.9,1.891-5.746,2.598-8.684c1.109-3.53,1.654-6.18,2.527-10.211c0.127-0.564,0.23-0.799,0.316-0.799
			c0.322,0,0.367,3.338,0.137,4.813c-0.016,0.816-1.371,1.693-1.402,2.496c-0.521,1.626-0.641,3.236-1.057,5.046
			c-0.088,0.81-0.932,0.371-0.979,0.772c-0.725,2.364-0.473,4.623-1.436,5.949C979.393,534.317,978.753,535.212,978.087,536.056"/>
		<path fill="#2E2E2E" stroke="#2D2E2E" stroke-miterlimit="10" d="M971.317,548.376c-0.197,0-0.326-0.104-0.494-0.164
			c1.395-1.475,2.768-2.873,4.48-4.191c-0.16,0.107-0.275,0.158-0.348,0.158c-0.166,0-0.064-0.307,0.328-0.854l0.885-0.379
			c-0.938,1.664-2.004,3.324-3.744,4.164c0.004,0.002-0.408,0.734-0.623,1.09C971.596,548.331,971.444,548.376,971.317,548.376"/>
		<path fill="#2E2E2E" stroke="#2D2E2E" stroke-miterlimit="10" d="M984.536,529.749l0.004-0.016
			c0.037-0.236-0.004-0.322-0.084-0.322c-0.066,0-0.16,0.057-0.26,0.134c0.244-0.265,0.479-0.59,0.693-0.979L984.536,529.749"/>
		<polyline fill="#2E2E2E" stroke="#2D2E2E" stroke-miterlimit="10" points="984.303,530.493 984.536,529.749 984.477,530.114 
			984.303,530.493 		"/>
		<path fill="#2E2E2E" stroke="#2D2E2E" stroke-miterlimit="10" d="M984.889,528.563c0.195-0.639,0.408-1.291,0.717-1.944
			C985.425,527.41,985.178,528.049,984.889,528.563"/>
		<path fill="#2E2E2E" stroke="#2D2E2E" stroke-miterlimit="10" d="M983.591,530.106c0.006-0.008,0.014-0.012,0.021-0.021
			C983.604,530.095,983.596,530.099,983.591,530.106 M983.612,530.086c0.131-0.103,0.379-0.381,0.584-0.542
			C984.003,529.757,983.805,529.938,983.612,530.086"/>
		<path fill="#2E2E2E" stroke="#2D2E2E" stroke-miterlimit="10" d="M982.286,534.54c0.014-0.428-0.063-0.762,0.266-1.17
			c0.326-0.281,0.582-0.594,0.813-0.92C983.018,533.155,982.647,533.849,982.286,534.54"/>
	</g>
</g>
<g id="_x28_">
	<path fill="#2E2E2E" stroke="#2D2E2E" stroke-miterlimit="10" d="M719.725,528.347c-0.145-0.759-0.279-1.513-0.531-2.287
		c-1.084-2.729-2.18-5.285-3.193-7.983c-0.953-3.392-1.736-5.839-2.617-9.666c-0.123-0.579-0.111-0.817-0.014-0.817
		c0.33,0,1.668,2.748,2.145,4.008c0.352,0.676-0.428,2.022-0.068,2.699c0.344,1.581,1.078,2.93,1.729,4.545
		c0.373,0.664-0.559,0.799-0.371,1.137c0.758,2.238,2.375,3.69,2.506,5.199L719.725,528.347"/>
	<path fill="#2E2E2E" stroke="#2D2E2E" stroke-miterlimit="10" d="M725.264,540.325c-0.693-1.715-1.191-3.457-1.279-5.418
		c-0.002,0.264-0.051,0.395-0.131,0.395c-0.105,0-0.266-0.238-0.441-0.707l0.219-0.865c0.76,1.554,1.535,3.086,1.412,4.84
		l0.652,0.933C725.747,540.054,725.464,540.128,725.264,540.325"/>
	<path fill="#2E2E2E" stroke="#2D2E2E" stroke-miterlimit="10" d="M716.958,513.325c-0.107-0.363-0.215-0.73-0.307-1.096
		c0.223-0.164,0.516-0.201,0.533-0.758l-0.529-1.014c0.342-1.727-0.238-3.354-0.809-4.994l-0.324,0.828
		c0.125,0.505,0.26,0.762,0.365,0.762c0.074,0,0.135-0.131,0.17-0.387c-0.15,1.973,0.125,3.766,0.594,5.563l-0.074,0.06
		c-1.07-3.147-2.217-6.55-3.279-9.509c0.227-0.383,0.551-0.564,0.881-0.735c0.023,0.282,0.025,0.616,0.025,0.961
		c0-0.345-0.002-0.679-0.025-0.961c-0.33,0.171-0.654,0.353-0.881,0.735l-0.447-1.219c-0.145-0.658-0.207-1.285-0.254-1.92
		l-0.064-3.193c0.033-1.52-1.418-3.139-1.939-5.447c-0.15-0.354,0.789-0.391,0.488-1.096c-0.484-1.674-1.08-3.09-1.266-4.686
		c-0.295-0.709,0.609-1.98,0.324-2.689c-0.355-1.303-1.447-4.18-1.771-4.18c-0.092,0-0.123,0.232-0.053,0.813
		c0.529,3.881,1.068,6.404,1.676,9.865c-0.805-3.063-1.502-6.293-1.885-10.088c-0.238-2.418-0.061-5.629-0.451-8.586
		c-0.787-4.024-1.926-8.225-2.176-13.069c-0.588-18.263-2.055-34.391-0.543-51.658c0.129-3.331,0.029-6.294,0.324-9.072
		c1.174-11.113-1.305-24.023,2.498-32.914c1.988-4.861,1.873-13.022,1.111-13.022c-0.154,0-0.336,0.336-0.533,1.106
		c1.896-8.992,0.219-12.625,3.564-17.212c0.117-0.183,1.262-1.359,2.553-1.359c1.193,0,2.512,1.008,3.25,4.749
		c0.08,5.809,0.33,16.971-0.654,22.943c-2.744,15.551-1.961,29.622-3.33,44.985c-0.686,7.705-1.17,15.567-1.398,23.756
		c-0.35,15.117,0.193,28.537,0.791,43.092l0.369,6.666l0,0l0.23,3.354c-0.02,0.086-0.041,0.186-0.057,0.309l0.068-0.164l0.061,0.791
		c-0.381,0.711-0.133,1.762,0.119,2.809c0.063,0.26,0.123,0.578,0.189,0.916c0.133,1.476,0.277,2.945,0.438,4.424l-0.127-0.305
		l0.166,0.672l0.223,1.935c-0.02,0.356-0.07,0.718-0.18,1.085c-0.041,0.475,0.203,0.68,0.434,0.991
		c0.574,4.426,1.303,8.94,2.287,13.69l0,0C717.329,509.851,717.241,512.444,716.958,513.325 M714.204,503.166
		c0,0.36,0.002,0.717,0.027,1.011C714.206,503.883,714.204,503.526,714.204,503.166 M714.003,491.479
		c-0.102,0.238-0.182,0.59-0.244,0.725C713.856,491.989,713.94,491.744,714.003,491.479 M713.958,489.562
		c0.049,0.289,0.107,0.571,0.172,0.847c0,0.401-0.049,0.754-0.127,1.073c0.063-0.135,0.129-0.234,0.203-0.234
		c0.061,0,0.121,0.061,0.189,0.212l0.008,0.019l-0.057-0.215l-0.35-3.714C713.718,488.079,713.792,488.796,713.958,489.562
		 M713.481,479.347L713.481,479.347L713.481,479.347 M711.856,477.214c0,0.531,0.609,1.069,0.607,1.667
		C712.466,478.283,711.856,477.745,711.856,477.214 M713.13,476.39l-0.396,0.795l0,0L713.13,476.39L713.13,476.39 M712.55,475.183
		L712.55,475.183c0.379-1.051,0.662-2.23,0.154-3.563C712.339,472.754,712.29,474.14,712.55,475.183L712.55,475.183
		 M716.057,506.668c0.006-0.082,0.012-0.164,0.021-0.245C716.073,506.517,716.065,506.597,716.057,506.668 M714.343,491.246
		l-0.213-0.839c0-0.049,0-0.094-0.002-0.139c0.01,0.03,0.018,0.061,0.023,0.09C714.214,490.606,714.276,490.916,714.343,491.246
		 M708.149,352.582c0.064-0.329,0.127-0.613,0.188-0.855C708.278,352.006,708.216,352.291,708.149,352.582"/>
</g>
<g id="purity_of_nature">
</g>
</svg>
