<svg xmlns="http://www.w3.org/2000/svg" width="20.938" height="170.595" viewBox="0 0 20.938 170.595">
  <g id="QRNhEL.tif" transform="matrix(-0.999, 0.035, -0.035, -0.999, 20.938, 170.561)">
    <g id="Group_7" data-name="Group 7" transform="translate(0 0)">
      <g id="Group_6" data-name="Group 6">
        <path id="Path_92" data-name="Path 92" d="M1.722,0a6.444,6.444,0,0,0,.046,3.483A8.354,8.354,0,0,1,1.917,7.8a44.146,44.146,0,0,0-.836,9.648c-.057,5.6.067,11.207-.041,16.808-.069,3.558-.026,7.156-.409,10.666C.131,49.513.466,54.07.279,58.633.112,62.686-.095,66.738.048,70.8a.256.256,0,0,0,.387-.059c.512-1.559.144-3.164.252-4.745-.045-.457-.023-.916-.026-1.374.663-6.007.316-12.042.543-18.059.093-2.466.1-4.93.175-7.4A5.073,5.073,0,0,1,1.55,37.6c.154-3.2.044-6.4.067-9.6.02-2.877,0-5.754.005-8.631A21.98,21.98,0,0,1,1.853,14.9a23.207,23.207,0,0,1,.632-6.282,25.715,25.715,0,0,0-.04-5.179,3.38,3.38,0,0,1-.118-.4,2.725,2.725,0,0,0-.107-.391c-.292-.759,0-1.582-.245-2.347A.616.616,0,0,0,1.722,0Z" transform="translate(9.063 49.347)" fill="#f3efeb"/>
        <path id="Path_93" data-name="Path 93" d="M1.782,54.092A3.859,3.859,0,0,1,1.5,52.431c.01-9.7.161-19.406-.055-29.1-.1-4.332.018-8.674-.249-13-.164-2.677-.132-5.347-.179-8.02A3.388,3.388,0,0,0,.254,0C-.237.973.116,2,.218,2.953c.276,2.58.124,5.16.246,7.736a2.337,2.337,0,0,0,.078.44,80.01,80.01,0,0,1,.032,9.3,1.82,1.82,0,0,0,.007.462,22.421,22.421,0,0,1,.331,4.475q-.022,13.394,0,26.788c0,.666-.18,1.4.434,1.939A.372.372,0,0,0,1.782,54.092Z" transform="translate(13.666 45.289)" fill="#f3efeb"/>
        <path id="Path_94" data-name="Path 94" d="M3.6,0c-.255,1.358-.5,2.717-.767,4.072C2.3,6.742,2.476,9.514,1.524,12.141c-.46,1.266-.021,2.737-.326,4.094A25.13,25.13,0,0,0,.963,23C1.117,26.144.352,29.15,0,32.214c.277.082.449-.069.6-.275a1.248,1.248,0,0,0,.119-.344,5.925,5.925,0,0,1,.235-1.268,3.028,3.028,0,0,0,.081-.6c.966-4.046.192-8.178.607-12.249a14.169,14.169,0,0,1,.277-1.46,21.263,21.263,0,0,1,.95-6.172c.383-1.242-.139-2.67.5-3.926.195-1.1-.136-2.276.46-3.321A3.74,3.74,0,0,0,3.6,0Z" transform="translate(5.315 120.414)" fill="#f3efeb"/>
        <path id="Path_95" data-name="Path 95" d="M1.612,15.64A72.762,72.762,0,0,0,1.086,4.69C.463,3.8.805,2.778.712,1.816.656,1.227.666.631.645.038A.275.275,0,0,0,.259.147,18.022,18.022,0,0,0,.1,5.194C.143,7.977.816,10.7.776,13.5.765,14.263.563,15.243,1.612,15.64Z" transform="translate(12.835 40.599)" fill="#f3efeb"/>
        <path id="Path_96" data-name="Path 96" d="M.138,19.387a2.238,2.238,0,0,0,1.554-1.541,19.555,19.555,0,0,0,1.427-3.375c.4-1.984,1.273-3.865,1.756-5.838A54.779,54.779,0,0,0,6.608,1.407C6.655.97,6.76.538,6.838.1A.386.386,0,0,0,6.483.01,1.107,1.107,0,0,0,5.9.761C5.683,4.042,4.465,7.08,3.7,10.229c-.307,1.266-.989,2.368-1.248,3.63.295,1.326-.847,2.177-1.075,3.329C1,17.881.354,18.378,0,19.092A.367.367,0,0,0,.138,19.387Z" transform="translate(4.938 150.061)" fill="#f3efeb"/>
        <path id="Path_97" data-name="Path 97" d="M3.583,0,3.158.312A4.311,4.311,0,0,0,2.183,2.7C1.794,4.9,1.3,7.093.73,9.255A19.582,19.582,0,0,0,0,14.7a.253.253,0,0,0,.349-.049,11.751,11.751,0,0,0,.452-2.1,36,36,0,0,1,.853-3.894,4.583,4.583,0,0,0,.107-1.077A2.4,2.4,0,0,1,2.053,6.3a2.061,2.061,0,0,0,.115-.318,4.935,4.935,0,0,1,.56-1.6c.432-.847.118-1.8.37-2.669.093-.48.507-.785.658-1.234A.46.46,0,0,0,3.583,0Z" transform="translate(2.157 152.317)" fill="#f3efeb"/>
        <path id="Path_98" data-name="Path 98" d="M.438,18.893A38.283,38.283,0,0,0,1.3,10.757c.118-3.116.476-6.227.286-9.353A3.244,3.244,0,0,1,1.876.11L1.682,0C.929.257.988.92,1,1.507,1.078,4.164.876,6.811.751,9.46a3.853,3.853,0,0,1-.131.953,3.156,3.156,0,0,0-.1.654A22.592,22.592,0,0,1,.1,16.676a3.725,3.725,0,0,0,.046,1.9A.608.608,0,0,0,.438,18.893Z" transform="translate(13.583 111.333)" fill="#f3efeb"/>
        <path id="Path_99" data-name="Path 99" d="M0,.062A9.813,9.813,0,0,1,.355,3.9a11.988,11.988,0,0,0,.782,4.749,3.063,3.063,0,0,1,.106,2.146A4.249,4.249,0,0,0,1.486,14.5.705.705,0,0,0,1.762,14a1.865,1.865,0,0,0-.044-.591,4.283,4.283,0,0,1,.063-2.3,7.512,7.512,0,0,0-.232-3.492C.731,5.423.922,3.146.858.886A1.074,1.074,0,0,0,.372.038.377.377,0,0,0,0,.062Z" transform="translate(9.789 26.189)" fill="#f3efeb"/>
        <path id="Path_100" data-name="Path 100" d="M2.8,10.7C2.55,8.72,2.629,6.684,1.768,4.8A2.731,2.731,0,0,1,1.623,3.5,4.778,4.778,0,0,0,.14,0,.6.6,0,0,0,0,.351a1.33,1.33,0,0,0,.226.8A4.646,4.646,0,0,1,1.042,4.48a45.452,45.452,0,0,1,1,5.5.976.976,0,0,0,.385.731A.333.333,0,0,0,2.8,10.7Z" transform="translate(9.715 21.392)" fill="#f3efeb"/>
        <path id="Path_101" data-name="Path 101" d="M.417,11.577C.588,8.762,1.924,6.116,1.571,3.22A11.609,11.609,0,0,1,1.855.109L1.719,0c-.4.066-.528.381-.649.708a11.425,11.425,0,0,0-.1,2.037A15.34,15.34,0,0,1,.157,8.557a6.512,6.512,0,0,0-.026,2.722A.564.564,0,0,0,.417,11.577Z" transform="translate(12.166 130.117)" fill="#f3efeb"/>
        <path id="Path_102" data-name="Path 102" d="M.663,0,.414.008C-.208.884.039,1.888.1,2.822a43.509,43.509,0,0,0,.873,5,1.146,1.146,0,0,0,.4.723l.255,0L1.622,6.1A29.134,29.134,0,0,1,.667,0Z" transform="translate(11.853 32.093)" fill="#f3efeb"/>
        <path id="Path_103" data-name="Path 103" d="M.469,12.062c.054-.107.155-.214.155-.321Q.634,6.029.619.318C.619.212.515.106.459,0L.333.105a3.3,3.3,0,0,0-.3,2.117C.048,4.93.015,7.637.023,10.344a2.291,2.291,0,0,0,.333,1.622Z" transform="translate(14.989 99.381)" fill="#f3efeb"/>
        <path id="Path_104" data-name="Path 104" d="M0,2.025c1.163.722.759,1.869.762,2.905a.222.222,0,0,0,.274.038,1.823,1.823,0,0,1,.456-.36.7.7,0,0,0,.223-.171l.016-1.176c.081-.135.244-.2.306-.35a.76.76,0,0,0-.326-.687C.093,2.418.642,1.183.534.382.673.114.527.03.3,0-.063.3.07.719.035,1.1A7.636,7.636,0,0,1,0,2.025Z" transform="translate(5.989 12.052)" fill="#f3efeb"/>
        <path id="Path_105" data-name="Path 105" d="M.283.021.169,0,.053.01C-.289,1.5,1.115,2.287,1.474,3.511c.076.258.956.436,1.2-.306.085-.261.037-.57.295-.762L2.9,2.153C1.341,2.092,1.112,1.937.771.711A.988.988,0,0,0,.283.021Z" transform="translate(2.108 167.005)" fill="#f3efeb"/>
        <path id="Path_106" data-name="Path 106" d="M.358,6.987l.1.388a.325.325,0,0,0,.289-.117,1.607,1.607,0,0,0,.183-.475c.061-.226.133-.448.19-.675a9.292,9.292,0,0,0,.289-2.217,2.048,2.048,0,0,0-.133-.565A7.408,7.408,0,0,1,.733,1C.661.65.706.269.405,0,.007.232-.082.5.07.993c.34,1.1.238,2.29.6,3.413C.954,5.264.438,6.12.358,6.987Z" transform="translate(10.427 42.359)" fill="#f3efeb"/>
        <path id="Path_107" data-name="Path 107" d="M0,1.513c.881,1.164.666,2.6.957,3.918.359-.282.3-.7.32-1.079.021-.439.034-.87.447-1.146C1.728,2.04.664,1.2.776,0,.33.288.545.92.15,1.234A1.179,1.179,0,0,0,0,1.513Z" transform="translate(6.966 16.936)" fill="#f3efeb"/>
        <path id="Path_108" data-name="Path 108" d="M.3,8.566l.275.011c-.079-1.563.744-3.021.519-4.6C1.343,3.42,1,2.79,1.3,2.24q.04-1.067.08-2.134L1.25,0C.439.409.907,1.3.565,1.882c-.11,1.693-.3,3.377-.506,5.06A2,2,0,0,0,.3,8.566Z" transform="translate(11.2 141.587)" fill="#f3efeb"/>
        <path id="Path_109" data-name="Path 109" d="M0,2.235C.092,3.4-.1,4.631.7,5.648A.592.592,0,0,0,.88,5.164,14.334,14.334,0,0,1,.659,2.591c.04-.113.072-.227.1-.343s.065-.238.1-.358C.941,1.226,1.335.508.537,0L.443.568A3.016,3.016,0,0,1,0,2.235Z" transform="translate(10.832 40.125)" fill="#f3efeb"/>
        <path id="Path_110" data-name="Path 110" d="M.042,0A14.676,14.676,0,0,0,1,6.1c.3-.8-.135-1.507-.34-2.215C.288,2.611.429,1.264.042,0Z" transform="translate(12.477 32.093)" fill="#f3efeb"/>
        <path id="Path_111" data-name="Path 111" d="M.3,2.848c.31-.188.264-.5.257-.791-.1-.4-.3-.809.084-1.174L.832,1.2,1.052.87C1.209.6,1.274.282,1,.117A.57.57,0,0,0,.107.382,3.865,3.865,0,0,0,.3,2.848Z" transform="translate(5.69 11.229)" fill="#f3efeb"/>
        <path id="Path_112" data-name="Path 112" d="M.767.13C.317-.091.021-.079.036.559c.015.6-.022,1.2-.036,1.8l.018-.021A.222.222,0,0,0,.3,2.365c.3-.415.272-1.044.819-1.3A.452.452,0,0,0,1.282.8Z" transform="translate(7.924 20.011)" fill="#f3efeb"/>
        <path id="Path_113" data-name="Path 113" d="M.933,1.2c.556-.318.979-.369.944.489.4-.4.7-.874-.177-.921C1.035.73.818-.058,0,0Z" transform="translate(4.864 10.413)" fill="#f3efeb"/>
        <path id="Path_114" data-name="Path 114" d="M.292,1.8l.784.665C.962,1.522.974.576.13,0A.324.324,0,0,0,0,.273c.064.412.245.8.272,1.221A2.144,2.144,0,0,1,.292,1.8Z" transform="translate(2.544 2.326)" fill="#f3efeb"/>
        <path id="Path_115" data-name="Path 115" d="M.264,0,0,.009c.343.95.147,2.037.72,2.929A.23.23,0,0,0,1.052,2.9C1.488,2.1.754,1.443.786.691.7.39.719.011.264,0Z" transform="translate(7.941 22.336)" fill="#f3efeb"/>
        <path id="Path_116" data-name="Path 116" d="M1.714,1.449C1.756.579,1.164.258.5,0,.351.123.1.032,0,.257L.5.974c.486-.127.512.385.772.574A.391.391,0,0,0,1.714,1.449Z" transform="translate(0.467 0.647)" fill="#f3efeb"/>
        <path id="Path_117" data-name="Path 117" d="M0,.472.252,1.2a.636.636,0,0,0,.764.037A1.7,1.7,0,0,0,.962.028C.509-.121.343.372,0,.472Z" transform="translate(7.699 13.803)" fill="#f3efeb"/>
        <path id="Path_118" data-name="Path 118" d="M.036.271,0,2.925l.169.086A.44.44,0,0,0,.446,2.77C.692,2.036.494,1.255.677.514A.593.593,0,0,0,.474,0H.233Z" transform="translate(8.878 120.144)" fill="#f3efeb"/>
        <path id="Path_119" data-name="Path 119" d="M.467.9l.5-.257C.686.469.708-.076.227.009.146.023.046.161.026.257-.051.617.029.893.467.9Z" transform="translate(0 0)" fill="#f3efeb"/>
        <path id="Path_120" data-name="Path 120" d="M.933.162l-.7.007L0,.477C.714.331,1.379.3,1.648,1.2c.3-.178.135-.5.232-.744A.627.627,0,0,0,1.4,0C1.249.073,1.056.016.933.162Z" transform="translate(7.718 14.835)" fill="#f3efeb"/>
        <path id="Path_121" data-name="Path 121" d="M.779.076.423.068A.3.3,0,0,0,0,.111L.739,1.1a.235.235,0,0,0,.275.018c-.1-.282.073-.432.264-.574A1.431,1.431,0,0,1,1.272.307Z" transform="translate(1.402 2.019)" fill="#f3efeb"/>
        <path id="Path_122" data-name="Path 122" d="M.312,1.936C.974,1.614.665.949.822.447.809.3.8.15.783,0L.541,0C.156.387.324.981.031,1.4-.076,1.688.114,1.814.312,1.936Z" transform="translate(6.92 16.489)" fill="#f3efeb"/>
        <path id="Path_123" data-name="Path 123" d="M.437.954.859.911C.83.549.772.169.4.027.075-.1.073.24,0,.445Z" transform="translate(0.965 1.175)" fill="#f3efeb"/>
        <path id="Path_124" data-name="Path 124" d="M.236.01A1.71,1.71,0,0,0,.006,0C-.067.86.529.924,1.133.978a.1.1,0,0,1,.123,0A.543.543,0,0,0,1.062.408,1.616,1.616,0,0,0,.236.01Z" transform="translate(8.655 25.273)" fill="#f3efeb"/>
        <path id="Path_125" data-name="Path 125" d="M.5,1.466.313.944A.675.675,0,0,0,.218,0a1.563,1.563,0,0,1-.2.023A2.186,2.186,0,0,0,.238,1.489Z" transform="translate(6.728 16.959)" fill="#f3efeb"/>
        <path id="Path_126" data-name="Path 126" d="M.247,0C-.178.534.085,1.155.039,1.737.418,1.2.2.582.247,0Z" transform="translate(12.256 143.827)" fill="#f3efeb"/>
        <path id="Path_127" data-name="Path 127" d="M.232,0C-.036.187.035.482,0,.744.51.729.546.614.232,0Z" transform="translate(9.367 15.289)" fill="#f3efeb"/>
        <path id="Path_128" data-name="Path 128" d="M0,1.167A.442.442,0,0,0,.465,1L.01,0Z" transform="translate(8.651 13.831)" fill="#f3efeb"/>
        <path id="Path_129" data-name="Path 129" d="M.222.007.114,0,0,.007A.9.9,0,0,0,.7,1.019C.738.97.773.92.807.869A.92.92,0,0,0,.222.007Z" transform="translate(2.135 3.107)" fill="#f3efeb"/>
        <path id="Path_130" data-name="Path 130" d="M.744.856.776.584A1.177,1.177,0,0,0,.126,0L0,.152A.68.68,0,0,0,.225.669.566.566,0,0,0,.744.856Z" transform="translate(9.079 20.808)" fill="#f3efeb"/>
        <path id="Path_131" data-name="Path 131" d="M7.225,1.488l.3.488.452.481a1.932,1.932,0,0,1,.1,1.068A15.532,15.532,0,0,0,8.809,9.6,6.13,6.13,0,0,1,9.048,11.5c.053,1.593-.4,3.194.194,4.789a1.43,1.43,0,0,1-.275,1.585,1.5,1.5,0,0,0,.009.2c.181,1.252.019,2.567.583,3.75.4.841-.284,1.438-.391,2.164-.837,2.656.215,5.309.008,7.97-.15,1.933-.447,3.848-.606,5.773-.15,1.811-.5,3.6-.494,5.43.009,2.03-.011,4.059,0,6.088.09,11.685-.25,23.368-.293,35.053a47.155,47.155,0,0,1-.768,6.713q-.029,2.428-.058,4.856c.01.168.02.336.03.5-.165,1.266-.219,2.543-.307,3.814a5.551,5.551,0,0,1-.8,2.735c-.359,1.209-.059,2.479-.333,3.694a5.469,5.469,0,0,1-.584,2.7,1.348,1.348,0,0,0-.11.362,7.264,7.264,0,0,1-.141,1.518,8.27,8.27,0,0,1-.252,2.2c-.255,3.063-.085,6.13-.1,9.194a16.478,16.478,0,0,1-.712,4.264c-.2.3-.058.692-.252.995a.3.3,0,0,0-.055.189l.034.534c-.206.349-.489.641-.717.973-.576.907.05,2.011-.468,2.927a15.675,15.675,0,0,1-.485,1.719l0-.006a6.558,6.558,0,0,0-.452,1.3l-.061,1.136a31.56,31.56,0,0,1-.894,3.95c-.4.681-.178,1.454-.312,2.174q.133.353.266.707c.739,1.779,1.952,1.936,3.116.409a4.068,4.068,0,0,0,.814-1.158c.016-1.105,1.14-1.832.992-2.994-.107-1.285.922-2.193,1.076-3.409.246-1.945,1.366-3.674,1.418-5.676a4.751,4.751,0,0,1,.518-1.807,6.837,6.837,0,0,0,.4-2.538,2.573,2.573,0,0,0,.159-.827,23.015,23.015,0,0,1,.954-7.37,7.943,7.943,0,0,1,.143-1.05c.064-2.461-.068-4.933.815-7.316.412-1.11.093-2.336.2-3.506.205-2.33.412-4.66.807-6.965.039-.241.112-.477.147-.719a.956.956,0,0,1,.226-.444l.008-.467a20.66,20.66,0,0,0,.172-4c0-4.538.593-9.069.374-13.594-.58-11.973-.195-23.948-.335-35.922a16.229,16.229,0,0,0-.2-2.414.156.156,0,0,0,0-.17c.145-3.188.159-6.377-.009-9.566v0a1.652,1.652,0,0,1-.444-1.333c.153-2.443-.433-4.817-.564-7.232-.127-2.344-.313-4.682-.213-7.033-.185-2.5-1.13-4.9-.987-7.446.02-.364.019-.729.029-1.093-.4-2.113-.636-4.258-1.216-6.336-.2-.239-.047-.553-.169-.809C8.378.329,8.227-.079,7.8.013s-.509.563-.587.962A1.839,1.839,0,0,0,7.225,1.488Z" transform="translate(2.391 24.272)" fill="#f3efeb"/>
        <path id="Path_132" data-name="Path 132" d="M0,67.619A9.7,9.7,0,0,0,.642,63.98c-.03-1.152.562-2.222.558-3.438q-.057-20.274,0-40.548a29.013,29.013,0,0,1,.486-3.953A42.241,42.241,0,0,0,2.2,4.537,24.723,24.723,0,0,1,2.4.307.189.189,0,0,0,2.366,0C1.7.092,2.247.773,1.89,1.016a.452.452,0,0,0-.184.484,31.11,31.11,0,0,0-.014,3.186.817.817,0,0,0-.01.221c.124.1.288.209.287.365a24.99,24.99,0,0,1-.15,5.5c-.253,1.869-.511,3.738-.645,5.622C.76,21.055,1.071,25.731.988,30.4.936,33.368.936,36.335.913,39.3a1.174,1.174,0,0,0-.095.591c.1,5.988-.48,11.97-.216,17.955C.731,60.74-.03,63.541.027,66.41Z" transform="translate(9.411 47.669)" fill="#f3efeb"/>
        <path id="Path_133" data-name="Path 133" d="M.084,27.108c.223-1.829.574-3.654.64-5.489.107-3,.013-6,.034-9C.788,8.413,1.167,4.212.97,0A1.118,1.118,0,0,0,.747.911C.792,7.311.293,13.7.5,20.105.571,22.455-.261,24.745.084,27.108Z" transform="translate(9.354 86.972)" fill="#f3efeb"/>
        <path id="Path_134" data-name="Path 134" d="M.02,6.135A42.53,42.53,0,0,0,.755.544.4.4,0,0,0,.719,0,18.746,18.746,0,0,0,.02,6.135Z" transform="translate(10.566 57.923)" fill="#f3efeb"/>
        <path id="Path_135" data-name="Path 135" d="M.191,5.347q.018.272.036.544A21.058,21.058,0,0,0,.36.261C.358.171.125.087,0,0,.484,1.767.17,3.563.191,5.347Z" transform="translate(11.094 52.576)" fill="#f3efeb"/>
        <path id="Path_136" data-name="Path 136" d="M.179,3.186A5.327,5.327,0,0,0,.193,0C.174.163.155.325.136.488a5.6,5.6,0,0,0,0,2.454Z" transform="translate(10.924 49.17)" fill="#f3efeb"/>
        <path id="Path_137" data-name="Path 137" d="M.218,2.454q0-1.227,0-2.454A.315.315,0,0,0,.044.077,5.538,5.538,0,0,0,.218,2.454Z" transform="translate(10.842 49.658)" fill="#f3efeb"/>
        <path id="Path_138" data-name="Path 138" d="M.084,0C.073.849.053,1.7.053,2.547c0,9.742-.019,19.484.006,29.226.006,2.574.218,5.148.2,7.721C.221,44.609.087,49.724,0,54.839c-.006.362.048.725.075,1.087a67.027,67.027,0,0,0,.452-8.644c-.03-.649-.212-1.4.446-1.907q-.011-5.93-.024-11.86c-.623-.429-.426-1.1-.426-1.674Q.507,17.831.536,3.822A13.788,13.788,0,0,0,.084,0Z" transform="translate(14.372 65.971)" fill="#f3efeb"/>
        <path id="Path_139" data-name="Path 139" d="M.1,0C-.022,3.189-.045,6.378.1,9.566A74.057,74.057,0,0,0,.1,0Z" transform="translate(14.35 56.236)" fill="#f3efeb"/>
        <path id="Path_140" data-name="Path 140" d="M.179,11.353a6.4,6.4,0,0,0,.2-2.247C.663,8.648.3,8.083.617,7.631v0a7.4,7.4,0,0,0,.716-2.688,20.616,20.616,0,0,1,.255-3.89c.131-.321.469-.581.281-.995a.235.235,0,0,0-.315,0,4.352,4.352,0,0,0-.468,2.333A11.624,11.624,0,0,1,.365,6.376,12.979,12.979,0,0,0,.1,10.216,1.225,1.225,0,0,0,.179,11.353Z" transform="translate(6.851 126.196)" fill="#f3efeb"/>
        <path id="Path_141" data-name="Path 141" d="M1.115,1.136Q1.076.569,1.039,0,.927.644.814,1.29C.576,3.906.713,6.529.736,9.146A16.266,16.266,0,0,1,.1,14l-.036.418c-.083.221-.13.436.089.611a7.021,7.021,0,0,0,.918-3.462Q1.1,6.352,1.115,1.136Z" transform="translate(5.914 136.412)" fill="#f3efeb"/>
        <path id="Path_142" data-name="Path 142" d="M.009,12.711A5.166,5.166,0,0,0,.727,9.956C.74,6.638.723,3.319.718,0,.359.325.509.755.508,1.142.5,3.449.4,5.763.546,8.061.648,9.674-.089,11.132.009,12.711Z" transform="translate(6.01 137.702)" fill="#f3efeb"/>
        <path id="Path_143" data-name="Path 143" d="M.009,3.188l.25,0a2.379,2.379,0,0,0,.477-1.3A4.012,4.012,0,0,0,.57.079L.482,0C-.279.97.117,2.118.009,3.188Z" transform="translate(8.396 123.069)" fill="#f3efeb"/>
        <path id="Path_144" data-name="Path 144" d="M.279.611.19,0A2.789,2.789,0,0,0,0,1.3C.3,1.154.239.861.279.611Z" transform="translate(5.793 150.831)" fill="#f3efeb"/>
        <path id="Path_145" data-name="Path 145" d="M2.4,4.2c-.182,1.1-.52,2.186-.752,3.252C1.2,9.5.073,11.337,0,13.467c.079.113.16.113.241,0A60.01,60.01,0,0,0,2.362,6.715C2.8,4.506,4.006,2.437,3.65.074A.177.177,0,0,0,3.373.06,5.48,5.48,0,0,1,2.88,2.48C2.632,3.029,2.617,3.643,2.4,4.2Z" transform="translate(7.458 150.603)" fill="#f3efeb"/>
        <path id="Path_146" data-name="Path 146" d="M.067,8.324l.277.014.393-.524c-.149-1.612.47-3.144.472-4.742,0-.68.05-1.358.078-2.037C1.389.678,1.514.319,1.2,0A18.4,18.4,0,0,0,.067,8.324Z" transform="translate(10.764 142.34)" fill="#f3efeb"/>
        <path id="Path_147" data-name="Path 147" d="M3.8,0c-.186.255-.38.5-.557.766C2.053,2.529,1.03,2.332,0,.779.087,2.264.988,2.81,2.351,2.2A5.48,5.48,0,0,0,3.85.545.358.358,0,0,0,3.8,0Z" transform="translate(2.657 166.954)" fill="#f3efeb"/>
        <path id="Path_148" data-name="Path 148" d="M.018,2.884l.047.545C.315,2.234,1.514,1.379,1.257,0l-.12,0H1.016C.913,1.044-.149,1.744.018,2.884Z" transform="translate(6.442 164.07)" fill="#f3efeb"/>
        <path id="Path_149" data-name="Path 149" d="M0,3.95A7.971,7.971,0,0,0,.894,0,14.352,14.352,0,0,0,0,3.95Z" transform="translate(2.703 160.902)" fill="#f3efeb"/>
        <path id="Path_150" data-name="Path 150" d="M0,1.719A2.019,2.019,0,0,0,.489,0,2.355,2.355,0,0,0,0,1.719Z" transform="translate(4.102 156.751)" fill="#f3efeb"/>
        <path id="Path_151" data-name="Path 151" d="M.021,1.3A2.157,2.157,0,0,0,.473,0,1.309,1.309,0,0,0,.021,1.3Z" transform="translate(3.637 158.465)" fill="#f3efeb"/>
        <path id="Path_152" data-name="Path 152" d="M0,.973A1.073,1.073,0,0,0,.717,0,1.219,1.219,0,0,0,0,.973Z" transform="translate(5.058 152.851)" fill="#f3efeb"/>
        <path id="Path_153" data-name="Path 153" d="M1.213,0,.97.242C.542,1.016.895,1.913.595,2.706A1.571,1.571,0,0,0,.168,3.93,5.849,5.849,0,0,1,.087,6.422,4.978,4.978,0,0,0,.015,7.844a.622.622,0,0,0,.272.535q.187-.313.372-.627c-.062-2.289.8-4.5.593-6.8C1.223.637,1.225.318,1.213,0Z" transform="translate(13.227 122.365)" fill="#f3efeb"/>
        <path id="Path_154" data-name="Path 154" d="M1,15.419c.779-.482.45-1.267.359-1.866a13.2,13.2,0,0,1-.155-2.417,14.926,14.926,0,0,0-.7-5.871C.039,4.025.3,2.694.226,1.4.2.932.371.421.01,0A22.5,22.5,0,0,0,.876,7.982a6.962,6.962,0,0,1,.081,2.759,4.589,4.589,0,0,0-.016,2.2l.075.457A2.772,2.772,0,0,1,1,15.419Z" transform="translate(10.354 26.729)" fill="#f3efeb"/>
        <path id="Path_155" data-name="Path 155" d="M.277,2.2Q.285,1.1.293,0A2.262,2.262,0,0,0,.277,2.2Z" transform="translate(11.017 37.47)" fill="#f3efeb"/>
        <path id="Path_156" data-name="Path 156" d="M1.575,3.651c.028.261-.009.544.234.734C2.121,2.8,1.285,1.56.581.284L.139,0A.494.494,0,0,0,.006.44a1.529,1.529,0,0,0,.1.306c.213.5.531.935.736,1.435A6.244,6.244,0,0,1,1.575,3.651Z" transform="translate(9.242 21.38)" fill="#f3efeb"/>
        <path id="Path_157" data-name="Path 157" d="M.257,5.959a7.533,7.533,0,0,0,.835-3.406A19.106,19.106,0,0,0,1.16.045a.2.2,0,0,0-.3.071c-.081,1.049-.571,2-.725,3.029a5.77,5.77,0,0,1-.1,1.779,2.255,2.255,0,0,0,0,.743A.538.538,0,0,0,.257,5.959Z" transform="translate(12.281 132.802)" fill="#f3efeb"/>
        <path id="Path_158" data-name="Path 158" d="M.577.348.514.026A.207.207,0,0,0,.206.164a17.182,17.182,0,0,1-.13,2.82Q.038,3.455,0,3.926q.044.517.09,1.035C.433,4.414.064,3.7.489,3.173Q.533,1.761.577.348Z" transform="translate(11.961 138.414)" fill="#f3efeb"/>
        <path id="Path_159" data-name="Path 159" d="M.185,2.731l.2,0Q.418,1.675.454.623C.43.416.4.208.38,0-.273.867.094,1.809.185,2.731Z" transform="translate(13.059 130.121)" fill="#f3efeb"/>
        <path id="Path_160" data-name="Path 160" d="M0,.589q.048.472.095.944C.918,1.271.338.58.515.12.124-.085.124-.085,0,.589Z" transform="translate(6.946 16.37)" fill="#f3efeb"/>
        <path id="Path_161" data-name="Path 161" d="M.341,0C-.091.275-.1.458.257,1.175Q.3.587.341,0Z" transform="translate(5.988 12.112)" fill="#f3efeb"/>
        <path id="Path_162" data-name="Path 162" d="M.494,5.348c.01.094.021.188.032.281a1.5,1.5,0,0,0,.3-2.206C.353,2.8.549,2.127.505,1.469A3.162,3.162,0,0,0,.086,0C.065.081.045.162.023.243a17.074,17.074,0,0,0,.226,2.7q0,.243,0,.486c.014.149.027.3.041.446C.755,4.309.256,4.88.494,5.348Z" transform="translate(11.281 42.347)" fill="#f3efeb"/>
        <path id="Path_163" data-name="Path 163" d="M.474,1.475c-.018-.5.7-1.1-.2-1.475L0,2.466C.378,2.244.114,1.706.474,1.475Z" transform="translate(11.301 46.219)" fill="#f3efeb"/>
        <path id="Path_164" data-name="Path 164" d="M.384,2.7A9.109,9.109,0,0,0,.158,0C-.228.939.191,1.809.384,2.7Z" transform="translate(11.146 42.589)" fill="#f3efeb"/>
        <path id="Path_165" data-name="Path 165" d="M1.181.9,1.175.425.875,0C-.232-.07.1.8,0,1.381c.222.2.205.482.257.741.383.75.463,1.662,1.156,2.248a2.087,2.087,0,0,0-.3-2.35C.791,1.613.716,1.247,1.181.9Z" transform="translate(8.206 20.955)" fill="#f3efeb"/>
        <path id="Path_166" data-name="Path 166" d="M.031.556c.01.417.372.588.586.862C1,.855.606.441.353,0-.072,0-.015.279.031.556Z" transform="translate(2.326 2.558)" fill="#f3efeb"/>
        <path id="Path_167" data-name="Path 167" d="M1.168,2.2A10.422,10.422,0,0,0,.016,0c-.135.791.659,1.4.43,2.206.155.294.346.533.725.477a.269.269,0,0,0,.259-.26C1.33,2.364,1.309,2.209,1.168,2.2Z" transform="translate(8.446 23.077)" fill="#f3efeb"/>
        <path id="Path_168" data-name="Path 168" d="M.474,4.4A2.078,2.078,0,0,0,.217,5.6Q.109,6.1,0,6.6A2.957,2.957,0,0,0,.938,4.228C.967,2.819.944,1.409.944,0,.489.775.84,1.632.7,2.44.392,3.064.788,3.773.474,4.4Z" transform="translate(8.438 120.65)" fill="#f3efeb"/>
        <path id="Path_169" data-name="Path 169" d="M0,1.956C.453,1.349.135.649.231,0A.36.36,0,0,0,.054.057Q.027,1.006,0,1.956Z" transform="translate(8.912 123.09)" fill="#f3efeb"/>
        <path id="Path_170" data-name="Path 170" d="M1.3,9.771a8.115,8.115,0,0,1,.2-2.731q.017-.711.034-1.421A6.749,6.749,0,0,0,1.569,3.2,1.316,1.316,0,0,1,2,2.191,4.294,4.294,0,0,0,2,0a11.266,11.266,0,0,0-.639,3A37.831,37.831,0,0,0,1.043,7.2a14.413,14.413,0,0,1-.657,5.106c-.687,1.916-.236,4-.3,6.009.435-.948.093-1.962.238-2.934A12.7,12.7,0,0,0,.621,13.5a.613.613,0,0,0-.044-.554Z" transform="translate(11.947 123.081)" fill="#f3efeb"/>
        <path id="Path_171" data-name="Path 171" d="M.976,3.589l.261.223c-.017-.366-.005-.805.3-.973.393-.217.355.417.643.5.188-.667-.379-1.115-.474-1.7C1.076,1.357.929.752.75.167v0C.536.111.28-.159.122.135A.91.91,0,0,0,.283,1.253,2.642,2.642,0,0,1,.976,3.589Z" transform="translate(8.638 21.689)" fill="#f3efeb"/>
        <path id="Path_172" data-name="Path 172" d="M.716,0Q.358,1.343,0,2.688A3.258,3.258,0,0,0,.716,0Z" transform="translate(7.467 131.141)" fill="#f3efeb"/>
        <path id="Path_173" data-name="Path 173" d="M0,.474,0,2.665C.466,1.813.114.883.254,0A.484.484,0,0,0,0,.474Z" transform="translate(13.943 122.607)" fill="#f3efeb"/>
        <path id="Path_174" data-name="Path 174" d="M0,1.72A2.393,2.393,0,0,0,.482,0,1.992,1.992,0,0,0,0,1.72Z" transform="translate(9.856 153.084)" fill="#f3efeb"/>
        <path id="Path_175" data-name="Path 175" d="M.257,0C-.176.433.083.98.022,1.475.415,1.035.192.494.257,0Z" transform="translate(7.21 133.827)" fill="#f3efeb"/>
        <path id="Path_176" data-name="Path 176" d="M.042,0Q.021,1.207,0,2.414A2.951,2.951,0,0,0,.042,0Z" transform="translate(13.474 126.286)" fill="#f3efeb"/>
        <path id="Path_177" data-name="Path 177" d="M.021,0C-.057.756.042,1.395.976,1.475Z" transform="translate(9.366 21.856)" fill="#f3efeb"/>
        <path id="Path_178" data-name="Path 178" d="M.25,0C-.2.611.109,1.31.022,1.963a1.663,1.663,0,0,0,.2-.024l.04-.71A1.493,1.493,0,0,0,.25,0Z" transform="translate(12.253 136.501)" fill="#f3efeb"/>
        <path id="Path_179" data-name="Path 179" d="M0,.478q.007.615.014,1.229A1.509,1.509,0,0,0,.021,0Q.011.24,0,.478Z" transform="translate(12.502 136.023)" fill="#f3efeb"/>
      </g>
    </g>
  </g>
</svg>
