<?xml version="1.0" encoding="utf-8"?>
<!-- Generator: Adobe Illustrator 16.0.0, SVG Export Plug-In . SVG Version: 6.00 Build 0)  -->
<!DOCTYPE svg PUBLIC "-//W3C//DTD SVG 1.1//EN" "http://www.w3.org/Graphics/SVG/1.1/DTD/svg11.dtd">
<svg version="1.1" xmlns="http://www.w3.org/2000/svg" xmlns:xlink="http://www.w3.org/1999/xlink" x="0px" y="0px"
	 width="549.244px" height="281px" viewBox="0 295.333 549.244 281" enable-background="new 0 295.333 549.244 281"
	 xml:space="preserve">
<g id="Layer_1" display="none">
</g>
<g id="about_us">
	<g>
		<rect x="-9" y="387.069" fill="none" width="549.244" height="213.328"/>
		<path fill="#2E2E2E" stroke="#2D2E2E" stroke-miterlimit="10" d="M81.087,376.348h6.685c13.181,0,29.522,5.569,49.018,16.71
			c8.168,6.499,12.254,13.368,12.254,20.61c0,11.233-12.999,24.045-38.991,38.434l-0.557,0.557v11.141
			c26.271,5.85,47.068,15.875,62.386,30.079c7.611,6.5,12.812,11.697,15.597,15.597v0.558
			c-11.141-10.396-24.696-19.31-40.663-26.737c-9.284-5.198-20.61-9.47-33.978-12.812l-2.785-0.558v2.229
			c0,7.057,1.484,14.67,4.456,22.838l1.671-1.114l0.557,0.558h0.557c-0.835,2.228-1.95,3.529-3.342,3.898
			c-5.292,0-8.821-10.025-10.583-30.078c-13.74-1.115-20.609-3.343-20.609-6.686c0-1.855,4.641-4.641,13.925-8.354
			c0.091-0.558,2.319-1.671,6.684-3.343c0-38.99-1.114-58.486-3.342-58.486l-1.671-1.672l0.557-0.557h1.671
			c2.97,0,5.57,5.57,7.798,16.711l0.557,16.153v16.711c0.091,4.456,0.463,6.685,1.114,6.685
			c22.281-12.813,33.421-23.58,33.421-32.308c0-5.661-4.828-11.789-14.482-18.382c-17.825-8.54-32.494-12.812-44.004-12.812h-0.557
			c-12.254,0-18.382,2.415-18.382,7.241v0.557c0,2.508,3.899,8.077,11.698,16.711h-0.557c-9.282-7.611-13.926-14.11-13.926-19.496
			C65.677,379.876,71.617,376.348,81.087,376.348z M94.455,460.457c0,0.836,2.97,1.58,8.912,2.229v-6.128h-0.557L94.455,460.457z"/>
		<path fill="#2E2E2E" stroke="#2D2E2E" stroke-miterlimit="10" d="M166.517,438.594h2.785c3.712,0.744,5.57,2.6,5.57,5.57v1.671
			c0,6.685-6.127,12.812-18.382,18.382l-3.342,0.557h-3.899c0,2.601,1.671,3.899,5.013,3.899h3.342
			c5.477,0,16.245-2.041,32.307-6.127c-11.512,8.171-22.653,12.255-33.421,12.255c-8.542,0-12.811-2.599-12.811-7.799v-2.229
			c0-5.848,4.826-13.459,14.482-22.838C161.504,439.708,164.289,438.594,166.517,438.594z M152.592,459.203
			c6.497-1.483,12.067-5.57,16.71-12.254v-1.671l-1.114-1.114c-5.757,0-11.141,5.014-16.154,15.039H152.592z"/>
		<path fill="#2E2E2E" stroke="#2D2E2E" stroke-miterlimit="10" d="M202.234,435.391c1.856,0,3.527,1.114,5.013,3.343v1.114
			l-1.671,1.67l-0.557-0.557c-5.479,0.466-8.449,1.58-8.912,3.342c2.413,3.715,7.611,8.543,15.597,14.483
			c1.484,2.507,2.228,4.55,2.228,6.127v1.671c0,4.828-3.714,7.986-11.141,9.47h-1.671c-4.456-0.927-6.684-3.155-6.684-6.685v-1.113
			l1.671-1.672h0.557c0.37,2.601,2.413,3.899,6.127,3.899c3.712-1.021,5.57-2.876,5.57-5.57c0-1.299-4.456-5.383-13.369-12.255
			c-3.342-3.99-5.013-6.963-5.013-8.912C189.979,439.848,194.063,437.063,202.234,435.391z"/>
		<path fill="#2E2E2E" stroke="#2D2E2E" stroke-miterlimit="10" d="M230.708,397.514h1.671c1.856,0,2.785,4.828,2.785,14.482v3.899
			h0.557l15.597-3.343h6.127c4.456,0,8.54,2.785,12.254,8.355v1.114h-0.557c-3.529-2.97-7.056-4.456-10.583-4.456
			c-16.341,1.671-24.509,4.086-24.509,7.241c-3.342,26.367-5.013,43.635-5.013,51.803v2.229h0.557v-1.671h1.114v3.898
			c0,2.601-1.114,3.899-3.342,3.899c-2.6-1.114-3.899-2.97-3.899-5.57v-5.013c0-9.283,1.671-25.809,5.013-49.575h-0.557
			l-15.04,2.785h-3.342l-2.228-2.228c0-1.578,7.241-3.991,21.724-7.242v-11.697l-0.557-5.013
			C229.128,398.814,229.872,397.514,230.708,397.514z"/>
		<path fill="#2E2E2E" stroke="#2D2E2E" stroke-miterlimit="10" d="M268.93,441.24h1.672c0.742,0,1.482,1.113,2.227,3.342
			c-0.744,1.671-1.113,4.086-1.113,7.241v1.114c0,7.428,4.641,11.141,13.926,11.141h3.342c2.041,0,5.197-0.742,9.469-2.229h0.559
			c-6.594,4.828-12.721,7.241-18.383,7.241h-1.67c-5.293,0-9.191-2.97-11.699-8.913c-5.478,7.799-10.491,11.698-15.039,11.698
			h-2.785c-4.086-0.742-6.127-2.785-6.127-6.128v-3.342c2.041-10.025,7.054-15.039,15.04-15.039l0.557-0.557l6.685,1.67v-0.557
			C265.589,444.77,266.702,442.541,268.93,441.24z M248.878,464.078v0.557l1.671,1.671h0.557c4.735,0,9.004-4.642,12.812-13.925
			h-0.557c-7.52,0-12.163,2.784-13.925,8.354L248.878,464.078z"/>
		<path fill="#2E2E2E" stroke="#2D2E2E" stroke-miterlimit="10" d="M295.456,439.848h1.114l1.114,1.113v1.114
			c-3.714,11.698-5.57,19.312-5.57,22.838v5.57l1.114,1.114c6.591-5.85,12.718-13.647,18.382-23.395l2.228-0.558h0.558l2.228,2.785
			l-1.671,11.697c0,2.228,1.299,4.271,3.899,6.128h7.241l13.368-1.115v1.115l-16.711,5.569h-3.342c-5.57,0-8.912-3.712-10.026-11.14
			c-7.335,9.656-12.72,14.482-16.153,14.482h-2.785c-2.973-1.95-4.456-5.105-4.456-9.47c0-6.685,2.041-15.04,6.127-25.065
			L295.456,439.848z"/>
		<path fill="#2E2E2E" stroke="#2D2E2E" stroke-miterlimit="10" d="M349.553,435.67c4.826,0,7.147,1.579,6.963,4.734
			c-0.188,3.157-2.879,3.436-8.077,0.836c-9.841,3.25-14.761,7.752-14.761,13.508l-0.557,15.317v0.558l1.113,1.67v4.457
			l-2.228,2.229c-3.343,0-5.014-3.9-5.014-11.698l1.114-11.976c-1.114,0-1.671-0.37-1.671-1.114v-1.114
			c1.855-4.547,3.342-10.49,4.456-17.824l0.557-0.557h1.114c1.114,0,1.671,2.6,1.671,7.798
			C339.433,437.945,344.541,435.67,349.553,435.67z"/>
		<path fill="#2E2E2E" stroke="#2D2E2E" stroke-miterlimit="10" d="M384.017,441.24h1.671c0.742,0,1.483,1.113,2.228,3.342
			c-0.744,1.671-1.113,4.086-1.113,7.241v1.114c0,7.428,4.641,11.141,13.925,11.141h3.343c2.041,0,5.197-0.742,9.469-2.229h0.558
			c-6.593,4.828-12.721,7.241-18.382,7.241h-1.671c-5.292,0-9.191-2.97-11.698-8.913c-5.479,7.799-10.491,11.698-15.039,11.698
			h-2.785c-4.086-0.742-6.127-2.785-6.127-6.128v-3.342c2.041-10.025,7.054-15.039,15.039-15.039l0.558-0.557l6.684,1.67v-0.557
			C380.675,444.77,381.789,442.541,384.017,441.24z M363.965,464.078v0.557l1.671,1.671h0.557c4.734,0,9.004-4.642,12.812-13.925
			h-0.557c-7.521,0-12.163,2.784-13.926,8.354L363.965,464.078z"/>
		<path fill="#2E2E2E" stroke="#2D2E2E" stroke-miterlimit="10" d="M407.06,427.593h1.672c1.113,0.372,1.671,1.486,1.671,3.343
			v2.785l-2.229,26.736v0.557h0.558c3.62-15.225,6.775-22.838,9.469-22.838h0.558c4.456,0,6.684,7.242,6.684,21.725
			c3.063,15.969,6.591,23.951,10.584,23.951c1.113,0,3.154-1.299,6.127-3.898v0.557c-2.693,4.456-5.479,6.684-8.355,6.684h-1.114
			c-7.056,0-11.697-12.996-13.925-38.99h-0.558c-5.013,19.404-8.355,30.544-10.026,33.42l-1.671,1.115h-1.671
			c-2.229-1.021-3.342-3.434-3.342-7.242C403.44,443.562,405.296,427.593,407.06,427.593z"/>
		<path fill="#2E2E2E" stroke="#2D2E2E" stroke-miterlimit="10" d="M446.677,397.514h1.671c1.856,0,2.785,4.828,2.785,14.482v3.899
			h0.558l15.597-3.343h6.127c4.456,0,8.54,2.785,12.254,8.355v1.114h-0.557c-3.529-2.97-7.057-4.456-10.583-4.456
			c-16.341,1.671-24.51,4.086-24.51,7.241c-3.342,26.367-5.013,43.635-5.013,51.803v2.229h0.557v-1.671h1.114v3.898
			c0,2.601-1.114,3.899-3.342,3.899c-2.601-1.114-3.899-2.97-3.899-5.57v-5.013c0-9.283,1.671-25.809,5.014-49.575h-0.558
			l-15.039,2.785h-3.343l-2.228-2.228c0-1.578,7.241-3.991,21.724-7.242v-11.697l-0.557-5.013
			C445.097,398.814,445.842,397.514,446.677,397.514z"/>
	</g>
</g>
<g id="_x29_">
	<g>
		<path fill="#231F20" d="M513.541,497.815c0-0.004,0.004-0.008,0.004-0.008c0.016-0.375,0.033-0.729,0.033-1.015
			c0-0.032,0-0.065,0-0.101c-0.004-0.268-0.004-0.534,0.004-0.795c0.02-0.86,0.107-1.651,0.494-2.164l-0.531,4.076L513.541,497.815"
			/>
		<g>
			<polyline fill="#231F20" points="492.252,549.138 493.066,548.187 493.154,548.212 492.301,549.122 492.252,549.138 			"/>
			<path fill="#231F20" d="M507.685,521.388l0.289-1.203c0.275-0.045,0.549,0.063,0.844-0.473l0.021-1.24
				c1.125-1.533,1.324-3.438,1.475-5.324l-0.639,0.701c-0.107,0.603-0.082,0.918,0.037,0.918c0.068,0,0.17-0.107,0.297-0.326
				c-0.98,1.92-1.553,3.787-2.035,5.744l-0.094,0.021c0.639-3.542,1.031-7.391,1.109-10.742c0.357-0.301,0.727-0.367,1.092-0.424
				l0,0c-0.365,0.057-0.734,0.123-1.092,0.424l0.023-1.382c0.096-0.713,0.248-1.366,0.412-2.026
				c0.314-1.033,0.635-2.099,0.941-3.291c0.482-1.565-0.459-3.648-0.402-6.164c-0.064-0.404,0.859-0.215,0.73-1.023
				c-0.078-1.872-0.365-3.479-0.238-5.195c-0.152-0.802,0.971-1.977,0.807-2.783c-0.107-1.468-0.779-4.725-1.1-4.725
				c-0.09,0-0.148,0.249-0.162,0.854c-0.057,4.187,0.006,6.938-0.168,10.681c-0.094-3.371-0.18-6.878-0.008-10.946
				c0.119-2.589,0.684-5.99,0.568-9.201c-0.402-4.396-1.285-8.982-1.293-14.268c0.289-19.895-1.191-37.285-1.252-55.928
				c-0.178-3.591-0.615-6.753-0.68-9.761c-0.125-6.02-1.422-12.381-2.592-18.414c-1.154-6.047-2.18-11.767-1.594-16.904
				c0.357-3.541-0.604-8.278-1.619-11.166c-0.561-1.605-1.1-2.648-1.373-2.648c-0.168,0-0.24,0.374-0.172,1.225
				c-0.615-4.717-1.732-7.892-2.523-10.542c-0.861-2.847-1.367-5.101-0.811-8.17c0.025-0.227,0.527-1.752,1.619-2.332
				c0.252-0.131,0.539-0.215,0.861-0.215c1.063,0,2.506,0.887,4.33,3.771c1.27,3.004,3.094,7.427,4.607,11.987
				c1.529,4.556,2.758,9.235,3.201,12.604c1.064,8.79,2.371,16.947,3.479,25.121c1.096,8.162,1.982,16.324,2.033,24.886
				c0.051,8.583-0.031,17.289-0.137,26.331l-0.242,23.997c-0.133,7.779-0.17,15.484-0.656,23.531
				c-0.137,2.498-0.305,4.941-0.506,7.359l0,0l-0.324,3.694c-0.035,0.089-0.072,0.196-0.109,0.323l0.094-0.164l-0.086,0.877
				c-0.504,0.693-0.463,1.875-0.434,3.066c0.004,0.293-0.004,0.649-0.012,1.029c-0.189,1.621-0.396,3.236-0.625,4.863l-0.045-0.355
				l0.006-0.246l0.529-4.076c-0.387,0.513-0.475,1.304-0.494,2.164c-0.021,0.32-0.031,0.632-0.035,0.939
				c-0.102,0.432-0.234,0.795-0.391,1.117c0.084-0.115,0.166-0.199,0.232-0.199s0.119,0.077,0.152,0.277v0.021l-0.012,0.762
				l-0.313,2.123c-0.117,0.373-0.271,0.744-0.482,1.101c-0.174,0.49-0.006,0.778,0.123,1.177c-0.791,4.857-1.771,9.797-3.127,14.973
				C509.734,518.192,508.406,520.707,507.685,521.388 M513.154,497.956c-0.16,0.227-0.326,0.579-0.424,0.706
				C512.879,498.461,513.025,498.22,513.154,497.956 M513.779,482.265c0,0.504,0.381,1.076,0.381,1.637
				C514.16,483.341,513.779,482.769,513.779,482.265 M515.16,481.433l-0.502,0.813l0,0L515.16,481.433L515.16,481.433
				 M514.74,480.04L514.74,480.04c0.506-1.1,0.924-2.366,0.559-3.889C514.818,477.358,514.609,478.866,514.74,480.04L514.74,480.04
				 M510.01,514.438c0.041-0.078,0.078-0.151,0.119-0.229C510.088,514.295,510.047,514.373,510.01,514.438 M513.545,497.808v-0.969
				c0.012-0.049,0.021-0.097,0.031-0.146c0,0.035,0,0.068,0,0.102C513.578,497.08,513.558,497.433,513.545,497.808 M499.947,347.42
				c-0.057-0.398-0.098-0.74-0.123-1.027C499.869,346.729,499.91,347.068,499.947,347.42"/>
		</g>
		<path fill="#231F20" d="M500.418,536.056c0.469-0.672,0.922-1.348,1.287-2.139c1.152-2.9,1.891-5.746,2.598-8.684
			c1.109-3.53,1.654-6.18,2.527-10.211c0.127-0.564,0.23-0.799,0.316-0.799c0.322,0,0.367,3.338,0.137,4.813
			c-0.016,0.816-1.371,1.693-1.402,2.496c-0.521,1.626-0.641,3.236-1.057,5.046c-0.088,0.81-0.932,0.371-0.979,0.772
			c-0.725,2.364-0.473,4.623-1.436,5.949C501.724,534.317,501.084,535.212,500.418,536.056"/>
		<path fill="#231F20" d="M493.648,548.376c-0.197,0-0.326-0.104-0.494-0.164c1.395-1.475,2.768-2.873,4.48-4.191
			c-0.16,0.107-0.275,0.158-0.348,0.158c-0.166,0-0.064-0.307,0.328-0.854l0.885-0.379c-0.938,1.664-2.004,3.324-3.744,4.164
			c0.004,0.002-0.408,0.734-0.623,1.09C493.927,548.331,493.775,548.376,493.648,548.376"/>
		<path fill="#231F20" d="M506.867,529.749l0.004-0.016c0.037-0.236-0.004-0.322-0.084-0.322c-0.066,0-0.16,0.057-0.26,0.134
			c0.244-0.265,0.479-0.59,0.693-0.979L506.867,529.749"/>
		<polyline fill="#231F20" points="506.635,530.493 506.867,529.749 506.808,530.114 506.635,530.493 		"/>
		<path fill="#231F20" d="M507.22,528.563c0.195-0.639,0.408-1.291,0.717-1.944C507.756,527.41,507.51,528.049,507.22,528.563"/>
		<path fill="#231F20" d="M505.922,530.106c0.006-0.008,0.014-0.012,0.021-0.021C505.935,530.095,505.927,530.099,505.922,530.106
			 M505.943,530.086c0.131-0.103,0.379-0.381,0.584-0.542C506.334,529.757,506.136,529.938,505.943,530.086"/>
		<path fill="#231F20" d="M504.617,534.54c0.014-0.428-0.063-0.762,0.266-1.17c0.326-0.281,0.582-0.594,0.813-0.92
			C505.349,533.155,504.978,533.849,504.617,534.54"/>
	</g>
	<g>
		<path fill="#2E2E2E" stroke="#2D2E2E" stroke-miterlimit="10" d="M513.541,497.815c0-0.004,0.004-0.008,0.004-0.008
			c0.016-0.375,0.033-0.729,0.033-1.015c0-0.032,0-0.065,0-0.101c-0.004-0.268-0.004-0.534,0.004-0.795
			c0.02-0.86,0.107-1.651,0.494-2.164l-0.531,4.076L513.541,497.815"/>
		<g>
			<polyline fill="#2E2E2E" stroke="#2D2E2E" stroke-miterlimit="10" points="492.252,549.138 493.066,548.187 493.154,548.212 
				492.301,549.122 492.252,549.138 			"/>
			<path fill="#2E2E2E" stroke="#2D2E2E" stroke-miterlimit="10" d="M507.685,521.388l0.289-1.203
				c0.275-0.045,0.549,0.063,0.844-0.473l0.021-1.24c1.125-1.533,1.324-3.438,1.475-5.324l-0.639,0.701
				c-0.107,0.603-0.082,0.918,0.037,0.918c0.068,0,0.17-0.107,0.297-0.326c-0.98,1.92-1.553,3.787-2.035,5.744l-0.094,0.021
				c0.639-3.542,1.031-7.391,1.109-10.742c0.357-0.301,0.727-0.367,1.092-0.424l0,0c-0.365,0.057-0.734,0.123-1.092,0.424
				l0.023-1.382c0.096-0.713,0.248-1.366,0.412-2.026c0.314-1.033,0.635-2.099,0.941-3.291c0.482-1.565-0.459-3.648-0.402-6.164
				c-0.064-0.404,0.859-0.215,0.73-1.023c-0.078-1.872-0.365-3.479-0.238-5.195c-0.152-0.802,0.971-1.977,0.807-2.783
				c-0.107-1.468-0.779-4.725-1.1-4.725c-0.09,0-0.148,0.249-0.162,0.854c-0.057,4.187,0.006,6.938-0.168,10.681
				c-0.094-3.371-0.18-6.878-0.008-10.946c0.119-2.589,0.684-5.99,0.568-9.201c-0.402-4.396-1.285-8.982-1.293-14.268
				c0.289-19.895-1.191-37.285-1.252-55.928c-0.178-3.591-0.615-6.753-0.68-9.761c-0.125-6.02-1.422-12.381-2.592-18.414
				c-1.154-6.047-2.18-11.767-1.594-16.904c0.357-3.541-0.604-8.278-1.619-11.166c-0.561-1.605-1.1-2.648-1.373-2.648
				c-0.168,0-0.24,0.374-0.172,1.225c-0.615-4.717-1.732-7.892-2.523-10.542c-0.861-2.847-1.367-5.101-0.811-8.17
				c0.025-0.227,0.527-1.752,1.619-2.332c0.252-0.131,0.539-0.215,0.861-0.215c1.063,0,2.506,0.887,4.33,3.771
				c1.27,3.004,3.094,7.427,4.607,11.987c1.529,4.556,2.758,9.235,3.201,12.604c1.064,8.79,2.371,16.947,3.479,25.121
				c1.096,8.162,1.982,16.324,2.033,24.886c0.051,8.583-0.031,17.289-0.137,26.331l-0.242,23.997
				c-0.133,7.779-0.17,15.484-0.656,23.531c-0.137,2.498-0.305,4.941-0.506,7.359l0,0l-0.324,3.694
				c-0.035,0.089-0.072,0.196-0.109,0.323l0.094-0.164l-0.086,0.877c-0.504,0.693-0.463,1.875-0.434,3.066
				c0.004,0.293-0.004,0.649-0.012,1.029c-0.189,1.621-0.396,3.236-0.625,4.863l-0.045-0.355l0.006-0.246l0.529-4.076
				c-0.387,0.513-0.475,1.304-0.494,2.164c-0.021,0.32-0.031,0.632-0.035,0.939c-0.102,0.432-0.234,0.795-0.391,1.117
				c0.084-0.115,0.166-0.199,0.232-0.199s0.119,0.077,0.152,0.277v0.021l-0.012,0.762l-0.313,2.123
				c-0.117,0.373-0.271,0.744-0.482,1.101c-0.174,0.49-0.006,0.778,0.123,1.177c-0.791,4.857-1.771,9.797-3.127,14.973
				C509.734,518.192,508.406,520.707,507.685,521.388 M513.154,497.956c-0.16,0.227-0.326,0.579-0.424,0.706
				C512.879,498.461,513.025,498.22,513.154,497.956 M513.779,482.265c0,0.504,0.381,1.076,0.381,1.637
				C514.16,483.341,513.779,482.769,513.779,482.265 M515.16,481.433l-0.502,0.813l0,0L515.16,481.433L515.16,481.433
				 M514.74,480.04L514.74,480.04c0.506-1.1,0.924-2.366,0.559-3.889C514.818,477.358,514.609,478.866,514.74,480.04L514.74,480.04
				 M510.01,514.438c0.041-0.078,0.078-0.151,0.119-0.229C510.088,514.295,510.047,514.373,510.01,514.438 M513.545,497.808v-0.969
				c0.012-0.049,0.021-0.097,0.031-0.146c0,0.035,0,0.068,0,0.102C513.578,497.08,513.558,497.433,513.545,497.808 M499.947,347.42
				c-0.057-0.398-0.098-0.74-0.123-1.027C499.869,346.729,499.91,347.068,499.947,347.42"/>
		</g>
		<path fill="#2E2E2E" stroke="#2D2E2E" stroke-miterlimit="10" d="M500.418,536.056c0.469-0.672,0.922-1.348,1.287-2.139
			c1.152-2.9,1.891-5.746,2.598-8.684c1.109-3.53,1.654-6.18,2.527-10.211c0.127-0.564,0.23-0.799,0.316-0.799
			c0.322,0,0.367,3.338,0.137,4.813c-0.016,0.816-1.371,1.693-1.402,2.496c-0.521,1.626-0.641,3.236-1.057,5.046
			c-0.088,0.81-0.932,0.371-0.979,0.772c-0.725,2.364-0.473,4.623-1.436,5.949C501.724,534.317,501.084,535.212,500.418,536.056"/>
		<path fill="#2E2E2E" stroke="#2D2E2E" stroke-miterlimit="10" d="M493.648,548.376c-0.197,0-0.326-0.104-0.494-0.164
			c1.395-1.475,2.768-2.873,4.48-4.191c-0.16,0.107-0.275,0.158-0.348,0.158c-0.166,0-0.064-0.307,0.328-0.854l0.885-0.379
			c-0.938,1.664-2.004,3.324-3.744,4.164c0.004,0.002-0.408,0.734-0.623,1.09C493.927,548.331,493.775,548.376,493.648,548.376"/>
		<path fill="#2E2E2E" stroke="#2D2E2E" stroke-miterlimit="10" d="M506.867,529.749l0.004-0.016
			c0.037-0.236-0.004-0.322-0.084-0.322c-0.066,0-0.16,0.057-0.26,0.134c0.244-0.265,0.479-0.59,0.693-0.979L506.867,529.749"/>
		<polyline fill="#2E2E2E" stroke="#2D2E2E" stroke-miterlimit="10" points="506.635,530.493 506.867,529.749 506.808,530.114 
			506.635,530.493 		"/>
		<path fill="#2E2E2E" stroke="#2D2E2E" stroke-miterlimit="10" d="M507.22,528.563c0.195-0.639,0.408-1.291,0.717-1.944
			C507.756,527.41,507.51,528.049,507.22,528.563"/>
		<path fill="#2E2E2E" stroke="#2D2E2E" stroke-miterlimit="10" d="M505.922,530.106c0.006-0.008,0.014-0.012,0.021-0.021
			C505.935,530.095,505.927,530.099,505.922,530.106 M505.943,530.086c0.131-0.103,0.379-0.381,0.584-0.542
			C506.334,529.757,506.136,529.938,505.943,530.086"/>
		<path fill="#2E2E2E" stroke="#2D2E2E" stroke-miterlimit="10" d="M504.617,534.54c0.014-0.428-0.063-0.762,0.266-1.17
			c0.326-0.281,0.582-0.594,0.813-0.92C505.349,533.155,504.978,533.849,504.617,534.54"/>
	</g>
</g>
<g id="_x28_">
	<path fill="#2E2E2E" stroke="#2D2E2E" stroke-miterlimit="10" d="M51.058,528.347c-0.144-0.759-0.278-1.513-0.531-2.287
		c-1.084-2.729-2.18-5.285-3.193-7.983c-0.953-3.392-1.735-5.839-2.616-9.666c-0.123-0.579-0.112-0.817-0.015-0.817
		c0.331,0,1.669,2.748,2.146,4.008c0.351,0.676-0.428,2.022-0.069,2.699c0.345,1.581,1.079,2.93,1.729,4.545
		c0.373,0.664-0.559,0.799-0.371,1.137c0.758,2.238,2.375,3.69,2.507,5.199L51.058,528.347"/>
	<path fill="#2E2E2E" stroke="#2D2E2E" stroke-miterlimit="10" d="M45.597,540.325c-0.692-1.715-1.19-3.457-1.279-5.418
		c-0.002,0.264-0.05,0.395-0.13,0.395c-0.106,0-0.267-0.238-0.442-0.707l0.219-0.865c0.76,1.554,1.535,3.086,1.413,4.84l0.652,0.933
		C46.081,540.054,45.797,540.128,45.597,540.325"/>
	<path fill="#2E2E2E" stroke="#2D2E2E" stroke-miterlimit="10" d="M48.292,513.325c-0.108-0.363-0.215-0.73-0.308-1.096
		c0.223-0.164,0.516-0.201,0.533-0.758l-0.529-1.014c0.342-1.727-0.237-3.354-0.808-4.994l-0.325,0.828
		c0.125,0.505,0.26,0.762,0.366,0.762c0.073,0,0.135-0.131,0.169-0.387c-0.15,1.973,0.125,3.766,0.594,5.563l-0.073,0.06
		c-1.071-3.147-2.217-6.55-3.28-9.509c0.227-0.383,0.552-0.564,0.881-0.735c0.023,0.282,0.025,0.616,0.025,0.961
		c0-0.345-0.002-0.679-0.025-0.961c-0.329,0.171-0.654,0.353-0.881,0.735l-0.447-1.219c-0.144-0.658-0.206-1.285-0.254-1.92
		l-0.063-3.193c0.032-1.52-1.418-3.139-1.94-5.447c-0.149-0.354,0.789-0.391,0.488-1.096c-0.483-1.674-1.079-3.09-1.266-4.686
		c-0.295-0.709,0.61-1.98,0.325-2.689c-0.355-1.303-1.448-4.18-1.771-4.18c-0.093,0-0.123,0.232-0.054,0.813
		c0.529,3.881,1.068,6.404,1.676,9.865c-0.804-3.063-1.502-6.293-1.884-10.088c-0.239-2.418-0.062-5.629-0.451-8.586
		c-0.787-4.024-1.927-8.225-2.176-13.069c-0.589-18.263-2.055-34.391-0.544-51.658c0.13-3.331,0.03-6.294,0.325-9.072
		c1.173-11.113-1.306-24.023,2.498-32.914c1.988-4.861,1.872-13.022,1.11-13.022c-0.154,0-0.336,0.336-0.533,1.106
		c1.897-8.992,0.22-12.625,3.564-17.212c0.117-0.183,1.263-1.359,2.553-1.359c1.194,0,2.512,1.008,3.25,4.749
		c0.08,5.809,0.33,16.971-0.654,22.943c-2.743,15.551-1.96,29.622-3.33,44.985c-0.686,7.705-1.169,15.567-1.398,23.756
		c-0.349,15.117,0.193,28.537,0.791,43.092l0.37,6.666l0,0l0.229,3.354c-0.02,0.086-0.041,0.186-0.056,0.309l0.067-0.164
		l0.062,0.791c-0.381,0.711-0.134,1.762,0.119,2.809c0.063,0.26,0.123,0.578,0.188,0.916c0.133,1.476,0.277,2.945,0.438,4.424
		l-0.126-0.305l0.165,0.672l0.223,1.935c-0.019,0.356-0.07,0.718-0.18,1.085c-0.041,0.475,0.204,0.68,0.435,0.991
		c0.574,4.426,1.302,8.94,2.287,13.69l0,0C48.663,509.851,48.574,512.444,48.292,513.325 M45.537,503.166
		c0,0.36,0.002,0.717,0.028,1.011C45.539,503.883,45.537,503.526,45.537,503.166 M45.336,491.479
		c-0.102,0.238-0.182,0.59-0.243,0.725C45.189,491.989,45.273,491.744,45.336,491.479 M45.292,489.562
		c0.048,0.289,0.106,0.571,0.171,0.847c0,0.401-0.048,0.754-0.126,1.073c0.063-0.135,0.128-0.234,0.203-0.234
		c0.061,0,0.121,0.061,0.189,0.212l0.007,0.019l-0.056-0.215l-0.35-3.714C45.052,488.079,45.126,488.796,45.292,489.562
		 M44.814,479.347L44.814,479.347L44.814,479.347 M43.19,477.214c0,0.531,0.608,1.069,0.606,1.667
		C43.799,478.283,43.19,477.745,43.19,477.214 M44.463,476.39l-0.396,0.795l0,0L44.463,476.39L44.463,476.39 M43.884,475.183
		L43.884,475.183c0.378-1.051,0.661-2.23,0.154-3.563C43.673,472.754,43.623,474.14,43.884,475.183L43.884,475.183 M47.39,506.668
		c0.007-0.082,0.013-0.164,0.021-0.245C47.406,506.517,47.399,506.597,47.39,506.668 M45.676,491.246l-0.213-0.839
		c0-0.049,0-0.094-0.002-0.139c0.01,0.03,0.018,0.061,0.024,0.09C45.548,490.606,45.609,490.916,45.676,491.246 M39.482,352.582
		c0.064-0.329,0.128-0.613,0.188-0.855C39.612,352.006,39.549,352.291,39.482,352.582"/>
</g>
<g id="purity_of_nature">
</g>
</svg>
