<svg xmlns="http://www.w3.org/2000/svg" width="32.727" height="266.649" viewBox="0 0 32.727 266.649">
  <g id="QRNhEL.tif" transform="matrix(-0.999, 0.035, -0.035, -0.999, 32.727, 266.597)">
    <g id="Group_7" data-name="Group 7" transform="translate(0 0)">
      <g id="Group_6" data-name="Group 6">
        <path id="Path_92" data-name="Path 92" d="M2.692,0a10.073,10.073,0,0,0,.072,5.444A13.058,13.058,0,0,1,3,12.2,69,69,0,0,0,1.69,27.279C1.6,36.036,1.8,44.8,1.626,53.552c-.108,5.562-.04,11.186-.64,16.672C.2,77.391.729,84.514.436,91.647.174,97.981-.148,104.316.075,110.66a.4.4,0,0,0,.605-.093c.8-2.437.226-4.946.393-7.417-.071-.715-.036-1.431-.041-2.147,1.037-9.389.494-18.823.848-28.227.145-3.854.162-7.707.273-11.559a7.929,7.929,0,0,1,.27-2.441c.241-5,.069-10,.1-15.006.031-4.5,0-8.994.008-13.491a34.357,34.357,0,0,1,.361-7,36.273,36.273,0,0,1,.988-9.819,40.194,40.194,0,0,0-.062-8.1,5.282,5.282,0,0,1-.185-.619,4.259,4.259,0,0,0-.167-.611c-.456-1.186,0-2.472-.383-3.669A.963.963,0,0,0,2.692,0Z" transform="translate(14.166 77.132)"/>
        <path id="Path_93" data-name="Path 93" d="M2.785,84.549a6.032,6.032,0,0,1-.435-2.6c.016-15.164.251-30.333-.086-45.491-.15-6.772.028-13.557-.389-20.314C1.619,11.964,1.67,7.79,1.6,3.612A5.3,5.3,0,0,0,.4,0C-.37,1.52.182,3.133.341,4.615.772,8.647.534,12.68.726,16.707a3.653,3.653,0,0,0,.121.688A125.06,125.06,0,0,1,.9,31.928a2.845,2.845,0,0,0,.01.722,35.045,35.045,0,0,1,.517,7q-.035,20.935,0,41.871c0,1.041-.281,2.191.679,3.03A.582.582,0,0,0,2.785,84.549Z" transform="translate(21.361 70.789)"/>
        <path id="Path_94" data-name="Path 94" d="M5.624,0c-.4,2.122-.78,4.247-1.2,6.364C3.6,10.539,3.87,14.872,2.382,18.977c-.718,1.98-.034,4.278-.509,6.4-.784,3.5-.539,7.068-.368,10.58C1.746,40.865.55,45.563,0,50.352c.433.128.7-.108.934-.43a1.951,1.951,0,0,0,.186-.538A9.26,9.26,0,0,1,1.487,47.4a4.733,4.733,0,0,0,.126-.945c1.51-6.324.3-12.782.949-19.146a22.147,22.147,0,0,1,.433-2.283A33.235,33.235,0,0,1,4.48,15.382c.6-1.941-.217-4.173.774-6.137.3-1.72-.213-3.558.719-5.191C6.085,2.682,6.483,1.284,5.624,0Z" transform="translate(8.308 188.215)"/>
        <path id="Path_95" data-name="Path 95" d="M2.52,24.446A113.731,113.731,0,0,0,1.7,7.33C.724,5.94,1.259,4.342,1.113,2.839,1.025,1.918,1.04.986,1.008.06a.429.429,0,0,0-.6.17c-.7,2.609-.29,5.254-.249,7.889.067,4.349,1.119,8.611,1.056,12.98C1.2,22.294.879,23.826,2.52,24.446Z" transform="translate(20.061 63.459)"/>
        <path id="Path_96" data-name="Path 96" d="M.215,30.3a3.5,3.5,0,0,0,2.43-2.409c.7-1.768,1.83-3.3,2.231-5.275.628-3.1,1.99-6.042,2.746-9.125.922-3.759,2.3-7.409,2.708-11.3.073-.684.237-1.358.359-2.037a.6.6,0,0,0-.555-.146,1.731,1.731,0,0,0-.912,1.173c-.338,5.129-2.242,9.877-3.436,14.8-.48,1.978-1.546,3.7-1.951,5.674.46,2.072-1.324,3.4-1.68,5.2C1.561,27.949.553,28.727,0,29.842A.574.574,0,0,0,.215,30.3Z" transform="translate(7.719 234.553)"/>
        <path id="Path_97" data-name="Path 97" d="M5.6,0,4.936.487A6.738,6.738,0,0,0,3.412,4.224C2.8,7.666,2.029,11.086,1.141,14.466A30.609,30.609,0,0,0,.006,22.973.4.4,0,0,0,.551,22.9c.526-1.03.381-2.209.707-3.283a56.268,56.268,0,0,1,1.334-6.087,7.164,7.164,0,0,0,.168-1.683,3.759,3.759,0,0,1,.45-2,3.222,3.222,0,0,0,.179-.5,7.713,7.713,0,0,1,.875-2.5c.675-1.324.185-2.81.578-4.172.145-.751.793-1.228,1.029-1.929A.72.72,0,0,0,5.6,0Z" transform="translate(3.372 238.08)"/>
        <path id="Path_98" data-name="Path 98" d="M.684,29.53A59.838,59.838,0,0,0,2.039,16.814c.185-4.871.744-9.734.448-14.619A5.07,5.07,0,0,1,2.932.171L2.629,0C1.452.4,1.544,1.438,1.569,2.356c.116,4.154-.2,8.29-.395,12.432a6.023,6.023,0,0,1-.2,1.489A4.933,4.933,0,0,0,.811,17.3,35.313,35.313,0,0,1,.16,26.065a5.822,5.822,0,0,0,.072,2.977A.951.951,0,0,0,.684,29.53Z" transform="translate(21.231 174.02)"/>
        <path id="Path_99" data-name="Path 99" d="M0,.1c.757,1.943.59,3.983.554,6a18.737,18.737,0,0,0,1.222,7.423,4.788,4.788,0,0,1,.165,3.354,6.641,6.641,0,0,0,.381,5.8,1.1,1.1,0,0,0,.432-.793,2.915,2.915,0,0,0-.068-.923,6.694,6.694,0,0,1,.1-3.592A11.741,11.741,0,0,0,2.422,11.9C1.143,8.476,1.442,4.918,1.341,1.385A1.679,1.679,0,0,0,.581.059.589.589,0,0,0,0,.1Z" transform="translate(15.3 40.935)"/>
        <path id="Path_100" data-name="Path 100" d="M4.378,16.727c-.392-3.1-.268-6.28-1.614-9.22a4.269,4.269,0,0,1-.228-2.042C2.727,3.2,1.523,1.587.219,0A.942.942,0,0,0,0,.548,2.079,2.079,0,0,0,.353,1.806,7.262,7.262,0,0,1,1.629,7a71.043,71.043,0,0,1,1.557,8.589,1.525,1.525,0,0,0,.6,1.142A.521.521,0,0,0,4.378,16.727Z" transform="translate(15.185 33.436)"/>
        <path id="Path_101" data-name="Path 101" d="M.653,18.1c.266-4.4,2.354-8.536,1.8-13.062A18.145,18.145,0,0,1,2.9.17L2.688,0c-.62.1-.825.6-1.015,1.106A17.858,17.858,0,0,0,1.517,4.29,23.978,23.978,0,0,1,.245,13.375,10.178,10.178,0,0,0,.2,17.629.882.882,0,0,0,.653,18.1Z" transform="translate(19.016 203.38)"/>
        <path id="Path_102" data-name="Path 102" d="M1.037,0,.648.013c-.973,1.369-.587,2.939-.5,4.4A68.007,68.007,0,0,0,1.517,12.23a1.791,1.791,0,0,0,.628,1.13l.4-.006L2.535,9.539C1.874,6.385,1.027,3.263,1.042,0Z" transform="translate(18.526 50.164)"/>
        <path id="Path_103" data-name="Path 103" d="M.734,18.853c.084-.168.242-.334.242-.5Q.991,9.423.968.5C.968.331.8.165.718,0L.52.164C-.208,1.18.039,2.369.047,3.473.074,7.705.023,11.936.036,16.167A3.58,3.58,0,0,0,.557,18.7Z" transform="translate(23.429 155.338)"/>
        <path id="Path_104" data-name="Path 104" d="M0,3.165C1.818,4.295,1.187,6.087,1.192,7.707a.347.347,0,0,0,.428.059A2.849,2.849,0,0,1,2.332,7.2a1.087,1.087,0,0,0,.348-.267L2.705,5.1c.127-.211.382-.308.478-.547a1.187,1.187,0,0,0-.509-1.074C.145,3.779,1,1.849.834.6,1.052.178.824.046.463,0-.1.467.109,1.123.054,1.715A11.935,11.935,0,0,1,0,3.165Z" transform="translate(9.361 18.838)"/>
        <path id="Path_105" data-name="Path 105" d="M.443.034.265,0,.083.015c-.535,2.33,1.66,3.56,2.221,5.472.118.4,1.495.681,1.874-.478.133-.408.058-.891.46-1.192l-.106-.452c-2.437-.1-2.8-.338-3.327-2.255A1.544,1.544,0,0,0,.443.034Z" transform="translate(3.295 261.038)"/>
        <path id="Path_106" data-name="Path 106" d="M.56,10.922l.159.606a.508.508,0,0,0,.452-.183,2.512,2.512,0,0,0,.286-.743c.095-.353.208-.7.3-1.055a14.523,14.523,0,0,0,.452-3.465A3.2,3.2,0,0,0,2,5.2a11.58,11.58,0,0,1-.853-3.636C1.033,1.016,1.1.421.633,0,.011.363-.128.781.109,1.552c.531,1.724.371,3.58.944,5.335C1.49,8.227.685,9.566.56,10.922Z" transform="translate(16.297 66.21)"/>
        <path id="Path_107" data-name="Path 107" d="M0,2.365c1.377,1.82,1.041,4.071,1.5,6.124C2.057,8.048,1.967,7.4,2,6.8c.032-.686.053-1.359.7-1.791C2.7,3.189,1.038,1.874,1.213,0,.516.45.852,1.438.234,1.929A1.842,1.842,0,0,0,0,2.365Z" transform="translate(10.889 26.471)"/>
        <path id="Path_108" data-name="Path 108" d="M.469,13.39l.43.017c-.124-2.442,1.163-4.722.811-7.191.388-.871-.146-1.856.325-2.715Q2.1,1.833,2.161.165C2.092.111,2.022.056,1.954,0,.686.64,1.417,2.026.883,2.941.71,5.587.415,8.219.092,10.85A3.13,3.13,0,0,0,.469,13.39Z" transform="translate(17.507 221.309)"/>
        <path id="Path_109" data-name="Path 109" d="M0,3.493C.143,5.319-.157,7.238,1.1,8.829a.925.925,0,0,0,.28-.758A22.4,22.4,0,0,1,1.03,4.049c.062-.176.112-.355.162-.536s.1-.373.152-.56C1.47,1.917,2.087.794.84,0L.692.889A4.715,4.715,0,0,1,0,3.493Z" transform="translate(16.931 62.717)"/>
        <path id="Path_110" data-name="Path 110" d="M.066,0A22.939,22.939,0,0,0,1.558,9.539c.464-1.251-.212-2.356-.531-3.462C.451,4.081.671,1.976.066,0Z" transform="translate(19.503 50.164)"/>
        <path id="Path_111" data-name="Path 111" d="M.466,4.451c.485-.294.413-.775.4-1.237C.716,2.589.391,1.95,1,1.38l.3.5.344-.522C1.89.945,1.991.44,1.563.183A.891.891,0,0,0,.168.6C.064,1.9-.274,3.217.466,4.451Z" transform="translate(8.894 17.552)"/>
        <path id="Path_112" data-name="Path 112" d="M1.2.2C.5-.143.034-.124.057.873.08,1.808.022,2.745,0,3.681l.028-.034A.347.347,0,0,0,.475,3.7C.946,3.048.9,2.065,1.756,1.666A.707.707,0,0,0,2,1.245Z" transform="translate(12.385 31.279)"/>
        <path id="Path_113" data-name="Path 113" d="M1.459,1.873c.869-.5,1.529-.576,1.476.764C3.558,2.006,4.029,1.27,2.659,1.2,1.617,1.141,1.278-.091,0,.005Z" transform="translate(7.603 16.275)"/>
        <path id="Path_114" data-name="Path 114" d="M.457,2.815l1.225,1.04C1.5,2.379,1.523.9.2,0A.507.507,0,0,0,0,.427c.1.644.383,1.25.425,1.908A3.352,3.352,0,0,1,.457,2.815Z" transform="translate(3.977 3.635)"/>
        <path id="Path_115" data-name="Path 115" d="M.413,0,0,.014C.537,1.5.23,3.2,1.126,4.592a.36.36,0,0,0,.518-.061c.682-1.253-.466-2.276-.415-3.451C1.1.61,1.123.017.413,0Z" transform="translate(12.413 34.913)"/>
        <path id="Path_116" data-name="Path 116" d="M2.678,2.264C2.744.9,1.819.4.779,0,.548.192.15.05,0,.4L.779,1.523c.759-.2.8.6,1.207.9A.611.611,0,0,0,2.678,2.264Z" transform="translate(0.73 1.011)"/>
        <path id="Path_117" data-name="Path 117" d="M0,.738.395,1.876a.994.994,0,0,0,1.194.058A2.657,2.657,0,0,0,1.5.043C.795-.189.536.581,0,.738Z" transform="translate(12.034 21.576)"/>
        <path id="Path_118" data-name="Path 118" d="M.056.423,0,4.572l.264.134A.687.687,0,0,0,.7,4.329C1.082,3.183.772,1.962,1.059.8A.926.926,0,0,0,.742,0L.364,0Z" transform="translate(13.876 187.791)"/>
        <path id="Path_119" data-name="Path 119" d="M.73,1.413l.779-.4c-.436-.278-.4-1.129-1.154-1C.227.036.071.252.04.4-.079.965.045,1.4.73,1.413Z"/>
        <path id="Path_120" data-name="Path 120" d="M1.458.253.364.264,0,.745C1.115.517,2.156.466,2.575,1.873c.462-.279.212-.786.363-1.163A.981.981,0,0,0,2.183,0C1.952.113,1.651.024,1.458.253Z" transform="translate(12.064 23.188)"/>
        <path id="Path_121" data-name="Path 121" d="M1.217.119.661.106A.469.469,0,0,0,0,.173l1.155,1.54a.367.367,0,0,0,.429.028C1.423,1.3,1.7,1.066,2,.843A2.236,2.236,0,0,1,1.989.479Z" transform="translate(2.191 3.156)"/>
        <path id="Path_122" data-name="Path 122" d="M.488,3.027c1.034-.5.552-1.543.8-2.328-.02-.233-.041-.465-.06-.7L.846,0c-.6.6-.339,1.53-.8,2.186C-.119,2.638.179,2.836.488,3.027Z" transform="translate(10.817 25.773)"/>
        <path id="Path_123" data-name="Path 123" d="M.683,1.491l.661-.067C1.3.858,1.207.264.631.043.117-.154.115.376,0,.7Z" transform="translate(1.508 1.837)"/>
        <path id="Path_124" data-name="Path 124" d="M.369.015A2.672,2.672,0,0,0,.01,0C-.1,1.344.828,1.444,1.772,1.528a.152.152,0,0,1,.192,0,.849.849,0,0,0-.3-.886A2.525,2.525,0,0,0,.369.015Z" transform="translate(13.529 39.503)"/>
        <path id="Path_125" data-name="Path 125" d="M.787,2.291l-.3-.816A1.055,1.055,0,0,0,.341,0,2.442,2.442,0,0,1,.035.036,3.417,3.417,0,0,0,.372,2.328Z" transform="translate(10.517 26.508)"/>
        <path id="Path_126" data-name="Path 126" d="M.387,0C-.278.835.132,1.8.06,2.715.653,1.87.313.909.387,0Z" transform="translate(19.156 224.81)"/>
        <path id="Path_127" data-name="Path 127" d="M.362,0C-.057.292.054.753,0,1.163.8,1.14.854.959.362,0Z" transform="translate(14.641 23.898)"/>
        <path id="Path_128" data-name="Path 128" d="M0,1.823A.692.692,0,0,0,.727,1.57L.015,0Z" transform="translate(13.522 21.618)"/>
        <path id="Path_129" data-name="Path 129" d="M.347.01.178,0,.008.012A1.411,1.411,0,0,0,1.1,1.593c.056-.078.111-.155.164-.235A1.438,1.438,0,0,0,.347.01Z" transform="translate(3.338 4.857)"/>
        <path id="Path_130" data-name="Path 130" d="M1.162,1.339l.05-.426A1.839,1.839,0,0,0,.2,0C.133.08.067.158,0,.237a1.063,1.063,0,0,0,.349.809A.884.884,0,0,0,1.162,1.339Z" transform="translate(14.191 32.523)"/>
        <path id="Path_131" data-name="Path 131" d="M11.293,2.327l.462.762.707.752a3.02,3.02,0,0,1,.154,1.67A24.277,24.277,0,0,0,13.769,15a9.581,9.581,0,0,1,.374,2.982c.083,2.49-.629,4.992.3,7.486a2.234,2.234,0,0,1-.43,2.477,2.348,2.348,0,0,0,.014.311c.283,1.958.03,4.012.912,5.861.626,1.314-.444,2.248-.611,3.383-1.309,4.151.336,8.3.013,12.458-.234,3.022-.7,6.015-.948,9.023-.234,2.831-.785,5.634-.773,8.488.014,3.172-.017,6.345.007,9.516.14,18.265-.391,36.526-.458,54.789a73.706,73.706,0,0,1-1.2,10.493q-.045,3.8-.091,7.591c.015.263.031.525.046.789-.258,1.978-.342,3.975-.48,5.962A8.676,8.676,0,0,1,9.2,160.881c-.561,1.889-.093,3.875-.521,5.774-.173,1.437-.015,2.949-.913,4.228a2.107,2.107,0,0,0-.172.566,11.354,11.354,0,0,1-.221,2.373,12.927,12.927,0,0,1-.393,3.435c-.4,4.788-.133,9.582-.152,14.371a25.756,25.756,0,0,1-1.113,6.664c-.315.47-.09,1.082-.395,1.555a.461.461,0,0,0-.086.295l.053.834c-.323.545-.764,1-1.12,1.521-.9,1.417.078,3.144-.731,4.576a24.5,24.5,0,0,1-.758,2.688l.006-.009a10.251,10.251,0,0,0-.706,2.034l-.095,1.776a49.331,49.331,0,0,1-1.4,6.174c-.628,1.064-.279,2.272-.487,3.4q.208.552.415,1.1c1.155,2.781,3.051,3.027,4.87.64a6.359,6.359,0,0,0,1.273-1.81c.025-1.727,1.782-2.863,1.55-4.68-.168-2.008,1.442-3.428,1.681-5.328.384-3.041,2.135-5.743,2.217-8.872a7.425,7.425,0,0,1,.81-2.824c.647-1.251.485-2.633.631-3.967a4.022,4.022,0,0,0,.249-1.292c-.378-3.959.622-7.73,1.491-11.52a12.415,12.415,0,0,1,.223-1.641c.1-3.847-.106-7.71,1.274-11.436.643-1.735.146-3.651.305-5.481.32-3.642.643-7.283,1.261-10.886.061-.376.175-.745.229-1.123a1.5,1.5,0,0,1,.353-.694l.013-.73a32.292,32.292,0,0,0,.27-6.247c0-7.093.927-14.175.584-21.249-.906-18.714-.3-37.433-.524-56.148a25.367,25.367,0,0,0-.316-3.773.244.244,0,0,0,0-.266c.227-4.983.249-9.967-.014-14.952v.006a2.583,2.583,0,0,1-.694-2.084c.238-3.819-.677-7.53-.882-11.3-.2-3.664-.489-7.319-.333-10.992-.289-3.911-1.766-7.659-1.543-11.639.031-.569.03-1.14.045-1.709-.622-3.3-.994-6.656-1.9-9.9-.307-.374-.074-.864-.264-1.264C13.1.514,12.858-.124,12.19.021c-.686.148-.8.88-.917,1.5A2.875,2.875,0,0,0,11.293,2.327Z" transform="translate(3.738 37.938)"/>
        <path id="Path_132" data-name="Path 132" d="M0,105.693a15.154,15.154,0,0,0,1-5.688c-.047-1.8.878-3.473.872-5.374q-.089-31.689.007-63.379a45.349,45.349,0,0,1,.76-6.178c.832-5.958,1.608-11.948.8-17.983-.3-2.241.228-4.407.3-6.611A.3.3,0,0,0,3.7,0c-1.047.143-.186,1.208-.743,1.589a.706.706,0,0,0-.287.757,48.627,48.627,0,0,0-.022,4.98,1.277,1.277,0,0,0-.015.345c.193.157.45.326.449.57-.009,2.865.406,5.742-.235,8.589-.4,2.921-.8,5.843-1.009,8.787-.648,7.294-.162,14.6-.291,21.9-.082,4.637-.081,9.275-.117,13.914a1.835,1.835,0,0,0-.148.924c.155,9.36-.751,18.709-.338,28.065.2,4.518-.988,8.9-.9,13.382Z" transform="translate(14.709 74.51)"/>
        <path id="Path_133" data-name="Path 133" d="M.132,42.371c.348-2.859.9-5.712,1-8.58.168-4.682.02-9.376.053-14.064C1.232,13.15,1.823,6.583,1.517,0a1.747,1.747,0,0,0-.349,1.424c.07,10-.709,20-.391,30C.893,35.1-.408,38.678.132,42.371Z" transform="translate(14.62 135.943)"/>
        <path id="Path_134" data-name="Path 134" d="M.031,9.589C.4,6.675,1.2,3.817,1.181.85A.63.63,0,0,0,1.124,0,29.3,29.3,0,0,0,.031,9.589Z" transform="translate(16.515 90.537)"/>
        <path id="Path_135" data-name="Path 135" d="M.3,8.358q.028.425.057.85c.709-2.917.287-5.863.208-8.8C.56.267.2.137,0,0,.757,2.762.265,5.57.3,8.358Z" transform="translate(17.34 82.179)"/>
        <path id="Path_136" data-name="Path 136" d="M.28,4.98A8.327,8.327,0,0,0,.3,0C.272.255.243.508.213.762a8.755,8.755,0,0,0,0,3.835Z" transform="translate(17.076 76.855)"/>
        <path id="Path_137" data-name="Path 137" d="M.341,3.835q0-1.918,0-3.835A.492.492,0,0,0,.068.12C.135,1.361-.265,2.637.341,3.835Z" transform="translate(16.947 77.618)"/>
        <path id="Path_138" data-name="Path 138" d="M.132,0C.114,1.327.083,2.654.083,3.981.077,19.208.053,34.436.092,49.663.1,53.686.433,57.71.4,61.731c-.058,8-.267,15.99-.4,23.985-.009.566.075,1.133.117,1.7A104.767,104.767,0,0,0,.824,73.9c-.046-1.015-.332-2.184.7-2.981Q1.5,61.654,1.484,52.385c-.973-.671-.665-1.713-.666-2.616Q.793,27.871.838,5.975A21.552,21.552,0,0,0,.132,0Z" transform="translate(22.465 103.117)"/>
        <path id="Path_139" data-name="Path 139" d="M.15,0C-.035,4.984-.07,9.968.164,14.952A115.755,115.755,0,0,0,.15,0Z" transform="translate(22.43 87.899)"/>
        <path id="Path_140" data-name="Path 140" d="M.279,17.745C.822,16.616.469,15.4.6,14.234c.44-.716-.131-1.6.368-2.306v0a11.568,11.568,0,0,0,1.12-4.2,32.224,32.224,0,0,1,.4-6.081c.2-.5.733-.908.44-1.555a.367.367,0,0,0-.493,0A6.8,6.8,0,0,0,1.7,3.742,18.168,18.168,0,0,1,.571,9.966a20.286,20.286,0,0,0-.411,6A1.915,1.915,0,0,0,.279,17.745Z" transform="translate(10.708 197.251)"/>
        <path id="Path_141" data-name="Path 141" d="M1.743,1.776Q1.682.889,1.624,0q-.175,1.007-.352,2.017C.9,6.105,1.114,10.2,1.15,14.3a25.425,25.425,0,0,1-.986,7.589l-.056.654c-.13.345-.2.681.139.954a10.973,10.973,0,0,0,1.435-5.411Q1.727,9.928,1.743,1.776Z" transform="translate(9.244 213.22)"/>
        <path id="Path_142" data-name="Path 142" d="M.014,19.867a8.074,8.074,0,0,0,1.122-4.305C1.156,10.376,1.13,5.188,1.122,0,.561.508.8,1.18.794,1.785.78,5.391.624,9.008.853,12.6,1.012,15.12-.139,17.4.014,19.867Z" transform="translate(9.394 215.237)"/>
        <path id="Path_143" data-name="Path 143" d="M.014,4.983.4,4.977a3.718,3.718,0,0,0,.746-2.028C1.09,2.005,1.383,1.026.891.124L.753,0C-.435,1.517.184,3.31.014,4.983Z" transform="translate(13.123 192.363)"/>
        <path id="Path_144" data-name="Path 144" d="M.436.954.3,0A4.36,4.36,0,0,0,0,2.027C.472,1.8.374,1.346.436.954Z" transform="translate(9.055 235.758)"/>
        <path id="Path_145" data-name="Path 145" d="M3.756,6.566c-.285,1.726-.812,3.417-1.176,5.083-.7,3.2-2.467,6.072-2.58,9.4.124.176.25.176.376,0C1.513,17.541,2.984,14.1,3.692,10.5,4.37,7.042,6.262,3.81,5.705.116A.277.277,0,0,0,5.272.094c.209,1.359-.4,2.545-.771,3.783C4.114,4.734,4.09,5.695,3.756,6.566Z" transform="translate(11.657 235.402)"/>
        <path id="Path_146" data-name="Path 146" d="M.1,13.01l.433.022.614-.819C.919,9.693,1.886,7.3,1.889,4.8c0-1.062.079-2.123.122-3.184C2.172,1.06,2.367.5,1.871,0A28.761,28.761,0,0,0,.1,13.01Z" transform="translate(16.825 222.485)"/>
        <path id="Path_147" data-name="Path 147" d="M5.943,0c-.29.4-.594.789-.87,1.2C3.209,3.953,1.609,3.646,0,1.218.137,3.539,1.545,4.392,3.675,3.445A8.566,8.566,0,0,0,6.017.852.559.559,0,0,0,5.943,0Z" transform="translate(4.153 260.958)"/>
        <path id="Path_148" data-name="Path 148" d="M.028,4.508.1,5.359C.492,3.492,2.366,2.155,1.965,0L1.777,0H1.589C1.427,1.631-.234,2.726.028,4.508Z" transform="translate(10.069 256.45)"/>
        <path id="Path_149" data-name="Path 149" d="M0,6.174A12.46,12.46,0,0,0,1.4,0,22.433,22.433,0,0,0,0,6.174Z" transform="translate(4.225 251.5)"/>
        <path id="Path_150" data-name="Path 150" d="M.006,2.688A3.156,3.156,0,0,0,.764,0,3.68,3.68,0,0,0,.006,2.688Z" transform="translate(6.411 245.011)"/>
        <path id="Path_151" data-name="Path 151" d="M.033,2.034A3.371,3.371,0,0,0,.739,0,2.046,2.046,0,0,0,.033,2.034Z" transform="translate(5.684 247.69)"/>
        <path id="Path_152" data-name="Path 152" d="M0,1.521A1.677,1.677,0,0,0,1.12,0,1.9,1.9,0,0,0,0,1.521Z" transform="translate(7.906 238.914)"/>
        <path id="Path_153" data-name="Path 153" d="M1.9,0,1.516.378C.846,1.589,1.4,2.99.93,4.23A2.456,2.456,0,0,0,.262,6.142a9.143,9.143,0,0,1-.126,3.9A7.781,7.781,0,0,0,.024,12.26a.972.972,0,0,0,.425.837q.292-.489.581-.98c-.1-3.579,1.25-7.027.927-10.628C1.911,1,1.914.5,1.9,0Z" transform="translate(20.674 191.263)"/>
        <path id="Path_154" data-name="Path 154" d="M1.57,24.1c1.218-.753.7-1.981.561-2.917a20.629,20.629,0,0,1-.242-3.777A23.331,23.331,0,0,0,.794,8.23C.061,6.292.464,4.211.354,2.194.313,1.457.58.658.016,0c-.044,4.213-.1,8.412,1.352,12.476a10.882,10.882,0,0,1,.126,4.313,7.172,7.172,0,0,0-.025,3.435l.118.714A4.333,4.333,0,0,1,1.57,24.1Z" transform="translate(16.183 41.779)"/>
        <path id="Path_155" data-name="Path 155" d="M.433,3.435Q.445,1.717.458,0A3.536,3.536,0,0,0,.433,3.435Z" transform="translate(17.22 58.568)"/>
        <path id="Path_156" data-name="Path 156" d="M2.462,5.707c.044.408-.014.85.366,1.148C3.315,4.37,2.008,2.439.908.444L.217,0A.771.771,0,0,0,.009.687a2.39,2.39,0,0,0,.161.478C.5,1.939,1,2.626,1.32,3.408A9.76,9.76,0,0,1,2.462,5.707Z" transform="translate(14.446 33.418)"/>
        <path id="Path_157" data-name="Path 157" d="M.4,9.315c1.114-1.6,1.029-3.52,1.305-5.323A29.863,29.863,0,0,0,1.814.071a.3.3,0,0,0-.476.111C1.212,1.821.445,3.3.206,4.916A9.018,9.018,0,0,1,.045,7.7,3.525,3.525,0,0,0,.052,8.858.841.841,0,0,0,.4,9.315Z" transform="translate(19.195 207.578)"/>
        <path id="Path_158" data-name="Path 158" d="M.9.544.8.04A.324.324,0,0,0,.322.257C.175,1.723.508,3.211.119,4.665Q.06,5.4,0,6.137q.069.809.14,1.617C.677,6.9.1,5.786.765,4.96Q.832,2.752.9.544Z" transform="translate(18.696 216.349)"/>
        <path id="Path_159" data-name="Path 159" d="M.289,4.269.6,4.262Q.654,2.619.71.974C.672.65.632.325.594,0-.426,1.355.146,2.828.289,4.269Z" transform="translate(20.412 203.386)"/>
        <path id="Path_160" data-name="Path 160" d="M0,.921Q.075,1.658.148,2.4C1.435,1.987.529.907.805.188.193-.133.193-.133,0,.921Z" transform="translate(10.858 25.588)"/>
        <path id="Path_161" data-name="Path 161" d="M.533,0C-.143.43-.164.716.4,1.836Q.466.918.533,0Z" transform="translate(9.36 18.931)"/>
        <path id="Path_162" data-name="Path 162" d="M.772,8.359c.016.147.032.294.05.44,1.088-1.018,1.43-2.2.472-3.448C.552,4.384.859,3.325.789,2.3A4.942,4.942,0,0,0,.135,0C.1.127.07.253.036.379c-.168,1.43.3,2.807.353,4.217q0,.38,0,.759c.022.233.043.465.065.7C1.181,6.735.4,7.628.772,8.359Z" transform="translate(17.632 66.19)"/>
        <path id="Path_163" data-name="Path 163" d="M.74,2.306C.713,1.526,1.83.587.427,0L0,3.855C.591,3.508.178,2.667.74,2.306Z" transform="translate(17.664 72.243)"/>
        <path id="Path_164" data-name="Path 164" d="M.6,4.217A14.239,14.239,0,0,0,.247,0C-.357,1.468.3,2.828.6,4.217Z" transform="translate(17.422 66.57)"/>
        <path id="Path_165" data-name="Path 165" d="M1.845,1.4,1.837.664C1.681.446,1.525.226,1.368.007-.363-.11.159,1.247,0,2.159c.347.31.32.753.4,1.158.6,1.172.723,2.6,1.807,3.514a3.262,3.262,0,0,0-.463-3.673C1.236,2.521,1.119,1.948,1.845,1.4Z" transform="translate(12.826 32.754)"/>
        <path id="Path_166" data-name="Path 166" d="M.049.869c.015.653.581.92.915,1.348C1.567,1.336.947.69.552,0-.112-.007-.023.436.049.869Z" transform="translate(3.635 3.998)"/>
        <path id="Path_167" data-name="Path 167" d="M1.826,3.44A16.29,16.29,0,0,0,.024,0C-.186,1.237,1.054,2.181.7,3.448c.243.459.54.833,1.133.746a.42.42,0,0,0,.4-.406C2.079,3.7,2.047,3.452,1.826,3.44Z" transform="translate(13.202 36.071)"/>
        <path id="Path_168" data-name="Path 168" d="M.74,6.871a3.248,3.248,0,0,0-.4,1.887Q.171,9.537,0,10.318A4.622,4.622,0,0,0,1.466,6.609c.045-2.2.01-4.406.009-6.609C.765,1.211,1.313,2.551,1.1,3.815.612,4.789,1.232,5.9.74,6.871Z" transform="translate(13.189 188.582)"/>
        <path id="Path_169" data-name="Path 169" d="M0,3.057C.708,2.109.212,1.015.361,0A.562.562,0,0,0,.084.089Q.043,1.573,0,3.057Z" transform="translate(13.929 192.397)"/>
        <path id="Path_170" data-name="Path 170" d="M2.027,15.272c.112-1.422-.29-2.882.305-4.269q.026-1.111.053-2.221a10.549,10.549,0,0,0,.066-3.773,2.056,2.056,0,0,1,.675-1.584A6.711,6.711,0,0,0,3.119,0a17.609,17.609,0,0,0-1,4.685,59.131,59.131,0,0,0-.489,6.573A22.529,22.529,0,0,1,.6,19.238c-1.074,3-.369,6.251-.463,9.392.68-1.482.145-3.066.371-4.586a19.843,19.843,0,0,0,.458-2.95A.958.958,0,0,0,.9,20.228Z" transform="translate(18.674 192.383)"/>
        <path id="Path_171" data-name="Path 171" d="M1.526,5.609l.408.348c-.027-.572-.008-1.259.467-1.52.614-.339.554.651,1,.787.294-1.042-.592-1.744-.742-2.658C1.682,2.121,1.452,1.175,1.172.261l0,0C.839.173.437-.248.191.211A1.422,1.422,0,0,0,.442,1.958,4.129,4.129,0,0,1,1.526,5.609Z" transform="translate(13.502 33.901)"/>
        <path id="Path_172" data-name="Path 172" d="M1.12,0Q.559,2.1,0,4.2C1.169,3.02,1.2,1.526,1.12,0Z" transform="translate(11.671 204.981)"/>
        <path id="Path_173" data-name="Path 173" d="M0,.742.007,4.166C.728,2.835.178,1.38.4,0A.756.756,0,0,0,0,.742Z" transform="translate(21.793 191.642)"/>
        <path id="Path_174" data-name="Path 174" d="M.008,2.689A3.74,3.74,0,0,0,.754,0C-.079.73-.006,1.718.008,2.689Z" transform="translate(15.405 239.279)"/>
        <path id="Path_175" data-name="Path 175" d="M.4,0C-.274.677.129,1.532.035,2.306.649,1.617.3.772.4,0Z" transform="translate(11.27 209.179)"/>
        <path id="Path_176" data-name="Path 176" d="M.066,0Q.033,1.886,0,3.773A4.612,4.612,0,0,0,.066,0Z" transform="translate(21.06 197.392)"/>
        <path id="Path_177" data-name="Path 177" d="M.033,0C-.089,1.182.066,2.18,1.526,2.306Z" transform="translate(14.64 34.162)"/>
        <path id="Path_178" data-name="Path 178" d="M.39,0C-.306.955.17,2.048.035,3.068A2.6,2.6,0,0,0,.35,3.031l.062-1.11A2.334,2.334,0,0,0,.39,0Z" transform="translate(19.152 213.359)"/>
        <path id="Path_179" data-name="Path 179" d="M0,.747q.01.961.022,1.922A2.358,2.358,0,0,0,.033,0Q.018.375,0,.747Z" transform="translate(19.542 212.612)"/>
      </g>
    </g>
  </g>
</svg>
