<svg xmlns="http://www.w3.org/2000/svg" viewBox="0 0 234.98 21.49"><defs><style>.cls-1{opacity:0.82;}.cls-2{fill:#161717;}</style></defs><g id="Layer_2" data-name="Layer 2"><g id="Layer_2-2" data-name="Layer 2"><g id="QRNhEL.tif" class="cls-1"><g id="Group_2" data-name="Group 2"><g id="Group_1" data-name="Group 1"><path id="Path_4" data-name="Path 4" class="cls-2" d="M167.07,6.65a8.89,8.89,0,0,1-4.8-.06,11.41,11.41,0,0,0-5.94-.2,61,61,0,0,1-13.28,1.15c-7.71.07-15.43-.1-23.13,0-4.9.1-9.85,0-14.69.57-6.31.68-12.58.22-18.86.48-5.58.23-11.15.52-16.74.32a.35.35,0,0,1,0-.5l0,0c2.15-.7,4.36-.2,6.53-.35.63.06,1.26,0,1.9,0C86.4,7.2,94.71,7.68,103,7.37c3.39-.13,6.79-.14,10.18-.24a7.1,7.1,0,0,0,2.15-.24c4.4-.21,8.81-.06,13.21-.09,4,0,7.92,0,11.88,0a30.24,30.24,0,0,0,6.16-.31,31.88,31.88,0,0,0,8.65-.88,35.3,35.3,0,0,1,7.12.06,3.47,3.47,0,0,0,.55.16l.54.15c1,.4,2.17,0,3.23.34A.8.8,0,0,1,167.07,6.65Z"/><path id="Path_5" data-name="Path 5" class="cls-2" d="M98.21.23a5.23,5.23,0,0,0,2.28.39c13.35,0,26.71-.23,40.06.07,6,.13,11.93,0,17.88.34,3.69.23,7.36.18,11,.25a4.7,4.7,0,0,1,3.18,1.05c-1.34.68-2.76.19-4.06,0-3.55-.37-7.1-.17-10.65-.33a4.1,4.1,0,0,1-.61-.11,111.38,111.38,0,0,0-12.79-.05,2.29,2.29,0,0,1-.64,0,31,31,0,0,0-6.16-.46q-18.44,0-36.86,0c-.92,0-1.93.25-2.67-.6A.51.51,0,0,1,98.21.23Z"/><path id="Path_6" data-name="Path 6" class="cls-2" d="M69.26,9.23c-1.87.35-3.74.68-5.6,1-3.68.73-7.49.49-11.1,1.8-1.74.63-3.77,0-5.64.45a34.17,34.17,0,0,1-9.31.32c-4.32-.21-8.46.84-12.68,1.33a.71.71,0,0,1,.38-.82,1.62,1.62,0,0,1,.48-.17,8,8,0,0,0,1.74-.32,3.85,3.85,0,0,1,.83-.11c5.57-1.33,11.26-.27,16.86-.84a19.25,19.25,0,0,0,2-.38,28.77,28.77,0,0,0,8.49-1.31c1.71-.52,3.68.2,5.4-.68,1.52-.27,3.14.19,4.58-.63C66.9,8.82,68.12,8.47,69.26,9.23Z"/><path id="Path_7" data-name="Path 7" class="cls-2" d="M157.58,1.61a101.16,101.16,0,0,1,15.07.72c1.23.86,2.63.39,4,.52.81.08,1.63.06,2.44.09a.38.38,0,0,1-.13.52h0c-2.3.62-4.62.26-6.94.22-3.83-.06-7.59-1-11.43-.93C159.48,2.78,158.13,3.06,157.58,1.61Z"/><path id="Path_8" data-name="Path 8" class="cls-2" d="M1.78,14.51A3,3,0,0,1,3.9,12.37c1.55-.62,2.9-1.61,4.64-2,2.73-.56,5.32-1.76,8-2.42,3.31-.81,6.53-2,10-2.39.6-.06,1.2-.2,1.79-.31a.49.49,0,0,1,.13.49,1.53,1.53,0,0,1-1,.8c-4.52.3-8.7,2-13,3-1.74.43-3.26,1.36-5,1.72-1.82-.4-3,1.16-4.58,1.48-1,.52-1.64,1.41-2.62,1.9A.5.5,0,0,1,1.78,14.51Z"/><path id="Path_9" data-name="Path 9" class="cls-2" d="M25.35,13.59l-.43.59a5.93,5.93,0,0,1-3.29,1.34c-3,.54-6,1.22-9,2a27.12,27.12,0,0,1-7.5,1A.35.35,0,0,1,5.19,18a15.83,15.83,0,0,1,2.89-.62,48.76,48.76,0,0,0,5.36-1.18,6.75,6.75,0,0,1,1.48-.14,3.39,3.39,0,0,0,1.77-.4,2.23,2.23,0,0,1,.43-.16,6.78,6.78,0,0,0,2.2-.77c1.17-.6,2.48-.17,3.68-.51.66-.13,1.08-.7,1.7-.91A.63.63,0,0,1,25.35,13.59Z"/><path id="Path_10" data-name="Path 10" class="cls-2" d="M55.76,2.2A52.69,52.69,0,0,1,67,1C71.24.84,75.53.35,79.83.61A4.56,4.56,0,0,0,81.61.22l.15.27c-.35,1-1.27,1-2.07.93-3.66-.1-7.3.17-11,.35A4.87,4.87,0,0,0,67.43,2a5.44,5.44,0,0,1-.9.14,31.24,31.24,0,0,0-7.72.57,5.17,5.17,0,0,1-2.62-.06A.84.84,0,0,1,55.76,2.2Z"/><path id="Path_11" data-name="Path 11" class="cls-2" d="M198.85,8a13.64,13.64,0,0,0-5.28-.49A16.37,16.37,0,0,1,187,6.46a4.17,4.17,0,0,0-2.95-.15A5.85,5.85,0,0,1,179,6a1,1,0,0,1,.7-.38,2.22,2.22,0,0,1,.81.06,5.85,5.85,0,0,0,3.16-.09,10.45,10.45,0,0,1,4.81.32c3,1.13,6.15.86,9.26,1a1.48,1.48,0,0,1,1.17.67A.52.52,0,0,1,198.85,8Z"/><path id="Path_12" data-name="Path 12" class="cls-2" d="M190.81,4.27c2.73.34,5.53.24,8.12,1.42a3.79,3.79,0,0,0,1.8.2c2-.17,3.41.89,4.81,2a.82.82,0,0,1-.48.19A1.84,1.84,0,0,1,204,7.81a6.4,6.4,0,0,0-4.57-1.12,62.54,62.54,0,0,0-7.57-1.37,1.37,1.37,0,0,1-1-.53A.47.47,0,0,1,190.81,4.27Z"/><path id="Path_13" data-name="Path 13" class="cls-2" d="M40,4.18c3.88-.24,7.52-2.08,11.5-1.59a16.3,16.3,0,0,0,4.29-.39l.15.18c-.09.55-.53.73-1,.9a15.41,15.41,0,0,1-2.8.13,21.32,21.32,0,0,0-8,1.12,8.9,8.9,0,0,1-3.74,0A.76.76,0,0,1,40,4.18Z"/><path id="Path_14" data-name="Path 14" class="cls-2" d="M190.81,4.27v.34c-1.2.86-2.59.52-3.87.44A61.64,61.64,0,0,1,180,3.85a1.61,1.61,0,0,1-1-.56V2.94h3.36a40.38,40.38,0,0,0,8.4,1.31Z"/><path id="Path_15" data-name="Path 15" class="cls-2" d="M81.61.22c.14-.07.29-.21.44-.21H97.77c.14,0,.29.15.44.22l-.15.18c-.89.64-1.94.42-2.91.41C91.42.8,87.7.84,84,.83A3.14,3.14,0,0,1,81.74.37.93.93,0,0,1,81.61.22Z"/><path id="Path_16" data-name="Path 16" class="cls-2" d="M215.61,13.25c-1-1.6-2.57-1-4-1.05a.29.29,0,0,1-.06-.37,2.72,2.72,0,0,0,.5-.63,1,1,0,0,1,.24-.31l1.62,0c.18-.11.27-.34.48-.42a1.06,1.06,0,0,1,1,.45c-.27,2.22,1.43,1.47,2.53,1.62.37-.19.49,0,.53.32-.41.5-1,.32-1.51.36A10.87,10.87,0,0,0,215.61,13.25Z"/><path id="Path_17" data-name="Path 17" class="cls-2" d="M5.11,18.2l0,.16v.16C3.07,19,2,17.06.31,16.56c-.36-.1-.6-1.31.42-1.65.36-.12.78-.05,1.05-.4l.4.09c.08,2.15.3,2.47,2,2.93A1.4,1.4,0,0,1,5.11,18.2Z"/><path id="Path_18" data-name="Path 18" class="cls-2" d="M167.07,6.65l-.54-.14a.47.47,0,0,1,.16-.4,2.3,2.3,0,0,1,.66-.25l.93-.26a12.51,12.51,0,0,1,3.05-.4,2.68,2.68,0,0,1,.78.18,10,10,0,0,0,3.2.75c.48.1,1,0,1.37.45a1,1,0,0,1-1.36.46c-1.52-.46-3.16-.32-4.7-.83C169.44,5.83,168.26,6.54,167.07,6.65Z"/><path id="Path_19" data-name="Path 19" class="cls-2" d="M209.59,11.91C208,10.69,206,11,204.2,10.59c.39-.5,1-.42,1.48-.44a1.76,1.76,0,0,0,1.58-.62c1.61,0,2.76,1.46,4.41,1.31-.4.61-1.26.32-1.7.86A1.55,1.55,0,0,1,209.59,11.91Z"/><path id="Path_20" data-name="Path 20" class="cls-2" d="M28.33,5.67l0-.38c2.15.11,4.16-1,6.34-.71.76-.34,1.63.12,2.39-.29L40,4.18l.15.18c-.56,1.12-1.78.48-2.59.95-2.33.15-4.65.41-7,.7A2.76,2.76,0,0,1,28.33,5.67Z"/><path id="Path_21" data-name="Path 21" class="cls-2" d="M176.68,6.59c-1.61-.13-3.3.14-4.7-1a.79.79,0,0,1,.67-.24,21,21,0,0,0,3.54.3l.47-.15.5-.13c.91-.11,1.9-.65,2.6.44L179,6A4.14,4.14,0,0,0,176.68,6.59Z"/><path id="Path_22" data-name="Path 22" class="cls-2" d="M190.82,4.26A20,20,0,0,1,182.42,3c1.1-.41,2.07.19,3,.47C187.22,3.93,189.07,3.73,190.82,4.26Z"/><path id="Path_23" data-name="Path 23" class="cls-2" d="M215.61,13.25c.26-.43.68-.36,1.09-.35s1.11.42,1.61-.12l-.44-.26.46-.3c.37-.22.81-.31,1,.07a.79.79,0,0,1-.14,1.1.76.76,0,0,1-.23.13C217.86,13.61,216.69,13.9,215.61,13.25Z"/><path id="Path_24" data-name="Path 24" class="cls-2" d="M207.26,9.53c.3.62.29,1-.59,1s-1.65,0-2.47.05l0,0a.31.31,0,0,1,0-.39c.57-.41,1.44-.37,1.79-1.13a.71.71,0,0,1,.37-.22Z"/><path id="Path_25" data-name="Path 25" class="cls-2" d="M219,13.52c.44-.77.51-1.35-.67-1.3.55-.55,1.2-1,1.27.24,0,.92,1.13,1.21,1,2.34Z"/><path id="Path_26" data-name="Path 26" class="cls-2" d="M229.3,17.59l-.91-1.08c1.3.16,2.6.14,3.39,1.3a.44.44,0,0,1-.38.18c-.56-.09-1.1-.34-1.68-.38Z"/><path id="Path_27" data-name="Path 27" class="cls-2" d="M204.24,10.2v.36c-1.31-.47-2.8-.2-4-1a.31.31,0,0,1,0-.44h0c1.1-.6,2,.41,3,.36C203.7,9.6,204.23,9.58,204.24,10.2Z"/><path id="Path_28" data-name="Path 28" class="cls-2" d="M232.1,18.49c1.2,0,1.64.76,2,1.68-.17.2,0,.55-.35.68l-1-.68c.17-.67-.53-.7-.79-1.07A.54.54,0,0,1,232.1,18.49Z"/><path id="Path_29" data-name="Path 29" class="cls-2" d="M215.33,10.9l-1-.35a.87.87,0,0,1-.05-1.05,2.4,2.4,0,0,1,1.67.07C216.15,10.2,215.47,10.43,215.33,10.9Z"/><path id="Path_30" data-name="Path 30" class="cls-2" d="M69.26,9.23l-3.66,0-.11-.23a.6.6,0,0,1,.33-.38c1-.34,2.08-.07,3.1-.32a.8.8,0,0,1,.7.27V9Z"/><path id="Path_31" data-name="Path 31" class="cls-2" d="M233.74,20.85l.35-.68c.24.38,1,.35.88,1,0,.12-.21.25-.34.28C234.13,21.56,233.75,21.45,233.74,20.85Z"/><path id="Path_32" data-name="Path 32" class="cls-2" d="M214.34,9.59v1l-.42.32c.2-1,.24-1.9-1-2.27.25-.4.7-.18,1-.32a.85.85,0,0,1,.62.67C214.46,9.15,214.54,9.42,214.34,9.59Z"/><path id="Path_33" data-name="Path 33" class="cls-2" d="M232.1,18.49V19a.4.4,0,0,1-.06.58l-1.35-1a.33.33,0,0,1,0-.38c.39.14.6-.1.8-.36a1.71,1.71,0,0,0,.32,0Z"/><path id="Path_34" data-name="Path 34" class="cls-2" d="M209.62,11.54c.45-.91,1.36-.49,2-.7l.62.05v.34c-.53.53-1.35.3-1.93.7C210,12.07,209.79,11.81,209.62,11.54Z"/><path id="Path_35" data-name="Path 35" class="cls-2" d="M232.05,19.56l.06-.58c.5,0,1,.12,1.21.63s-.29.45-.57.56Z"/><path id="Path_36" data-name="Path 36" class="cls-2" d="M200.18,9.26a1.62,1.62,0,0,1,0,.31c-1.19.1-1.27-.72-1.35-1.55a.14.14,0,0,0,0-.17.75.75,0,0,1,.78.27A2.22,2.22,0,0,1,200.18,9.26Z"/><path id="Path_37" data-name="Path 37" class="cls-2" d="M209.62,11.54l.72.26a.93.93,0,0,1,1.3.13,2.48,2.48,0,0,0,0,.27,3,3,0,0,1-2-.3Z"/><path id="Path_38" data-name="Path 38" class="cls-2" d="M37,4.29c-.74.58-1.59.22-2.39.28C35.39,4.05,36.24,4.35,37,4.29Z"/><path id="Path_39" data-name="Path 39" class="cls-2" d="M213.94,8.28c-.26.37-.66.27-1,.32C212.94,7.9,213.09,7.85,213.94,8.28Z"/><path id="Path_40" data-name="Path 40" class="cls-2" d="M214.34,9.59a.62.62,0,0,1,.22-.64l1.39.62Z"/><path id="Path_41" data-name="Path 41" class="cls-2" d="M230.7,18.25v.15l0,.15a1.25,1.25,0,0,1-1.39-1l.21-.15A1.28,1.28,0,0,1,230.7,18.25Z"/><path id="Path_42" data-name="Path 42" class="cls-2" d="M205.16,8l.38-.05a1.62,1.62,0,0,1,.8.89l-.21.18a1,1,0,0,1-.71-.31A.8.8,0,0,1,205.16,8Z"/><path id="Path_43" data-name="Path 43" class="cls-2" d="M199.53,8.26l-.67-.41-.67-.62a2.62,2.62,0,0,0-1.47-.13,21.5,21.5,0,0,1-8.35-1,8.31,8.31,0,0,0-2.62-.33c-2.2-.07-4.4.55-6.59-.27a2,2,0,0,0-2.18.38h-.28c-1.72-.25-3.53,0-5.16-.8-1.16-.55-2,.39-3,.54-3.65,1.15-7.31-.3-11,0-2.66.2-5.3.61-7.94.83s-5,.69-7.48.68c-2.79,0-5.58,0-8.38,0-16.08-.13-32.16.34-48.24.4a65.18,65.18,0,0,0-9.24,1l-6.68.08-.69,0c-1.75.23-3.5.3-5.25.42a7.83,7.83,0,0,0-3.77,1.1c-1.66.5-3.41.08-5.08.46-1.27.15-2.6,0-3.72.8a1.52,1.52,0,0,1-.5.15,9.68,9.68,0,0,0-2.09.2,11.46,11.46,0,0,0-3,.34c-4.21.35-8.43.12-12.65.14a22.13,22.13,0,0,0-5.87,1c-.41.27-.95.08-1.37.34a.4.4,0,0,1-.26.08l-.73-.05c-.48.29-.89.67-1.34,1-1.25.79-2.77-.07-4,.64a22,22,0,0,0-2.37.67h0a9.27,9.27,0,0,1-1.79.63l-1.57.08A42.2,42.2,0,0,0,8.1,17.77c-.94.55-2,.25-3,.43l-1-.37c-2.44-1-2.66-2.68-.56-4.29a5.72,5.72,0,0,1,1.59-1.12c1.52,0,2.52-1.56,4.12-1.36,1.77.15,3-1.27,4.7-1.48C16.65,9.24,19,7.7,21.79,7.63a6.39,6.39,0,0,0,2.48-.72,9.47,9.47,0,0,1,3.5-.55,3.4,3.4,0,0,1,1.14-.22c3.48.33,6.8-.55,10.14-1.31a11.6,11.6,0,0,0,1.44-.2c3.39-.09,6.79.09,10.07-1.13,1.53-.56,3.22-.12,4.83-.26C58.59,3,61.8,2.67,65,2.13c.33-.06.66-.16,1-.2a1.29,1.29,0,0,0,.61-.32h.65a28.88,28.88,0,0,1,5.5-.23C79,1.37,85.2.55,91.43.85c16.47.8,32.95.27,49.43.46a23.13,23.13,0,0,1,3.33.28.24.24,0,0,1,.23,0,131.28,131.28,0,0,1,13.16,0h0a2.3,2.3,0,0,0,1.84.61c3.36-.21,6.63.6,10,.77s6.44.43,9.68.3c3.44.25,6.74,1.55,10.25,1.36.5,0,1,0,1.5,0,2.9.54,5.86.87,8.72,1.67.33.27.76.06,1.11.23s1.05.37.92,1-.77.7-1.32.81A2.35,2.35,0,0,1,199.53,8.26Z"/><path id="Path_44" data-name="Path 44" class="cls-2" d="M76.31,8.54a13.4,13.4,0,0,1,5-.88c1.59,0,3.06-.77,4.73-.77q27.9.08,55.8,0a41.24,41.24,0,0,0,5.44-.67c5.25-.73,10.52-1.42,15.84-.7,2,.26,3.88-.2,5.82-.27a.27.27,0,0,1,.37,0l.05.07c-.13.92-1.06.16-1.4.65a.63.63,0,0,1-.67.26,42.66,42.66,0,0,1-4.38,0,1.51,1.51,0,0,1-.3,0c-.14-.17-.29-.4-.5-.4-2.52,0-5.06-.36-7.56.21-2.58.34-5.15.7-7.74.88-6.42.58-12.86.15-19.29.26-4.08.07-8.16.07-12.25.1a1.5,1.5,0,0,1-.81.13c-8.24-.13-16.48.66-24.71.3-4-.17-7.84.87-11.79.79Z"/><path id="Path_45" data-name="Path 45" class="cls-2" d="M78,8.5c2.51-.3,5-.78,7.55-.88,4.13-.14,8.26,0,12.39,0,5.78,0,11.57-.56,17.36-.29a1.52,1.52,0,0,1-1.25.3c-8.81-.06-17.61.63-26.42.35C84.38,7.83,81.23,9,78,8.5Z"/><path id="Path_46" data-name="Path 46" class="cls-2" d="M146.82,6.93c2.57-.33,5.08-1,7.69-1a.55.55,0,0,1,.75,0A25.87,25.87,0,0,1,146.82,6.93Z"/><path id="Path_47" data-name="Path 47" class="cls-2" d="M155.26,6l-.75,0c2.57-.62,5.17-.25,7.75-.18.13,0,.24.32.36.5C160.19,5.56,157.72,6,155.26,6Z"/><path id="Path_48" data-name="Path 48" class="cls-2" d="M162.93,6.21a7.35,7.35,0,0,1,4.38,0l-.67.08a7.71,7.71,0,0,1-3.38,0Z"/><path id="Path_49" data-name="Path 49" class="cls-2" d="M163.26,6.27h3.38a.51.51,0,0,1-.1.24C165.44,6.45,164.32,6.8,163.26,6.27Z"/><path id="Path_50" data-name="Path 50" class="cls-2" d="M144.19,1.6c-1.17,0-2.34,0-3.51,0-13.41,0-26.81,0-40.22,0-3.54,0-7.09-.3-10.63-.27-7,0-14.08.23-21.12.35-.5,0-1-.06-1.5-.1A92.84,92.84,0,0,1,79.11,1C80,1,81,1.28,81.74.38l16.32,0c.59.86,1.51.59,2.3.59q19.27,0,38.56,0A19.11,19.11,0,0,1,144.19,1.6Z"/><path id="Path_51" data-name="Path 51" class="cls-2" d="M157.59,1.61c-4.39.17-8.78.2-13.17,0A103.35,103.35,0,0,1,157.59,1.61Z"/><path id="Path_52" data-name="Path 52" class="cls-2" d="M45.68,11.82c1-.48,2.06-.17,3.09-.28.63-.39,1.41.11,2-.32h0a10.17,10.17,0,0,1,3.7-1,29,29,0,0,0,5.35-.35c.45-.18.8-.65,1.37-.39a.33.33,0,0,1,0,.44,6,6,0,0,1-3.21.64,16,16,0,0,0-5.48,1,17.76,17.76,0,0,1-5.29.37A1.69,1.69,0,0,1,45.68,11.82Z"/><path id="Path_53" data-name="Path 53" class="cls-2" d="M45.68,11.82l1.56.11-1.78.3a105.33,105.33,0,0,1-10.81.11,22.55,22.55,0,0,0-6.68.87l-.58,0c-.3.11-.6.18-.84-.12a9.64,9.64,0,0,1,4.77-1.26Q38.5,11.84,45.68,11.82Z"/><path id="Path_54" data-name="Path 54" class="cls-2" d="M28,13.21a7.12,7.12,0,0,1,3.79-1c4.57,0,9.14,0,13.7,0-.44.5-1,.29-1.57.29-3.17,0-6.36.15-9.52,0C32.15,12.33,30.14,13.34,28,13.21Z"/><path id="Path_55" data-name="Path 55" class="cls-2" d="M61.22,9.93V9.58A3.23,3.23,0,0,1,63,8.93a5.54,5.54,0,0,1,2.49.22l.11.13C64.27,10.32,62.69,9.78,61.22,9.93Z"/><path id="Path_56" data-name="Path 56" class="cls-2" d="M26.56,13.14l.84.12a3.91,3.91,0,0,1-1.79.26C25.81,13.11,26.21,13.19,26.56,13.14Z"/><path id="Path_57" data-name="Path 57" class="cls-2" d="M21.93,7.92c-1.52.25-3,.72-4.47,1-2.82.61-5.35,2.17-8.28,2.27q-.23-.17,0-.33A82,82,0,0,1,18.47,8c3.05-.6,5.89-2.26,9.14-1.77a.24.24,0,0,1,.06.34l0,0a7.67,7.67,0,0,0-3.33.67C23.54,7.61,22.7,7.63,21.93,7.92Z"/><path id="Path_58" data-name="Path 58" class="cls-2" d="M27.63,6.59l0-.38.72-.54c2.22.2,4.33-.65,6.53-.65.93,0,1.86-.07,2.8-.11.49-.14,1-.32,1.42.12A25.25,25.25,0,0,1,27.63,6.59Z"/><path id="Path_59" data-name="Path 59" class="cls-2" d="M5.21,12.6c-.35.26-.7.53-1.06.77C1.73,15,2,16.42,4.14,17.84c-2-.12-2.8-1.36-2-3.24a7.37,7.37,0,0,1,2.28-2.06.5.5,0,0,1,.7,0Z"/><path id="Path_60" data-name="Path 60" class="cls-2" d="M5.21,12.6l-.75-.06c1.64-.34,2.82-2,4.71-1.64v.33C7.74,11.37,6.78,12.83,5.21,12.6Z"/><path id="Path_61" data-name="Path 61" class="cls-2" d="M8.1,17.77a11.05,11.05,0,0,1,5.44-1.23A19.61,19.61,0,0,1,8.1,17.77Z"/><path id="Path_62" data-name="Path 62" class="cls-2" d="M16.88,15.84a2.8,2.8,0,0,1,2.37-.66A3.25,3.25,0,0,1,16.88,15.84Z"/><path id="Path_63" data-name="Path 63" class="cls-2" d="M15.1,16.46a3,3,0,0,1,1.79-.62A1.79,1.79,0,0,1,15.1,16.46Z"/><path id="Path_64" data-name="Path 64" class="cls-2" d="M23.28,14.53a1.47,1.47,0,0,1,1.34-1A1.66,1.66,0,0,1,23.28,14.53Z"/><path id="Path_65" data-name="Path 65" class="cls-2" d="M66.58,1.62,66.24,2c-1.06.59-2.3.1-3.39.52a2.17,2.17,0,0,1-1.68.59,8.1,8.1,0,0,0-3.43.11,6.77,6.77,0,0,1-2,.1.85.85,0,0,1-.73-.37l.86-.52c3.15.09,6.19-1.1,9.36-.81C65.7,1.61,66.14,1.6,66.58,1.62Z"/><path id="Path_66" data-name="Path 66" class="cls-2" d="M177,5.86c.67-1.07,1.75-.62,2.57-.5a17.65,17.65,0,0,0,3.33.22,20.49,20.49,0,0,1,8.08,1c1.7.65,3.54.29,5.31.39.65,0,1.35-.2,1.93.3-3.71,0-7.4.09-11-1.19a9.54,9.54,0,0,0-3.8-.11,6.34,6.34,0,0,1-3,0l-.62-.1A3.84,3.84,0,0,0,177,5.86Z"/><path id="Path_67" data-name="Path 67" class="cls-2" d="M180.39,6l3,0A3.09,3.09,0,0,1,180.39,6Z"/><path id="Path_68" data-name="Path 68" class="cls-2" d="M200.53,6.61c-.36,0-.75,0-1-.33,2.19-.43,3.89.73,5.65,1.69l.39.61a.69.69,0,0,1-.61.19,2.1,2.1,0,0,1-.42-.15c-.68-.29-1.29-.73-2-1A8.27,8.27,0,0,0,200.53,6.61Z"/><path id="Path_69" data-name="Path 69" class="cls-2" d="M44,4.24c1.41-1,3.1-.91,4.69-1.15A24.81,24.81,0,0,1,52.15,3a.26.26,0,0,1,0,.37l-.06,0c-1.45.12-2.75.79-4.17,1a8.06,8.06,0,0,0-2.45.15,3.17,3.17,0,0,1-1,0A.69.69,0,0,1,44,4.24Z"/><path id="Path_70" data-name="Path 70" class="cls-2" d="M44,4.24l.44.08a.28.28,0,0,1-.1.39l-.09,0c-1.29.13-2.6-.17-3.88.18l-1.3.1L37.65,4.9c.76-.47,1.74,0,2.46-.55Z"/><path id="Path_71" data-name="Path 71" class="cls-2" d="M52.14,3.27V3l2.9-.1.86.1C54.71,3.9,53.41,3.39,52.14,3.27Z"/><path id="Path_72" data-name="Path 72" class="cls-2" d="M211.64,11.93l-1.3-.13c.36-1.13,1.31-.33,1.94-.57C212.57,11.76,212.57,11.76,211.64,11.93Z"/><path id="Path_73" data-name="Path 73" class="cls-2" d="M218.31,12.78c-.38.6-.63.62-1.61.12Z"/><path id="Path_74" data-name="Path 74" class="cls-2" d="M169.34,5.29l-.39,0a2.07,2.07,0,0,1,2.88-.55l.16.13c.85.65,1.78.38,2.69.44a4.49,4.49,0,0,1,2,.58l-.33.09a24.35,24.35,0,0,1-3.72-.31H172l-.61-.06C170.77,4.93,170,5.62,169.34,5.29Z"/><path id="Path_75" data-name="Path 75" class="cls-2" d="M169.34,5.29c.69,0,1.52-1,2,.28L168,5.94C168.28,5.42,169,5.78,169.34,5.29Z"/><path id="Path_76" data-name="Path 76" class="cls-2" d="M172.65,5.63a12.26,12.26,0,0,1,3.72.31C175.07,6.47,173.88,5.89,172.65,5.63Z"/><path id="Path_77" data-name="Path 77" class="cls-2" d="M204.9,8.58h.66l.58.42c.1,1.52-1.1,1.06-1.9,1.2-.27-.31-.66-.28-1-.35-1-.53-2.29-.64-3.09-1.59a2.87,2.87,0,0,1,3.23.4C203.92,9.11,204.43,9.22,204.9,8.58Z"/><path id="Path_78" data-name="Path 78" class="cls-2" d="M230.69,18.25c-.57,0-.81-.51-1.18-.81.77-.53,1.34,0,2,.37C231.47,18.4,231.08,18.31,230.69,18.25Z"/><path id="Path_79" data-name="Path 79" class="cls-2" d="M200.19,8.26a14.35,14.35,0,0,1,3,1.59c-1.09.18-1.92-.91-3-.59-.4-.22-.73-.48-.65-1a.36.36,0,0,1,.36-.36C200,8,200.18,8.07,200.19,8.26Z"/><path id="Path_80" data-name="Path 80" class="cls-2" d="M62.88,9.23a2.81,2.81,0,0,1-1.66.35l-1.37.3a4.1,4.1,0,0,1,3.27-1.29c1.94,0,3.88,0,5.82,0-1.07.63-2.25.15-3.36.33C64.72,9.34,63.74,8.8,62.88,9.23Z"/><path id="Path_81" data-name="Path 81" class="cls-2" d="M62.88,9.23c.84-.62,1.8-.19,2.7-.32a.73.73,0,0,1-.08.25Z"/><path id="Path_82" data-name="Path 82" class="cls-2" d="M52.14,3.27c1.25-.1,2.54.25,3.76-.27l2,0a9.26,9.26,0,0,1,3.32-.06,1.82,1.82,0,0,0,1.4-.59,5.91,5.91,0,0,1,3,0,15.31,15.31,0,0,1-4.12.88,48.72,48.72,0,0,1-5.79.43,20.16,20.16,0,0,0-7,.9c-2.63,1-5.5.33-8.27.41,1.31-.6,2.7-.13,4-.33a19.22,19.22,0,0,1,2.6-.4.82.82,0,0,1,.76.07Z"/><path id="Path_83" data-name="Path 83" class="cls-2" d="M200.19,8.26l-.3-.36c.5,0,1.1,0,1.33-.41s-.57-.49-.69-.88c.92-.26,1.54.52,2.34.65.39.86,1.23,1.07,2,1.31h0c.08.29.45.65,0,.87a1.26,1.26,0,0,1-1.54-.22A3.62,3.62,0,0,0,200.19,8.26Z"/><path id="Path_84" data-name="Path 84" class="cls-2" d="M54.5,10.23l-3.7,1A4.47,4.47,0,0,1,54.5,10.23Z"/><path id="Path_85" data-name="Path 85" class="cls-2" d="M65.59,2.3h-3C63.75,1.66,65,2.14,66.24,2A.65.65,0,0,1,65.59,2.3Z"/><path id="Path_86" data-name="Path 86" class="cls-2" d="M21.93,7.92a3.29,3.29,0,0,1,2.37-.65A2.74,2.74,0,0,1,21.93,7.92Z"/><path id="Path_87" data-name="Path 87" class="cls-2" d="M50.8,11.22c-.6.6-1.35.24-2,.32C49.37,11,50.12,11.31,50.8,11.22Z"/><path id="Path_88" data-name="Path 88" class="cls-2" d="M61.18,2.89,57.86,3A4.08,4.08,0,0,1,61.18,2.89Z"/><path id="Path_89" data-name="Path 89" class="cls-2" d="M204.9,8.57c-1,.11-1.92,0-2-1.31Z"/><path id="Path_90" data-name="Path 90" class="cls-2" d="M47.12,4.29c-.84.61-1.8.19-2.7.31,0-.09,0-.18,0-.28l1-.05A2,2,0,0,1,47.12,4.29Z"/><path id="Path_91" data-name="Path 91" class="cls-2" d="M47.12,4.29l-1.69,0a2.08,2.08,0,0,1,2.35,0Z"/></g></g></g></g></g></svg>